<?xml version="1.0" standalone="no"?>
<!DOCTYPE svg PUBLIC "-//W3C//DTD SVG 20010904//EN"
 "http://www.w3.org/TR/2001/REC-SVG-20010904/DTD/svg10.dtd">
<svg version="1.0" xmlns="http://www.w3.org/2000/svg"
 width="160.000000pt" height="160.000000pt" viewBox="0 0 160.000000 160.000000"
 preserveAspectRatio="xMidYMid meet">
<metadata>
Created by potrace 1.11, written by Peter Selinger 2001-2013
</metadata>
<g transform="translate(0.000000,160.000000) scale(0.100000,-0.100000)"
fill="#000000" stroke="none">
<path d="M713 1393 c2 -18 -1 -35 -7 -37 -7 -3 -6 -5 2 -5 6 -1 12 -6 12 -12
0 -5 -4 -8 -9 -4 -5 3 -12 -21 -16 -52 -20 -197 -28 -245 -47 -269 -14 -17
-24 -22 -32 -15 -24 20 -99 17 -120 -5 -10 -9 -16 -33 -16 -57 0 -46 -3 -49
-92 -94 -27 -13 -48 -26 -48 -28 0 -3 28 -3 63 0 77 6 38 -10 -50 -20 -32 -3
-65 -13 -73 -21 -12 -12 -12 -14 4 -14 9 0 26 5 37 10 11 6 19 7 19 2 0 -11
-31 -22 -74 -27 -19 -2 -24 0 -15 6 11 7 9 9 -8 9 -12 0 -24 -4 -28 -9 -3 -5
-19 -12 -35 -16 -18 -4 -27 -11 -23 -18 4 -6 0 -8 -9 -4 -17 6 -86 -58 -75
-70 14 -14 139 -22 304 -20 l170 2 12 -44 c26 -96 93 -226 138 -266 18 -16 33
-33 33 -37 0 -5 -24 -8 -52 -8 -82 -1 -271 -25 -296 -39 -45 -24 -15 -154 39
-168 18 -5 17 -8 -13 -34 l-33 -28 88 -1 c48 0 87 4 87 9 0 17 60 19 70 2 7
-13 10 -10 16 12 5 22 11 27 25 24 16 -4 18 -1 13 19 -4 15 -2 24 6 24 6 0 8
5 5 10 -4 6 -11 7 -17 4 -7 -4 -8 -2 -4 5 4 6 11 9 16 6 5 -3 19 -1 33 4 13 5
38 12 56 14 32 5 32 5 15 -14 -9 -10 -13 -19 -9 -19 5 0 4 -5 -3 -12 -6 -6 -8
-18 -3 -27 5 -9 7 -26 6 -39 -1 -12 1 -22 4 -22 10 0 58 64 65 88 7 22 26 31
26 12 0 -5 -4 -10 -10 -10 -5 0 -7 -7 -3 -16 3 -9 -4 -27 -18 -43 -13 -15 -9
-12 9 6 28 29 32 30 32 12 0 -19 1 -19 16 -5 8 9 13 19 11 23 -3 5 -1 17 4 28
5 14 8 7 8 -27 1 -27 5 -48 10 -48 6 0 8 10 6 22 -4 21 -3 22 9 6 17 -24 30
-23 23 1 -3 14 -1 18 9 14 8 -3 12 -8 10 -12 -2 -3 2 -12 10 -19 20 -18 17 -2
-4 31 -10 15 -22 24 -25 20 -4 -3 -7 1 -7 11 0 9 4 15 9 12 14 -9 42 5 34 17
-3 6 -1 7 5 3 6 -4 9 -13 6 -20 -3 -7 2 -19 11 -26 14 -11 17 -10 22 8 7 27
11 27 43 0 14 -13 12 -9 -5 8 -18 17 -38 33 -46 36 -11 4 -10 9 5 26 14 16 23
19 37 12 26 -15 36 -12 42 10 5 18 7 19 34 5 37 -20 43 -19 43 5 0 18 3 19 21
9 15 -8 24 -8 32 0 6 6 20 11 30 11 17 0 19 5 13 33 -7 40 -48 77 -84 77 -15
0 -58 -7 -96 -15 -38 -8 -72 -12 -75 -10 -3 3 12 37 33 75 45 84 86 239 86
326 0 54 3 64 18 64 27 0 165 56 188 77 22 20 28 23 45 23 5 0 8 4 5 9 -3 5 1
14 9 21 12 10 15 10 15 0 0 -6 24 5 53 26 69 50 73 54 50 48 -12 -3 -24 0 -29
7 -5 9 -2 11 9 6 9 -3 19 -2 22 3 4 6 -23 10 -67 9 -40 -1 -64 -4 -54 -6 15
-4 16 -7 5 -14 -9 -6 -10 -9 -2 -9 6 0 15 5 18 10 3 6 18 10 33 10 21 -1 7
-11 -59 -45 -108 -54 -309 -120 -294 -95 10 16 -5 12 -31 -9 -13 -11 -48 -22
-77 -26 -28 -4 -68 -11 -87 -15 -41 -11 -298 -22 -311 -14 -14 8 23 42 64 59
43 18 65 12 45 -13 -11 -12 -8 -12 14 2 17 11 35 15 49 11 23 -8 101 13 94 25
-5 8 45 33 53 26 8 -8 62 34 62 48 0 7 8 23 19 34 21 25 56 30 48 8 -7 -18 17
-28 49 -20 32 8 22 23 -12 16 -19 -3 -25 -1 -20 7 4 6 14 11 22 11 8 0 14 5
14 11 0 7 -14 8 -41 4 -29 -5 -45 -3 -57 8 -9 9 -24 17 -32 19 -8 2 -18 7 -21
11 -4 5 -15 4 -25 -1 -26 -15 -152 -42 -191 -42 -17 0 -34 4 -38 9 -6 11 34
36 52 33 8 -2 10 4 6 15 -6 16 -5 16 10 4 15 -12 17 -12 11 3 -3 9 -1 16 5 16
6 0 11 4 11 10 0 5 -7 7 -15 4 -8 -3 -20 -2 -26 2 -9 5 -7 10 7 15 16 6 14 8
-10 8 -24 1 -27 3 -16 16 9 11 9 15 1 15 -8 0 -9 6 -4 18 10 21 9 94 -1 110
-4 7 -4 22 0 35 5 12 8 25 9 28 0 3 8 13 18 23 19 19 23 31 7 21 -5 -3 -10 -2
-10 3 0 5 -10 9 -22 8 -13 -1 -26 6 -31 14 -4 9 -6 2 -4 -17z m761 -468 c-4
-8 -10 -12 -15 -9 -11 6 -2 24 11 24 5 0 7 -7 4 -15z m-394 -151 c-13 -58 -58
-74 -52 -19 3 25 1 27 -22 21 -14 -3 -26 -2 -26 3 0 5 24 14 53 19 28 5 53 10
53 11 1 0 -2 -15 -6 -35z m-719 -17 c-10 -9 -11 -8 -5 6 3 10 9 15 12 12 3 -3
0 -11 -7 -18z m609 19 c0 -2 -7 -6 -15 -10 -8 -3 -15 -1 -15 4 0 6 7 10 15 10
8 0 15 -2 15 -4z m-93 -28 c-4 19 -1 22 21 22 21 0 24 -2 12 -10 -13 -9 -13
-11 -1 -19 12 -8 13 -12 1 -26 -10 -12 -15 -13 -21 -3 -5 8 -11 4 -20 -15 -10
-21 -10 -30 -1 -39 9 -9 15 -8 25 5 13 19 102 43 157 42 34 0 35 -1 38 -45 5
-58 -16 -226 -33 -265 -26 -61 -120 -155 -155 -154 -25 0 -25 0 -2 9 30 13 28
23 -3 18 -14 -3 -28 -1 -31 3 -3 5 -16 9 -30 9 -27 0 -28 3 -14 31 10 18 4 24
-22 20 -5 0 -8 3 -8 9 0 5 -15 10 -34 10 -29 0 -37 5 -48 30 -7 17 -17 30 -21
30 -5 0 -5 5 -2 10 4 6 1 17 -5 25 -7 9 -9 22 -5 32 14 32 1 69 -15 43 -5 -8
-11 -12 -14 -10 -2 3 3 16 13 29 l18 24 22 -22 c17 -17 25 -19 41 -11 11 6 20
13 20 17 0 13 -45 43 -57 38 -36 -14 -45 -15 -20 0 16 9 35 14 43 11 9 -3 12
-1 9 4 -3 6 -15 10 -26 10 -10 0 -19 5 -19 10 0 18 31 24 52 11 20 -13 41 -6
22 7 -20 13 -24 43 -8 59 14 15 14 17 0 25 -21 12 -37 2 -29 -19 5 -13 2 -15
-12 -9 -18 6 -18 6 -2 -12 16 -18 16 -18 -13 -14 -33 5 -36 11 -17 31 10 11 8
11 -10 2 -12 -6 -23 -14 -25 -18 -3 -5 -3 -2 -2 5 2 6 -1 12 -6 12 -6 0 -10
11 -10 25 0 29 28 45 41 24 7 -12 9 -12 9 0 0 10 17 12 80 9 48 -3 80 -1 80 5
0 6 10 -1 21 -14 l22 -24 -6 23z m118 -16 c-3 -3 -11 0 -18 7 -9 10 -8 11 6 5
10 -3 15 -9 12 -12z m-245 -22 c0 -5 -2 -10 -4 -10 -3 0 -8 5 -11 10 -3 6 -1
10 4 10 6 0 11 -4 11 -10z m-70 -80 c0 -5 -2 -10 -4 -10 -3 0 -8 5 -11 10 -3
6 -1 10 4 10 6 0 11 -4 11 -10z m568 -343 c13 3 18 -3 20 -22 1 -16 -3 -25
-11 -24 -6 1 -20 -1 -29 -5 -9 -4 -25 -3 -34 2 -16 9 -15 11 4 28 12 10 23 25
23 34 1 12 2 12 6 -1 2 -10 11 -15 21 -12z m-138 -57 c0 -5 -8 -10 -17 -10
-15 0 -16 2 -3 10 19 12 20 12 20 0z m34 2 c3 -5 -1 -9 -9 -9 -8 0 -12 4 -9 9
3 4 7 8 9 8 2 0 6 -4 9 -8z m-214 -98 c0 -8 -6 -14 -13 -14 -19 0 -27 10 -20
25 6 17 33 8 33 -11z m-280 -20 c0 -3 -7 -12 -15 -21 -10 -10 -12 -19 -7 -27
5 -6 6 -20 1 -31 -6 -17 -8 -17 -8 -2 -1 9 -5 17 -11 17 -15 0 -12 17 6 45 15
23 34 33 34 19z m155 -43 c3 -5 2 -12 -3 -15 -5 -3 -9 1 -9 9 0 17 3 19 12 6z"/>
<path d="M913 614 c0 -7 6 -10 14 -7 12 5 18 -8 14 -30 -1 -5 9 -7 21 -5 13 2
24 11 27 23 2 11 8 23 15 28 6 4 -12 7 -40 5 -32 -1 -51 -6 -51 -14z"/>
<path d="M880 469 c0 -5 -4 -8 -9 -4 -5 3 -13 0 -16 -5 -4 -7 -19 -8 -37 -5
-22 5 -29 4 -26 -6 9 -27 98 -12 98 18 0 7 -2 13 -5 13 -3 0 -5 -5 -5 -11z"/>
<path d="M838 393 c-23 -3 -38 -10 -38 -17 0 -10 10 -11 46 -5 25 5 53 13 62
18 19 11 7 12 -70 4z"/>
<path d="M858 353 c-24 -6 -23 -23 2 -23 11 0 20 7 20 15 0 8 -1 14 -2 14 -2
-1 -11 -3 -20 -6z"/>
<path d="M786 1151 c-3 -4 6 -6 19 -3 14 2 25 6 25 8 0 8 -39 4 -44 -5z"/>
<path d="M868 1083 c7 -3 16 -2 19 1 4 3 -2 6 -13 5 -11 0 -14 -3 -6 -6z"/>
<path d="M868 1063 c7 -3 16 -2 19 1 4 3 -2 6 -13 5 -11 0 -14 -3 -6 -6z"/>
<path d="M828 1053 c7 -3 16 -2 19 1 4 3 -2 6 -13 5 -11 0 -14 -3 -6 -6z"/>
<path d="M1220 990 c11 -7 8 -11 -15 -20 -15 -6 -34 -9 -42 -6 -7 3 -13 2 -13
-3 0 -5 9 -11 20 -14 11 -3 20 -1 20 4 0 5 5 9 12 9 6 0 20 8 31 18 15 12 21
14 24 5 5 -15 53 -18 53 -4 0 6 19 12 43 14 23 2 -1 4 -53 5 -62 1 -90 -2 -80
-8z m77 -6 c-3 -3 -12 -4 -19 -1 -8 3 -5 6 6 6 11 1 17 -2 13 -5z"/>
<path d="M1231 941 c-6 -10 -21 -18 -36 -18 -13 0 -41 -13 -60 -29 -20 -16
-50 -40 -68 -53 -22 -16 -26 -21 -11 -17 12 4 40 25 64 47 27 26 49 39 61 36
10 -3 27 2 38 10 29 20 26 4 -6 -29 -15 -15 -22 -28 -16 -28 6 0 18 11 26 24
9 13 23 31 32 40 20 20 43 23 27 3 -8 -10 -6 -13 8 -14 10 -1 21 5 24 13 3 8
2 13 -3 10 -5 -3 -14 1 -21 9 -11 14 -15 14 -33 -2 -19 -17 -20 -17 -14 0 8
23 0 22 -12 -2z"/>
<path d="M1335 930 c-16 -18 -16 -18 4 -13 25 6 35 19 22 27 -4 3 -16 -3 -26
-14z"/>
<path d="M1053 917 c-4 -8 -16 -17 -27 -20 -14 -6 -17 -4 -12 10 6 16 6 16 -6
3 -7 -8 -20 -21 -28 -28 -13 -11 -10 -12 15 -6 16 4 36 7 45 7 8 0 21 6 28 14
13 13 42 18 42 8 0 -3 -15 -14 -32 -25 -18 -11 -28 -20 -22 -20 6 0 23 9 38
21 22 17 24 24 15 35 -8 10 -15 12 -23 4 -13 -13 -29 -13 -21 0 3 6 4 10 1 10
-3 0 -9 -6 -13 -13z"/>
<path d="M1154 868 l-19 -23 23 19 c21 18 27 26 19 26 -2 0 -12 -10 -23 -22z"/>
<path d="M1015 866 c-15 -12 -16 -16 -5 -16 11 0 8 -6 -9 -20 -13 -11 -18 -20
-12 -20 18 0 53 40 49 56 -3 13 -5 13 -23 0z"/>
<path d="M950 841 c-14 -4 -20 -10 -15 -13 6 -3 21 0 35 8 27 14 20 16 -20 5z"/>
<path d="M853 828 c-13 -6 -23 -15 -23 -20 0 -7 31 8 59 29 10 7 -16 1 -36 -9z"/>
<path d="M915 810 c-3 -5 1 -10 10 -10 9 0 13 5 10 10 -3 6 -8 10 -10 10 -2 0
-7 -4 -10 -10z"/>
<path d="M704 99 c-10 -17 13 -36 27 -22 12 12 4 33 -11 33 -5 0 -12 -5 -16
-11z"/>
<path d="M646 13 c-6 -14 -5 -15 5 -6 7 7 10 15 7 18 -3 3 -9 -2 -12 -12z"/>
<path d="M1162 14 c10 -10 20 -16 22 -13 3 3 -5 11 -17 18 -21 13 -21 12 -5
-5z"/>
</g>
</svg>
