<?xml version="1.0" encoding="UTF-8" standalone="no"?>
<svg
   xmlns:dc="http://purl.org/dc/elements/1.1/"
   xmlns:cc="http://creativecommons.org/ns#"
   xmlns:rdf="http://www.w3.org/1999/02/22-rdf-syntax-ns#"
   xmlns:svg="http://www.w3.org/2000/svg"
   xmlns="http://www.w3.org/2000/svg"
   xmlns:sodipodi="http://sodipodi.sourceforge.net/DTD/sodipodi-0.dtd"
   xmlns:inkscape="http://www.inkscape.org/namespaces/inkscape"
   version="1.1"
   viewBox="0 0 946.50946 105.30884"
   stroke-miterlimit="10"
   id="svg91"
   sodipodi:docname="step4-modeling.svg"
   width="946.50946"
   height="105.30884"
   style="fill:none;stroke:none;stroke-linecap:square;stroke-miterlimit:10"
   inkscape:version="0.92.4 (unknown)">
  <metadata
     id="metadata97">
    <rdf:RDF>
      <cc:Work
         rdf:about="">
        <dc:format>image/svg+xml</dc:format>
        <dc:type
           rdf:resource="http://purl.org/dc/dcmitype/StillImage" />
        <dc:title></dc:title>
      </cc:Work>
    </rdf:RDF>
  </metadata>
  <defs
     id="defs95" />
  <sodipodi:namedview
     pagecolor="#ffffff"
     bordercolor="#666666"
     borderopacity="1"
     objecttolerance="10"
     gridtolerance="10"
     guidetolerance="10"
     inkscape:pageopacity="0"
     inkscape:pageshadow="2"
     inkscape:window-width="1853"
     inkscape:window-height="1025"
     id="namedview93"
     showgrid="false"
     fit-margin-top="10"
     fit-margin-left="10"
     fit-margin-right="10"
     fit-margin-bottom="10"
     inkscape:zoom="1.3111111"
     inkscape:cx="332.02117"
     inkscape:cy="211.43185"
     inkscape:window-x="67"
     inkscape:window-y="27"
     inkscape:window-maximized="1"
     inkscape:current-layer="svg91" />
  <clipPath
     id="p.0">
    <path
       d="M 0,0 H 960 V 720 H 0 Z"
       id="path2"
       inkscape:connector-curvature="0"
       style="clip-rule:nonzero" />
  </clipPath>
  <path
     style="fill:#23529e;fill-rule:evenodd"
     inkscape:connector-curvature="0"
     id="path7"
     d="m 20.147134,35.034547 v 0 c 0,-3.90521 3.165798,-7.07101 7.071007,-7.07101 H 137.73755 c 1.87535,0 3.67388,0.74499 4.99996,2.07104 1.32606,1.32608 2.07104,3.12463 2.07104,4.99997 v 28.28317 c 0,3.90522 -3.1658,7.07099 -7.071,7.07099 H 27.218141 c -3.905209,0 -7.071007,-3.16577 -7.071007,-7.07099 z" />
  <path
     style="fill:#ffffff;fill-rule:nonzero"
     inkscape:connector-curvature="0"
     id="path9"
     d="m 53.816216,36.429267 h 3.828125 q 1.125,0 1.671875,0.0937 0.5625,0.0937 1,0.40625 0.4375,0.29687 0.734375,0.79687 0.296875,0.5 0.296875,1.10938 0,0.67187 -0.359375,1.23437 -0.359375,0.5625 -0.984375,0.84375 0.875,0.25 1.34375,0.85938 0.46875,0.60937 0.46875,1.4375 0,0.65625 -0.3125,1.26562 -0.296875,0.60938 -0.828125,0.98438 -0.515625,0.35937 -1.28125,0.45309 -0.484375,0.0469 -2.328125,0.0625 h -3.25 z m 1.9375,1.59375 v 2.20312 h 1.265625 q 1.125,0 1.390625,-0.0312 0.5,-0.0625 0.78125,-0.34375 0.28125,-0.28125 0.28125,-0.73437 0,-0.45313 -0.25,-0.71875 -0.234375,-0.28125 -0.71875,-0.34375 -0.28125,-0.0312 -1.640625,-0.0312 z m 0,3.79687 v 2.54688 h 1.78125 q 1.046875,0 1.3125,-0.0625 0.4375,-0.0781 0.703125,-0.375 0.265625,-0.29688 0.265625,-0.8125 0,-0.42188 -0.203125,-0.71875 -0.203125,-0.3125 -0.609375,-0.4375 -0.390625,-0.14063 -1.703125,-0.14063 z m 12.218903,4.15622 v -1.03122 q -0.375,0.54688 -1,0.875 -0.609375,0.31247 -1.28125,0.31247 -0.703125,0 -1.265625,-0.29684 -0.546875,-0.3125 -0.796875,-0.85938 -0.234375,-0.5625 -0.234375,-1.53125 v -4.375 h 1.828125 v 3.17188 q 0,1.45312 0.09375,1.78125 0.109375,0.32812 0.375,0.53125 0.265625,0.1875 0.671875,0.1875 0.46875,0 0.84375,-0.25 0.375,-0.26563 0.5,-0.64063 0.140625,-0.39062 0.140625,-1.875 v -2.90625 h 1.828125 v 6.90622 z m 2.953857,-1.96872 1.828125,-0.28125 q 0.125,0.53125 0.484375,0.8125 0.359375,0.26563 1,0.26563 0.703125,0 1.0625,-0.25 0.25,-0.1875 0.25,-0.48438 0,-0.21875 -0.140625,-0.35937 -0.125,-0.125 -0.609375,-0.23438 -2.203125,-0.48437 -2.796875,-0.89062 -0.828125,-0.5625 -0.828125,-1.5625 0,-0.89063 0.703125,-1.5 0.71875,-0.60938 2.203125,-0.60938 1.421875,0 2.109375,0.46875 0.703122,0.45313 0.953122,1.35938 l -1.718747,0.3125 q -0.109375,-0.40625 -0.421875,-0.60938 -0.3125,-0.21875 -0.890625,-0.21875 -0.71875,0 -1.03125,0.20313 -0.203125,0.14062 -0.203125,0.35937 0,0.20313 0.1875,0.34375 0.234375,0.17188 1.6875,0.51563 1.46875,0.32812 2.062497,0.8125 0.5625,0.48437 0.5625,1.35937 0,0.95313 -0.796872,1.64063 -0.78125,0.67184 -2.34375,0.67184 -1.40625,0 -2.234375,-0.56247 -0.828125,-0.57812 -1.078125,-1.5625 z m 8.053097,-5.875 v -1.70312 h 1.828125 v 1.70312 z m 0,7.84372 v -6.90622 h 1.828125 v 6.90622 z m 9.999863,0 h -1.828125 v -3.53122 q 0,-1.10937 -0.125,-1.4375 -0.109375,-0.32812 -0.375,-0.51562 -0.265625,-0.1875 -0.640625,-0.1875 -0.46875,0 -0.859375,0.26562 -0.375,0.26563 -0.515625,0.70313 -0.140625,0.42187 -0.140625,1.57812 v 3.12497 h -1.828125 v -6.90622 h 1.703125 v 1.01563 q 0.90625,-1.17188 2.28125,-1.17188 0.609375,0 1.109375,0.21875 0.5,0.21875 0.75,0.5625 0.265625,0.32813 0.359375,0.76563 0.109375,0.42187 0.109375,1.21875 z m 5.844483,-2.20309 1.828125,0.3125 q -0.34375,1 -1.109375,1.53125 -0.765625,0.51559 -1.890625,0.51559 -1.8125,0 -2.671875,-1.17184 -0.6875,-0.95313 -0.6875,-2.39063 0,-1.71875 0.890625,-2.6875 0.90625,-0.96875 2.28125,-0.96875 1.546875,0 2.4375,1.01563 0.890625,1.01562 0.84375,3.125 h -4.578125 q 0.01563,0.8125 0.4375,1.26562 0.421875,0.45313 1.0625,0.45313 0.421875,0 0.71875,-0.23438 0.296875,-0.23437 0.4375,-0.76562 z m 0.109375,-1.84375 q -0.01563,-0.79688 -0.40625,-1.20313 -0.390625,-0.42187 -0.953125,-0.42187 -0.59375,0 -0.984375,0.4375 -0.390625,0.4375 -0.390625,1.1875 z m 2.662475,2.07812 1.828125,-0.28125 q 0.125,0.53125 0.484375,0.8125 0.359371,0.26563 1.000001,0.26563 0.70312,0 1.0625,-0.25 0.25,-0.1875 0.25,-0.48438 0,-0.21875 -0.14063,-0.35937 -0.125,-0.125 -0.60937,-0.23438 -2.203126,-0.48437 -2.796876,-0.89062 -0.828125,-0.5625 -0.828125,-1.5625 0,-0.89063 0.703125,-1.5 0.71875,-0.60938 2.203126,-0.60938 1.42187,0 2.10937,0.46875 0.70313,0.45313 0.95313,1.35938 l -1.71875,0.3125 q -0.10938,-0.40625 -0.42188,-0.60938 -0.3125,-0.21875 -0.89062,-0.21875 -0.71875,0 -1.031251,0.20313 -0.203125,0.14062 -0.203125,0.35937 0,0.20313 0.1875,0.34375 0.234375,0.17188 1.687496,0.51563 1.46875,0.32812 2.0625,0.8125 0.5625,0.48437 0.5625,1.35937 0,0.95313 -0.79687,1.64063 -0.78125,0.67184 -2.34375,0.67184 -1.406251,0 -2.234376,-0.56247 -0.828125,-0.57812 -1.078125,-1.5625 z m 7.412481,0 1.82812,-0.28125 q 0.125,0.53125 0.48438,0.8125 0.35937,0.26563 1,0.26563 0.70312,0 1.0625,-0.25 0.25,-0.1875 0.25,-0.48438 0,-0.21875 -0.14063,-0.35937 -0.125,-0.125 -0.60937,-0.23438 -2.20313,-0.48437 -2.79688,-0.89062 -0.82812,-0.5625 -0.82812,-1.5625 0,-0.89063 0.70312,-1.5 0.71875,-0.60938 2.20313,-0.60938 1.42187,0 2.10937,0.46875 0.70313,0.45313 0.95313,1.35938 l -1.71875,0.3125 q -0.10938,-0.40625 -0.42188,-0.60938 -0.3125,-0.21875 -0.89062,-0.21875 -0.71875,0 -1.03125,0.20313 -0.20313,0.14062 -0.20313,0.35937 0,0.20313 0.1875,0.34375 0.23438,0.17188 1.6875,0.51563 1.46875,0.32812 2.0625,0.8125 0.5625,0.48437 0.5625,1.35937 0,0.95313 -0.79687,1.64063 -0.78125,0.67184 -2.34375,0.67184 -1.40625,0 -2.23438,-0.56247 -0.82812,-0.57812 -1.07812,-1.5625 z" />
  <path
     style="fill:#ffffff;fill-rule:nonzero"
     inkscape:connector-curvature="0"
     id="path11"
     d="m 36.411536,52.429237 h 1.9375 v 5.17187 q 0,1.23438 0.0625,1.59375 0.125,0.59375 0.59375,0.95313 0.46875,0.34375 1.265625,0.34375 0.828125,0 1.234375,-0.32813 0.421875,-0.34375 0.5,-0.82812 0.09375,-0.48438 0.09375,-1.625 v -5.28125 h 1.921875 v 5.01562 q 0,1.71875 -0.15625,2.4375 -0.15625,0.70313 -0.578125,1.1875 -0.421875,0.48438 -1.125,0.78125 -0.703125,0.28125 -1.828125,0.28125 -1.375,0 -2.078125,-0.3125 -0.703125,-0.3125 -1.109375,-0.8125 -0.40625,-0.51562 -0.546875,-1.0625 -0.1875,-0.8125 -0.1875,-2.42187 z m 15.922028,9.54687 h -1.828125 v -3.53125 q 0,-1.10937 -0.125,-1.4375 -0.109375,-0.32812 -0.375,-0.51562 -0.265625,-0.1875 -0.640625,-0.1875 -0.46875,0 -0.859375,0.26562 -0.375,0.26563 -0.515625,0.70313 -0.140625,0.42187 -0.140625,1.57812 v 3.125 h -1.828125 v -6.90625 h 1.703125 v 1.01563 q 0.90625,-1.17188 2.28125,-1.17188 0.609375,0 1.109375,0.21875 0.5,0.21875 0.75,0.5625 0.265625,0.32813 0.359375,0.76563 0.109375,0.42187 0.109375,1.21875 z m 8.188232,0 h -1.703125 v -1.01562 q -0.421875,0.59375 -1,0.89062 -0.578125,0.28125 -1.15625,0.28125 -1.1875,0 -2.046875,-0.95312 -0.84375,-0.96875 -0.84375,-2.6875 0,-1.75 0.828125,-2.65625 0.828125,-0.92188 2.09375,-0.92188 1.15625,0 2,0.95313 v -3.4375 h 1.828125 z m -4.875,-3.60937 q 0,1.10937 0.296875,1.60937 0.4375,0.71875 1.234375,0.71875 0.640625,0 1.078125,-0.53125 0.4375,-0.54687 0.4375,-1.60937 0,-1.20313 -0.4375,-1.71875 -0.421875,-0.53125 -1.09375,-0.53125 -0.640625,0 -1.078125,0.51562 -0.4375,0.51563 -0.4375,1.54688 z m 10.672607,1.40625 1.828125,0.3125 q -0.34375,1 -1.109375,1.53125 -0.765625,0.51562 -1.890625,0.51562 -1.8125,0 -2.671875,-1.17187 -0.6875,-0.95313 -0.6875,-2.39063 0,-1.71875 0.890625,-2.6875 0.90625,-0.96875 2.28125,-0.96875 1.546875,0 2.4375,1.01563 0.890625,1.01562 0.84375,3.125 h -4.578125 q 0.01563,0.8125 0.4375,1.26562 0.421875,0.45313 1.0625,0.45313 0.421875,0 0.71875,-0.23438 0.296875,-0.23437 0.4375,-0.76562 z m 0.109375,-1.84375 q -0.01563,-0.79688 -0.40625,-1.20313 -0.390625,-0.42187 -0.953125,-0.42187 -0.59375,0 -0.984375,0.4375 -0.390625,0.4375 -0.390625,1.1875 z m 5.053101,4.04687 h -1.828125 v -6.90625 h 1.703125 v 0.98438 q 0.4375,-0.70313 0.78125,-0.92188 0.34375,-0.21875 0.796875,-0.21875 0.625,0 1.203125,0.34375 l -0.5625,1.59375 q -0.46875,-0.29687 -0.859375,-0.29687 -0.390625,0 -0.65625,0.21875 -0.265625,0.20312 -0.421875,0.76562 -0.15625,0.54688 -0.15625,2.29688 z m 2.796157,-1.96875 1.828125,-0.28125 q 0.125,0.53125 0.484375,0.8125 0.359372,0.26563 0.999997,0.26563 0.703125,0 1.0625,-0.25 0.25,-0.1875 0.25,-0.48438 0,-0.21875 -0.140625,-0.35937 -0.125,-0.125 -0.609375,-0.23438 -2.203122,-0.48437 -2.796872,-0.89062 -0.828125,-0.5625 -0.828125,-1.5625 0,-0.89063 0.703125,-1.5 0.71875,-0.60938 2.203122,-0.60938 1.421875,0 2.109375,0.46875 0.703125,0.45313 0.953125,1.35938 l -1.71875,0.3125 q -0.109375,-0.40625 -0.421875,-0.60938 -0.3125,-0.21875 -0.890625,-0.21875 -0.718747,0 -1.031247,0.20313 -0.203125,0.14062 -0.203125,0.35937 0,0.20313 0.1875,0.34375 0.234375,0.17188 1.687497,0.51563 1.46875,0.32812 2.0625,0.8125 0.5625,0.48437 0.5625,1.35937 0,0.95313 -0.796875,1.64063 -0.78125,0.67187 -2.34375,0.67187 -1.406247,0 -2.234372,-0.5625 -0.828125,-0.57812 -1.078125,-1.5625 z m 11.224972,-4.9375 v 1.45313 h -1.25 v 2.78125 q 0,0.84375 0.03125,0.98437 0.04687,0.14063 0.171875,0.23438 0.125,0.0937 0.3125,0.0937 0.25,0 0.734375,-0.17188 l 0.15625,1.42188 q -0.640625,0.26562 -1.453125,0.26562 -0.484375,0 -0.890625,-0.15625 -0.390625,-0.17187 -0.578125,-0.4375 -0.1875,-0.26562 -0.265625,-0.71875 -0.04687,-0.3125 -0.04687,-1.28125 v -3.01557 h -0.84375 v -1.45313 h 0.84375 v -1.375 l 1.828125,-1.07812 v 2.45312 z m 2.641495,2.10938 -1.671875,-0.3125 q 0.28125,-1 0.96875,-1.46875 0.6875,-0.48438 2.03125,-0.48438 1.21875,0 1.8125,0.29688 0.609375,0.28125 0.84375,0.73437 0.25,0.4375 0.25,1.625 l -0.01563,2.14063 q 0,0.90625 0.07813,1.34375 0.09375,0.42187 0.34375,0.92187 h -1.8125 q -0.07813,-0.1875 -0.171875,-0.54687 -0.04687,-0.15625 -0.07813,-0.20313 -0.46875,0.45313 -1,0.6875 -0.53125,0.21875 -1.140625,0.21875 -1.0625,0 -1.6875,-0.57812 -0.609375,-0.57813 -0.609375,-1.46875 0,-0.57813 0.28125,-1.03125 0.28125,-0.46875 0.78125,-0.70313 0.515625,-0.25 1.46875,-0.4375 1.28125,-0.23437 1.765625,-0.45312 v -0.17188 q 0,-0.53125 -0.265625,-0.75 -0.25,-0.23437 -0.96875,-0.23437 -0.484375,0 -0.765625,0.20312 -0.265625,0.1875 -0.4375,0.67188 z m 2.4375,1.48437 q -0.34375,0.10938 -1.109375,0.28125 -0.765625,0.15625 -1,0.3125 -0.359375,0.25 -0.359375,0.64063 0,0.39062 0.28125,0.67187 0.296875,0.28125 0.734375,0.28125 0.5,0 0.953125,-0.32812 0.328125,-0.25 0.4375,-0.60938 0.0625,-0.23437 0.0625,-0.89062 z m 9.896847,3.3125 h -1.828121 v -3.53125 q 0,-1.10937 -0.125,-1.4375 -0.109375,-0.32812 -0.375,-0.51562 -0.265625,-0.1875 -0.640625,-0.1875 -0.46875,0 -0.859375,0.26562 -0.375,0.26563 -0.515625,0.70313 -0.140625,0.42187 -0.140625,1.57812 v 3.125 h -1.828125 v -6.90625 h 1.703125 v 1.01563 q 0.90625,-1.17188 2.28125,-1.17188 0.609375,0 1.109375,0.21875 0.5,0.21875 0.749996,0.5625 0.26563,0.32813 0.35938,0.76563 0.10937,0.42187 0.10937,1.21875 z m 8.18824,0 h -1.70313 v -1.01562 q -0.42187,0.59375 -1,0.89062 -0.57812,0.28125 -1.15625,0.28125 -1.1875,0 -2.04687,-0.95312 -0.84375,-0.96875 -0.84375,-2.6875 0,-1.75 0.82812,-2.65625 0.82813,-0.92188 2.09375,-0.92188 1.15625,0 2,0.95313 v -3.4375 h 1.82813 z m -4.875,-3.60937 q 0,1.10937 0.29687,1.60937 0.4375,0.71875 1.23438,0.71875 0.64062,0 1.07812,-0.53125 0.4375,-0.54687 0.4375,-1.60937 0,-1.20313 -0.4375,-1.71875 -0.42187,-0.53125 -1.09375,-0.53125 -0.64062,0 -1.07812,0.51562 -0.4375,0.51563 -0.4375,1.54688 z m 6.6726,-4.23438 v -1.70312 h 1.82813 v 1.70312 z m 0,7.84375 v -6.90625 h 1.82813 v 6.90625 z m 9.99987,0 h -1.82812 v -3.53125 q 0,-1.10937 -0.125,-1.4375 -0.10938,-0.32812 -0.375,-0.51562 -0.26563,-0.1875 -0.64063,-0.1875 -0.46875,0 -0.85937,0.26562 -0.375,0.26563 -0.51563,0.70313 -0.14062,0.42187 -0.14062,1.57812 v 3.125 h -1.82813 v -6.90625 h 1.70313 v 1.01563 q 0.90625,-1.17188 2.28125,-1.17188 0.60937,0 1.10937,0.21875 0.5,0.21875 0.75,0.5625 0.26563,0.32813 0.35938,0.76563 0.10937,0.42187 0.10937,1.21875 z m 1.67261,0.45313 2.09375,0.25 q 0.0469,0.375 0.25,0.5 0.25,0.20312 0.8125,0.20312 0.71875,0 1.07812,-0.21875 0.23438,-0.14062 0.35938,-0.45312 0.0781,-0.23438 0.0781,-0.84375 v -1.01563 q -0.8125,1.125 -2.0625,1.125 -1.39062,0 -2.20312,-1.17187 -0.64063,-0.9375 -0.64063,-2.32813 0,-1.73437 0.82813,-2.64062 0.84375,-0.92188 2.09375,-0.92188 1.28125,0 2.10937,1.125 v -0.96875 h 1.70313 v 6.20313 q 0,1.21875 -0.20313,1.8125 -0.1875,0.60937 -0.5625,0.95312 -0.35937,0.35938 -0.96875,0.54688 -0.60937,0.20312 -1.53125,0.20312 -1.76562,0 -2.5,-0.60937 -0.73437,-0.60938 -0.73437,-1.53125 0,-0.0937 0,-0.21875 z m 1.64062,-4.04688 q 0,1.09375 0.42188,1.60938 0.4375,0.5 1.04687,0.5 0.67188,0 1.14063,-0.51563 0.46875,-0.53125 0.46875,-1.54687 0,-1.07813 -0.45313,-1.59375 -0.4375,-0.53125 -1.10937,-0.53125 -0.65625,0 -1.09375,0.51562 -0.42188,0.51563 -0.42188,1.5625 z" />
  <path
     style="fill:#23529e;fill-rule:evenodd"
     inkscape:connector-curvature="0"
     id="path13"
     d="m 177.80964,35.243837 v 0 c 0,-3.90521 3.1658,-7.07101 7.07101,-7.07101 h 110.5194 c 1.87536,0 3.67389,0.74499 4.99997,2.07107 1.32605,1.32605 2.07104,3.1246 2.07104,4.99994 v 28.28317 c 0,3.90522 -3.1658,7.07105 -7.07101,7.07105 h -110.5194 c -3.90521,0 -7.07101,-3.16583 -7.07101,-7.07105 z" />
  <path
     style="fill:#ffffff;fill-rule:nonzero"
     inkscape:connector-curvature="0"
     id="path15"
     d="m 226.66486,36.638557 h 3.51562 q 1.1875,0 1.8125,0.1875 0.84375,0.25 1.4375,0.89062 0.60938,0.625 0.92188,1.54688 0.3125,0.90625 0.3125,2.25 0,1.17187 -0.29688,2.01562 -0.35937,1.04688 -1.03125,1.6875 -0.5,0.5 -1.34375,0.76566 -0.64062,0.20313 -1.70312,0.20313 h -3.625 z m 1.92187,1.625 v 6.3125 h 1.4375 q 0.8125,0 1.17188,-0.0937 0.46875,-0.10938 0.76562,-0.39063 0.3125,-0.28125 0.5,-0.92187 0.20313,-0.64063 0.20313,-1.75 0,-1.10938 -0.20313,-1.6875 -0.1875,-0.59375 -0.54687,-0.92188 -0.34375,-0.34375 -0.875,-0.45312 -0.40625,-0.0937 -1.59375,-0.0937 z m 9.06266,3.125 -1.67188,-0.3125 q 0.28125,-1 0.96875,-1.46875 0.6875,-0.48438 2.03125,-0.48438 1.21875,0 1.8125,0.29688 0.60938,0.28125 0.84375,0.73437 0.25,0.4375 0.25,1.625 l -0.0156,2.14063 q 0,0.90625 0.0781,1.34375 0.0937,0.42187 0.34375,0.92191 h -1.8125 q -0.0781,-0.1875 -0.17187,-0.54691 -0.0469,-0.15625 -0.0781,-0.20313 -0.46875,0.45316 -1,0.68754 -0.53125,0.21875 -1.14062,0.21875 -1.0625,0 -1.6875,-0.57816 -0.60938,-0.57813 -0.60938,-1.46875 0,-0.57813 0.28125,-1.03125 0.28125,-0.46875 0.78125,-0.70313 0.51563,-0.25 1.46875,-0.4375 1.28125,-0.23437 1.76563,-0.45312 v -0.17188 q 0,-0.53125 -0.26563,-0.75 -0.25,-0.23437 -0.96875,-0.23437 -0.48437,0 -0.76562,0.20312 -0.26563,0.1875 -0.4375,0.67188 z m 2.4375,1.48437 q -0.34375,0.10938 -1.10938,0.28125 -0.76562,0.15625 -1,0.3125 -0.35937,0.25 -0.35937,0.64063 0,0.39062 0.28125,0.67187 0.29687,0.28125 0.73437,0.28125 0.5,0 0.95313,-0.32812 0.32812,-0.25 0.4375,-0.60938 0.0625,-0.23437 0.0625,-0.89062 z m 6.77185,-3.59375 v 1.45313 h -1.25 v 2.78125 q 0,0.84375 0.0312,0.98437 0.0469,0.14063 0.17187,0.23438 0.125,0.0937 0.3125,0.0937 0.25,0 0.73438,-0.17188 l 0.15625,1.42191 q -0.64063,0.26563 -1.45313,0.26563 -0.48437,0 -0.89062,-0.15625 -0.39063,-0.17188 -0.57813,-0.43754 -0.1875,-0.26562 -0.26562,-0.71875 -0.0469,-0.3125 -0.0469,-1.28125 v -3.01562 h -0.84375 v -1.45313 h 0.84375 v -1.375 l 1.82813,-1.07812 v 2.45312 z m 2.64149,2.10938 -1.67187,-0.3125 q 0.28125,-1 0.96875,-1.46875 0.6875,-0.48438 2.03125,-0.48438 1.21875,0 1.8125,0.29688 0.60937,0.28125 0.84375,0.73437 0.25,0.4375 0.25,1.625 l -0.0156,2.14063 q 0,0.90625 0.0781,1.34375 0.0937,0.42187 0.34375,0.92191 h -1.8125 q -0.0781,-0.1875 -0.17188,-0.54691 -0.0469,-0.15625 -0.0781,-0.20313 -0.46875,0.45316 -1,0.68754 -0.53125,0.21875 -1.14063,0.21875 -1.0625,0 -1.6875,-0.57816 -0.60937,-0.57813 -0.60937,-1.46875 0,-0.57813 0.28125,-1.03125 0.28125,-0.46875 0.78125,-0.70313 0.51562,-0.25 1.46875,-0.4375 1.28125,-0.23437 1.76562,-0.45312 v -0.17188 q 0,-0.53125 -0.26562,-0.75 -0.25,-0.23437 -0.96875,-0.23437 -0.48438,0 -0.76563,0.20312 -0.26562,0.1875 -0.4375,0.67188 z m 2.4375,1.48437 q -0.34375,0.10938 -1.10937,0.28125 -0.76563,0.15625 -1,0.3125 -0.35938,0.25 -0.35938,0.64063 0,0.39062 0.28125,0.67187 0.29688,0.28125 0.73438,0.28125 0.5,0 0.95312,-0.32812 0.32813,-0.25 0.4375,-0.60938 0.0625,-0.23437 0.0625,-0.89062 z" />
  <path
     style="fill:#ffffff;fill-rule:nonzero"
     inkscape:connector-curvature="0"
     id="path17"
     d="m 194.07404,52.638587 h 1.9375 v 5.17188 q 0,1.23437 0.0625,1.59375 0.125,0.59375 0.59375,0.95312 0.46875,0.34375 1.26562,0.34375 0.82813,0 1.23438,-0.32812 0.42187,-0.34375 0.5,-0.82813 0.0937,-0.48437 0.0937,-1.625 v -5.28125 h 1.92187 v 5.01563 q 0,1.71875 -0.15625,2.4375 -0.15625,0.70312 -0.57812,1.1875 -0.42188,0.48437 -1.125,0.78125 -0.70313,0.28125 -1.82813,0.28125 -1.375,0 -2.07812,-0.3125 -0.70313,-0.3125 -1.10938,-0.8125 -0.40625,-0.51563 -0.54687,-1.0625 -0.1875,-0.8125 -0.1875,-2.42188 z m 15.92203,9.54688 h -1.82813 v -3.53125 q 0,-1.10938 -0.125,-1.4375 -0.10937,-0.32813 -0.375,-0.51563 -0.26562,-0.1875 -0.64062,-0.1875 -0.46875,0 -0.85938,0.26563 -0.375,0.26562 -0.51562,0.70312 -0.14063,0.42188 -0.14063,1.57813 v 3.125 h -1.82812 v -6.90625 h 1.70312 v 1.01562 q 0.90625,-1.17187 2.28125,-1.17187 0.60938,0 1.10938,0.21875 0.5,0.21875 0.75,0.5625 0.26562,0.32812 0.35937,0.76562 0.10938,0.42188 0.10938,1.21875 z m 8.18823,0 h -1.70312 v -1.01563 q -0.42188,0.59375 -1,0.89063 -0.57813,0.28125 -1.15625,0.28125 -1.1875,0 -2.04688,-0.95313 -0.84375,-0.96875 -0.84375,-2.6875 0,-1.75 0.82813,-2.65625 0.82812,-0.92187 2.09375,-0.92187 1.15625,0 2,0.95312 v -3.4375 h 1.82812 z m -4.875,-3.60938 q 0,1.10938 0.29688,1.60938 0.4375,0.71875 1.23437,0.71875 0.64063,0 1.07813,-0.53125 0.4375,-0.54688 0.4375,-1.60938 0,-1.20312 -0.4375,-1.71875 -0.42188,-0.53125 -1.09375,-0.53125 -0.64063,0 -1.07813,0.51563 -0.4375,0.51562 -0.4375,1.54687 z m 10.67261,1.40625 1.82812,0.3125 q -0.34375,1 -1.10937,1.53125 -0.76563,0.51563 -1.89063,0.51563 -1.8125,0 -2.67187,-1.17188 -0.6875,-0.95312 -0.6875,-2.39062 0,-1.71875 0.89062,-2.6875 0.90625,-0.96875 2.28125,-0.96875 1.54688,0 2.4375,1.01562 0.89063,1.01563 0.84375,3.125 h -4.57812 q 0.0156,0.8125 0.4375,1.26563 0.42187,0.45312 1.0625,0.45312 0.42187,0 0.71875,-0.23437 0.29687,-0.23438 0.4375,-0.76563 z m 0.10937,-1.84375 q -0.0156,-0.79687 -0.40625,-1.20312 -0.39062,-0.42188 -0.95312,-0.42188 -0.59375,0 -0.98438,0.4375 -0.39062,0.4375 -0.39062,1.1875 z m 5.0531,4.04688 h -1.82812 v -6.90625 h 1.70312 v 0.98437 q 0.4375,-0.70312 0.78125,-0.92187 0.34375,-0.21875 0.79688,-0.21875 0.625,0 1.20312,0.34375 l -0.5625,1.59375 q -0.46875,-0.29688 -0.85937,-0.29688 -0.39063,0 -0.65625,0.21875 -0.26563,0.20313 -0.42188,0.76563 -0.15625,0.54687 -0.15625,2.29687 z m 2.79616,-1.96875 1.82813,-0.28125 q 0.125,0.53125 0.48437,0.8125 0.35938,0.26562 1,0.26562 0.70313,0 1.0625,-0.25 0.25,-0.1875 0.25,-0.48437 0,-0.21875 -0.14062,-0.35938 -0.125,-0.125 -0.60938,-0.23437 -2.20312,-0.48438 -2.79687,-0.89063 -0.82813,-0.5625 -0.82813,-1.5625 0,-0.89062 0.70313,-1.5 0.71875,-0.60937 2.20312,-0.60937 1.42188,0 2.10938,0.46875 0.70312,0.45312 0.95312,1.35937 l -1.71875,0.3125 q -0.10937,-0.40625 -0.42187,-0.60937 -0.3125,-0.21875 -0.89063,-0.21875 -0.71875,0 -1.03125,0.20312 -0.20312,0.14063 -0.20312,0.35938 0,0.20312 0.1875,0.34375 0.23437,0.17187 1.6875,0.51562 1.46875,0.32813 2.0625,0.8125 0.5625,0.48438 0.5625,1.35938 0,0.95312 -0.79688,1.64062 -0.78125,0.67188 -2.34375,0.67188 -1.40625,0 -2.23437,-0.5625 -0.82813,-0.57813 -1.07813,-1.5625 z m 11.22498,-4.9375 v 1.45312 h -1.25 v 2.78125 q 0,0.84375 0.0312,0.98438 0.0469,0.14062 0.17187,0.23437 0.125,0.0937 0.3125,0.0937 0.25,0 0.73438,-0.17187 l 0.15625,1.42187 q -0.64063,0.26563 -1.45313,0.26563 -0.48437,0 -0.89062,-0.15625 -0.39063,-0.17188 -0.57813,-0.4375 -0.1875,-0.26563 -0.26562,-0.71875 -0.0469,-0.3125 -0.0469,-1.28125 v -3.01563 h -0.84375 v -1.45312 h 0.84375 v -1.375 l 1.82813,-1.07813 v 2.45313 z m 2.64149,2.10937 -1.67187,-0.3125 q 0.28125,-1 0.96875,-1.46875 0.6875,-0.48437 2.03125,-0.48437 1.21875,0 1.8125,0.29687 0.60937,0.28125 0.84375,0.73438 0.25,0.4375 0.25,1.625 l -0.0156,2.14062 q 0,0.90625 0.0781,1.34375 0.0937,0.42188 0.34375,0.92188 h -1.8125 q -0.0781,-0.1875 -0.17188,-0.54688 -0.0469,-0.15625 -0.0781,-0.20312 -0.46875,0.45312 -1,0.6875 -0.53125,0.21875 -1.14063,0.21875 -1.0625,0 -1.6875,-0.57813 -0.60937,-0.57812 -0.60937,-1.46875 0,-0.57812 0.28125,-1.03125 0.28125,-0.46875 0.78125,-0.70312 0.51562,-0.25 1.46875,-0.4375 1.28125,-0.23438 1.76562,-0.45313 v -0.17187 q 0,-0.53125 -0.26562,-0.75 -0.25,-0.23438 -0.96875,-0.23438 -0.48438,0 -0.76563,0.20313 -0.26562,0.1875 -0.4375,0.67187 z m 2.4375,1.48438 q -0.34375,0.10937 -1.10937,0.28125 -0.76563,0.15625 -1,0.3125 -0.35938,0.25 -0.35938,0.64062 0,0.39063 0.28125,0.67188 0.29688,0.28125 0.73438,0.28125 0.5,0 0.95312,-0.32813 0.32813,-0.25 0.4375,-0.60937 0.0625,-0.23438 0.0625,-0.89063 z m 9.89685,3.3125 h -1.82812 v -3.53125 q 0,-1.10938 -0.125,-1.4375 -0.10938,-0.32813 -0.375,-0.51563 -0.26563,-0.1875 -0.64063,-0.1875 -0.46875,0 -0.85937,0.26563 -0.375,0.26562 -0.51563,0.70312 -0.14062,0.42188 -0.14062,1.57813 v 3.125 h -1.82813 v -6.90625 h 1.70313 v 1.01562 q 0.90625,-1.17187 2.28125,-1.17187 0.60937,0 1.10937,0.21875 0.5,0.21875 0.75,0.5625 0.26563,0.32812 0.35938,0.76562 0.10937,0.42188 0.10937,1.21875 z m 8.18823,0 h -1.70312 v -1.01563 q -0.42188,0.59375 -1,0.89063 -0.57813,0.28125 -1.15625,0.28125 -1.1875,0 -2.04688,-0.95313 -0.84375,-0.96875 -0.84375,-2.6875 0,-1.75 0.82813,-2.65625 0.82812,-0.92187 2.09375,-0.92187 1.15625,0 2,0.95312 v -3.4375 h 1.82812 z m -4.875,-3.60938 q 0,1.10938 0.29688,1.60938 0.4375,0.71875 1.23437,0.71875 0.64063,0 1.07813,-0.53125 0.4375,-0.54688 0.4375,-1.60938 0,-1.20312 -0.4375,-1.71875 -0.42188,-0.53125 -1.09375,-0.53125 -0.64063,0 -1.07813,0.51563 -0.4375,0.51562 -0.4375,1.54687 z m 6.67261,-4.23437 v -1.70313 h 1.82811 v 1.70313 z m 0,7.84375 v -6.90625 h 1.82811 v 6.90625 z m 9.99986,0 h -1.82812 v -3.53125 q 0,-1.10938 -0.125,-1.4375 -0.10938,-0.32813 -0.375,-0.51563 -0.26563,-0.1875 -0.64063,-0.1875 -0.46875,0 -0.85937,0.26563 -0.375,0.26562 -0.51563,0.70312 -0.14062,0.42188 -0.14062,1.57813 v 3.125 h -1.82813 v -6.90625 h 1.70313 v 1.01562 q 0.90625,-1.17187 2.28125,-1.17187 0.60937,0 1.10937,0.21875 0.5,0.21875 0.75,0.5625 0.26563,0.32812 0.35938,0.76562 0.10937,0.42188 0.10937,1.21875 z m 1.67261,0.45312 2.09375,0.25 q 0.0469,0.375 0.25,0.5 0.25,0.20313 0.8125,0.20313 0.71875,0 1.07813,-0.21875 0.23437,-0.14063 0.35937,-0.45313 0.0781,-0.23437 0.0781,-0.84375 v -1.01562 q -0.8125,1.125 -2.0625,1.125 -1.39063,0 -2.20313,-1.17188 -0.64062,-0.9375 -0.64062,-2.32812 0,-1.73438 0.82812,-2.64063 0.84375,-0.92187 2.09375,-0.92187 1.28125,0 2.10938,1.125 v -0.96875 h 1.70312 v 6.20312 q 0,1.21875 -0.20312,1.8125 -0.1875,0.60938 -0.5625,0.95313 -0.35938,0.35937 -0.96875,0.54687 -0.60938,0.20313 -1.53125,0.20313 -1.76563,0 -2.5,-0.60938 -0.73438,-0.60937 -0.73438,-1.53125 0,-0.0937 0,-0.21875 z m 1.64063,-4.04687 q 0,1.09375 0.42187,1.60937 0.4375,0.5 1.04688,0.5 0.67187,0 1.14062,-0.51562 0.46875,-0.53125 0.46875,-1.54688 0,-1.07812 -0.45312,-1.59375 -0.4375,-0.53125 -1.10938,-0.53125 -0.65625,0 -1.09375,0.51563 -0.42187,0.51562 -0.42187,1.5625 z" />
  <path
     style="fill:#23529e;fill-rule:evenodd"
     inkscape:connector-curvature="0"
     id="path19"
     d="m 335.92879,35.034547 v 0 c 0,-3.90521 3.1658,-7.07101 7.07101,-7.07101 h 110.51938 c 1.87537,0 3.67389,0.74499 4.99997,2.07104 1.32608,1.32608 2.07105,3.12463 2.07105,4.99997 v 28.28317 c 0,3.90522 -3.1658,7.07099 -7.07102,7.07099 H 342.9998 c -3.90521,0 -7.07101,-3.16577 -7.07101,-7.07099 z" />
  <path
     style="fill:#ffffff;fill-rule:nonzero"
     inkscape:connector-curvature="0"
     id="path21"
     d="m 384.78403,36.429267 h 3.51562 q 1.1875,0 1.8125,0.1875 0.84375,0.25 1.4375,0.89062 0.60938,0.625 0.92188,1.54688 0.3125,0.90625 0.3125,2.25 0,1.17187 -0.29688,2.01562 -0.35937,1.04688 -1.03125,1.6875 -0.5,0.5 -1.34375,0.76563 -0.64062,0.20309 -1.70312,0.20309 h -3.625 z m 1.92187,1.625 v 6.3125 h 1.4375 q 0.8125,0 1.17188,-0.0937 0.46875,-0.10938 0.76562,-0.39063 0.3125,-0.28125 0.5,-0.92187 0.20313,-0.64063 0.20313,-1.75 0,-1.10938 -0.20313,-1.6875 -0.1875,-0.59375 -0.54687,-0.92188 -0.34375,-0.34375 -0.875,-0.45312 -0.40625,-0.0937 -1.59375,-0.0937 z m 9.06266,3.125 -1.67188,-0.3125 q 0.28125,-1 0.96875,-1.46875 0.6875,-0.48438 2.03125,-0.48438 1.21875,0 1.8125,0.29688 0.60938,0.28125 0.84375,0.73437 0.25,0.4375 0.25,1.625 l -0.0156,2.14063 q 0,0.90625 0.0781,1.34375 0.0937,0.42187 0.34375,0.92184 h -1.8125 q -0.0781,-0.18746 -0.17187,-0.54684 -0.0469,-0.15625 -0.0781,-0.20313 -0.46875,0.45313 -1,0.68747 -0.53125,0.21875 -1.14062,0.21875 -1.0625,0 -1.6875,-0.57809 -0.60938,-0.57813 -0.60938,-1.46875 0,-0.57813 0.28125,-1.03125 0.28125,-0.46875 0.78125,-0.70313 0.51563,-0.25 1.46875,-0.4375 1.28125,-0.23437 1.76563,-0.45312 v -0.17188 q 0,-0.53125 -0.26563,-0.75 -0.25,-0.23437 -0.96875,-0.23437 -0.48437,0 -0.76562,0.20312 -0.26563,0.1875 -0.4375,0.67188 z m 2.4375,1.48437 q -0.34375,0.10938 -1.10938,0.28125 -0.76562,0.15625 -1,0.3125 -0.35937,0.25 -0.35937,0.64063 0,0.39062 0.28125,0.67187 0.29687,0.28125 0.73437,0.28125 0.5,0 0.95313,-0.32812 0.32812,-0.25 0.4375,-0.60938 0.0625,-0.23437 0.0625,-0.89062 z m 6.77185,-3.59375 v 1.45313 h -1.25 v 2.78125 q 0,0.84375 0.0312,0.98437 0.0469,0.14063 0.17187,0.23438 0.125,0.0937 0.3125,0.0937 0.25,0 0.73438,-0.17188 l 0.15625,1.42188 q -0.64063,0.26559 -1.45313,0.26559 -0.48437,0 -0.89062,-0.15625 -0.39063,-0.17184 -0.57813,-0.43747 -0.1875,-0.26562 -0.26562,-0.71875 -0.0469,-0.3125 -0.0469,-1.28125 v -3.01562 h -0.84375 v -1.45313 h 0.84375 v -1.375 l 1.82813,-1.07812 v 2.45312 z m 2.64148,2.10938 -1.67188,-0.3125 q 0.28125,-1 0.96875,-1.46875 0.6875,-0.48438 2.03125,-0.48438 1.21875,0 1.8125,0.29688 0.60938,0.28125 0.84375,0.73437 0.25,0.4375 0.25,1.625 l -0.0156,2.14063 q 0,0.90625 0.0781,1.34375 0.0937,0.42187 0.34375,0.92184 h -1.8125 q -0.0781,-0.18746 -0.17187,-0.54684 -0.0469,-0.15625 -0.0781,-0.20313 -0.46875,0.45313 -1,0.68747 -0.53125,0.21875 -1.14062,0.21875 -1.0625,0 -1.6875,-0.57809 -0.60938,-0.57813 -0.60938,-1.46875 0,-0.57813 0.28125,-1.03125 0.28125,-0.46875 0.78125,-0.70313 0.51563,-0.25 1.46875,-0.4375 1.28125,-0.23437 1.76563,-0.45312 v -0.17188 q 0,-0.53125 -0.26563,-0.75 -0.25,-0.23437 -0.96875,-0.23437 -0.48437,0 -0.76562,0.20312 -0.26563,0.1875 -0.4375,0.67188 z m 2.4375,1.48437 q -0.34375,0.10938 -1.10938,0.28125 -0.76562,0.15625 -1,0.3125 -0.35937,0.25 -0.35937,0.64063 0,0.39062 0.28125,0.67187 0.29687,0.28125 0.73437,0.28125 0.5,0 0.95313,-0.32812 0.32812,-0.25 0.4375,-0.60938 0.0625,-0.23437 0.0625,-0.89062 z" />
  <path
     style="fill:#ffffff;fill-rule:nonzero"
     inkscape:connector-curvature="0"
     id="path23"
     d="m 362.19515,61.976087 v -9.54687 h 3.09375 q 1.75,0 2.29688,0.15625 0.8125,0.20312 1.35937,0.92187 0.5625,0.71875 0.5625,1.85938 0,0.875 -0.32812,1.48437 -0.3125,0.59375 -0.8125,0.9375 -0.48438,0.34375 -0.98438,0.45313 -0.70312,0.14062 -2,0.14062 h -1.26562 v 3.59375 z m 1.92188,-7.92187 v 2.70312 h 1.0625 q 1.14062,0 1.51562,-0.14062 0.39063,-0.15625 0.60938,-0.46875 0.21875,-0.32813 0.21875,-0.75 0,-0.51563 -0.3125,-0.85938 -0.29688,-0.34375 -0.76563,-0.42187 -0.34375,-0.0625 -1.39062,-0.0625 z m 8.70227,7.92187 h -1.82813 v -6.90625 h 1.70313 v 0.98438 q 0.4375,-0.70313 0.78125,-0.92188 0.34375,-0.21875 0.79687,-0.21875 0.625,0 1.20313,0.34375 l -0.5625,1.59375 q -0.46875,-0.29687 -0.85938,-0.29687 -0.39062,0 -0.65625,0.21875 -0.26562,0.20312 -0.42187,0.76562 -0.15625,0.54688 -0.15625,2.29688 z m 7.43676,-2.20312 1.82813,0.3125 q -0.34375,1 -1.10938,1.53125 -0.76562,0.51562 -1.89062,0.51562 -1.8125,0 -2.67188,-1.17187 -0.6875,-0.95313 -0.6875,-2.39063 0,-1.71875 0.89063,-2.6875 0.90625,-0.96875 2.28125,-0.96875 1.54687,0 2.4375,1.01563 0.89062,1.01562 0.84375,3.125 h -4.57813 q 0.0156,0.8125 0.4375,1.26562 0.42188,0.45313 1.0625,0.45313 0.42188,0 0.71875,-0.23438 0.29688,-0.23437 0.4375,-0.76562 z m 0.10938,-1.84375 q -0.0156,-0.79688 -0.40625,-1.20313 -0.39063,-0.42187 -0.95313,-0.42187 -0.59375,0 -0.98437,0.4375 -0.39063,0.4375 -0.39063,1.1875 z m 3.25622,-2.85938 h 1.70313 v 1.01563 q 0.32812,-0.53125 0.89062,-0.84375 0.57813,-0.32813 1.26563,-0.32813 1.20312,0 2.03125,0.9375 0.84375,0.9375 0.84375,2.625 0,1.73438 -0.84375,2.70313 -0.84375,0.95312 -2.04688,0.95312 -0.57812,0 -1.04687,-0.21875 -0.45313,-0.23437 -0.96875,-0.79687 v 3.48437 h -1.82813 z m 1.8125,3.32813 q 0,1.17187 0.45313,1.73437 0.46875,0.54688 1.125,0.54688 0.64062,0 1.0625,-0.5 0.42187,-0.51563 0.42187,-1.6875 0,-1.07813 -0.4375,-1.60938 -0.4375,-0.53125 -1.07812,-0.53125 -0.67188,0 -1.10938,0.51563 -0.4375,0.51562 -0.4375,1.53125 z m 7.75074,-1.21875 -1.67188,-0.3125 q 0.28125,-1 0.96875,-1.46875 0.6875,-0.48438 2.03125,-0.48438 1.21875,0 1.8125,0.29688 0.60938,0.28125 0.84375,0.73437 0.25,0.4375 0.25,1.625 l -0.0156,2.14063 q 0,0.90625 0.0781,1.34375 0.0937,0.42187 0.34375,0.92187 h -1.8125 q -0.0781,-0.1875 -0.17187,-0.54687 -0.0469,-0.15625 -0.0781,-0.20313 -0.46875,0.45313 -1,0.6875 -0.53125,0.21875 -1.14062,0.21875 -1.0625,0 -1.6875,-0.57812 -0.60938,-0.57813 -0.60938,-1.46875 0,-0.57813 0.28125,-1.03125 0.28125,-0.46875 0.78125,-0.70313 0.51563,-0.25 1.46875,-0.4375 1.28125,-0.23437 1.76563,-0.45312 v -0.17188 q 0,-0.53125 -0.26563,-0.75 -0.25,-0.23437 -0.96875,-0.23437 -0.48437,0 -0.76562,0.20312 -0.26563,0.1875 -0.4375,0.67188 z m 2.4375,1.48437 q -0.34375,0.10938 -1.10938,0.28125 -0.76562,0.15625 -1,0.3125 -0.35937,0.25 -0.35937,0.64063 0,0.39062 0.28125,0.67187 0.29687,0.28125 0.73437,0.28125 0.5,0 0.95313,-0.32812 0.32812,-0.25 0.4375,-0.60938 0.0625,-0.23437 0.0625,-0.89062 z m 5.34997,3.3125 h -1.82812 v -6.90625 h 1.70312 v 0.98438 q 0.4375,-0.70313 0.78125,-0.92188 0.34375,-0.21875 0.79688,-0.21875 0.625,0 1.20312,0.34375 l -0.5625,1.59375 q -0.46875,-0.29687 -0.85937,-0.29687 -0.39063,0 -0.65625,0.21875 -0.26563,0.20312 -0.42188,0.76562 -0.15625,0.54688 -0.15625,2.29688 z m 4.8118,-4.79687 -1.67188,-0.3125 q 0.28125,-1 0.96875,-1.46875 0.6875,-0.48438 2.03125,-0.48438 1.21875,0 1.8125,0.29688 0.60938,0.28125 0.84375,0.73437 0.25,0.4375 0.25,1.625 l -0.0156,2.14063 q 0,0.90625 0.0781,1.34375 0.0937,0.42187 0.34375,0.92187 h -1.8125 q -0.0781,-0.1875 -0.17187,-0.54687 -0.0469,-0.15625 -0.0781,-0.20313 -0.46875,0.45313 -1,0.6875 -0.53125,0.21875 -1.14062,0.21875 -1.0625,0 -1.6875,-0.57812 -0.60938,-0.57813 -0.60938,-1.46875 0,-0.57813 0.28125,-1.03125 0.28125,-0.46875 0.78125,-0.70313 0.51563,-0.25 1.46875,-0.4375 1.28125,-0.23437 1.76563,-0.45312 v -0.17188 q 0,-0.53125 -0.26563,-0.75 -0.25,-0.23437 -0.96875,-0.23437 -0.48437,0 -0.76562,0.20312 -0.26563,0.1875 -0.4375,0.67188 z m 2.4375,1.48437 q -0.34375,0.10938 -1.10938,0.28125 -0.76562,0.15625 -1,0.3125 -0.35937,0.25 -0.35937,0.64063 0,0.39062 0.28125,0.67187 0.29687,0.28125 0.73437,0.28125 0.5,0 0.95313,-0.32812 0.32812,-0.25 0.4375,-0.60938 0.0625,-0.23437 0.0625,-0.89062 z m 6.77185,-3.59375 v 1.45313 h -1.25 v 2.78125 q 0,0.84375 0.0312,0.98437 0.0469,0.14063 0.17188,0.23438 0.125,0.0937 0.3125,0.0937 0.25,0 0.73437,-0.17188 l 0.15625,1.42188 q -0.64062,0.26562 -1.45312,0.26562 -0.48438,0 -0.89063,-0.15625 -0.39062,-0.17187 -0.57812,-0.4375 -0.1875,-0.26562 -0.26563,-0.71875 -0.0469,-0.3125 -0.0469,-1.28125 v -3.01562 h -0.84375 v -1.45313 h 0.84375 v -1.375 l 1.82812,-1.07812 v 2.45312 z m 1.26648,-0.9375 v -1.70312 h 1.82812 v 1.70312 z m 0,7.84375 v -6.90625 h 1.82812 v 6.90625 z m 3.28113,-3.54687 q 0,-0.92188 0.45312,-1.76563 0.45313,-0.85937 1.26563,-1.29687 0.82812,-0.45313 1.84375,-0.45313 1.5625,0 2.5625,1.01563 1.01562,1.01562 1.01562,2.57812 0,1.5625 -1.01562,2.59375 -1.01563,1.03125 -2.54688,1.03125 -0.95312,0 -1.8125,-0.42187 -0.85937,-0.4375 -1.3125,-1.26563 -0.45312,-0.82812 -0.45312,-2.01562 z m 1.875,0.0937 q 0,1.03125 0.48437,1.57812 0.5,0.54688 1.20313,0.54688 0.71875,0 1.20312,-0.54688 0.48438,-0.54687 0.48438,-1.59375 0,-1.01562 -0.48438,-1.5625 -0.48437,-0.54687 -1.20312,-0.54687 -0.70313,0 -1.20313,0.54687 -0.48437,0.54688 -0.48437,1.57813 z m 12.9851,3.45312 h -1.82812 v -3.53125 q 0,-1.10937 -0.125,-1.4375 -0.10938,-0.32812 -0.375,-0.51562 -0.26563,-0.1875 -0.64063,-0.1875 -0.46875,0 -0.85937,0.26562 -0.375,0.26563 -0.51563,0.70313 -0.14062,0.42187 -0.14062,1.57812 v 3.125 h -1.82813 v -6.90625 h 1.70313 v 1.01563 q 0.90625,-1.17188 2.28125,-1.17188 0.60937,0 1.10937,0.21875 0.5,0.21875 0.75,0.5625 0.26563,0.32813 0.35938,0.76563 0.10937,0.42187 0.10937,1.21875 z" />
  <path
     style="fill:#23529e;fill-rule:evenodd"
     inkscape:connector-curvature="0"
     id="path25"
     d="m 495.05727,35.034547 v 0 c 0,-3.90521 3.1658,-7.07101 7.07101,-7.07101 h 110.51938 c 1.87537,0 3.67389,0.74499 5,2.07104 1.32605,1.32608 2.07105,3.12463 2.07105,4.99997 v 28.28317 c 0,3.90522 -3.16583,7.07099 -7.07105,7.07099 H 502.12828 c -3.90521,0 -7.07101,-3.16577 -7.07101,-7.07099 z" />
  <path
     style="fill:#ffffff;fill-rule:nonzero"
     inkscape:connector-curvature="0"
     id="path27"
     d="m 529.08233,53.976087 v -9.54684 h 2.89062 l 1.73438,6.51559 1.70312,-6.51559 h 2.89063 v 9.54684 h -1.78125 v -7.51562 l -1.90625,7.51562 h -1.84375 l -1.89063,-7.51562 v 7.51562 z m 10.69617,-3.54687 q 0,-0.92188 0.45312,-1.76563 0.45313,-0.85937 1.26563,-1.29687 0.82812,-0.45313 1.84375,-0.45313 1.5625,0 2.5625,1.01563 1.01562,1.01562 1.01562,2.57812 0,1.5625 -1.01562,2.59375 -1.01563,1.03125 -2.54688,1.03125 -0.95312,0 -1.8125,-0.42187 -0.85937,-0.4375 -1.3125,-1.26563 -0.45312,-0.82812 -0.45312,-2.01562 z m 1.875,0.0937 q 0,1.03125 0.48437,1.57812 0.5,0.54688 1.20313,0.54688 0.71875,0 1.20312,-0.54688 0.48438,-0.54687 0.48438,-1.59375 0,-1.01562 -0.48438,-1.5625 -0.48437,-0.54687 -1.20312,-0.54687 -0.70313,0 -1.20313,0.54687 -0.48437,0.54688 -0.48437,1.57813 z m 13.03198,3.45312 h -1.70313 v -1.01562 q -0.42187,0.59375 -1,0.89062 -0.57812,0.28125 -1.15625,0.28125 -1.1875,0 -2.04687,-0.95312 -0.84375,-0.96875 -0.84375,-2.6875 0,-1.75 0.82812,-2.65625 0.82813,-0.92188 2.09375,-0.92188 1.15625,0 2,0.95313 v -3.43747 h 1.82813 z m -4.875,-3.60937 q 0,1.10937 0.29687,1.60937 0.4375,0.71875 1.23438,0.71875 0.64062,0 1.07812,-0.53125 0.4375,-0.54687 0.4375,-1.60937 0,-1.20313 -0.4375,-1.71875 -0.42187,-0.53125 -1.09375,-0.53125 -0.64062,0 -1.07812,0.51562 -0.4375,0.51563 -0.4375,1.54688 z m 10.67261,1.40625 1.82812,0.3125 q -0.34375,1 -1.10937,1.53125 -0.76563,0.51562 -1.89063,0.51562 -1.8125,0 -2.67187,-1.17187 -0.6875,-0.95313 -0.6875,-2.39063 0,-1.71875 0.89062,-2.6875 0.90625,-0.96875 2.28125,-0.96875 1.54688,0 2.4375,1.01563 0.89063,1.01562 0.84375,3.125 h -4.57812 q 0.0156,0.8125 0.4375,1.26562 0.42187,0.45313 1.0625,0.45313 0.42187,0 0.71875,-0.23438 0.29687,-0.23437 0.4375,-0.76562 z m 0.10937,-1.84375 q -0.0156,-0.79688 -0.40625,-1.20313 -0.39062,-0.42187 -0.95312,-0.42187 -0.59375,0 -0.98438,0.4375 -0.39062,0.4375 -0.39062,1.1875 z m 3.3031,4.04687 v -9.54684 h 1.82813 v 9.54684 z m 3.703,-7.84375 v -1.70309 h 1.82813 v 1.70309 z m 0,7.84375 v -6.90625 h 1.82813 v 6.90625 z m 9.99982,0 h -1.82812 v -3.53125 q 0,-1.10937 -0.125,-1.4375 -0.10938,-0.32812 -0.375,-0.51562 -0.26563,-0.1875 -0.64063,-0.1875 -0.46875,0 -0.85937,0.26562 -0.375,0.26563 -0.51563,0.70313 -0.14062,0.42187 -0.14062,1.57812 v 3.125 h -1.82813 v -6.90625 h 1.70313 v 1.01563 q 0.90625,-1.17188 2.28125,-1.17188 0.60937,0 1.10937,0.21875 0.5,0.21875 0.75,0.5625 0.26563,0.32813 0.35938,0.76563 0.10937,0.42187 0.10937,1.21875 z m 1.67261,0.45313 2.09375,0.25 q 0.0469,0.375 0.25,0.5 0.25,0.20312 0.8125,0.20312 0.71875,0 1.07812,-0.21875 0.23438,-0.14062 0.35938,-0.45312 0.0781,-0.23438 0.0781,-0.84375 v -1.01563 q -0.8125,1.125 -2.0625,1.125 -1.39062,0 -2.20312,-1.17187 -0.64063,-0.9375 -0.64063,-2.32813 0,-1.73437 0.82813,-2.64062 0.84375,-0.92188 2.09375,-0.92188 1.28125,0 2.10937,1.125 v -0.96875 h 1.70313 v 6.20313 q 0,1.21875 -0.20313,1.8125 -0.1875,0.60937 -0.5625,0.95312 -0.35937,0.35938 -0.96875,0.54688 -0.60937,0.20312 -1.53125,0.20312 -1.76562,0 -2.5,-0.60937 -0.73437,-0.60938 -0.73437,-1.53125 0,-0.0937 0,-0.21875 z m 1.64062,-4.04688 q 0,1.09375 0.42188,1.60938 0.4375,0.5 1.04687,0.5 0.67188,0 1.14063,-0.51563 0.46875,-0.53125 0.46875,-1.54687 0,-1.07813 -0.45313,-1.59375 -0.4375,-0.53125 -1.10937,-0.53125 -0.65625,0 -1.09375,0.51562 -0.42188,0.51563 -0.42188,1.5625 z" />
  <path
     style="fill:#23529e;fill-rule:evenodd"
     inkscape:connector-curvature="0"
     id="path29"
     d="m 654.18573,35.034547 v 0 c 0,-3.90521 3.16583,-7.07101 7.07105,-7.07101 h 110.51941 c 1.8753,0 3.67382,0.74499 4.99993,2.07104 1.32605,1.32608 2.07105,3.12463 2.07105,4.99997 v 28.28317 c 0,3.90522 -3.16583,7.07099 -7.07098,7.07099 H 661.25678 c -3.90522,0 -7.07105,-3.16577 -7.07105,-7.07099 z" />
  <path
     style="fill:#ffffff;fill-rule:nonzero"
     inkscape:connector-curvature="0"
     id="path31"
     d="m 683.78743,53.976087 v -9.54684 h 7.07812 v 1.62497 h -5.15625 v 2.10937 h 4.79688 v 1.60938 h -4.79688 v 2.59375 h 5.32813 v 1.60937 z m 10.7804,0 -2.78125,-6.90625 h 1.90625 l 1.3125,3.51563 0.375,1.1875 q 0.14062,-0.45313 0.1875,-0.59375 0.0937,-0.29688 0.1875,-0.59375 l 1.32812,-3.51563 h 1.875 l -2.75,6.90625 z m 6.88122,-4.79687 -1.67187,-0.3125 q 0.28125,-1 0.96875,-1.46875 0.6875,-0.48438 2.03125,-0.48438 1.21875,0 1.8125,0.29688 0.60937,0.28125 0.84375,0.73437 0.25,0.4375 0.25,1.625 l -0.0156,2.14063 q 0,0.90625 0.0781,1.34375 0.0937,0.42187 0.34375,0.92187 h -1.8125 q -0.0781,-0.1875 -0.17188,-0.54687 -0.0469,-0.15625 -0.0781,-0.20313 -0.46875,0.45313 -1,0.6875 -0.53125,0.21875 -1.14063,0.21875 -1.0625,0 -1.6875,-0.57812 -0.60937,-0.57813 -0.60937,-1.46875 0,-0.57813 0.28125,-1.03125 0.28125,-0.46875 0.78125,-0.70313 0.51562,-0.25 1.46875,-0.4375 1.28125,-0.23437 1.76562,-0.45312 v -0.17188 q 0,-0.53125 -0.26562,-0.75 -0.25,-0.23437 -0.96875,-0.23437 -0.48438,0 -0.76563,0.20312 -0.26562,0.1875 -0.4375,0.67188 z m 2.4375,1.48437 q -0.34375,0.10938 -1.10937,0.28125 -0.76563,0.15625 -1,0.3125 -0.35938,0.25 -0.35938,0.64063 0,0.39062 0.28125,0.67187 0.29688,0.28125 0.73438,0.28125 0.5,0 0.95312,-0.32812 0.32813,-0.25 0.4375,-0.60938 0.0625,-0.23437 0.0625,-0.89062 z m 3.59998,3.3125 v -9.54684 h 1.82812 v 9.54684 z m 8.24981,0 v -1.03125 q -0.375,0.54688 -1,0.875 -0.60937,0.3125 -1.28125,0.3125 -0.70312,0 -1.26562,-0.29687 -0.54688,-0.3125 -0.79688,-0.85938 -0.23437,-0.5625 -0.23437,-1.53125 v -4.375 h 1.82812 v 3.17188 q 0,1.45312 0.0937,1.78125 0.10938,0.32812 0.375,0.53125 0.26563,0.1875 0.67188,0.1875 0.46875,0 0.84375,-0.25 0.375,-0.26563 0.5,-0.64063 0.14062,-0.39062 0.14062,-1.875 v -2.90625 h 1.82813 v 6.90625 z m 4.96949,-4.79687 -1.67188,-0.3125 q 0.28125,-1 0.96875,-1.46875 0.6875,-0.48438 2.03125,-0.48438 1.21875,0 1.8125,0.29688 0.60938,0.28125 0.84375,0.73437 0.25,0.4375 0.25,1.625 l -0.0156,2.14063 q 0,0.90625 0.0781,1.34375 0.0937,0.42187 0.34375,0.92187 h -1.8125 q -0.0781,-0.1875 -0.17187,-0.54687 -0.0469,-0.15625 -0.0781,-0.20313 -0.46875,0.45313 -1,0.6875 -0.53125,0.21875 -1.14062,0.21875 -1.0625,0 -1.6875,-0.57812 -0.60938,-0.57813 -0.60938,-1.46875 0,-0.57813 0.28125,-1.03125 0.28125,-0.46875 0.78125,-0.70313 0.51563,-0.25 1.46875,-0.4375 1.28125,-0.23437 1.76563,-0.45312 v -0.17188 q 0,-0.53125 -0.26563,-0.75 -0.25,-0.23437 -0.96875,-0.23437 -0.48437,0 -0.76562,0.20312 -0.26563,0.1875 -0.4375,0.67188 z m 2.4375,1.48437 q -0.34375,0.10938 -1.10938,0.28125 -0.76562,0.15625 -1,0.3125 -0.35937,0.25 -0.35937,0.64063 0,0.39062 0.28125,0.67187 0.29687,0.28125 0.73437,0.28125 0.5,0 0.95313,-0.32812 0.32812,-0.25 0.4375,-0.60938 0.0625,-0.23437 0.0625,-0.89062 z m 6.77185,-3.59375 v 1.45313 h -1.25 v 2.78125 q 0,0.84375 0.0312,0.98437 0.0469,0.14063 0.17187,0.23438 0.125,0.0937 0.3125,0.0937 0.25,0 0.73438,-0.17188 l 0.15625,1.42188 q -0.64063,0.26562 -1.45313,0.26562 -0.48437,0 -0.89062,-0.15625 -0.39063,-0.17187 -0.57813,-0.4375 -0.1875,-0.26562 -0.26562,-0.71875 -0.0469,-0.3125 -0.0469,-1.28125 v -3.01562 h -0.84375 v -1.45313 h 0.84375 v -1.37497 l 1.82813,-1.07812 v 2.45309 z m 1.26654,-0.9375 v -1.70309 h 1.82812 v 1.70309 z m 0,7.84375 v -6.90625 h 1.82812 v 6.90625 z m 3.28106,-3.54687 q 0,-0.92188 0.45313,-1.76563 0.45312,-0.85937 1.26562,-1.29687 0.82813,-0.45313 1.84375,-0.45313 1.5625,0 2.5625,1.01563 1.01563,1.01562 1.01563,2.57812 0,1.5625 -1.01563,2.59375 -1.01562,1.03125 -2.54687,1.03125 -0.95313,0 -1.8125,-0.42187 -0.85938,-0.4375 -1.3125,-1.26563 -0.45313,-0.82812 -0.45313,-2.01562 z m 1.875,0.0937 q 0,1.03125 0.48438,1.57812 0.5,0.54688 1.20312,0.54688 0.71875,0 1.20313,-0.54688 0.48437,-0.54687 0.48437,-1.59375 0,-1.01562 -0.48437,-1.5625 -0.48438,-0.54687 -1.20313,-0.54687 -0.70312,0 -1.20312,0.54687 -0.48438,0.54688 -0.48438,1.57813 z m 12.98511,3.45312 h -1.82812 v -3.53125 q 0,-1.10937 -0.125,-1.4375 -0.10938,-0.32812 -0.375,-0.51562 -0.26563,-0.1875 -0.64063,-0.1875 -0.46875,0 -0.85937,0.26562 -0.375,0.26563 -0.51563,0.70313 -0.14062,0.42187 -0.14062,1.57812 v 3.125 h -1.82813 v -6.90625 h 1.70313 v 1.01563 q 0.90625,-1.17188 2.28125,-1.17188 0.60937,0 1.10937,0.21875 0.5,0.21875 0.75,0.5625 0.26563,0.32813 0.35938,0.76563 0.10937,0.42187 0.10937,1.21875 z" />
  <path
     style="fill:#23529e;fill-rule:evenodd"
     inkscape:connector-curvature="0"
     id="path33"
     d="m 811.84803,35.034547 v 0 c 0,-3.90521 3.16583,-7.07101 7.07105,-7.07101 h 110.51935 c 1.87536,0 3.67388,0.74499 5,2.07104 1.32604,1.32608 2.07104,3.12463 2.07104,4.99997 v 28.28317 c 0,3.90522 -3.16583,7.07099 -7.07104,7.07099 H 818.91908 c -3.90522,0 -7.07105,-3.16577 -7.07105,-7.07099 z" />
  <path
     style="fill:#ffffff;fill-rule:nonzero"
     inkscape:connector-curvature="0"
     id="path35"
     d="m 837.00808,44.429267 h 3.51562 q 1.1875,0 1.8125,0.1875 0.84375,0.25 1.4375,0.89062 0.60938,0.62497 0.92188,1.54685 0.3125,0.90625 0.3125,2.25 0,1.17187 -0.29688,2.01562 -0.35937,1.04688 -1.03125,1.6875 -0.5,0.5 -1.34375,0.76563 -0.64062,0.20312 -1.70312,0.20312 h -3.625 z m 1.92187,1.62497 v 6.3125 h 1.4375 q 0.8125,0 1.17188,-0.0937 0.46875,-0.10938 0.76562,-0.39063 0.3125,-0.28125 0.5,-0.92187 0.20313,-0.64063 0.20313,-1.75 0,-1.10938 -0.20313,-1.6875 -0.1875,-0.59375 -0.54687,-0.92188 -0.34375,-0.34375 -0.875,-0.45312 -0.40625,-0.0937 -1.59375,-0.0937 z m 11.68769,5.71875 1.82812,0.3125 q -0.34375,1 -1.10937,1.53125 -0.76563,0.51562 -1.89063,0.51562 -1.8125,0 -2.67187,-1.17187 -0.6875,-0.95313 -0.6875,-2.39063 0,-1.71875 0.89062,-2.6875 0.90625,-0.96875 2.28125,-0.96875 1.54688,0 2.4375,1.01563 0.89063,1.01562 0.84375,3.125 h -4.57812 q 0.0156,0.8125 0.4375,1.26562 0.42187,0.45313 1.0625,0.45313 0.42187,0 0.71875,-0.23438 0.29687,-0.23437 0.4375,-0.76562 z m 0.10937,-1.84375 q -0.0156,-0.79688 -0.40625,-1.20313 -0.39062,-0.42187 -0.95312,-0.42187 -0.59375,0 -0.98438,0.4375 -0.39062,0.4375 -0.39062,1.1875 z m 3.25623,-2.85938 h 1.70312 v 1.01563 q 0.32813,-0.53125 0.89063,-0.84375 0.57812,-0.32813 1.26562,-0.32813 1.20313,0 2.03125,0.9375 0.84375,0.9375 0.84375,2.625 0,1.73438 -0.84375,2.70313 -0.84375,0.95312 -2.04687,0.95312 -0.57813,0 -1.04688,-0.21875 -0.45312,-0.23437 -0.96875,-0.79687 v 3.48437 h -1.82812 z m 1.8125,3.32813 q 0,1.17187 0.45312,1.73437 0.46875,0.54688 1.125,0.54688 0.64063,0 1.0625,-0.5 0.42188,-0.51563 0.42188,-1.6875 0,-1.07813 -0.4375,-1.60938 -0.4375,-0.53125 -1.07813,-0.53125 -0.67187,0 -1.10937,0.51563 -0.4375,0.51562 -0.4375,1.53125 z m 6.37573,3.57812 v -9.54684 h 1.82813 v 9.54684 z m 3.28107,-3.54687 q 0,-0.92188 0.45312,-1.76563 0.45313,-0.85937 1.26563,-1.29687 0.82812,-0.45313 1.84375,-0.45313 1.5625,0 2.5625,1.01563 1.01562,1.01562 1.01562,2.57812 0,1.5625 -1.01562,2.59375 -1.01563,1.03125 -2.54688,1.03125 -0.95312,0 -1.8125,-0.42187 -0.85937,-0.4375 -1.3125,-1.26563 -0.45312,-0.82812 -0.45312,-2.01562 z m 1.875,0.0937 q 0,1.03125 0.48437,1.57812 0.5,0.54688 1.20313,0.54688 0.71875,0 1.20312,-0.54688 0.48438,-0.54687 0.48438,-1.59375 0,-1.01562 -0.48438,-1.5625 -0.48437,-0.54687 -1.20312,-0.54687 -0.70313,0 -1.20313,0.54687 -0.48437,0.54688 -0.48437,1.57813 z m 5.82886,-3.45313 h 1.9375 l 1.65625,4.90625 1.60937,-4.90625 h 1.90625 l -2.45312,6.64063 -0.42188,1.20312 q -0.25,0.60938 -0.46875,0.92188 -0.21875,0.32812 -0.5,0.51562 -0.28125,0.20313 -0.70312,0.3125 -0.40625,0.125 -0.92188,0.125 -0.53125,0 -1.03125,-0.125 l -0.17187,-1.42187 q 0.4375,0.0781 0.78125,0.0781 0.64062,0 0.9375,-0.375 0.3125,-0.375 0.46875,-0.95312 z m 8.13122,0 h 1.6875 v 0.9375 q 0.90625,-1.09375 2.15625,-1.09375 0.67188,0 1.15625,0.28125 0.48438,0.26563 0.79688,0.8125 0.45312,-0.54687 0.98437,-0.8125 0.53125,-0.28125 1.125,-0.28125 0.76563,0 1.28125,0.3125 0.53125,0.29688 0.79688,0.90625 0.1875,0.4375 0.1875,1.42188 v 4.42187 h -1.82813 v -3.95307 q 0,-1.03125 -0.1875,-1.32813 -0.25,-0.39062 -0.78125,-0.39062 -0.39062,0 -0.73437,0.23437 -0.32813,0.23438 -0.48438,0.6875 -0.14062,0.45313 -0.14062,1.4375 v 3.3125 h -1.82813 v -3.78125 q 0,-1.01562 -0.10937,-1.29687 -0.0937,-0.29688 -0.29688,-0.4375 -0.20312,-0.15625 -0.54687,-0.15625 -0.42188,0 -0.76563,0.23437 -0.34375,0.21875 -0.48437,0.65625 -0.14063,0.42188 -0.14063,1.42188 v 3.35937 h -1.84375 z m 15.99152,4.70313 1.82812,0.3125 q -0.34375,1 -1.10937,1.53125 -0.76563,0.51562 -1.89063,0.51562 -1.8125,0 -2.67187,-1.17187 -0.6875,-0.95313 -0.6875,-2.39063 0,-1.71875 0.89062,-2.6875 0.90625,-0.96875 2.28125,-0.96875 1.54688,0 2.4375,1.01563 0.89063,1.01562 0.84375,3.125 h -4.57812 q 0.0156,0.8125 0.4375,1.26562 0.42187,0.45313 1.0625,0.45313 0.42187,0 0.71875,-0.23438 0.29687,-0.23437 0.4375,-0.76562 z m 0.10937,-1.84375 q -0.0156,-0.79688 -0.40625,-1.20313 -0.39062,-0.42187 -0.95312,-0.42187 -0.59375,0 -0.98438,0.4375 -0.39062,0.4375 -0.39062,1.1875 z m 9.59998,4.04687 h -1.82813 v -3.53125 q 0,-1.10937 -0.125,-1.4375 -0.10937,-0.32812 -0.375,-0.51562 -0.26562,-0.1875 -0.64062,-0.1875 -0.46875,0 -0.85938,0.26562 -0.375,0.26563 -0.51562,0.70313 -0.14063,0.42187 -0.14063,1.57812 v 3.125 h -1.82812 v -6.90625 h 1.70312 v 1.01563 q 0.90625,-1.17188 2.28125,-1.17188 0.60938,0 1.10938,0.21875 0.5,0.21875 0.75,0.5625 0.26562,0.32813 0.35937,0.76563 0.10938,0.42187 0.10938,1.21875 z m 5.01636,-6.90625 v 1.45313 h -1.25 v 2.78125 q 0,0.84375 0.0312,0.98437 0.0469,0.14063 0.17187,0.23438 0.125,0.0937 0.3125,0.0937 0.25,0 0.73438,-0.17188 l 0.15625,1.42188 q -0.64063,0.26562 -1.45313,0.26562 -0.48437,0 -0.89062,-0.15625 -0.39063,-0.17187 -0.57813,-0.4375 -0.1875,-0.26562 -0.26562,-0.71875 -0.0469,-0.3125 -0.0469,-1.28125 v -3.01552 h -0.84375 v -1.45313 h 0.84375 v -1.37497 l 1.82813,-1.07812 v 2.45309 z" />
  <path
     style="fill:#000000;fill-opacity:0;fill-rule:evenodd"
     inkscape:connector-curvature="0"
     id="path37"
     d="m 149.30855,41.176207 h 24" />
  <path
     style="fill-rule:evenodd;stroke:#666666;stroke-width:2;stroke-linecap:butt;stroke-linejoin:round"
     inkscape:connector-curvature="0"
     id="path39"
     d="m 149.30855,41.176207 h 12" />
  <path
     style="fill:#666666;fill-rule:evenodd;stroke:#666666;stroke-width:2;stroke-linecap:butt"
     inkscape:connector-curvature="0"
     id="path41"
     d="m 161.30855,44.479687 9.0762,-3.30347 -9.0762,-3.30346 z" />
  <path
     style="fill:#000000;fill-opacity:0;fill-rule:evenodd"
     inkscape:connector-curvature="0"
     id="path43"
     d="m 173.30782,57.175937 h -24" />
  <path
     style="fill-rule:evenodd;stroke:#666666;stroke-width:2;stroke-linecap:butt;stroke-linejoin:round"
     inkscape:connector-curvature="0"
     id="path45"
     d="m 173.30782,57.175937 h -12" />
  <path
     style="fill:#666666;fill-rule:evenodd;stroke:#666666;stroke-width:2;stroke-linecap:butt"
     inkscape:connector-curvature="0"
     id="path47"
     d="m 161.30782,53.872487 -9.0762,3.30347 9.0762,3.30346 z" />
  <path
     style="fill:#000000;fill-opacity:0;fill-rule:evenodd"
     inkscape:connector-curvature="0"
     id="path49"
     d="m 307.19833,49.386187 h 24" />
  <path
     style="fill-rule:evenodd;stroke:#666666;stroke-width:2;stroke-linecap:butt;stroke-linejoin:round"
     inkscape:connector-curvature="0"
     id="path51"
     d="m 307.19833,49.386187 h 12" />
  <path
     style="fill:#666666;fill-rule:evenodd;stroke:#666666;stroke-width:2;stroke-linecap:butt"
     inkscape:connector-curvature="0"
     id="path53"
     d="m 319.19833,52.689587 9.0762,-3.30341 -9.0762,-3.30346 z" />
  <path
     style="fill:#000000;fill-opacity:0;fill-rule:evenodd"
     inkscape:connector-curvature="0"
     id="path55"
     d="m 465.80855,41.176207 h 24" />
  <path
     style="fill-rule:evenodd;stroke:#666666;stroke-width:2;stroke-linecap:butt;stroke-linejoin:round"
     inkscape:connector-curvature="0"
     id="path57"
     d="m 465.80855,41.176207 h 12" />
  <path
     style="fill:#666666;fill-rule:evenodd;stroke:#666666;stroke-width:2;stroke-linecap:butt"
     inkscape:connector-curvature="0"
     id="path59"
     d="m 477.80855,44.479687 9.0762,-3.30347 -9.0762,-3.30346 z" />
  <path
     style="fill:#000000;fill-opacity:0;fill-rule:evenodd"
     inkscape:connector-curvature="0"
     id="path61"
     d="m 489.80783,57.175937 h -24" />
  <path
     style="fill-rule:evenodd;stroke:#666666;stroke-width:2;stroke-linecap:butt;stroke-linejoin:round"
     inkscape:connector-curvature="0"
     id="path63"
     d="m 489.80783,57.175937 h -12" />
  <path
     style="fill:#666666;fill-rule:evenodd;stroke:#666666;stroke-width:2;stroke-linecap:butt"
     inkscape:connector-curvature="0"
     id="path65"
     d="m 477.80783,53.872487 -9.0762,3.30347 9.0762,3.30346 z" />
  <path
     style="fill:#000000;fill-opacity:0;fill-rule:evenodd"
     inkscape:connector-curvature="0"
     id="path67"
     d="m 625.69833,49.386187 h 24" />
  <path
     style="fill-rule:evenodd;stroke:#666666;stroke-width:2;stroke-linecap:butt;stroke-linejoin:round"
     inkscape:connector-curvature="0"
     id="path69"
     d="m 625.69833,49.386187 h 12" />
  <path
     style="fill:#666666;fill-rule:evenodd;stroke:#666666;stroke-width:2;stroke-linecap:butt"
     inkscape:connector-curvature="0"
     id="path71"
     d="m 637.69833,52.689587 9.07617,-3.30341 -9.07617,-3.30346 z" />
  <path
     style="fill:#000000;fill-opacity:0;fill-rule:evenodd"
     inkscape:connector-curvature="0"
     id="path73"
     d="m 784.19833,49.386187 h 24" />
  <path
     style="fill-rule:evenodd;stroke:#666666;stroke-width:2;stroke-linecap:butt;stroke-linejoin:round"
     inkscape:connector-curvature="0"
     id="path75"
     d="m 784.19833,49.386187 h 12" />
  <path
     style="fill:#666666;fill-rule:evenodd;stroke:#666666;stroke-width:2;stroke-linecap:butt"
     inkscape:connector-curvature="0"
     id="path77"
     d="m 796.19833,52.689587 9.07617,-3.30341 -9.07617,-3.30346 z" />
  <path
     style="fill:#000000;fill-opacity:0;fill-rule:evenodd"
     inkscape:connector-curvature="0"
     id="path79"
     d="m 81.102306,75.228687 v 19.08014 H 720.76076 v -17.80835" />
  <path
     style="fill-rule:evenodd;stroke:#666666;stroke-width:2;stroke-linecap:butt;stroke-linejoin:round"
     inkscape:connector-curvature="0"
     id="path81"
     d="m 81.102306,82.082887 v 12.22595 H 720.76076 v -17.80835" />
  <path
     style="fill:#666666;fill-rule:evenodd;stroke:#666666;stroke-width:2;stroke-linecap:butt"
     inkscape:connector-curvature="0"
     id="path83"
     d="m 81.102306,82.082887 2.249168,2.24915 -2.249168,-6.17951 -2.249168,6.17951 z" />
  <path
     style="fill:#000000;fill-opacity:0;fill-rule:evenodd"
     inkscape:connector-curvature="0"
     id="path85"
     d="m 40.934785,22.542637 c -10.746288,-3.32062 -25.004171,7.59604 -28.11811,17.69605 -3.5413824,11.48638 5.022581,26.44799 16.068243,32.59533 16.197628,9.01453 37.3432,6.51856 56.233593,6.51856 16.067369,0 32.960589,4.71576 48.202109,0 9.08156,-2.80988 14.04459,-12.99695 17.07087,-21.42029 5.75358,-16.01459 -11.46227,-38.7453 -29.12075,-42.83808 -27.280181,-6.3228398 -56.232469,-0.93228 -84.351699,-0.93228" />
  <path
     style="fill-rule:evenodd;stroke:#ff0000;stroke-width:4;stroke-linecap:butt;stroke-linejoin:round;stroke-dasharray:16, 12"
     inkscape:connector-curvature="0"
     id="path87"
     d="m 515.57885,23.305349 c -10.74629,-3.32062 -25.00417,7.59604 -28.11811,17.69605 -3.54138,11.48638 5.02258,26.44799 16.06825,32.59533 16.19762,9.01453 37.3432,6.51856 56.23359,6.51856 16.06737,0 32.96059,4.71576 48.20211,0 9.08156,-2.80988 14.04459,-12.99695 17.07087,-21.42029 5.75358,-16.01459 -11.46227,-38.7453 -29.12075,-42.83808 -27.28018,-6.3228399 -56.23247,-0.93228 -84.3517,-0.93228" />
</svg>
