<?xml version="1.0" encoding="UTF-8" standalone="no"?>
<svg
   xmlns:dc="http://purl.org/dc/elements/1.1/"
   xmlns:cc="http://creativecommons.org/ns#"
   xmlns:rdf="http://www.w3.org/1999/02/22-rdf-syntax-ns#"
   xmlns:svg="http://www.w3.org/2000/svg"
   xmlns="http://www.w3.org/2000/svg"
   xmlns:sodipodi="http://sodipodi.sourceforge.net/DTD/sodipodi-0.dtd"
   xmlns:inkscape="http://www.inkscape.org/namespaces/inkscape"
   version="1.1"
   viewBox="0 0 334.82016 165.53242"
   stroke-miterlimit="10"
   id="svg133"
   sodipodi:docname="c_numpy_argsort.svg"
   width="334.82016"
   height="165.53242"
   style="fill:none;stroke:none;stroke-linecap:square;stroke-miterlimit:10"
   inkscape:export-filename="/home/alexeygrigorev/Dropbox/book/projects/figures/apC/c_numpy_argsort.png"
   inkscape:export-xdpi="96.271172"
   inkscape:export-ydpi="96.271172"
   inkscape:version="0.92.4 (unknown)">
  <metadata
     id="metadata139">
    <rdf:RDF>
      <cc:Work
         rdf:about="">
        <dc:format>image/svg+xml</dc:format>
        <dc:type
           rdf:resource="http://purl.org/dc/dcmitype/StillImage" />
        <dc:title></dc:title>
      </cc:Work>
    </rdf:RDF>
  </metadata>
  <defs
     id="defs137" />
  <sodipodi:namedview
     pagecolor="#ffffff"
     bordercolor="#666666"
     borderopacity="1"
     objecttolerance="10"
     gridtolerance="10"
     guidetolerance="10"
     inkscape:pageopacity="0"
     inkscape:pageshadow="2"
     inkscape:window-width="1853"
     inkscape:window-height="1025"
     id="namedview135"
     showgrid="false"
     fit-margin-top="10"
     fit-margin-left="10"
     fit-margin-right="10"
     fit-margin-bottom="10"
     inkscape:zoom="1.7481481"
     inkscape:cx="287.06423"
     inkscape:cy="-42.36022"
     inkscape:window-x="67"
     inkscape:window-y="27"
     inkscape:window-maximized="1"
     inkscape:current-layer="svg133" />
  <clipPath
     id="p.0">
    <path
       d="M 0,0 H 720 V 540 H 0 Z"
       id="path2"
       inkscape:connector-curvature="0"
       style="clip-rule:nonzero" />
  </clipPath>
  <path
     style="fill:#000000;fill-rule:nonzero"
     inkscape:connector-curvature="0"
     id="path9"
     d="m 17.311834,89.385595 v -1.125 q -1.6875,1.4375 -3.625,1.4375 -1.40625,0 -2.1875,-0.70313 -0.78125,-0.71875 -0.78125,-1.75 0,-1.14062 1.03125,-1.98437 1.046875,-0.84375 3.03125,-0.84375 0.546875,0 1.171875,0.0781 0.625,0.0625 1.359375,0.21875 v -1.26562 q 0,-0.64063 -0.59375,-1.10938 -0.59375,-0.48437 -1.78125,-0.48437 -0.90625,0 -2.546875,0.53125 -0.296875,0.0937 -0.375,0.0937 -0.15625,0 -0.265625,-0.10938 -0.109375,-0.10937 -0.109375,-0.28125 0,-0.15625 0.09375,-0.25 0.140625,-0.14062 1.0625,-0.375 1.4375,-0.39062 2.1875,-0.39062 1.46875,0 2.296875,0.73437 0.828125,0.71875 0.828125,1.64063 v 5.15625 h 1.03125 q 0.296875,0 0.40625,0.10937 0.125,0.10938 0.125,0.28125 0,0.17188 -0.125,0.28125 -0.109375,0.10938 -0.40625,0.10938 z m 0,-3.875 q -0.546875,-0.15625 -1.15625,-0.23438 -0.609375,-0.0781 -1.28125,-0.0781 -1.703125,0 -2.65625,0.73437 -0.734375,0.54688 -0.734375,1.3125 0,0.70313 0.546875,1.1875 0.5625,0.48438 1.625,0.48438 1,0 1.859375,-0.40625 0.875,-0.40625 1.796875,-1.28125 z m 8.22998,-4.15625 v 1.96875 q 1.531246,-1.375 2.281246,-1.76563 0.75,-0.40625 1.39063,-0.40625 0.70312,0 1.29687,0.46875 0.59375,0.46875 0.59375,0.71875 0,0.17188 -0.10937,0.29688 -0.10938,0.10937 -0.29688,0.10937 -0.0937,0 -0.15625,-0.0312 -0.0625,-0.0312 -0.23437,-0.21875 -0.32813,-0.3125 -0.57813,-0.4375 -0.23437,-0.125 -0.46875,-0.125 -0.5,0 -1.21875,0.40625 -0.71875,0.40625 -2.499996,2 v 4.26563 h 3.453126 q 0.28125,0 0.40625,0.10937 0.125,0.10938 0.125,0.28125 0,0.17188 -0.125,0.28125 -0.125,0.10938 -0.40625,0.10938 h -6.109376 q -0.28125,0 -0.40625,-0.10938 -0.109375,-0.10937 -0.109375,-0.26562 0,-0.15625 0.109375,-0.26563 0.109375,-0.10937 0.40625,-0.10937 h 1.875 v -6.5 h -1.4375 q -0.28125,0 -0.40625,-0.10938 -0.109375,-0.10937 -0.109375,-0.28125 0,-0.17187 0.109375,-0.28125 0.125,-0.10937 0.40625,-0.10937 z m 14.964356,1.42187 v -1.42187 h 1.82812 q 0.26563,0 0.39063,0.10937 0.125,0.10938 0.125,0.28125 0,0.17188 -0.125,0.28125 -0.125,0.10938 -0.39063,0.10938 h -1.0625 v 7.78125 q 0,0.78125 -0.32812,1.40625 -0.21875,0.40625 -0.75,0.82812 -0.51563,0.4375 -0.9375,0.625 -0.42188,0.1875 -1.14063,0.1875 h -2.20312 q -0.28125,0 -0.40625,-0.10937 -0.125,-0.0937 -0.125,-0.28125 0,-0.17188 0.125,-0.28125 0.125,-0.10938 0.40625,-0.10938 h 2.23437 q 0.6875,0 1.23438,-0.35937 0.54687,-0.34375 0.92187,-1.01563 0.20313,-0.39062 0.20313,-1 v -2.32812 q -1.26563,1.71875 -3.23438,1.71875 -1.60937,0 -2.78125,-1.1875 -1.15625,-1.20313 -1.15625,-2.89063 0,-1.67187 1.15625,-2.85937 1.17188,-1.1875 2.78125,-1.1875 1.96875,0 3.23438,1.70312 z m 0,2.34375 q 0,-1.35937 -0.95313,-2.3125 -0.9375,-0.95312 -2.25,-0.95312 -1.29687,0 -2.23437,0.95312 -0.9375,0.95313 -0.9375,2.3125 0,1.375 0.9375,2.32813 0.9375,0.95312 2.23437,0.95312 1.3125,0 2.25,-0.95312 0.95313,-0.95313 0.95313,-2.32813 z m 11.35498,-3.26562 q 0,-0.26563 0.10937,-0.375 0.10938,-0.125 0.28125,-0.125 0.17188,0 0.28125,0.125 0.10938,0.10937 0.10938,0.40625 v 1.32812 q 0,0.28125 -0.10938,0.40625 -0.10937,0.10938 -0.28125,0.10938 -0.17187,0 -0.28125,-0.0937 -0.0937,-0.10938 -0.10937,-0.34375 -0.0625,-0.54688 -0.57813,-0.90625 -0.76562,-0.53125 -2.01562,-0.53125 -1.3125,0 -2.03125,0.53125 -0.54688,0.40625 -0.54688,0.89062 0,0.5625 0.64063,0.9375 0.45312,0.25 1.70312,0.39063 1.60938,0.17187 2.25,0.40625 0.89063,0.32812 1.32813,0.90625 0.45312,0.5625 0.45312,1.23437 0,0.98438 -0.95312,1.76563 -0.95313,0.78125 -2.8125,0.78125 -1.84375,0 -3.01563,-0.9375 0,0.3125 -0.0469,0.40625 -0.0312,0.0937 -0.125,0.15625 -0.0937,0.0625 -0.21875,0.0625 -0.17188,0 -0.28125,-0.10938 -0.10938,-0.125 -0.10938,-0.40625 v -1.60937 q 0,-0.28125 0.10938,-0.39063 0.10937,-0.125 0.28125,-0.125 0.17187,0 0.28125,0.125 0.10937,0.10938 0.10937,0.29688 0,0.42187 0.21875,0.71875 0.32813,0.4375 1.03125,0.73437 0.71875,0.29688 1.75,0.29688 1.51563,0 2.25,-0.5625 0.75,-0.57813 0.75,-1.20313 0,-0.71875 -0.75,-1.15625 -0.76562,-0.4375 -2.21875,-0.57812 -1.45312,-0.15625 -2.07812,-0.39063 -0.625,-0.25 -0.98438,-0.73437 -0.35937,-0.48438 -0.35937,-1.03125 0,-1.01563 0.98437,-1.59375 0.98438,-0.59375 2.35938,-0.59375 1.60937,0 2.625,0.78125 z m 13.1831,3.53125 q 0,1.78125 -1.28125,3.04687 -1.28125,1.26563 -3.07812,1.26563 -1.8125,0 -3.09375,-1.26563 -1.26563,-1.28125 -1.26563,-3.04687 0,-1.78125 1.26563,-3.04688 1.28125,-1.26562 3.09375,-1.26562 1.79687,0 3.07812,1.26562 1.28125,1.25 1.28125,3.04688 z m -0.79687,0 q 0,-1.46875 -1.04688,-2.5 -1.03125,-1.03125 -2.51562,-1.03125 -1.48438,0 -2.53125,1.04687 -1.04688,1.03125 -1.04688,2.48438 0,1.45312 1.04688,2.5 1.04687,1.03125 2.53125,1.03125 1.48437,0 2.51562,-1.03125 1.04688,-1.04688 1.04688,-2.5 z m 6.90185,-4.03125 v 1.96875 q 1.53125,-1.375 2.28125,-1.76563 0.75,-0.40625 1.39063,-0.40625 0.70312,0 1.29687,0.46875 0.59375,0.46875 0.59375,0.71875 0,0.17188 -0.10937,0.29688 -0.10938,0.10937 -0.29688,0.10937 -0.0937,0 -0.15625,-0.0312 -0.0625,-0.0312 -0.23437,-0.21875 -0.32813,-0.3125 -0.57813,-0.4375 -0.23437,-0.125 -0.46875,-0.125 -0.5,0 -1.21875,0.40625 -0.71875,0.40625 -2.5,2 v 4.26563 h 3.45313 q 0.28125,0 0.40625,0.10937 0.125,0.10938 0.125,0.28125 0,0.17188 -0.125,0.28125 -0.125,0.10938 -0.40625,0.10938 h -6.10938 q -0.28125,0 -0.40625,-0.10938 -0.10937,-0.10937 -0.10937,-0.26562 0,-0.15625 0.10937,-0.26563 0.10938,-0.10937 0.40625,-0.10937 h 1.875 v -6.5 h -1.4375 q -0.28125,0 -0.40625,-0.10938 -0.10937,-0.10937 -0.10937,-0.28125 0,-0.17187 0.10937,-0.28125 0.125,-0.10937 0.40625,-0.10937 z m 10.72998,0 h 4.23438 q 0.28125,0 0.39062,0.10937 0.125,0.10938 0.125,0.28125 0,0.17188 -0.125,0.28125 -0.10937,0.10938 -0.39062,0.10938 h -4.23438 v 5.1875 q 0,0.6875 0.54688,1.14062 0.54687,0.45313 1.59375,0.45313 0.78125,0 1.70312,-0.23438 0.92188,-0.25 1.4375,-0.54687 0.1875,-0.10938 0.29688,-0.10938 0.15625,0 0.26562,0.125 0.10938,0.10938 0.10938,0.26563 0,0.14062 -0.125,0.25 -0.29688,0.3125 -1.4375,0.67187 -1.14063,0.35938 -2.1875,0.35938 -1.375,0 -2.1875,-0.64063 -0.79688,-0.64062 -0.79688,-1.73437 v -5.1875 h -1.4375 q -0.28125,0 -0.40625,-0.10938 -0.10937,-0.10937 -0.10937,-0.28125 0,-0.17187 0.10937,-0.28125 0.125,-0.10937 0.40625,-0.10937 h 1.4375 v -2.29688 q 0,-0.28125 0.10938,-0.40625 0.10937,-0.125 0.28125,-0.125 0.17187,0 0.28125,0.125 0.10937,0.125 0.10937,0.40625 z" />
  <path
     style="fill:#ffffff;fill-rule:evenodd"
     inkscape:connector-curvature="0"
     id="path11"
     d="m 112.05242,30.401831 h 53.13385 v 24.125984 h -53.13385 z" />
  <path
     style="fill-rule:evenodd;stroke:#000000;stroke-width:1;stroke-linecap:butt;stroke-linejoin:round"
     inkscape:connector-curvature="0"
     id="path13"
     d="m 112.05242,30.401831 h 53.13385 v 24.125984 h -53.13385 z" />
  <path
     style="fill:#000000;fill-rule:nonzero"
     inkscape:connector-curvature="0"
     id="path15"
     d="m 131.07903,42.421075 q 0,2.60938 -0.8125,3.82813 -0.8125,1.21875 -2.53125,1.21875 -1.75,0 -2.5625,-1.23438 -0.79688,-1.23437 -0.79688,-3.79687 0,-2.59375 0.8125,-3.82813 0.8125,-1.234375 2.54688,-1.234375 1.73437,0 2.53125,1.265625 0.8125,1.25 0.8125,3.78125 z m -1.70313,2.95313 q 0.21875,-0.53125 0.29688,-1.23438 0.0937,-0.71875 0.0937,-1.71875 0,-1 -0.0937,-1.71875 -0.0781,-0.73437 -0.3125,-1.23437 -0.21875,-0.5 -0.625,-0.75 -0.39063,-0.26563 -1,-0.26563 -0.625,0 -1.03125,0.26563 -0.39063,0.25 -0.625,0.75 -0.21875,0.48437 -0.29688,1.26562 -0.0781,0.76563 -0.0781,1.70313 0,1.01562 0.0625,1.70312 0.0781,0.67188 0.3125,1.21875 0.21875,0.5 0.60937,0.76563 0.39063,0.26562 1.04688,0.26562 0.60937,0 1,-0.25 0.40625,-0.25 0.64062,-0.76562 z m 5.78576,1.89062 h -1.5625 v -1.85937 h 1.5625 z m 9.47337,-2.73437 h -1.4375 v 2.73437 h -1.25 v -2.73437 h -4.64063 v -1.48438 l 4.6875,-5.46875 h 1.20313 v 5.92188 h 1.4375 z m -2.6875,-1.03125 v -4.375 l -3.75,4.375 z m 11.16075,1.03125 h -1.4375 v 2.73437 h -1.25 v -2.73437 h -4.64062 v -1.48438 l 4.6875,-5.46875 h 1.20312 v 5.92188 h 1.4375 z m -2.6875,-1.03125 v -4.375 l -3.75,4.375 z" />
  <path
     style="fill:#ffffff;fill-rule:evenodd"
     inkscape:connector-curvature="0"
     id="path17"
     d="m 165.05247,30.401831 h 53.13386 v 24.125984 h -53.13386 z" />
  <path
     style="fill-rule:evenodd;stroke:#000000;stroke-width:1;stroke-linecap:butt;stroke-linejoin:round"
     inkscape:connector-curvature="0"
     id="path19"
     d="m 165.05247,30.401831 h 53.13386 v 24.125984 h -53.13386 z" />
  <path
     style="fill:#000000;fill-rule:nonzero"
     inkscape:connector-curvature="0"
     id="path21"
     d="m 184.07909,42.421075 q 0,2.60938 -0.8125,3.82813 -0.81252,1.21875 -2.53127,1.21875 -1.75,0 -2.5625,-1.23438 -0.79687,-1.23437 -0.79687,-3.79687 0,-2.59375 0.8125,-3.82813 0.8125,-1.234375 2.54687,-1.234375 1.73438,0 2.53127,1.265625 0.8125,1.25 0.8125,3.78125 z m -1.70314,2.95313 q 0.21875,-0.53125 0.29687,-1.23438 0.0937,-0.71875 0.0937,-1.71875 0,-1 -0.0937,-1.71875 -0.0781,-0.73437 -0.3125,-1.23437 -0.21875,-0.5 -0.625,-0.75 -0.39062,-0.26563 -1,-0.26563 -0.625,0 -1.03125,0.26563 -0.39062,0.25 -0.625,0.75 -0.21875,0.48437 -0.29687,1.26562 -0.0781,0.76563 -0.0781,1.70313 0,1.01562 0.0625,1.70312 0.0781,0.67188 0.3125,1.21875 0.21875,0.5 0.60938,0.76563 0.39062,0.26562 1.04687,0.26562 0.60938,0 1,-0.25 0.40625,-0.25 0.64063,-0.76562 z m 5.78575,1.89062 h -1.5625 v -1.85937 h 1.5625 z m 9.23901,-4.84375 q 0,2.60938 -0.8125,3.82813 -0.8125,1.21875 -2.53125,1.21875 -1.75,0 -2.5625,-1.23438 -0.79687,-1.23437 -0.79687,-3.79687 0,-2.59375 0.8125,-3.82813 0.8125,-1.234375 2.54687,-1.234375 1.73438,0 2.53125,1.265625 0.8125,1.25 0.8125,3.78125 z m -1.70312,2.95313 q 0.21875,-0.53125 0.29687,-1.23438 0.0937,-0.71875 0.0937,-1.71875 0,-1 -0.0937,-1.71875 -0.0781,-0.73437 -0.3125,-1.23437 -0.21875,-0.5 -0.625,-0.75 -0.39062,-0.26563 -1,-0.26563 -0.625,0 -1.03125,0.26563 -0.39062,0.25 -0.625,0.75 -0.21875,0.48437 -0.29687,1.26562 -0.0781,0.76563 -0.0781,1.70313 0,1.01562 0.0625,1.70312 0.0781,0.67188 0.3125,1.21875 0.21875,0.5 0.60938,0.76563 0.39062,0.26562 1.04687,0.26562 0.60938,0 1,-0.25 0.40625,-0.25 0.64063,-0.76562 z m 9.33261,-2.78125 q 0.3125,0.28125 0.51563,0.70312 0.20312,0.42188 0.20312,1.09375 0,0.67188 -0.25,1.23438 -0.23437,0.54687 -0.67187,0.95312 -0.48438,0.45313 -1.14063,0.67188 -0.65625,0.21875 -1.45312,0.21875 -0.79688,0 -1.57813,-0.20313 -0.78125,-0.1875 -1.28125,-0.40625 v -1.35937 h 0.0937 q 0.54688,0.35937 1.29688,0.60937 0.75,0.23438 1.45312,0.23438 0.40625,0 0.85938,-0.14063 0.46875,-0.14062 0.75,-0.40625 0.29687,-0.28125 0.4375,-0.625 0.15625,-0.34375 0.15625,-0.875 0,-0.51562 -0.17188,-0.85937 -0.15625,-0.34375 -0.45312,-0.53125 -0.29688,-0.20313 -0.71875,-0.28125 -0.40625,-0.0781 -0.89063,-0.0781 h -0.57812 v -1.07812 h 0.45312 q 0.98438,0 1.57813,-0.40625 0.59375,-0.42188 0.59375,-1.21875 0,-0.34375 -0.15625,-0.60938 -0.14063,-0.26562 -0.42188,-0.4375 -0.26562,-0.17187 -0.59375,-0.23437 -0.3125,-0.0625 -0.71875,-0.0625 -0.625,0 -1.32812,0.21875 -0.6875,0.21875 -1.29688,0.625 h -0.0781 v -1.35938 q 0.46875,-0.234375 1.23437,-0.421875 0.78125,-0.1875 1.5,-0.1875 0.70313,0 1.25,0.140625 0.54688,0.125 0.96875,0.40625 0.46875,0.3125 0.70313,0.76563 0.25,0.4375 0.25,1.01562 0,0.8125 -0.57813,1.42188 -0.5625,0.59375 -1.32812,0.75 v 0.0937 q 0.3125,0.0469 0.70312,0.21875 0.40625,0.17187 0.6875,0.40625 z" />
  <path
     style="fill:#ffffff;fill-rule:evenodd"
     inkscape:connector-curvature="0"
     id="path23"
     d="m 218.05251,30.401831 h 53.13385 v 24.125984 h -53.13385 z" />
  <path
     style="fill-rule:evenodd;stroke:#000000;stroke-width:1;stroke-linecap:butt;stroke-linejoin:round"
     inkscape:connector-curvature="0"
     id="path25"
     d="m 218.05251,30.401831 h 53.13385 v 24.125984 h -53.13385 z" />
  <path
     style="fill:#000000;fill-rule:nonzero"
     inkscape:connector-curvature="0"
     id="path27"
     d="m 237.07913,42.421075 q 0,2.60938 -0.8125,3.82813 -0.8125,1.21875 -2.53125,1.21875 -1.75,0 -2.5625,-1.23438 -0.79688,-1.23437 -0.79688,-3.79687 0,-2.59375 0.8125,-3.82813 0.8125,-1.234375 2.54688,-1.234375 1.73437,0 2.53125,1.265625 0.8125,1.25 0.8125,3.78125 z m -1.70313,2.95313 q 0.21875,-0.53125 0.29688,-1.23438 0.0937,-0.71875 0.0937,-1.71875 0,-1 -0.0937,-1.71875 -0.0781,-0.73437 -0.3125,-1.23437 -0.21875,-0.5 -0.625,-0.75 -0.39063,-0.26563 -1,-0.26563 -0.625,0 -1.03125,0.26563 -0.39063,0.25 -0.625,0.75 -0.21875,0.48437 -0.29688,1.26562 -0.0781,0.76563 -0.0781,1.70313 0,1.01562 0.0625,1.70312 0.0781,0.67188 0.3125,1.21875 0.21875,0.5 0.60937,0.76563 0.39063,0.26562 1.04688,0.26562 0.60937,0 1,-0.25 0.40625,-0.25 0.64062,-0.76562 z m 5.78577,1.89062 h -1.5625 v -1.85937 h 1.5625 z m 9.17648,-3.07812 q 0,0.67187 -0.25,1.29687 -0.25,0.60938 -0.67187,1.04688 -0.46875,0.45312 -1.125,0.70312 -0.64063,0.23438 -1.5,0.23438 -0.78125,0 -1.53125,-0.17188 -0.73438,-0.15625 -1.23438,-0.39062 v -1.375 h 0.0937 q 0.53125,0.32812 1.25,0.57812 0.71875,0.23438 1.40625,0.23438 0.45313,0 0.89063,-0.125 0.4375,-0.14063 0.76562,-0.46875 0.29688,-0.28125 0.4375,-0.67188 0.14063,-0.39062 0.14063,-0.89062 0,-0.5 -0.17188,-0.84375 -0.17187,-0.35938 -0.46875,-0.5625 -0.34375,-0.25 -0.82812,-0.34375 -0.48438,-0.10938 -1.07813,-0.10938 -0.57812,0 -1.10937,0.0781 -0.53125,0.0781 -0.90625,0.15625 v -4.98438 h 5.82812 v 1.14063 h -4.57812 v 2.57812 q 0.28125,-0.0312 0.5625,-0.0469 0.29687,-0.0156 0.51562,-0.0156 0.78125,0 1.375,0.14063 0.59375,0.125 1.09375,0.46875 0.51563,0.35937 0.79688,0.92187 0.29687,0.5625 0.29687,1.42188 z m 8.47327,0 q 0,0.67187 -0.25,1.29687 -0.25,0.60938 -0.67187,1.04688 -0.46875,0.45312 -1.125,0.70312 -0.64063,0.23438 -1.5,0.23438 -0.78125,0 -1.53125,-0.17188 -0.73438,-0.15625 -1.23438,-0.39062 v -1.375 h 0.0937 q 0.53125,0.32812 1.25,0.57812 0.71875,0.23438 1.40625,0.23438 0.45313,0 0.89063,-0.125 0.4375,-0.14063 0.76562,-0.46875 0.29688,-0.28125 0.4375,-0.67188 0.14063,-0.39062 0.14063,-0.89062 0,-0.5 -0.17188,-0.84375 -0.17187,-0.35938 -0.46875,-0.5625 -0.34375,-0.25 -0.82812,-0.34375 -0.48438,-0.10938 -1.07813,-0.10938 -0.57812,0 -1.10937,0.0781 -0.53125,0.0781 -0.90625,0.15625 v -4.98438 h 5.82812 v 1.14063 h -4.57812 v 2.57812 q 0.28125,-0.0312 0.5625,-0.0469 0.29687,-0.0156 0.51562,-0.0156 0.78125,0 1.375,0.14063 0.59375,0.125 1.09375,0.46875 0.51563,0.35937 0.79688,0.92187 0.29687,0.5625 0.29687,1.42188 z" />
  <path
     style="fill:#ffffff;fill-rule:evenodd"
     inkscape:connector-curvature="0"
     id="path29"
     d="m 271.18627,30.401831 h 53.13388 v 24.125984 h -53.13388 z" />
  <path
     style="fill-rule:evenodd;stroke:#000000;stroke-width:1;stroke-linecap:butt;stroke-linejoin:round"
     inkscape:connector-curvature="0"
     id="path31"
     d="m 271.18627,30.401831 h 53.13388 v 24.125984 h -53.13388 z" />
  <path
     style="fill:#000000;fill-rule:nonzero"
     inkscape:connector-curvature="0"
     id="path33"
     d="m 290.21288,42.421075 q 0,2.60938 -0.8125,3.82813 -0.8125,1.21875 -2.53125,1.21875 -1.75,0 -2.5625,-1.23438 -0.79688,-1.23437 -0.79688,-3.79687 0,-2.59375 0.8125,-3.82813 0.8125,-1.234375 2.54688,-1.234375 1.73437,0 2.53125,1.265625 0.8125,1.25 0.8125,3.78125 z m -1.70313,2.95313 q 0.21875,-0.53125 0.29688,-1.23438 0.0937,-0.71875 0.0937,-1.71875 0,-1 -0.0937,-1.71875 -0.0781,-0.73437 -0.3125,-1.23437 -0.21875,-0.5 -0.625,-0.75 -0.39063,-0.26563 -1,-0.26563 -0.625,0 -1.03125,0.26563 -0.39063,0.25 -0.625,0.75 -0.21875,0.48437 -0.29688,1.26562 -0.0781,0.76563 -0.0781,1.70313 0,1.01562 0.0625,1.70312 0.0781,0.67188 0.3125,1.21875 0.21875,0.5 0.60937,0.76563 0.39063,0.26562 1.04688,0.26562 0.60937,0 1,-0.25 0.40625,-0.25 0.64062,-0.76562 z m 5.78577,1.89062 h -1.5625 v -1.85937 h 1.5625 z m 9.47336,-2.73437 h -1.4375 v 2.73437 h -1.25 v -2.73437 h -4.64063 v -1.48438 l 4.6875,-5.46875 h 1.20313 v 5.92188 h 1.4375 z m -2.6875,-1.03125 v -4.375 l -3.75,4.375 z m 11.16077,1.03125 h -1.4375 v 2.73437 h -1.25 v -2.73437 h -4.64063 v -1.48438 l 4.6875,-5.46875 h 1.20313 v 5.92188 h 1.4375 z m -2.6875,-1.03125 v -4.375 l -3.75,4.375 z" />
  <path
     style="fill:#ffffff;fill-rule:evenodd"
     inkscape:connector-curvature="0"
     id="path35"
     d="m 112.05242,110.40184 h 53.13385 v 24.12598 h -53.13385 z" />
  <path
     style="fill-rule:evenodd;stroke:#000000;stroke-width:1;stroke-linecap:butt;stroke-linejoin:round"
     inkscape:connector-curvature="0"
     id="path37"
     d="m 112.05242,110.40184 h 53.13385 v 24.12598 h -53.13385 z" />
  <path
     style="fill:#000000;fill-rule:nonzero"
     inkscape:connector-curvature="0"
     id="path39"
     d="m 131.07903,122.42108 q 0,2.60937 -0.8125,3.82812 -0.8125,1.21875 -2.53125,1.21875 -1.75,0 -2.5625,-1.23437 -0.79688,-1.23438 -0.79688,-3.79688 0,-2.59375 0.8125,-3.82812 0.8125,-1.23438 2.54688,-1.23438 1.73437,0 2.53125,1.26563 0.8125,1.25 0.8125,3.78125 z m -1.70313,2.95312 q 0.21875,-0.53125 0.29688,-1.23437 0.0937,-0.71875 0.0937,-1.71875 0,-1 -0.0937,-1.71875 -0.0781,-0.73438 -0.3125,-1.23438 -0.21875,-0.5 -0.625,-0.75 -0.39063,-0.26562 -1,-0.26562 -0.625,0 -1.03125,0.26562 -0.39063,0.25 -0.625,0.75 -0.21875,0.48438 -0.29688,1.26563 -0.0781,0.76562 -0.0781,1.70312 0,1.01563 0.0625,1.70313 0.0781,0.67187 0.3125,1.21875 0.21875,0.5 0.60937,0.76562 0.39063,0.26563 1.04688,0.26563 0.60937,0 1,-0.25 0.40625,-0.25 0.64062,-0.76563 z m 5.78576,1.89063 h -1.5625 v -1.85938 h 1.5625 z m 9.23899,-4.84375 q 0,2.60937 -0.8125,3.82812 -0.8125,1.21875 -2.53125,1.21875 -1.75,0 -2.5625,-1.23437 -0.79687,-1.23438 -0.79687,-3.79688 0,-2.59375 0.8125,-3.82812 0.8125,-1.23438 2.54687,-1.23438 1.73438,0 2.53125,1.26563 0.8125,1.25 0.8125,3.78125 z m -1.70312,2.95312 q 0.21875,-0.53125 0.29687,-1.23437 0.0937,-0.71875 0.0937,-1.71875 0,-1 -0.0937,-1.71875 -0.0781,-0.73438 -0.3125,-1.23438 -0.21875,-0.5 -0.625,-0.75 -0.39062,-0.26562 -1,-0.26562 -0.625,0 -1.03125,0.26562 -0.39062,0.25 -0.625,0.75 -0.21875,0.48438 -0.29687,1.26563 -0.0781,0.76562 -0.0781,1.70312 0,1.01563 0.0625,1.70313 0.0781,0.67187 0.3125,1.21875 0.21875,0.5 0.60938,0.76562 0.39062,0.26563 1.04687,0.26563 0.60938,0 1,-0.25 0.40625,-0.25 0.64063,-0.76563 z m 9.33263,-2.78125 q 0.3125,0.28125 0.51562,0.70313 0.20313,0.42187 0.20313,1.09375 0,0.67187 -0.25,1.23437 -0.23438,0.54688 -0.67188,0.95313 -0.48437,0.45312 -1.14062,0.67187 -0.65625,0.21875 -1.45313,0.21875 -0.79687,0 -1.57812,-0.20312 -0.78125,-0.1875 -1.28125,-0.40625 v -1.35938 h 0.0937 q 0.54687,0.35938 1.29687,0.60938 0.75,0.23437 1.45313,0.23437 0.40625,0 0.85937,-0.14062 0.46875,-0.14063 0.75,-0.40625 0.29688,-0.28125 0.4375,-0.625 0.15625,-0.34375 0.15625,-0.875 0,-0.51563 -0.17187,-0.85938 -0.15625,-0.34375 -0.45313,-0.53125 -0.29687,-0.20312 -0.71875,-0.28125 -0.40625,-0.0781 -0.89062,-0.0781 h -0.57813 v -1.07813 h 0.45313 q 0.98437,0 1.57812,-0.40625 0.59375,-0.42187 0.59375,-1.21875 0,-0.34375 -0.15625,-0.60937 -0.14062,-0.26563 -0.42187,-0.4375 -0.26563,-0.17188 -0.59375,-0.23438 -0.3125,-0.0625 -0.71875,-0.0625 -0.625,0 -1.32813,0.21875 -0.6875,0.21875 -1.29687,0.625 h -0.0781 v -1.35937 q 0.46875,-0.23438 1.23438,-0.42188 0.78125,-0.1875 1.5,-0.1875 0.70312,0 1.25,0.14063 0.54687,0.125 0.96875,0.40625 0.46875,0.3125 0.70312,0.76562 0.25,0.4375 0.25,1.01563 0,0.8125 -0.57812,1.42187 -0.5625,0.59375 -1.32813,0.75 v 0.0937 q 0.3125,0.0469 0.70313,0.21875 0.40625,0.17188 0.6875,0.40625 z" />
  <path
     style="fill:#ffffff;fill-rule:evenodd"
     inkscape:connector-curvature="0"
     id="path41"
     d="m 165.05247,110.40184 h 53.13386 v 24.12598 h -53.13386 z" />
  <path
     style="fill-rule:evenodd;stroke:#000000;stroke-width:1;stroke-linecap:butt;stroke-linejoin:round"
     inkscape:connector-curvature="0"
     id="path43"
     d="m 165.05247,110.40184 h 53.13386 v 24.12598 h -53.13386 z" />
  <path
     style="fill:#000000;fill-rule:nonzero"
     inkscape:connector-curvature="0"
     id="path45"
     d="m 184.07909,122.42108 q 0,2.60937 -0.8125,3.82812 -0.81252,1.21875 -2.53127,1.21875 -1.75,0 -2.5625,-1.23437 -0.79687,-1.23438 -0.79687,-3.79688 0,-2.59375 0.8125,-3.82812 0.8125,-1.23438 2.54687,-1.23438 1.73438,0 2.53127,1.26563 0.8125,1.25 0.8125,3.78125 z m -1.70314,2.95312 q 0.21875,-0.53125 0.29687,-1.23437 0.0937,-0.71875 0.0937,-1.71875 0,-1 -0.0937,-1.71875 -0.0781,-0.73438 -0.3125,-1.23438 -0.21875,-0.5 -0.625,-0.75 -0.39062,-0.26562 -1,-0.26562 -0.625,0 -1.03125,0.26562 -0.39062,0.25 -0.625,0.75 -0.21875,0.48438 -0.29687,1.26563 -0.0781,0.76562 -0.0781,1.70312 0,1.01563 0.0625,1.70313 0.0781,0.67187 0.3125,1.21875 0.21875,0.5 0.60938,0.76562 0.39062,0.26563 1.04687,0.26563 0.60938,0 1,-0.25 0.40625,-0.25 0.64063,-0.76563 z m 5.78575,1.89063 h -1.5625 v -1.85938 h 1.5625 z m 9.47339,-2.73438 h -1.4375 v 2.73438 h -1.25 v -2.73438 h -4.64063 v -1.48437 l 4.6875,-5.46875 h 1.20313 v 5.92187 h 1.4375 z m -2.6875,-1.03125 v -4.375 l -3.75,4.375 z m 11.16074,1.03125 h -1.4375 v 2.73438 h -1.25 v -2.73438 h -4.64063 v -1.48437 l 4.6875,-5.46875 h 1.20313 v 5.92187 h 1.4375 z m -2.6875,-1.03125 v -4.375 l -3.75,4.375 z" />
  <path
     style="fill:#ffffff;fill-rule:evenodd"
     inkscape:connector-curvature="0"
     id="path47"
     d="m 218.05251,110.40184 h 53.13385 v 24.12598 h -53.13385 z" />
  <path
     style="fill-rule:evenodd;stroke:#000000;stroke-width:1;stroke-linecap:butt;stroke-linejoin:round"
     inkscape:connector-curvature="0"
     id="path49"
     d="m 218.05251,110.40184 h 53.13385 v 24.12598 h -53.13385 z" />
  <path
     style="fill:#000000;fill-rule:nonzero"
     inkscape:connector-curvature="0"
     id="path51"
     d="m 237.07913,122.42108 q 0,2.60937 -0.8125,3.82812 -0.8125,1.21875 -2.53125,1.21875 -1.75,0 -2.5625,-1.23437 -0.79688,-1.23438 -0.79688,-3.79688 0,-2.59375 0.8125,-3.82812 0.8125,-1.23438 2.54688,-1.23438 1.73437,0 2.53125,1.26563 0.8125,1.25 0.8125,3.78125 z m -1.70313,2.95312 q 0.21875,-0.53125 0.29688,-1.23437 0.0937,-0.71875 0.0937,-1.71875 0,-1 -0.0937,-1.71875 -0.0781,-0.73438 -0.3125,-1.23438 -0.21875,-0.5 -0.625,-0.75 -0.39063,-0.26562 -1,-0.26562 -0.625,0 -1.03125,0.26562 -0.39063,0.25 -0.625,0.75 -0.21875,0.48438 -0.29688,1.26563 -0.0781,0.76562 -0.0781,1.70312 0,1.01563 0.0625,1.70313 0.0781,0.67187 0.3125,1.21875 0.21875,0.5 0.60937,0.76562 0.39063,0.26563 1.04688,0.26563 0.60937,0 1,-0.25 0.40625,-0.25 0.64062,-0.76563 z m 5.78577,1.89063 h -1.5625 v -1.85938 h 1.5625 z m 9.17648,-3.07813 q 0,0.67188 -0.25,1.29688 -0.25,0.60937 -0.67187,1.04687 -0.46875,0.45313 -1.125,0.70313 -0.64063,0.23437 -1.5,0.23437 -0.78125,0 -1.53125,-0.17187 -0.73438,-0.15625 -1.23438,-0.39063 v -1.375 h 0.0937 q 0.53125,0.32813 1.25,0.57813 0.71875,0.23437 1.40625,0.23437 0.45313,0 0.89063,-0.125 0.4375,-0.14062 0.76562,-0.46875 0.29688,-0.28125 0.4375,-0.67187 0.14063,-0.39063 0.14063,-0.89063 0,-0.5 -0.17188,-0.84375 -0.17187,-0.35937 -0.46875,-0.5625 -0.34375,-0.25 -0.82812,-0.34375 -0.48438,-0.10937 -1.07813,-0.10937 -0.57812,0 -1.10937,0.0781 -0.53125,0.0781 -0.90625,0.15625 v -4.98438 h 5.82812 v 1.14063 h -4.57812 v 2.57812 q 0.28125,-0.0312 0.5625,-0.0469 0.29687,-0.0156 0.51562,-0.0156 0.78125,0 1.375,0.14063 0.59375,0.125 1.09375,0.46875 0.51563,0.35937 0.79688,0.92187 0.29687,0.5625 0.29687,1.42188 z m 8.47327,0 q 0,0.67188 -0.25,1.29688 -0.25,0.60937 -0.67187,1.04687 -0.46875,0.45313 -1.125,0.70313 -0.64063,0.23437 -1.5,0.23437 -0.78125,0 -1.53125,-0.17187 -0.73438,-0.15625 -1.23438,-0.39063 v -1.375 h 0.0937 q 0.53125,0.32813 1.25,0.57813 0.71875,0.23437 1.40625,0.23437 0.45313,0 0.89063,-0.125 0.4375,-0.14062 0.76562,-0.46875 0.29688,-0.28125 0.4375,-0.67187 0.14063,-0.39063 0.14063,-0.89063 0,-0.5 -0.17188,-0.84375 -0.17187,-0.35937 -0.46875,-0.5625 -0.34375,-0.25 -0.82812,-0.34375 -0.48438,-0.10937 -1.07813,-0.10937 -0.57812,0 -1.10937,0.0781 -0.53125,0.0781 -0.90625,0.15625 v -4.98438 h 5.82812 v 1.14063 h -4.57812 v 2.57812 q 0.28125,-0.0312 0.5625,-0.0469 0.29687,-0.0156 0.51562,-0.0156 0.78125,0 1.375,0.14063 0.59375,0.125 1.09375,0.46875 0.51563,0.35937 0.79688,0.92187 0.29687,0.5625 0.29687,1.42188 z" />
  <path
     style="fill:#ffffff;fill-rule:evenodd"
     inkscape:connector-curvature="0"
     id="path53"
     d="m 271.18627,110.40184 h 53.13388 v 24.12598 h -53.13388 z" />
  <path
     style="fill-rule:evenodd;stroke:#000000;stroke-width:1;stroke-linecap:butt;stroke-linejoin:round"
     inkscape:connector-curvature="0"
     id="path55"
     d="m 271.18627,110.40184 h 53.13388 v 24.12598 h -53.13388 z" />
  <path
     style="fill:#000000;fill-rule:nonzero"
     inkscape:connector-curvature="0"
     id="path57"
     d="m 290.21288,122.42108 q 0,2.60937 -0.8125,3.82812 -0.8125,1.21875 -2.53125,1.21875 -1.75,0 -2.5625,-1.23437 -0.79688,-1.23438 -0.79688,-3.79688 0,-2.59375 0.8125,-3.82812 0.8125,-1.23438 2.54688,-1.23438 1.73437,0 2.53125,1.26563 0.8125,1.25 0.8125,3.78125 z m -1.70313,2.95312 q 0.21875,-0.53125 0.29688,-1.23437 0.0937,-0.71875 0.0937,-1.71875 0,-1 -0.0937,-1.71875 -0.0781,-0.73438 -0.3125,-1.23438 -0.21875,-0.5 -0.625,-0.75 -0.39063,-0.26562 -1,-0.26562 -0.625,0 -1.03125,0.26562 -0.39063,0.25 -0.625,0.75 -0.21875,0.48438 -0.29688,1.26563 -0.0781,0.76562 -0.0781,1.70312 0,1.01563 0.0625,1.70313 0.0781,0.67187 0.3125,1.21875 0.21875,0.5 0.60937,0.76562 0.39063,0.26563 1.04688,0.26563 0.60937,0 1,-0.25 0.40625,-0.25 0.64062,-0.76563 z m 5.78577,1.89063 h -1.5625 v -1.85938 h 1.5625 z m 9.17648,-3.07813 q 0,0.67188 -0.25,1.29688 -0.25,0.60937 -0.67187,1.04687 -0.46875,0.45313 -1.125,0.70313 -0.64063,0.23437 -1.5,0.23437 -0.78125,0 -1.53125,-0.17187 -0.73438,-0.15625 -1.23438,-0.39063 v -1.375 h 0.0937 q 0.53125,0.32813 1.25,0.57813 0.71875,0.23437 1.40625,0.23437 0.45313,0 0.89063,-0.125 0.4375,-0.14062 0.76562,-0.46875 0.29688,-0.28125 0.4375,-0.67187 0.14063,-0.39063 0.14063,-0.89063 0,-0.5 -0.17188,-0.84375 -0.17187,-0.35937 -0.46875,-0.5625 -0.34375,-0.25 -0.82812,-0.34375 -0.48438,-0.10937 -1.07813,-0.10937 -0.57812,0 -1.10937,0.0781 -0.53125,0.0781 -0.90625,0.15625 v -4.98438 h 5.82812 v 1.14063 h -4.57812 v 2.57812 q 0.28125,-0.0312 0.5625,-0.0469 0.29687,-0.0156 0.51562,-0.0156 0.78125,0 1.375,0.14063 0.59375,0.125 1.09375,0.46875 0.51563,0.35937 0.79688,0.92187 0.29687,0.5625 0.29687,1.42188 z m 8.47327,0 q 0,0.67188 -0.25,1.29688 -0.25,0.60937 -0.67187,1.04687 -0.46875,0.45313 -1.125,0.70313 -0.64063,0.23437 -1.5,0.23437 -0.78125,0 -1.53125,-0.17187 -0.73438,-0.15625 -1.23438,-0.39063 v -1.375 h 0.0937 q 0.53125,0.32813 1.25,0.57813 0.71875,0.23437 1.40625,0.23437 0.45313,0 0.89063,-0.125 0.4375,-0.14062 0.76562,-0.46875 0.29688,-0.28125 0.4375,-0.67187 0.14063,-0.39063 0.14063,-0.89063 0,-0.5 -0.17188,-0.84375 -0.17187,-0.35937 -0.46875,-0.5625 -0.34375,-0.25 -0.82812,-0.34375 -0.48438,-0.10937 -1.07813,-0.10937 -0.57812,0 -1.10937,0.0781 -0.53125,0.0781 -0.90625,0.15625 v -4.98438 h 5.82812 v 1.14063 h -4.57812 v 2.57812 q 0.28125,-0.0312 0.5625,-0.0469 0.29687,-0.0156 0.51562,-0.0156 0.78125,0 1.375,0.14063 0.59375,0.125 1.09375,0.46875 0.51563,0.35937 0.79688,0.92187 0.29687,0.5625 0.29687,1.42188 z" />
  <path
     style="fill:#000000;fill-rule:nonzero"
     inkscape:connector-curvature="0"
     id="path61"
     d="m 135.27193,15.141835 q 0,-1.53125 0.3125,-2.453125 0.3125,-0.9375 0.92187,-1.4375 0.625,-0.5 1.5625,-0.5 0.6875,0 1.20313,0.28125 0.53125,0.28125 0.875,0.8125 0.34375,0.515625 0.53125,1.265625 0.1875,0.75 0.1875,2.03125 0,1.515625 -0.3125,2.4375 -0.29688,0.921875 -0.92188,1.4375 -0.60937,0.5 -1.5625,0.5 -1.23437,0 -1.95312,-0.890625 -0.84375,-1.0625 -0.84375,-3.484375 z m 1.07812,0 q 0,2.109375 0.5,2.8125 0.5,0.703125 1.21875,0.703125 0.73438,0 1.21875,-0.703125 0.5,-0.703125 0.5,-2.8125 0,-2.125 -0.5,-2.8125 -0.48437,-0.703125 -1.23437,-0.703125 -0.71875,0 -1.15625,0.609375 -0.54688,0.78125 -0.54688,2.90625 z" />
  <path
     style="fill:#000000;fill-rule:nonzero"
     inkscape:connector-curvature="0"
     id="path65"
     d="m 193.12303,19.376215 h -1.04687 v -6.71875 q -0.39063,0.359375 -1.01563,0.734375 -0.60937,0.359375 -1.09375,0.53125 v -1.015625 q 0.875,-0.421875 1.53125,-1 0.67188,-0.59375 0.95313,-1.15625 h 0.67187 z" />
  <path
     style="fill:#000000;fill-rule:nonzero"
     inkscape:connector-curvature="0"
     id="path69"
     d="m 246.93645,18.360585 v 1.015625 h -5.6875 q 0,-0.375 0.125,-0.734375 0.21875,-0.578125 0.6875,-1.140625 0.48438,-0.5625 1.39063,-1.296875 1.40625,-1.15625 1.89062,-1.828125 0.5,-0.671875 0.5,-1.265625 0,-0.625 -0.45312,-1.046875 -0.45313,-0.4375 -1.17188,-0.4375 -0.76562,0 -1.21875,0.453125 -0.45312,0.453125 -0.46875,1.265625 l -1.07812,-0.109375 q 0.10937,-1.21875 0.82812,-1.84375 0.73438,-0.640625 1.96875,-0.640625 1.23438,0 1.95313,0.6875 0.71875,0.6875 0.71875,1.703125 0,0.515625 -0.21875,1.015625 -0.20313,0.484375 -0.70313,1.046875 -0.48437,0.546875 -1.60937,1.5 -0.95313,0.796875 -1.23438,1.09375 -0.26562,0.28125 -0.4375,0.5625 z" />
  <path
     style="fill:#000000;fill-rule:nonzero"
     inkscape:connector-curvature="0"
     id="path73"
     d="m 295.27193,17.110585 1.0625,-0.140625 q 0.17187,0.890625 0.60937,1.296875 0.4375,0.390625 1.0625,0.390625 0.75,0 1.26563,-0.515625 0.51562,-0.515625 0.51562,-1.28125 0,-0.71875 -0.48437,-1.1875 -0.46875,-0.484375 -1.20313,-0.484375 -0.29687,0 -0.75,0.125 l 0.125,-0.9375 q 0.10938,0.01563 0.17188,0.01563 0.67187,0 1.20312,-0.34375 0.54688,-0.359375 0.54688,-1.09375 0,-0.578125 -0.39063,-0.953125 -0.39062,-0.390625 -1.01562,-0.390625 -0.60938,0 -1.03125,0.390625 -0.40625,0.390625 -0.51563,1.15625 l -1.0625,-0.1875 q 0.1875,-1.046875 0.875,-1.625 0.6875,-0.59375 1.70313,-0.59375 0.70312,0 1.29687,0.3125 0.59375,0.296875 0.90625,0.8125 0.3125,0.515625 0.3125,1.109375 0,0.546875 -0.29687,1.015625 -0.29688,0.453125 -0.875,0.71875 0.75,0.171875 1.17187,0.734375 0.42188,0.546875 0.42188,1.390625 0,1.125 -0.82813,1.90625 -0.8125,0.78125 -2.0625,0.78125 -1.125,0 -1.875,-0.671875 -0.75,-0.6875 -0.85937,-1.75 z" />
  <path
     style="fill:#000000;fill-rule:nonzero"
     inkscape:connector-curvature="0"
     id="path77"
     d="m 139.24068,155.37621 h -1.04688 v -6.71875 q -0.39062,0.35938 -1.01562,0.73438 -0.60938,0.35937 -1.09375,0.53125 v -1.01563 q 0.875,-0.42187 1.53125,-1 0.67187,-0.59375 0.95312,-1.15625 h 0.67188 z" />
  <path
     style="fill:#000000;fill-rule:nonzero"
     inkscape:connector-curvature="0"
     id="path81"
     d="m 189.15429,151.14184 q 0,-1.53125 0.3125,-2.45313 0.3125,-0.9375 0.92187,-1.4375 0.625,-0.5 1.5625,-0.5 0.6875,0 1.20313,0.28125 0.53125,0.28125 0.875,0.8125 0.34375,0.51563 0.53125,1.26563 0.1875,0.75 0.1875,2.03125 0,1.51562 -0.3125,2.4375 -0.29688,0.92187 -0.92188,1.4375 -0.60937,0.5 -1.5625,0.5 -1.23437,0 -1.95312,-0.89063 -0.84375,-1.0625 -0.84375,-3.48437 z m 1.07812,0 q 0,2.10937 0.5,2.8125 0.5,0.70312 1.21875,0.70312 0.73438,0 1.21875,-0.70312 0.5,-0.70313 0.5,-2.8125 0,-2.125 -0.5,-2.8125 -0.48437,-0.70313 -1.23437,-0.70313 -0.71875,0 -1.15625,0.60938 -0.54688,0.78125 -0.54688,2.90625 z" />
  <path
     style="fill:#000000;fill-rule:nonzero"
     inkscape:connector-curvature="0"
     id="path85"
     d="m 241.38958,153.11059 1.0625,-0.14063 q 0.17188,0.89063 0.60938,1.29688 0.4375,0.39062 1.0625,0.39062 0.75,0 1.26562,-0.51562 0.51563,-0.51563 0.51563,-1.28125 0,-0.71875 -0.48438,-1.1875 -0.46875,-0.48438 -1.20312,-0.48438 -0.29688,0 -0.75,0.125 l 0.125,-0.9375 q 0.10937,0.0156 0.17187,0.0156 0.67188,0 1.20313,-0.34375 0.54687,-0.35938 0.54687,-1.09375 0,-0.57813 -0.39062,-0.95313 -0.39063,-0.39062 -1.01563,-0.39062 -0.60937,0 -1.03125,0.39062 -0.40625,0.39063 -0.51562,1.15625 l -1.0625,-0.1875 q 0.1875,-1.04687 0.875,-1.625 0.6875,-0.59375 1.70312,-0.59375 0.70313,0 1.29688,0.3125 0.59375,0.29688 0.90625,0.8125 0.3125,0.51563 0.3125,1.10938 0,0.54687 -0.29688,1.01562 -0.29687,0.45313 -0.875,0.71875 0.75,0.17188 1.17188,0.73438 0.42187,0.54687 0.42187,1.39062 0,1.125 -0.82812,1.90625 -0.8125,0.78125 -2.0625,0.78125 -1.125,0 -1.875,-0.67187 -0.75,-0.6875 -0.85938,-1.75 z" />
  <path
     style="fill:#000000;fill-rule:nonzero"
     inkscape:connector-curvature="0"
     id="path89"
     d="m 300.81881,154.36059 v 1.01562 h -5.6875 q 0,-0.375 0.125,-0.73437 0.21875,-0.57813 0.6875,-1.14063 0.48437,-0.5625 1.39062,-1.29687 1.40625,-1.15625 1.89063,-1.82813 0.5,-0.67187 0.5,-1.26562 0,-0.625 -0.45313,-1.04688 -0.45312,-0.4375 -1.17187,-0.4375 -0.76563,0 -1.21875,0.45313 -0.45313,0.45312 -0.46875,1.26562 l -1.07813,-0.10937 q 0.10938,-1.21875 0.82813,-1.84375 0.73437,-0.64063 1.96875,-0.64063 1.23437,0 1.95312,0.6875 0.71875,0.6875 0.71875,1.70313 0,0.51562 -0.21875,1.01562 -0.20312,0.48438 -0.70312,1.04688 -0.48438,0.54687 -1.60938,1.5 -0.95312,0.79687 -1.23437,1.09375 -0.26563,0.28125 -0.4375,0.5625 z" />
  <path
     style="fill:#000000;fill-opacity:0;fill-rule:evenodd"
     inkscape:connector-curvature="0"
     id="path91"
     d="M 191.61941,54.527815 138.61152,110.40184" />
  <path
     style="fill-rule:evenodd;stroke:#000000;stroke-width:1;stroke-linecap:butt;stroke-linejoin:round"
     inkscape:connector-curvature="0"
     id="path93"
     d="M 191.61938,54.527815 142.74105,106.04902" />
  <path
     style="fill:#000000;fill-rule:evenodd;stroke:#000000;stroke-width:1;stroke-linecap:butt"
     inkscape:connector-curvature="0"
     id="path95"
     d="m 141.54276,104.91221 -1.92508,4.42906 4.32164,-2.15544 z" />
  <path
     style="fill:#000000;fill-opacity:0;fill-rule:evenodd"
     inkscape:connector-curvature="0"
     id="path97"
     d="m 138.61934,54.527815 53.00787,55.874025" />
  <path
     style="fill-rule:evenodd;stroke:#000000;stroke-width:1;stroke-linecap:butt;stroke-linejoin:round"
     inkscape:connector-curvature="0"
     id="path99"
     d="M 138.61934,54.527815 187.4977,106.04902" />
  <path
     style="fill:#000000;fill-rule:evenodd;stroke:#000000;stroke-width:1;stroke-linecap:butt"
     inkscape:connector-curvature="0"
     id="path101"
     d="m 186.2994,107.18583 4.32166,2.15544 -1.92508,-4.42906 z" />
  <path
     style="fill:#000000;fill-opacity:0;fill-rule:evenodd"
     inkscape:connector-curvature="0"
     id="path103"
     d="M 297.75319,54.527815 244.61934,110.40184" />
  <path
     style="fill-rule:evenodd;stroke:#000000;stroke-width:1;stroke-linecap:butt;stroke-linejoin:round"
     inkscape:connector-curvature="0"
     id="path105"
     d="M 297.75319,54.527815 248.75401,106.05392" />
  <path
     style="fill:#000000;fill-rule:evenodd;stroke:#000000;stroke-width:1;stroke-linecap:butt"
     inkscape:connector-curvature="0"
     id="path107"
     d="m 247.55709,104.91569 -1.93033,4.42677 4.32422,-2.15031 z" />
  <path
     style="fill:#000000;fill-opacity:0;fill-rule:evenodd"
     inkscape:connector-curvature="0"
     id="path109"
     d="m 244.61943,54.527815 53.13385,55.874025" />
  <path
     style="fill-rule:evenodd;stroke:#000000;stroke-width:1;stroke-linecap:butt;stroke-linejoin:round"
     inkscape:connector-curvature="0"
     id="path111"
     d="m 244.61943,54.527815 48.99918,51.526105" />
  <path
     style="fill:#000000;fill-rule:evenodd;stroke:#000000;stroke-width:1;stroke-linecap:butt"
     inkscape:connector-curvature="0"
     id="path113"
     d="m 292.42168,107.19215 4.32419,2.15031 -1.93033,-4.42678 z" />
  <path
     style="fill:#000000;fill-rule:nonzero"
     inkscape:connector-curvature="0"
     id="path117"
     d="m 24.02036,44.168575 q 0,-2.29688 1.28125,-3.40625 1.078125,-0.92188 2.60938,-0.92188 1.71875,0 2.79687,1.125 1.09375,1.10938 1.09375,3.09375 0,1.59375 -0.48437,2.51563 -0.48438,0.92187 -1.40625,1.4375 -0.90625,0.5 -2,0.5 -1.73438,0 -2.812505,-1.10938 -1.078125,-1.125 -1.078125,-3.23437 z m 1.453125,0 q 0,1.59375 0.6875,2.39062 0.703125,0.79688 1.750005,0.79688 1.04687,0 1.73437,-0.79688 0.70313,-0.79687 0.70313,-2.4375 0,-1.53125 -0.70313,-2.32812 -0.6875,-0.79688 -1.73437,-0.79688 -1.04688,0 -1.750005,0.79688 -0.6875,0.78125 -0.6875,2.375 z m 7.960935,4.15625 v -8.29688 h 1.26563 v 1.25 q 0.48437,-0.875 0.89062,-1.15625 0.40625,-0.28125 0.90625,-0.28125 0.70313,0 1.4375,0.45313 l -0.48437,1.29687 q -0.51563,-0.29687 -1.03125,-0.29687 -0.45313,0 -0.82813,0.28125 -0.35937,0.26562 -0.51562,0.76562 -0.23438,0.75 -0.23438,1.64063 v 4.34375 z m 5.34375,-9.84375 v -1.60938 h 1.40625 v 1.60938 z m 0,9.84375 v -8.29688 h 1.40625 v 8.29688 z m 3.28907,0.6875 1.375,0.20312 q 0.0781,0.64063 0.46875,0.92188 0.53125,0.39062 1.4375,0.39062 0.96875,0 1.5,-0.39062 0.53125,-0.39063 0.71875,-1.09375 0.10937,-0.42188 0.10937,-1.8125 -0.92187,1.09375 -2.29687,1.09375 -1.71875,0 -2.65625,-1.23438 -0.9375,-1.23437 -0.9375,-2.96875 0,-1.1875 0.42187,-2.1875 0.4375,-1 1.25,-1.54687 0.82813,-0.54688 1.92188,-0.54688 1.46875,0 2.42187,1.1875 v -1 h 1.29688 v 7.17188 q 0,1.9375 -0.39063,2.75 -0.39062,0.8125 -1.25,1.28125 -0.85937,0.46875 -2.10937,0.46875 -1.48438,0 -2.40625,-0.67188 -0.90625,-0.67187 -0.875,-2.01562 z m 1.17187,-4.98438 q 0,1.625 0.64063,2.375 0.65625,0.75 1.625,0.75 0.96875,0 1.625,-0.73437 0.65625,-0.75 0.65625,-2.34375 0,-1.53125 -0.67188,-2.29688 -0.67187,-0.78125 -1.625,-0.78125 -0.9375,0 -1.59375,0.76563 -0.65625,0.76562 -0.65625,2.26562 z m 7.99219,-5.54687 v -1.60938 h 1.40625 v 1.60938 z m 0,9.84375 v -8.29688 h 1.40625 v 8.29688 z m 3.55469,0 v -8.29688 h 1.26562 v 1.17188 q 0.90625,-1.35938 2.64062,-1.35938 0.75,0 1.375,0.26563 0.625,0.26562 0.9375,0.70312 0.3125,0.4375 0.4375,1.04688 0.0781,0.39062 0.0781,1.35937 v 5.10938 h -1.40625 v -5.04688 q 0,-0.85937 -0.17188,-1.28125 -0.15625,-0.4375 -0.57812,-0.6875 -0.40625,-0.25 -0.96875,-0.25 -0.90625,0 -1.5625,0.57813 -0.64063,0.5625 -0.64063,2.15625 v 4.53125 z m 14.30468,-1.03125 q -0.78125,0.67187 -1.5,0.95312 -0.71875,0.26563 -1.54687,0.26563 -1.375,0 -2.10938,-0.67188 -0.73437,-0.67187 -0.73437,-1.70312 0,-0.60938 0.28125,-1.10938 0.28125,-0.51562 0.71875,-0.8125 0.45312,-0.3125 1.01562,-0.46875 0.42188,-0.10937 1.25,-0.20312 1.70313,-0.20313 2.51563,-0.48438 0,-0.29687 0,-0.375 0,-0.85937 -0.39063,-1.20312 -0.54687,-0.48438 -1.60937,-0.48438 -0.98438,0 -1.46875,0.35938 -0.46875,0.34375 -0.6875,1.21875 l -1.375,-0.1875 q 0.1875,-0.875 0.60937,-1.42188 0.4375,-0.54687 1.25,-0.82812 0.8125,-0.29688 1.875,-0.29688 1.0625,0 1.71875,0.25 0.67188,0.25 0.98438,0.625 0.3125,0.375 0.4375,0.95313 0.0781,0.35937 0.0781,1.29687 v 1.875 q 0,1.96875 0.0781,2.48438 0.0937,0.51562 0.35937,1 h -1.46875 q -0.21875,-0.4375 -0.28125,-1.03125 z m -0.10937,-3.14063 q -0.76563,0.3125 -2.29688,0.53125 -0.875,0.125 -1.23437,0.28125 -0.35938,0.15625 -0.5625,0.46875 -0.1875,0.29688 -0.1875,0.65625 0,0.5625 0.42187,0.9375 0.4375,0.375 1.25,0.375 0.8125,0 1.4375,-0.34375 0.64063,-0.35937 0.9375,-0.98437 0.23438,-0.46875 0.23438,-1.40625 z m 3.57031,4.17188 v -11.45313 h 1.40625 v 11.45313 z" />
  <path
     style="fill:#000000;fill-rule:nonzero"
     inkscape:connector-curvature="0"
     id="path121"
     d="m 27.54771,125.84045 1.39062,-0.21875 q 0.10938,0.84375 0.64063,1.29687 0.54687,0.4375 1.5,0.4375 0.96875,0 1.4375,-0.39062 0.46875,-0.40625 0.46875,-0.9375 0,-0.46875 -0.40625,-0.75 -0.29688,-0.1875 -1.4375,-0.46875 -1.54688,-0.39063 -2.15625,-0.67188 -0.59375,-0.29687 -0.90625,-0.79687 -0.29688,-0.5 -0.29688,-1.10938 0,-0.5625 0.25,-1.03125 0.25,-0.46875 0.6875,-0.78125 0.32813,-0.25 0.89063,-0.40625 0.57812,-0.17187 1.21875,-0.17187 0.98437,0 1.71875,0.28125 0.73437,0.28125 1.07812,0.76562 0.35938,0.46875 0.5,1.28125 l -1.375,0.1875 q -0.0937,-0.64062 -0.54687,-1 -0.45313,-0.35937 -1.26563,-0.35937 -0.96875,0 -1.39062,0.32812 -0.40625,0.3125 -0.40625,0.73438 0,0.28125 0.17187,0.5 0.17188,0.21875 0.53125,0.375 0.21875,0.0781 1.25,0.35937 1.48438,0.39063 2.07813,0.65625 0.59375,0.25 0.92187,0.73438 0.34375,0.48437 0.34375,1.20312 0,0.70313 -0.42187,1.32813 -0.40625,0.60937 -1.1875,0.95312 -0.76563,0.34375 -1.73438,0.34375 -1.625,0 -2.46875,-0.67187 -0.84375,-0.67188 -1.07812,-2 z m 8.03125,-1.67188 q 0,-2.29687 1.28125,-3.40625 1.07812,-0.92187 2.60937,-0.92187 1.71875,0 2.79688,1.125 1.09375,1.10937 1.09375,3.09375 0,1.59375 -0.48438,2.51562 -0.48437,0.92188 -1.40625,1.4375 -0.90625,0.5 -2,0.5 -1.73437,0 -2.8125,-1.10937 -1.07812,-1.125 -1.07812,-3.23438 z m 1.45312,0 q 0,1.59375 0.6875,2.39063 0.70313,0.79687 1.75,0.79687 1.04688,0 1.73438,-0.79687 0.70312,-0.79688 0.70312,-2.4375 0,-1.53125 -0.70312,-2.32813 -0.6875,-0.79687 -1.73438,-0.79687 -1.04687,0 -1.75,0.79687 -0.6875,0.78125 -0.6875,2.375 z m 7.96094,4.15625 v -8.29687 h 1.26562 v 1.25 q 0.48438,-0.875 0.89063,-1.15625 0.40625,-0.28125 0.90625,-0.28125 0.70312,0 1.4375,0.45312 l -0.48438,1.29688 q -0.51562,-0.29688 -1.03125,-0.29688 -0.45312,0 -0.82812,0.28125 -0.35938,0.26563 -0.51563,0.76563 -0.23437,0.75 -0.23437,1.64062 v 4.34375 z m 8.40625,-1.26562 0.20312,1.25 q -0.59375,0.125 -1.0625,0.125 -0.76562,0 -1.1875,-0.23438 -0.42187,-0.25 -0.59375,-0.64062 -0.17187,-0.40625 -0.17187,-1.67188 v -4.76562 h -1.03125 v -1.09375 h 1.03125 v -2.0625 l 1.40625,-0.84375 v 2.90625 h 1.40625 v 1.09375 h -1.40625 v 4.84375 q 0,0.60937 0.0625,0.78125 0.0781,0.17187 0.25,0.28125 0.17187,0.0937 0.48437,0.0937 0.23438,0 0.60938,-0.0625 z m 7.05468,-1.40625 1.45313,0.17187 q -0.34375,1.28125 -1.28125,1.98438 -0.92188,0.70312 -2.35938,0.70312 -1.82812,0 -2.89062,-1.125 -1.0625,-1.125 -1.0625,-3.14062 0,-2.09375 1.07812,-3.25 1.07813,-1.15625 2.79688,-1.15625 1.65625,0 2.70312,1.14062 1.0625,1.125 1.0625,3.17188 0,0.125 0,0.375 h -6.1875 q 0.0781,1.375 0.76563,2.10937 0.70312,0.71875 1.73437,0.71875 0.78125,0 1.32813,-0.40625 0.54687,-0.40625 0.85937,-1.29687 z m -4.60937,-2.28125 h 4.625 q -0.0937,-1.04688 -0.53125,-1.5625 -0.67188,-0.8125 -1.73438,-0.8125 -0.96875,0 -1.64062,0.65625 -0.65625,0.64062 -0.71875,1.71875 z m 13.21094,4.95312 v -1.04687 q -0.78125,1.23437 -2.3125,1.23437 -1,0 -1.82813,-0.54687 -0.82812,-0.54688 -1.29687,-1.53125 -0.45313,-0.98438 -0.45313,-2.25 0,-1.25 0.40625,-2.25 0.42188,-1.01563 1.25,-1.54688 0.82813,-0.54687 1.85938,-0.54687 0.75,0 1.32812,0.3125 0.59375,0.3125 0.95313,0.82812 v -4.10937 h 1.40625 v 11.45312 z m -4.4375,-4.14062 q 0,1.59375 0.67187,2.39062 0.67188,0.78125 1.57813,0.78125 0.92187,0 1.5625,-0.75 0.65625,-0.76562 0.65625,-2.3125 0,-1.70312 -0.65625,-2.5 -0.65625,-0.79687 -1.625,-0.79687 -0.9375,0 -1.5625,0.76562 -0.625,0.76563 -0.625,2.42188 z" />
  <path
     style="fill:#000000;fill-rule:nonzero"
     inkscape:connector-curvature="0"
     id="path125"
     d="m 10,15.484375 q 0,-1.734375 0.953125,-2.5625 0.796875,-0.6875 1.953125,-0.6875 1.28125,0 2.09375,0.84375 0.828125,0.828125 0.828125,2.3125 0,1.203125 -0.359375,1.890625 -0.359375,0.6875 -1.0625,1.078125 -0.6875,0.375 -1.5,0.375 -1.296875,0 -2.109375,-0.828125 Q 10,17.0625 10,15.484375 Z m 1.078125,0 q 0,1.1875 0.515625,1.78125 0.53125,0.59375 1.3125,0.59375 0.796875,0 1.3125,-0.59375 0.515625,-0.59375 0.515625,-1.8125 0,-1.15625 -0.53125,-1.75 -0.515625,-0.59375 -1.296875,-0.59375 -0.78125,0 -1.3125,0.59375 -0.515625,0.578125 -0.515625,1.78125 z m 5.970703,3.109375 V 12.375 h 0.953125 v 0.9375 q 0.359375,-0.65625 0.65625,-0.859375 0.3125,-0.21875 0.6875,-0.21875 0.53125,0 1.078125,0.328125 l -0.359375,0.984375 Q 19.673828,13.3125 19.298828,13.3125 q -0.359375,0 -0.640625,0.21875 -0.265625,0.203125 -0.375,0.578125 -0.1875,0.5625 -0.1875,1.21875 v 3.265625 z m 4.011719,-7.375 V 10 h 1.0625 v 1.21875 z m 0,7.375 V 12.375 h 1.0625 v 6.21875 z m 2.46289,0.515625 1.03125,0.15625 q 0.0625,0.46875 0.359375,0.6875 0.390625,0.296875 1.0625,0.296875 0.734375,0 1.124998,-0.296875 0.40625,-0.296875 0.54688,-0.8125 0.0937,-0.328125 0.0781,-1.359375 -0.687498,0.8125 -1.718748,0.8125 -1.28125,0 -1.984375,-0.921875 -0.703125,-0.9375 -0.703125,-2.21875 0,-0.890625 0.3125,-1.640625 0.328125,-0.765625 0.9375,-1.171875 0.609375,-0.40625 1.4375,-0.40625 1.109378,0 1.828128,0.890625 v -0.75 h 0.96875 v 5.375 q 0,1.453125 -0.29688,2.0625 -0.29687,0.609375 -0.9375,0.953125 -0.640623,0.359375 -1.578123,0.359375 -1.109375,0 -1.796875,-0.5 -0.6875,-0.5 -0.671875,-1.515625 z m 0.875,-3.734375 q 0,1.21875 0.484375,1.78125 0.484375,0.5625 1.21875,0.5625 0.734375,0 1.218748,-0.5625 0.5,-0.5625 0.5,-1.75 0,-1.140625 -0.51562,-1.71875 -0.500003,-0.578125 -1.218753,-0.578125 -0.703125,0 -1.203125,0.578125 -0.484375,0.5625 -0.484375,1.6875 z M 30.40039,11.21875 V 10 h 1.0625 v 1.21875 z m 0,7.375 V 12.375 h 1.0625 v 6.21875 z m 2.66602,0 V 12.375 h 0.9375 v 0.875 q 0.6875,-1.015625 1.98437,-1.015625 0.5625,0 1.03125,0.203125 0.48438,0.203125 0.71875,0.53125 0.23438,0.328125 0.32813,0.765625 0.0469,0.296875 0.0469,1.03125 V 18.59375 H 37.06644 V 14.8125 q 0,-0.65625 -0.125,-0.96875 -0.125,-0.3125 -0.4375,-0.5 -0.3125,-0.203125 -0.73438,-0.203125 -0.67187,0 -1.17187,0.4375 Q 34.11331,14 34.11331,15.1875 v 3.40625 z m 10.73632,-0.765625 q -0.59375,0.5 -1.14062,0.703125 -0.53125,0.203125 -1.15625,0.203125 -1.03125,0 -1.57813,-0.5 -0.54687,-0.5 -0.54687,-1.28125 0,-0.453125 0.20312,-0.828125 0.20313,-0.390625 0.54688,-0.609375 0.34375,-0.234375 0.76562,-0.34375 0.29688,-0.09375 0.9375,-0.171875 1.26563,-0.140625 1.875,-0.359375 0,-0.21875 0,-0.265625 0,-0.65625 -0.29687,-0.921875 -0.40625,-0.34375 -1.20313,-0.34375 -0.73437,0 -1.09375,0.265625 -0.35937,0.25 -0.53125,0.90625 l -1.03125,-0.140625 q 0.14063,-0.65625 0.46875,-1.0625 0.32813,-0.40625 0.9375,-0.625 0.60938,-0.21875 1.40625,-0.21875 0.79688,0 1.29688,0.1875 0.5,0.1875 0.73437,0.46875 0.23438,0.28125 0.32813,0.71875 0.0469,0.265625 0.0469,0.96875 v 1.40625 q 0,1.46875 0.0625,1.859375 0.0781,0.390625 0.28125,0.75 h -1.10937 q -0.15628,-0.328125 -0.20316,-0.765625 z m -0.0937,-2.359375 q -0.57812,0.234375 -1.71875,0.40625 -0.65625,0.09375 -0.92187,0.21875 -0.26563,0.109375 -0.42188,0.328125 -0.14062,0.21875 -0.14062,0.5 0,0.421875 0.3125,0.703125 0.32812,0.28125 0.9375,0.28125 0.60937,0 1.07812,-0.265625 0.48438,-0.265625 0.70313,-0.734375 0.17187,-0.359375 0.17187,-1.046875 z m 2.67383,3.125 V 10 h 1.0625 v 8.59375 z m 6.03125,-7.375 V 10 h 1.0625 v 1.21875 z m 0,7.375 V 12.375 h 1.0625 v 6.21875 z m 2.66601,0 V 12.375 h 0.9375 v 0.875 q 0.6875,-1.015625 1.98438,-1.015625 0.5625,0 1.03125,0.203125 0.48437,0.203125 0.71875,0.53125 0.23437,0.328125 0.32812,0.765625 0.0469,0.296875 0.0469,1.03125 V 18.59375 H 59.08014 V 14.8125 q 0,-0.65625 -0.125,-0.96875 -0.125,-0.3125 -0.4375,-0.5 -0.3125,-0.203125 -0.73437,-0.203125 -0.67188,0 -1.17188,0.4375 Q 56.12702,14 56.12702,15.1875 v 3.40625 z m 10.70509,0 V 17.8125 q -0.59375,0.921875 -1.73437,0.921875 -0.75,0 -1.37502,-0.40625 -0.625,-0.421875 -0.96875,-1.15625 -0.34375,-0.734375 -0.34375,-1.6875 0,-0.921875 0.3125,-1.6875 0.3125,-0.765625 0.9375,-1.15625 0.62502,-0.40625 1.39064,-0.40625 0.5625,0 1,0.234375 0.4375,0.234375 0.71875,0.609375 V 10 h 1.04688 v 8.59375 z m -3.32814,-3.109375 q 0,1.203125 0.50002,1.796875 0.5,0.578125 1.1875,0.578125 0.6875,0 1.17187,-0.5625 0.48438,-0.5625 0.48438,-1.71875 0,-1.28125 -0.5,-1.875 -0.48438,-0.59375 -1.20313,-0.59375 -0.70312,0 -1.17187,0.578125 -0.46877,0.5625 -0.46877,1.796875 z M 68.42779,11.21875 V 10 h 1.0625 v 1.21875 z m 0,7.375 V 12.375 h 1.0625 v 6.21875 z m 6.72852,-2.28125 1.03125,0.140625 q -0.17188,1.0625 -0.875,1.671875 -0.70313,0.609375 -1.71875,0.609375 -1.28125,0 -2.0625,-0.828125 Q 70.76568,17.0625 70.76568,15.5 q 0,-1 0.32813,-1.75 0.34375,-0.765625 1.01562,-1.140625 0.6875,-0.375 1.5,-0.375 1,0 1.64063,0.515625 0.65625,0.5 0.84375,1.453125 l -1.03125,0.15625 q -0.14063,-0.625 -0.51563,-0.9375 -0.375,-0.328125 -0.90625,-0.328125 -0.79687,0 -1.29687,0.578125 -0.5,0.5625 -0.5,1.796875 0,1.265625 0.48437,1.828125 0.48438,0.5625 1.25,0.5625 0.625,0 1.03125,-0.375 0.42188,-0.375 0.54688,-1.171875 z m 6.1875,0.28125 1.09375,0.125 q -0.25,0.953125 -0.95313,1.484375 -0.70312,0.53125 -1.78125,0.53125 -1.35937,0 -2.17187,-0.84375 -0.79688,-0.84375 -0.79688,-2.359375 0,-1.5625 0.8125,-2.421875 0.8125,-0.875 2.09375,-0.875 1.25,0 2.03125,0.84375 0.79688,0.84375 0.79688,2.390625 0,0.09375 0,0.28125 h -4.64063 q 0.0625,1.03125 0.57813,1.578125 0.51562,0.53125 1.29687,0.53125 0.57813,0 0.98438,-0.296875 0.42187,-0.3125 0.65625,-0.96875 z m -3.45318,-1.703125 h 3.46875 q -0.0625,-0.796875 -0.39062,-1.1875 -0.51563,-0.609375 -1.3125,-0.609375 -0.73438,0 -1.23438,0.484375 -0.48437,0.484375 -0.53125,1.3125 z m 5.45508,1.84375 1.03125,-0.15625 q 0.0937,0.625 0.48437,0.953125 0.40625,0.328125 1.14063,0.328125 0.71875,0 1.0625,-0.28125 0.35937,-0.296875 0.35937,-0.703125 0,-0.359375 -0.3125,-0.5625 -0.21875,-0.140625 -1.07812,-0.359375 -1.15625,-0.296875 -1.60938,-0.5 -0.4375,-0.21875 -0.67187,-0.59375 -0.23438,-0.375 -0.23438,-0.84375 0,-0.40625 0.1875,-0.765625 0.1875,-0.359375 0.51563,-0.59375 0.25,-0.171875 0.67187,-0.296875 0.42188,-0.125 0.92188,-0.125 0.71875,0 1.26562,0.21875 0.5625,0.203125 0.82813,0.5625 0.26562,0.359375 0.35937,0.953125 l -1.03125,0.140625 q -0.0625,-0.46875 -0.40625,-0.734375 -0.32812,-0.28125 -0.95312,-0.28125 -0.71875,0 -1.03125,0.25 -0.3125,0.234375 -0.3125,0.5625 0,0.203125 0.125,0.359375 0.14062,0.171875 0.40625,0.28125 0.15625,0.0625 0.9375,0.265625 1.125,0.3125 1.5625,0.5 0.4375,0.1875 0.6875,0.546875 0.25,0.359375 0.25,0.90625 0,0.53125 -0.3125,1 -0.29688,0.453125 -0.875,0.71875 -0.57813,0.25 -1.3125,0.25 -1.21875,0 -1.85938,-0.5 -0.625,-0.515625 -0.79687,-1.5 z" />
  <path
     style="fill:#000000;fill-rule:nonzero"
     inkscape:connector-curvature="0"
     id="path129"
     d="m 12.63755,153.51653 1.03125,-0.15625 q 0.09375,0.625 0.484375,0.95313 0.40625,0.32812 1.140625,0.32812 0.71875,0 1.0625,-0.28125 0.359375,-0.29687 0.359375,-0.70312 0,-0.35938 -0.3125,-0.5625 -0.21875,-0.14063 -1.078125,-0.35938 -1.15625,-0.29687 -1.609375,-0.5 -0.4375,-0.21875 -0.671875,-0.59375 -0.234375,-0.375 -0.234375,-0.84375 0,-0.40625 0.1875,-0.76562 0.1875,-0.35938 0.515625,-0.59375 0.25,-0.17188 0.671875,-0.29688 0.421875,-0.125 0.921875,-0.125 0.71875,0 1.265625,0.21875 0.5625,0.20313 0.828125,0.5625 0.265625,0.35938 0.359375,0.95313 l -1.03125,0.14062 q -0.0625,-0.46875 -0.40625,-0.73437 -0.328125,-0.28125 -0.953125,-0.28125 -0.71875,0 -1.03125,0.25 -0.3125,0.23437 -0.3125,0.5625 0,0.20312 0.125,0.35937 0.140625,0.17188 0.40625,0.28125 0.15625,0.0625 0.9375,0.26563 1.125,0.3125 1.5625,0.5 0.4375,0.1875 0.6875,0.54687 0.25,0.35938 0.25,0.90625 0,0.53125 -0.3125,1 -0.296875,0.45313 -0.875,0.71875 -0.578125,0.25 -1.3125,0.25 -1.21875,0 -1.859375,-0.5 -0.625,-0.51562 -0.796875,-1.5 z m 6.03125,-1.25 q 0,-1.73437 0.953125,-2.5625 0.796875,-0.6875 1.953125,-0.6875 1.28125,0 2.09375,0.84375 0.828125,0.82813 0.828125,2.3125 0,1.20313 -0.359375,1.89063 -0.359375,0.6875 -1.0625,1.07812 -0.6875,0.375 -1.5,0.375 -1.296875,0 -2.109375,-0.82812 -0.796875,-0.84375 -0.796875,-2.42188 z m 1.078125,0 q 0,1.1875 0.515625,1.78125 0.53125,0.59375 1.3125,0.59375 0.796875,0 1.3125,-0.59375 0.515625,-0.59375 0.515625,-1.8125 0,-1.15625 -0.53125,-1.75 -0.515625,-0.59375 -1.296875,-0.59375 -0.78125,0 -1.3125,0.59375 -0.515625,0.57813 -0.515625,1.78125 z m 5.970703,3.10938 v -6.21875 h 0.953125 v 0.9375 q 0.359375,-0.65625 0.656247,-0.85938 0.3125,-0.21875 0.6875,-0.21875 0.53125,0 1.07813,0.32813 l -0.35938,0.98437 q -0.39062,-0.23437 -0.76562,-0.23437 -0.35938,0 -0.64063,0.21875 -0.265622,0.20312 -0.374997,0.57812 -0.1875,0.5625 -0.1875,1.21875 v 3.26563 z m 6.308592,-0.9375 0.15625,0.92187 q -0.45312,0.0937 -0.79687,0.0937 -0.57813,0 -0.89063,-0.17188 -0.3125,-0.1875 -0.45312,-0.48437 -0.125,-0.29688 -0.125,-1.25 v -3.57813 h -0.76563 v -0.8125 h 0.76563 v -1.54687 l 1.04687,-0.625 v 2.17187 h 1.0625 v 0.8125 h -1.0625 v 3.64063 q 0,0.45312 0.0469,0.57812 0.0625,0.125 0.1875,0.20313 0.125,0.0781 0.35937,0.0781 0.1875,0 0.46875,-0.0312 z m 5.28711,-1.0625 1.09375,0.125 q -0.25,0.95312 -0.95312,1.48437 -0.70313,0.53125 -1.78125,0.53125 -1.35938,0 -2.17188,-0.84375 -0.79687,-0.84375 -0.79687,-2.35937 0,-1.5625 0.8125,-2.42188 0.8125,-0.875 2.09375,-0.875 1.25,0 2.03125,0.84375 0.79687,0.84375 0.79687,2.39063 0,0.0937 0,0.28125 h -4.64062 q 0.0625,1.03125 0.57812,1.57812 0.51563,0.53125 1.29688,0.53125 0.57812,0 0.98437,-0.29687 0.42188,-0.3125 0.65625,-0.96875 z m -3.45312,-1.70313 h 3.46875 q -0.0625,-0.79687 -0.39063,-1.1875 -0.51562,-0.60937 -1.3125,-0.60937 -0.73437,0 -1.23437,0.48437 -0.48438,0.48438 -0.53125,1.3125 z m 9.9082,3.70313 v -0.78125 q -0.59375,0.92187 -1.73438,0.92187 -0.75,0 -1.375,-0.40625 -0.625,-0.42187 -0.96875,-1.15625 -0.34375,-0.73437 -0.34375,-1.6875 0,-0.92187 0.3125,-1.6875 0.3125,-0.76562 0.9375,-1.15625 0.625,-0.40625 1.39063,-0.40625 0.5625,0 1,0.23438 0.4375,0.23437 0.71875,0.60937 v -3.07812 h 1.04687 v 8.59375 z m -3.32813,-3.10938 q 0,1.20313 0.5,1.79688 0.5,0.57812 1.1875,0.57812 0.6875,0 1.17188,-0.5625 0.48437,-0.5625 0.48437,-1.71875 0,-1.28125 -0.5,-1.875 -0.48437,-0.59375 -1.20312,-0.59375 -0.70313,0 -1.17188,0.57813 -0.46875,0.5625 -0.46875,1.79687 z m 9.30469,-4.26562 v -1.21875 h 1.0625 v 1.21875 z m 0,7.375 v -6.21875 h 1.0625 v 6.21875 z m 2.66602,0 v -6.21875 h 0.9375 v 0.875 q 0.6875,-1.01563 1.98437,-1.01563 0.5625,0 1.03125,0.20313 0.48438,0.20312 0.71875,0.53125 0.23438,0.32812 0.32813,0.76562 0.0469,0.29688 0.0469,1.03125 v 3.82813 h -1.04687 v -3.78125 q 0,-0.65625 -0.125,-0.96875 -0.125,-0.3125 -0.4375,-0.5 -0.3125,-0.20313 -0.73438,-0.20313 -0.67187,0 -1.17187,0.4375 -0.48438,0.42188 -0.48438,1.60938 v 3.40625 z m 10.70508,0 v -0.78125 q -0.59375,0.92187 -1.73438,0.92187 -0.75,0 -1.375,-0.40625 -0.625,-0.42187 -0.96875,-1.15625 -0.34375,-0.73437 -0.34375,-1.6875 0,-0.92187 0.3125,-1.6875 0.3125,-0.76562 0.9375,-1.15625 0.625,-0.40625 1.39063,-0.40625 0.5625,0 1,0.23438 0.4375,0.23437 0.71875,0.60937 v -3.07812 h 1.04687 v 8.59375 z m -3.32813,-3.10938 q 0,1.20313 0.5,1.79688 0.5,0.57812 1.1875,0.57812 0.6875,0 1.17188,-0.5625 0.48437,-0.5625 0.48437,-1.71875 0,-1.28125 -0.5,-1.875 -0.48437,-0.59375 -1.20312,-0.59375 -0.70313,0 -1.17188,0.57813 -0.46875,0.5625 -0.46875,1.79687 z m 5.9707,-4.26562 v -1.21875 h 1.0625 v 1.21875 z m 0,7.375 v -6.21875 h 1.0625 v 6.21875 z m 6.72852,-2.28125 1.03125,0.14062 q -0.17188,1.0625 -0.875,1.67188 -0.70313,0.60937 -1.71875,0.60937 -1.28125,0 -2.0625,-0.82812 -0.76563,-0.84375 -0.76563,-2.40625 0,-1 0.32813,-1.75 0.34375,-0.76563 1.01562,-1.14063 0.6875,-0.375 1.5,-0.375 1,0 1.64063,0.51563 0.65625,0.5 0.84375,1.45312 l -1.03125,0.15625 q -0.14063,-0.625 -0.51563,-0.9375 -0.375,-0.32812 -0.90625,-0.32812 -0.79687,0 -1.29687,0.57812 -0.5,0.5625 -0.5,1.79688 0,1.26562 0.48437,1.82812 0.48438,0.5625 1.25,0.5625 0.625,0 1.03125,-0.375 0.42188,-0.375 0.54688,-1.17187 z m 6.1875,0.28125 1.09375,0.125 q -0.25,0.95312 -0.95313,1.48437 -0.70312,0.53125 -1.78125,0.53125 -1.35937,0 -2.17187,-0.84375 -0.79688,-0.84375 -0.79688,-2.35937 0,-1.5625 0.8125,-2.42188 0.8125,-0.875 2.09375,-0.875 1.25,0 2.03125,0.84375 0.79688,0.84375 0.79688,2.39063 0,0.0937 0,0.28125 h -4.64063 q 0.0625,1.03125 0.57813,1.57812 0.51562,0.53125 1.29687,0.53125 0.57813,0 0.98438,-0.29687 0.42187,-0.3125 0.65625,-0.96875 z m -3.45313,-1.70313 h 3.46875 q -0.0625,-0.79687 -0.39062,-1.1875 -0.51563,-0.60937 -1.3125,-0.60937 -0.73438,0 -1.23438,0.48437 -0.48437,0.48438 -0.53125,1.3125 z m 5.45508,1.84375 1.03125,-0.15625 q 0.0937,0.625 0.48438,0.95313 0.40625,0.32812 1.14062,0.32812 0.71875,0 1.0625,-0.28125 0.35938,-0.29687 0.35938,-0.70312 0,-0.35938 -0.3125,-0.5625 -0.21875,-0.14063 -1.07813,-0.35938 -1.15625,-0.29687 -1.60937,-0.5 -0.4375,-0.21875 -0.67188,-0.59375 -0.23437,-0.375 -0.23437,-0.84375 0,-0.40625 0.1875,-0.76562 0.1875,-0.35938 0.51562,-0.59375 0.25,-0.17188 0.67188,-0.29688 0.42187,-0.125 0.92187,-0.125 0.71875,0 1.26563,0.21875 0.5625,0.20313 0.82812,0.5625 0.26563,0.35938 0.35938,0.95313 l -1.03125,0.14062 q -0.0625,-0.46875 -0.40625,-0.73437 -0.32813,-0.28125 -0.95313,-0.28125 -0.71875,0 -1.03125,0.25 -0.3125,0.23437 -0.3125,0.5625 0,0.20312 0.125,0.35937 0.14063,0.17188 0.40625,0.28125 0.15625,0.0625 0.9375,0.26563 1.125,0.3125 1.5625,0.5 0.4375,0.1875 0.6875,0.54687 0.25,0.35938 0.25,0.90625 0,0.53125 -0.3125,1 -0.29687,0.45313 -0.875,0.71875 -0.57812,0.25 -1.3125,0.25 -1.21875,0 -1.85937,-0.5 -0.625,-0.51562 -0.79688,-1.5 z" />
</svg>
