<?xml version="1.0" encoding="UTF-8" standalone="no"?>
<svg
   xmlns:dc="http://purl.org/dc/elements/1.1/"
   xmlns:cc="http://creativecommons.org/ns#"
   xmlns:rdf="http://www.w3.org/1999/02/22-rdf-syntax-ns#"
   xmlns:svg="http://www.w3.org/2000/svg"
   xmlns="http://www.w3.org/2000/svg"
   xmlns:sodipodi="http://sodipodi.sourceforge.net/DTD/sodipodi-0.dtd"
   xmlns:inkscape="http://www.inkscape.org/namespaces/inkscape"
   version="1.1"
   viewBox="0 0 362.2139 239.42372"
   stroke-miterlimit="10"
   id="svg159"
   sodipodi:docname="c_numpy_axis.svg"
   width="362.2139"
   height="239.42372"
   style="fill:none;stroke:none;stroke-linecap:square;stroke-miterlimit:10"
   inkscape:version="0.92.4 (unknown)"
   inkscape:export-filename="/home/alexeygrigorev/Dropbox/book/projects/figures/apC/c_numpy_axis.png"
   inkscape:export-xdpi="80"
   inkscape:export-ydpi="80">
  <metadata
     id="metadata165">
    <rdf:RDF>
      <cc:Work
         rdf:about="">
        <dc:format>image/svg+xml</dc:format>
        <dc:type
           rdf:resource="http://purl.org/dc/dcmitype/StillImage" />
        <dc:title></dc:title>
      </cc:Work>
    </rdf:RDF>
  </metadata>
  <defs
     id="defs163" />
  <sodipodi:namedview
     pagecolor="#ffffff"
     bordercolor="#666666"
     borderopacity="1"
     objecttolerance="10"
     gridtolerance="10"
     guidetolerance="10"
     inkscape:pageopacity="0"
     inkscape:pageshadow="2"
     inkscape:window-width="1853"
     inkscape:window-height="1025"
     id="namedview161"
     showgrid="false"
     fit-margin-top="10"
     fit-margin-left="10"
     fit-margin-right="10"
     fit-margin-bottom="10"
     inkscape:zoom="2.4722548"
     inkscape:cx="161.93089"
     inkscape:cy="98.03298"
     inkscape:window-x="67"
     inkscape:window-y="27"
     inkscape:window-maximized="1"
     inkscape:current-layer="svg159" />
  <clipPath
     id="p.0">
    <path
       d="M 0,0 H 720 V 540 H 0 Z"
       id="path2"
       inkscape:connector-curvature="0"
       style="clip-rule:nonzero" />
  </clipPath>
  <path
     style="fill:#ffffff;fill-rule:evenodd"
     inkscape:connector-curvature="0"
     id="path7"
     d="M 48.579964,44.79773 H 101.71382 V 68.923714 H 48.579964 Z" />
  <path
     style="fill-rule:evenodd;stroke:#000000;stroke-width:1;stroke-linecap:butt;stroke-linejoin:round"
     inkscape:connector-curvature="0"
     id="path9"
     d="M 48.579964,44.79773 H 101.71382 V 68.923714 H 48.579964 Z" />
  <path
     style="fill:#000000;fill-rule:nonzero"
     inkscape:connector-curvature="0"
     id="path11"
     d="m 67.606574,56.816974 q 0,2.60938 -0.8125,3.82813 -0.8125,1.21875 -2.53125,1.21875 -1.75,0 -2.5625,-1.23438 -0.796875,-1.23437 -0.796875,-3.79687 0,-2.59375 0.8125,-3.82813 0.8125,-1.234375 2.546875,-1.234375 1.734375,0 2.53125,1.265625 0.8125,1.25 0.8125,3.78125 z m -1.703125,2.95313 q 0.21875,-0.53125 0.296875,-1.23438 0.09375,-0.71875 0.09375,-1.71875 0,-1 -0.09375,-1.71875 -0.07813,-0.73437 -0.3125,-1.23437 -0.21875,-0.5 -0.625,-0.75 -0.390625,-0.26563 -1,-0.26563 -0.625,0 -1.03125,0.26563 -0.390625,0.25 -0.625,0.75 -0.21875,0.48437 -0.296875,1.26562 -0.07813,0.76563 -0.07813,1.70313 0,1.01562 0.0625,1.70312 0.07813,0.67188 0.3125,1.21875 0.21875,0.5 0.609375,0.76563 0.390625,0.26562 1.046875,0.26562 0.609375,0 1,-0.25 0.40625,-0.25 0.640625,-0.76562 z m 5.785751,1.89062 h -1.5625 v -1.85937 h 1.5625 z m 9.473373,-2.73437 h -1.4375 v 2.73437 h -1.25 v -2.73437 h -4.640625 v -1.48438 l 4.6875,-5.46875 h 1.203125 v 5.92188 h 1.4375 z m -2.6875,-1.03125 v -4.375 l -3.75,4.375 z m 11.160751,1.03125 h -1.4375 v 2.73437 h -1.25 v -2.73437 h -4.640625 v -1.48438 l 4.6875,-5.46875 h 1.203125 v 5.92188 h 1.4375 z m -2.6875,-1.03125 v -4.375 l -3.75,4.375 z" />
  <path
     style="fill:#ffffff;fill-rule:evenodd"
     inkscape:connector-curvature="0"
     id="path13"
     d="m 101.58001,44.79773 h 53.13386 V 68.923714 H 101.58 Z" />
  <path
     style="fill-rule:evenodd;stroke:#000000;stroke-width:1;stroke-linecap:butt;stroke-linejoin:round"
     inkscape:connector-curvature="0"
     id="path15"
     d="m 101.58001,44.79773 h 53.13386 V 68.923714 H 101.58 Z" />
  <path
     style="fill:#000000;fill-rule:nonzero"
     inkscape:connector-curvature="0"
     id="path17"
     d="m 120.60662,56.816974 q 0,2.60938 -0.8125,3.82813 -0.81249,1.21875 -2.53124,1.21875 -1.75,0 -2.5625,-1.23438 -0.79688,-1.23437 -0.79688,-3.79687 0,-2.59375 0.8125,-3.82813 0.8125,-1.234375 2.54688,-1.234375 1.73437,0 2.53124,1.265625 0.8125,1.25 0.8125,3.78125 z m -1.70312,2.95313 q 0.21875,-0.53125 0.29688,-1.23438 0.0937,-0.71875 0.0937,-1.71875 0,-1 -0.0937,-1.71875 -0.0781,-0.73437 -0.3125,-1.23437 -0.21875,-0.5 -0.625,-0.75 -0.39063,-0.26563 -1,-0.26563 -0.625,0 -1.03125,0.26563 -0.39063,0.25 -0.625,0.75 -0.21875,0.48437 -0.29688,1.26562 -0.0781,0.76563 -0.0781,1.70313 0,1.01562 0.0625,1.70312 0.0781,0.67188 0.3125,1.21875 0.21875,0.5 0.60937,0.76563 0.39063,0.26562 1.04688,0.26562 0.60937,0 1,-0.25 0.40625,-0.25 0.64062,-0.76562 z m 5.78575,1.89062 h -1.5625 v -1.85937 h 1.5625 z m 9.23899,-4.84375 q 0,2.60938 -0.8125,3.82813 -0.8125,1.21875 -2.53125,1.21875 -1.75,0 -2.5625,-1.23438 -0.79687,-1.23437 -0.79687,-3.79687 0,-2.59375 0.8125,-3.82813 0.8125,-1.234375 2.54687,-1.234375 1.73438,0 2.53125,1.265625 0.8125,1.25 0.8125,3.78125 z m -1.70312,2.95313 q 0.21875,-0.53125 0.29687,-1.23438 0.0937,-0.71875 0.0937,-1.71875 0,-1 -0.0937,-1.71875 -0.0781,-0.73437 -0.3125,-1.23437 -0.21875,-0.5 -0.625,-0.75 -0.39062,-0.26563 -1,-0.26563 -0.625,0 -1.03125,0.26563 -0.39062,0.25 -0.625,0.75 -0.21875,0.48437 -0.29687,1.26562 -0.0781,0.76563 -0.0781,1.70313 0,1.01562 0.0625,1.70312 0.0781,0.67188 0.3125,1.21875 0.21875,0.5 0.60938,0.76563 0.39062,0.26562 1.04687,0.26562 0.60938,0 1,-0.25 0.40625,-0.25 0.64063,-0.76562 z m 9.33263,-2.78125 q 0.3125,0.28125 0.51562,0.70312 0.20313,0.42188 0.20313,1.09375 0,0.67188 -0.25,1.23438 -0.23438,0.54687 -0.67188,0.95312 -0.48437,0.45313 -1.14062,0.67188 -0.65625,0.21875 -1.45313,0.21875 -0.79687,0 -1.57812,-0.20313 -0.78125,-0.1875 -1.28125,-0.40625 v -1.35937 h 0.0937 q 0.54687,0.35937 1.29687,0.60937 0.75,0.23438 1.45313,0.23438 0.40625,0 0.85937,-0.14063 0.46875,-0.14062 0.75,-0.40625 0.29688,-0.28125 0.4375,-0.625 0.15625,-0.34375 0.15625,-0.875 0,-0.51562 -0.17187,-0.85937 -0.15625,-0.34375 -0.45313,-0.53125 -0.29687,-0.20313 -0.71875,-0.28125 -0.40625,-0.0781 -0.89062,-0.0781 h -0.57813 v -1.07812 h 0.45313 q 0.98437,0 1.57812,-0.40625 0.59375,-0.42188 0.59375,-1.21875 0,-0.34375 -0.15625,-0.60938 -0.14062,-0.26562 -0.42187,-0.4375 -0.26563,-0.17187 -0.59375,-0.23437 -0.3125,-0.0625 -0.71875,-0.0625 -0.625,0 -1.32813,0.21875 -0.6875,0.21875 -1.29687,0.625 h -0.0781 v -1.35938 q 0.46875,-0.234375 1.23438,-0.421875 0.78125,-0.1875 1.5,-0.1875 0.70312,0 1.25,0.140625 0.54687,0.125 0.96875,0.40625 0.46875,0.3125 0.70312,0.76563 0.25,0.4375 0.25,1.01562 0,0.8125 -0.57812,1.42188 -0.5625,0.59375 -1.32813,0.75 v 0.0937 q 0.3125,0.0469 0.70313,0.21875 0.40625,0.17187 0.6875,0.40625 z" />
  <path
     style="fill:#ffffff;fill-rule:evenodd"
     inkscape:connector-curvature="0"
     id="path19"
     d="m 154.58005,44.79773 h 53.13386 v 24.125984 h -53.13386 z" />
  <path
     style="fill-rule:evenodd;stroke:#000000;stroke-width:1;stroke-linecap:butt;stroke-linejoin:round"
     inkscape:connector-curvature="0"
     id="path21"
     d="m 154.58005,44.79773 h 53.13386 v 24.125984 h -53.13386 z" />
  <path
     style="fill:#000000;fill-rule:nonzero"
     inkscape:connector-curvature="0"
     id="path23"
     d="m 173.60667,56.816974 q 0,2.60938 -0.8125,3.82813 -0.8125,1.21875 -2.53125,1.21875 -1.75,0 -2.5625,-1.23438 -0.79688,-1.23437 -0.79688,-3.79687 0,-2.59375 0.8125,-3.82813 0.8125,-1.234375 2.54688,-1.234375 1.73437,0 2.53125,1.265625 0.8125,1.25 0.8125,3.78125 z m -1.70313,2.95313 q 0.21875,-0.53125 0.29688,-1.23438 0.0937,-0.71875 0.0937,-1.71875 0,-1 -0.0937,-1.71875 -0.0781,-0.73437 -0.3125,-1.23437 -0.21875,-0.5 -0.625,-0.75 -0.39063,-0.26563 -1,-0.26563 -0.625,0 -1.03125,0.26563 -0.39063,0.25 -0.625,0.75 -0.21875,0.48437 -0.29688,1.26562 -0.0781,0.76563 -0.0781,1.70313 0,1.01562 0.0625,1.70312 0.0781,0.67188 0.3125,1.21875 0.21875,0.5 0.60937,0.76563 0.39063,0.26562 1.04688,0.26562 0.60937,0 1,-0.25 0.40625,-0.25 0.64062,-0.76562 z m 5.78576,1.89062 h -1.5625 v -1.85937 h 1.5625 z m 9.17649,-3.07812 q 0,0.67187 -0.25,1.29687 -0.25,0.60938 -0.67187,1.04688 -0.46875,0.45312 -1.125,0.70312 -0.64063,0.23438 -1.5,0.23438 -0.78125,0 -1.53125,-0.17188 -0.73438,-0.15625 -1.23438,-0.39062 v -1.375 h 0.0937 q 0.53125,0.32812 1.25,0.57812 0.71875,0.23438 1.40625,0.23438 0.45313,0 0.89063,-0.125 0.4375,-0.14063 0.76562,-0.46875 0.29688,-0.28125 0.4375,-0.67188 0.14063,-0.39062 0.14063,-0.89062 0,-0.5 -0.17188,-0.84375 -0.17187,-0.35938 -0.46875,-0.5625 -0.34375,-0.25 -0.82812,-0.34375 -0.48438,-0.10938 -1.07813,-0.10938 -0.57812,0 -1.10937,0.0781 -0.53125,0.0781 -0.90625,0.15625 v -4.98438 h 5.82812 v 1.14063 h -4.57812 v 2.57812 q 0.28125,-0.0312 0.5625,-0.0469 0.29687,-0.0156 0.51562,-0.0156 0.78125,0 1.375,0.14063 0.59375,0.125 1.09375,0.46875 0.51563,0.35937 0.79688,0.92187 0.29687,0.5625 0.29687,1.42188 z m 8.47326,0 q 0,0.67187 -0.25,1.29687 -0.25,0.60938 -0.67188,1.04688 -0.46875,0.45312 -1.125,0.70312 -0.64062,0.23438 -1.5,0.23438 -0.78125,0 -1.53125,-0.17188 -0.73437,-0.15625 -1.23437,-0.39062 v -1.375 h 0.0937 q 0.53125,0.32812 1.25,0.57812 0.71875,0.23438 1.40625,0.23438 0.45312,0 0.89062,-0.125 0.4375,-0.14063 0.76563,-0.46875 0.29687,-0.28125 0.4375,-0.67188 0.14062,-0.39062 0.14062,-0.89062 0,-0.5 -0.17187,-0.84375 -0.17188,-0.35938 -0.46875,-0.5625 -0.34375,-0.25 -0.82813,-0.34375 -0.48437,-0.10938 -1.07812,-0.10938 -0.57813,0 -1.10938,0.0781 -0.53125,0.0781 -0.90625,0.15625 v -4.98438 h 5.82813 v 1.14063 h -4.57813 v 2.57812 q 0.28125,-0.0312 0.5625,-0.0469 0.29688,-0.0156 0.51563,-0.0156 0.78125,0 1.375,0.14063 0.59375,0.125 1.09375,0.46875 0.51562,0.35937 0.79687,0.92187 0.29688,0.5625 0.29688,1.42188 z" />
  <path
     style="fill:#ffffff;fill-rule:evenodd"
     inkscape:connector-curvature="0"
     id="path25"
     d="m 48.579964,68.797734 h 53.133856 v 24.12599 H 48.579964 Z" />
  <path
     style="fill-rule:evenodd;stroke:#000000;stroke-width:1;stroke-linecap:butt;stroke-linejoin:round"
     inkscape:connector-curvature="0"
     id="path27"
     d="m 48.579964,68.797734 h 53.133856 v 24.12599 H 48.579964 Z" />
  <path
     style="fill:#000000;fill-rule:nonzero"
     inkscape:connector-curvature="0"
     id="path29"
     d="m 67.606574,80.816974 q 0,2.60937 -0.8125,3.82812 -0.8125,1.21875 -2.53125,1.21875 -1.75,0 -2.5625,-1.23437 -0.796875,-1.23438 -0.796875,-3.79688 0,-2.59375 0.8125,-3.82812 0.8125,-1.23438 2.546875,-1.23438 1.734375,0 2.53125,1.26563 0.8125,1.25 0.8125,3.78125 z m -1.703125,2.95312 q 0.21875,-0.53125 0.296875,-1.23437 0.09375,-0.71875 0.09375,-1.71875 0,-1 -0.09375,-1.71875 -0.07813,-0.73438 -0.3125,-1.23438 -0.21875,-0.5 -0.625,-0.75 -0.390625,-0.26562 -1,-0.26562 -0.625,0 -1.03125,0.26562 -0.390625,0.25 -0.625,0.75 -0.21875,0.48438 -0.296875,1.26563 -0.07813,0.76562 -0.07813,1.70312 0,1.01563 0.0625,1.70313 0.07813,0.67187 0.3125,1.21875 0.21875,0.5 0.609375,0.76562 0.390625,0.26563 1.046875,0.26563 0.609375,0 1,-0.25 0.40625,-0.25 0.640625,-0.76563 z m 5.785751,1.89063 h -1.5625 v -1.85938 h 1.5625 z m 9.473373,-2.73438 h -1.4375 v 2.73438 h -1.25 v -2.73438 h -4.640625 v -1.48437 l 4.6875,-5.46875 h 1.203125 v 5.92187 h 1.4375 z m -2.6875,-1.03125 v -4.375 l -3.75,4.375 z m 11.160751,1.03125 h -1.4375 v 2.73438 h -1.25 v -2.73438 h -4.640625 v -1.48437 l 4.6875,-5.46875 h 1.203125 v 5.92187 h 1.4375 z m -2.6875,-1.03125 v -4.375 l -3.75,4.375 z" />
  <path
     style="fill:#ffffff;fill-rule:evenodd"
     inkscape:connector-curvature="0"
     id="path31"
     d="m 101.58001,68.797734 h 53.13386 v 24.12599 H 101.58 Z" />
  <path
     style="fill-rule:evenodd;stroke:#000000;stroke-width:1;stroke-linecap:butt;stroke-linejoin:round"
     inkscape:connector-curvature="0"
     id="path33"
     d="m 101.58001,68.797734 h 53.13386 v 24.12599 H 101.58 Z" />
  <path
     style="fill:#000000;fill-rule:nonzero"
     inkscape:connector-curvature="0"
     id="path35"
     d="m 120.60662,80.816974 q 0,2.60937 -0.8125,3.82812 -0.81249,1.21875 -2.53124,1.21875 -1.75,0 -2.5625,-1.23437 -0.79688,-1.23438 -0.79688,-3.79688 0,-2.59375 0.8125,-3.82812 0.8125,-1.23438 2.54688,-1.23438 1.73437,0 2.53124,1.26563 0.8125,1.25 0.8125,3.78125 z m -1.70312,2.95312 q 0.21875,-0.53125 0.29688,-1.23437 0.0937,-0.71875 0.0937,-1.71875 0,-1 -0.0937,-1.71875 -0.0781,-0.73438 -0.3125,-1.23438 -0.21875,-0.5 -0.625,-0.75 -0.39063,-0.26562 -1,-0.26562 -0.625,0 -1.03125,0.26562 -0.39063,0.25 -0.625,0.75 -0.21875,0.48438 -0.29688,1.26563 -0.0781,0.76562 -0.0781,1.70312 0,1.01563 0.0625,1.70313 0.0781,0.67187 0.3125,1.21875 0.21875,0.5 0.60937,0.76562 0.39063,0.26563 1.04688,0.26563 0.60937,0 1,-0.25 0.40625,-0.25 0.64062,-0.76563 z m 5.78575,1.89063 h -1.5625 v -1.85938 h 1.5625 z m 9.47337,-2.73438 h -1.4375 v 2.73438 h -1.25 v -2.73438 h -4.64063 v -1.48437 l 4.6875,-5.46875 h 1.20313 v 5.92187 h 1.4375 z m -2.6875,-1.03125 v -4.375 l -3.75,4.375 z m 10.942,3.76563 h -6.5625 v -1.35938 q 0.6875,-0.59375 1.375,-1.17187 0.6875,-0.59375 1.28125,-1.17188 1.25,-1.20312 1.70313,-1.90625 0.46875,-0.71875 0.46875,-1.54687 0,-0.75 -0.5,-1.17188 -0.5,-0.4375 -1.39063,-0.4375 -0.59375,0 -1.28125,0.21875 -0.6875,0.20313 -1.34375,0.625 h -0.0781 v -1.35937 q 0.46875,-0.23438 1.23437,-0.42188 0.78125,-0.1875 1.5,-0.1875 1.48438,0 2.32813,0.71875 0.85937,0.71875 0.85937,1.95313 0,0.54687 -0.14062,1.03125 -0.14063,0.46875 -0.42188,0.90625 -0.25,0.40625 -0.59375,0.79687 -0.34375,0.39063 -0.82812,0.85938 -0.70313,0.6875 -1.4375,1.32812 -0.73438,0.64063 -1.39063,1.1875 h 5.21875 z" />
  <path
     style="fill:#ffffff;fill-rule:evenodd"
     inkscape:connector-curvature="0"
     id="path37"
     d="m 154.58005,68.797734 h 53.13386 v 24.12599 h -53.13386 z" />
  <path
     style="fill-rule:evenodd;stroke:#000000;stroke-width:1;stroke-linecap:butt;stroke-linejoin:round"
     inkscape:connector-curvature="0"
     id="path39"
     d="m 154.58005,68.797734 h 53.13386 v 24.12599 h -53.13386 z" />
  <path
     style="fill:#000000;fill-rule:nonzero"
     inkscape:connector-curvature="0"
     id="path41"
     d="m 173.60667,80.816974 q 0,2.60937 -0.8125,3.82812 -0.8125,1.21875 -2.53125,1.21875 -1.75,0 -2.5625,-1.23437 -0.79688,-1.23438 -0.79688,-3.79688 0,-2.59375 0.8125,-3.82812 0.8125,-1.23438 2.54688,-1.23438 1.73437,0 2.53125,1.26563 0.8125,1.25 0.8125,3.78125 z m -1.70313,2.95312 q 0.21875,-0.53125 0.29688,-1.23437 0.0937,-0.71875 0.0937,-1.71875 0,-1 -0.0937,-1.71875 -0.0781,-0.73438 -0.3125,-1.23438 -0.21875,-0.5 -0.625,-0.75 -0.39063,-0.26562 -1,-0.26562 -0.625,0 -1.03125,0.26562 -0.39063,0.25 -0.625,0.75 -0.21875,0.48438 -0.29688,1.26563 -0.0781,0.76562 -0.0781,1.70312 0,1.01563 0.0625,1.70313 0.0781,0.67187 0.3125,1.21875 0.21875,0.5 0.60937,0.76562 0.39063,0.26563 1.04688,0.26563 0.60937,0 1,-0.25 0.40625,-0.25 0.64062,-0.76563 z m 5.78576,1.89063 h -1.5625 v -1.85938 h 1.5625 z m 8.39524,-4.67188 q 0.3125,0.28125 0.51563,0.70313 0.20312,0.42187 0.20312,1.09375 0,0.67187 -0.25,1.23437 -0.23437,0.54688 -0.67187,0.95313 -0.48438,0.45312 -1.14063,0.67187 -0.65625,0.21875 -1.45312,0.21875 -0.79688,0 -1.57813,-0.20312 -0.78125,-0.1875 -1.28125,-0.40625 v -1.35938 h 0.0937 q 0.54688,0.35938 1.29688,0.60938 0.75,0.23437 1.45312,0.23437 0.40625,0 0.85938,-0.14062 0.46875,-0.14063 0.75,-0.40625 0.29687,-0.28125 0.4375,-0.625 0.15625,-0.34375 0.15625,-0.875 0,-0.51563 -0.17188,-0.85938 -0.15625,-0.34375 -0.45312,-0.53125 -0.29688,-0.20312 -0.71875,-0.28125 -0.40625,-0.0781 -0.89063,-0.0781 h -0.57812 v -1.07813 h 0.45312 q 0.98438,0 1.57813,-0.40625 0.59375,-0.42187 0.59375,-1.21875 0,-0.34375 -0.15625,-0.60937 -0.14063,-0.26563 -0.42188,-0.4375 -0.26562,-0.17188 -0.59375,-0.23438 -0.3125,-0.0625 -0.71875,-0.0625 -0.625,0 -1.32812,0.21875 -0.6875,0.21875 -1.29688,0.625 h -0.0781 v -1.35937 q 0.46875,-0.23438 1.23437,-0.42188 0.78125,-0.1875 1.5,-0.1875 0.70313,0 1.25,0.14063 0.54688,0.125 0.96875,0.40625 0.46875,0.3125 0.70313,0.76562 0.25,0.4375 0.25,1.01563 0,0.8125 -0.57813,1.42187 -0.5625,0.59375 -1.32812,0.75 v 0.0937 q 0.3125,0.0469 0.70312,0.21875 0.40625,0.17188 0.6875,0.40625 z m 8.47326,0 q 0.3125,0.28125 0.51562,0.70313 0.20313,0.42187 0.20313,1.09375 0,0.67187 -0.25,1.23437 -0.23438,0.54688 -0.67188,0.95313 -0.48437,0.45312 -1.14062,0.67187 -0.65625,0.21875 -1.45313,0.21875 -0.79687,0 -1.57812,-0.20312 -0.78125,-0.1875 -1.28125,-0.40625 v -1.35938 h 0.0937 q 0.54687,0.35938 1.29687,0.60938 0.75,0.23437 1.45313,0.23437 0.40625,0 0.85937,-0.14062 0.46875,-0.14063 0.75,-0.40625 0.29688,-0.28125 0.4375,-0.625 0.15625,-0.34375 0.15625,-0.875 0,-0.51563 -0.17187,-0.85938 -0.15625,-0.34375 -0.45313,-0.53125 -0.29687,-0.20312 -0.71875,-0.28125 -0.40625,-0.0781 -0.89062,-0.0781 h -0.57813 v -1.07813 h 0.45313 q 0.98437,0 1.57812,-0.40625 0.59375,-0.42187 0.59375,-1.21875 0,-0.34375 -0.15625,-0.60937 -0.14062,-0.26563 -0.42187,-0.4375 -0.26563,-0.17188 -0.59375,-0.23438 -0.3125,-0.0625 -0.71875,-0.0625 -0.625,0 -1.32813,0.21875 -0.6875,0.21875 -1.29687,0.625 h -0.0781 v -1.35937 q 0.46875,-0.23438 1.23438,-0.42188 0.78125,-0.1875 1.5,-0.1875 0.70312,0 1.25,0.14063 0.54687,0.125 0.96875,0.40625 0.46875,0.3125 0.70312,0.76562 0.25,0.4375 0.25,1.01563 0,0.8125 -0.57812,1.42187 -0.5625,0.59375 -1.32813,0.75 v 0.0937 q 0.3125,0.0469 0.70313,0.21875 0.40625,0.17188 0.6875,0.40625 z" />
  <path
     style="fill:#ffffff;fill-rule:evenodd"
     inkscape:connector-curvature="0"
     id="path43"
     d="M 48.579964,92.797734 H 101.71382 V 116.92372 H 48.579964 Z" />
  <path
     style="fill-rule:evenodd;stroke:#000000;stroke-width:1;stroke-linecap:butt;stroke-linejoin:round"
     inkscape:connector-curvature="0"
     id="path45"
     d="M 48.579964,92.797734 H 101.71382 V 116.92372 H 48.579964 Z" />
  <path
     style="fill:#000000;fill-rule:nonzero"
     inkscape:connector-curvature="0"
     id="path47"
     d="m 67.606574,104.81697 q 0,2.60937 -0.8125,3.82812 -0.8125,1.21875 -2.53125,1.21875 -1.75,0 -2.5625,-1.23437 -0.796875,-1.23438 -0.796875,-3.79688 0,-2.59375 0.8125,-3.82812 0.8125,-1.234376 2.546875,-1.234376 1.734375,0 2.53125,1.265626 0.8125,1.25 0.8125,3.78125 z m -1.703125,2.95312 q 0.21875,-0.53125 0.296875,-1.23437 0.09375,-0.71875 0.09375,-1.71875 0,-1 -0.09375,-1.71875 -0.07813,-0.73438 -0.3125,-1.23438 -0.21875,-0.5 -0.625,-0.75 -0.390625,-0.26562 -1,-0.26562 -0.625,0 -1.03125,0.26562 -0.390625,0.25 -0.625,0.75 -0.21875,0.48438 -0.296875,1.26563 -0.07813,0.76562 -0.07813,1.70312 0,1.01563 0.0625,1.70313 0.07813,0.67187 0.3125,1.21875 0.21875,0.5 0.609375,0.76562 0.390625,0.26563 1.046875,0.26563 0.609375,0 1,-0.25 0.40625,-0.25 0.640625,-0.76563 z m 5.785751,1.89063 h -1.5625 v -1.85938 h 1.5625 z m 9.254623,0 h -6.5625 v -1.35938 q 0.6875,-0.59375 1.375,-1.17187 0.6875,-0.59375 1.28125,-1.17188 1.25,-1.20312 1.703125,-1.90625 0.46875,-0.71875 0.46875,-1.54687 0,-0.75 -0.5,-1.17188 -0.5,-0.4375 -1.390625,-0.4375 -0.59375,0 -1.28125,0.21875 -0.6875,0.20313 -1.34375,0.625 h -0.07813 v -1.35937 q 0.46875,-0.23438 1.234375,-0.421876 0.78125,-0.1875 1.5,-0.1875 1.484375,0 2.328125,0.718746 0.859375,0.71875 0.859375,1.95313 0,0.54687 -0.140625,1.03125 -0.140625,0.46875 -0.421875,0.90625 -0.25,0.40625 -0.59375,0.79687 -0.34375,0.39063 -0.828125,0.85938 -0.703125,0.6875 -1.4375,1.32812 -0.734375,0.64063 -1.390625,1.1875 h 5.21875 z m 8.457626,-4.84375 q 0,2.60937 -0.8125,3.82812 -0.8125,1.21875 -2.53125,1.21875 -1.75,0 -2.5625,-1.23437 -0.796875,-1.23438 -0.796875,-3.79688 0,-2.59375 0.8125,-3.82812 0.8125,-1.234376 2.546875,-1.234376 1.734375,0 2.53125,1.265626 0.8125,1.25 0.8125,3.78125 z m -1.703125,2.95312 q 0.21875,-0.53125 0.296875,-1.23437 0.09375,-0.71875 0.09375,-1.71875 0,-1 -0.09375,-1.71875 -0.07813,-0.73438 -0.3125,-1.23438 -0.21875,-0.5 -0.625,-0.75 -0.390625,-0.26562 -1,-0.26562 -0.625,0 -1.03125,0.26562 -0.390625,0.25 -0.625,0.75 -0.21875,0.48438 -0.296875,1.26563 -0.07813,0.76562 -0.07813,1.70312 0,1.01563 0.0625,1.70313 0.07813,0.67187 0.3125,1.21875 0.21875,0.5 0.609375,0.76562 0.390625,0.26563 1.046875,0.26563 0.609375,0 1,-0.25 0.40625,-0.25 0.640625,-0.76563 z" />
  <path
     style="fill:#ffffff;fill-rule:evenodd"
     inkscape:connector-curvature="0"
     id="path49"
     d="m 101.58001,92.797734 h 53.13386 V 116.92372 H 101.58 Z" />
  <path
     style="fill-rule:evenodd;stroke:#000000;stroke-width:1;stroke-linecap:butt;stroke-linejoin:round"
     inkscape:connector-curvature="0"
     id="path51"
     d="m 101.58001,92.797734 h 53.13386 V 116.92372 H 101.58 Z" />
  <path
     style="fill:#000000;fill-rule:nonzero"
     inkscape:connector-curvature="0"
     id="path53"
     d="m 120.60662,104.81697 q 0,2.60937 -0.8125,3.82812 -0.81249,1.21875 -2.53124,1.21875 -1.75,0 -2.5625,-1.23437 -0.79688,-1.23438 -0.79688,-3.79688 0,-2.59375 0.8125,-3.82812 0.8125,-1.234376 2.54688,-1.234376 1.73437,0 2.53124,1.265626 0.8125,1.25 0.8125,3.78125 z m -1.70312,2.95312 q 0.21875,-0.53125 0.29688,-1.23437 0.0937,-0.71875 0.0937,-1.71875 0,-1 -0.0937,-1.71875 -0.0781,-0.73438 -0.3125,-1.23438 -0.21875,-0.5 -0.625,-0.75 -0.39063,-0.26562 -1,-0.26562 -0.625,0 -1.03125,0.26562 -0.39063,0.25 -0.625,0.75 -0.21875,0.48438 -0.29688,1.26563 -0.0781,0.76562 -0.0781,1.70312 0,1.01563 0.0625,1.70313 0.0781,0.67187 0.3125,1.21875 0.21875,0.5 0.60937,0.76562 0.39063,0.26563 1.04688,0.26563 0.60937,0 1,-0.25 0.40625,-0.25 0.64062,-0.76563 z m 5.78575,1.89063 h -1.5625 v -1.85938 h 1.5625 z m 9.39524,-3.14063 q 0,1.46875 -0.96875,2.40625 -0.96875,0.9375 -2.39062,0.9375 -0.71875,0 -1.3125,-0.21875 -0.57813,-0.21875 -1.01563,-0.65625 -0.5625,-0.54687 -0.875,-1.4375 -0.29687,-0.89062 -0.29687,-2.14062 0,-1.29688 0.26562,-2.28125 0.28125,-1 0.89063,-1.78125 0.57812,-0.73438 1.48437,-1.14063 0.90625,-0.421866 2.10938,-0.421866 0.375,0 0.64062,0.0312 0.26563,0.0312 0.53125,0.125 v 1.234366 h -0.0781 q -0.17188,-0.0937 -0.54688,-0.17187 -0.35937,-0.0937 -0.75,-0.0937 -1.39062,0 -2.23437,0.875 -0.82813,0.875 -0.96875,2.35937 0.54687,-0.32812 1.07812,-0.5 0.53125,-0.17187 1.23438,-0.17187 0.60937,0 1.07812,0.10937 0.48438,0.10938 0.96875,0.46875 0.57813,0.39063 0.85938,1 0.29687,0.59375 0.29687,1.46875 z m -1.3125,0.0469 q 0,-0.60938 -0.1875,-1 -0.17187,-0.39063 -0.59375,-0.6875 -0.29687,-0.20313 -0.65625,-0.26563 -0.35937,-0.0781 -0.76562,-0.0781 -0.54688,0 -1.03125,0.14062 -0.46875,0.125 -0.96875,0.39063 -0.0156,0.15625 -0.0312,0.29687 0,0.125 0,0.32813 0,1.01562 0.20312,1.625 0.21875,0.59375 0.59375,0.9375 0.29688,0.28125 0.64063,0.42187 0.35937,0.125 0.76562,0.125 0.9375,0 1.48438,-0.57812 0.54687,-0.57813 0.54687,-1.65625 z m 9.64513,3.09375 h -6.5625 v -1.35938 q 0.6875,-0.59375 1.375,-1.17187 0.6875,-0.59375 1.28125,-1.17188 1.25,-1.20312 1.70313,-1.90625 0.46875,-0.71875 0.46875,-1.54687 0,-0.75 -0.5,-1.17188 -0.5,-0.4375 -1.39063,-0.4375 -0.59375,0 -1.28125,0.21875 -0.6875,0.20313 -1.34375,0.625 h -0.0781 v -1.35937 q 0.46875,-0.23438 1.23437,-0.421876 0.78125,-0.1875 1.5,-0.1875 1.48438,0 2.32813,0.718746 0.85937,0.71875 0.85937,1.95313 0,0.54687 -0.14062,1.03125 -0.14063,0.46875 -0.42188,0.90625 -0.25,0.40625 -0.59375,0.79687 -0.34375,0.39063 -0.82812,0.85938 -0.70313,0.6875 -1.4375,1.32812 -0.73438,0.64063 -1.39063,1.1875 h 5.21875 z" />
  <path
     style="fill:#ffffff;fill-rule:evenodd"
     inkscape:connector-curvature="0"
     id="path55"
     d="m 154.58005,92.797734 h 53.13386 v 24.125986 h -53.13386 z" />
  <path
     style="fill-rule:evenodd;stroke:#000000;stroke-width:1;stroke-linecap:butt;stroke-linejoin:round"
     inkscape:connector-curvature="0"
     id="path57"
     d="m 154.58005,92.797734 h 53.13386 v 24.125986 h -53.13386 z" />
  <path
     style="fill:#000000;fill-rule:nonzero"
     inkscape:connector-curvature="0"
     id="path59"
     d="m 173.60667,104.81697 q 0,2.60937 -0.8125,3.82812 -0.8125,1.21875 -2.53125,1.21875 -1.75,0 -2.5625,-1.23437 -0.79688,-1.23438 -0.79688,-3.79688 0,-2.59375 0.8125,-3.82812 0.8125,-1.234376 2.54688,-1.234376 1.73437,0 2.53125,1.265626 0.8125,1.25 0.8125,3.78125 z m -1.70313,2.95312 q 0.21875,-0.53125 0.29688,-1.23437 0.0937,-0.71875 0.0937,-1.71875 0,-1 -0.0937,-1.71875 -0.0781,-0.73438 -0.3125,-1.23438 -0.21875,-0.5 -0.625,-0.75 -0.39063,-0.26562 -1,-0.26562 -0.625,0 -1.03125,0.26562 -0.39063,0.25 -0.625,0.75 -0.21875,0.48438 -0.29688,1.26563 -0.0781,0.76562 -0.0781,1.70312 0,1.01563 0.0625,1.70313 0.0781,0.67187 0.3125,1.21875 0.21875,0.5 0.60937,0.76562 0.39063,0.26563 1.04688,0.26563 0.60937,0 1,-0.25 0.40625,-0.25 0.64062,-0.76563 z m 5.78576,1.89063 h -1.5625 v -1.85938 h 1.5625 z m 8.39524,-4.67188 q 0.3125,0.28125 0.51563,0.70313 0.20312,0.42187 0.20312,1.09375 0,0.67187 -0.25,1.23437 -0.23437,0.54688 -0.67187,0.95313 -0.48438,0.45312 -1.14063,0.67187 -0.65625,0.21875 -1.45312,0.21875 -0.79688,0 -1.57813,-0.20312 -0.78125,-0.1875 -1.28125,-0.40625 v -1.35938 h 0.0937 q 0.54688,0.35938 1.29688,0.60938 0.75,0.23437 1.45312,0.23437 0.40625,0 0.85938,-0.14062 0.46875,-0.14063 0.75,-0.40625 0.29687,-0.28125 0.4375,-0.625 0.15625,-0.34375 0.15625,-0.875 0,-0.51563 -0.17188,-0.85938 -0.15625,-0.34375 -0.45312,-0.53125 -0.29688,-0.20312 -0.71875,-0.28125 -0.40625,-0.0781 -0.89063,-0.0781 h -0.57812 v -1.07813 h 0.45312 q 0.98438,0 1.57813,-0.40625 0.59375,-0.42187 0.59375,-1.21875 0,-0.34375 -0.15625,-0.60937 -0.14063,-0.26563 -0.42188,-0.4375 -0.26562,-0.17188 -0.59375,-0.23438 -0.3125,-0.0625 -0.71875,-0.0625 -0.625,0 -1.32812,0.21875 -0.6875,0.21875 -1.29688,0.625 h -0.0781 v -1.35937 q 0.46875,-0.23438 1.23437,-0.421876 0.78125,-0.1875 1.5,-0.1875 0.70313,0 1.25,0.14063 0.54688,0.124996 0.96875,0.406246 0.46875,0.3125 0.70313,0.76562 0.25,0.4375 0.25,1.01563 0,0.8125 -0.57813,1.42187 -0.5625,0.59375 -1.32812,0.75 v 0.0937 q 0.3125,0.0469 0.70312,0.21875 0.40625,0.17188 0.6875,0.40625 z m 9.31701,-0.17187 q 0,2.60937 -0.8125,3.82812 -0.8125,1.21875 -2.53125,1.21875 -1.75,0 -2.5625,-1.23437 -0.79688,-1.23438 -0.79688,-3.79688 0,-2.59375 0.8125,-3.82812 0.8125,-1.234376 2.54688,-1.234376 1.73437,0 2.53125,1.265626 0.8125,1.25 0.8125,3.78125 z m -1.70313,2.95312 q 0.21875,-0.53125 0.29688,-1.23437 0.0937,-0.71875 0.0937,-1.71875 0,-1 -0.0937,-1.71875 -0.0781,-0.73438 -0.3125,-1.23438 -0.21875,-0.5 -0.625,-0.75 -0.39063,-0.26562 -1,-0.26562 -0.625,0 -1.03125,0.26562 -0.39063,0.25 -0.625,0.75 -0.21875,0.48438 -0.29688,1.26563 -0.0781,0.76562 -0.0781,1.70312 0,1.01563 0.0625,1.70313 0.0781,0.67187 0.3125,1.21875 0.21875,0.5 0.60937,0.76562 0.39063,0.26563 1.04688,0.26563 0.60937,0 1,-0.25 0.40625,-0.25 0.64062,-0.76563 z" />
  <path
     style="fill:#ffffff;fill-rule:evenodd"
     inkscape:connector-curvature="0"
     id="path61"
     d="m 48.579964,116.79773 h 53.133856 v 24.12599 H 48.579964 Z" />
  <path
     style="fill-rule:evenodd;stroke:#000000;stroke-width:1;stroke-linecap:butt;stroke-linejoin:round"
     inkscape:connector-curvature="0"
     id="path63"
     d="m 48.579964,116.79773 h 53.133856 v 24.12599 H 48.579964 Z" />
  <path
     style="fill:#000000;fill-rule:nonzero"
     inkscape:connector-curvature="0"
     id="path65"
     d="m 67.606574,128.81697 q 0,2.60937 -0.8125,3.82812 -0.8125,1.21875 -2.53125,1.21875 -1.75,0 -2.5625,-1.23437 -0.796875,-1.23438 -0.796875,-3.79688 0,-2.59375 0.8125,-3.82812 0.8125,-1.23438 2.546875,-1.23438 1.734375,0 2.53125,1.26563 0.8125,1.25 0.8125,3.78125 z m -1.703125,2.95312 q 0.21875,-0.53125 0.296875,-1.23437 0.09375,-0.71875 0.09375,-1.71875 0,-1 -0.09375,-1.71875 -0.07813,-0.73438 -0.3125,-1.23438 -0.21875,-0.5 -0.625,-0.75 -0.390625,-0.26562 -1,-0.26562 -0.625,0 -1.03125,0.26562 -0.390625,0.25 -0.625,0.75 -0.21875,0.48438 -0.296875,1.26563 -0.07813,0.76562 -0.07813,1.70312 0,1.01563 0.0625,1.70313 0.07813,0.67187 0.3125,1.21875 0.21875,0.5 0.609375,0.76562 0.390625,0.26563 1.046875,0.26563 0.609375,0 1,-0.25 0.40625,-0.25 0.640625,-0.76563 z m 5.785751,1.89063 h -1.5625 v -1.85938 h 1.5625 z m 9.254623,0 h -6.5625 v -1.35938 q 0.6875,-0.59375 1.375,-1.17187 0.6875,-0.59375 1.28125,-1.17188 1.25,-1.20312 1.703125,-1.90625 0.46875,-0.71875 0.46875,-1.54687 0,-0.75 -0.5,-1.17188 -0.5,-0.4375 -1.390625,-0.4375 -0.59375,0 -1.28125,0.21875 -0.6875,0.20313 -1.34375,0.625 h -0.07813 v -1.35937 q 0.46875,-0.23438 1.234375,-0.42188 0.78125,-0.1875 1.5,-0.1875 1.484375,0 2.328125,0.71875 0.859375,0.71875 0.859375,1.95313 0,0.54687 -0.140625,1.03125 -0.140625,0.46875 -0.421875,0.90625 -0.25,0.40625 -0.59375,0.79687 -0.34375,0.39063 -0.828125,0.85938 -0.703125,0.6875 -1.4375,1.32812 -0.734375,0.64063 -1.390625,1.1875 h 5.21875 z m 8.504501,-8.23438 -4.390625,8.23438 h -1.390625 l 4.65625,-8.54688 h -5.515625 v -1.14062 h 6.640625 z" />
  <path
     style="fill:#ffffff;fill-rule:evenodd"
     inkscape:connector-curvature="0"
     id="path67"
     d="m 101.58001,116.79773 h 53.13386 v 24.12599 H 101.58 Z" />
  <path
     style="fill-rule:evenodd;stroke:#000000;stroke-width:1;stroke-linecap:butt;stroke-linejoin:round"
     inkscape:connector-curvature="0"
     id="path69"
     d="m 101.58001,116.79773 h 53.13386 v 24.12599 H 101.58 Z" />
  <path
     style="fill:#000000;fill-rule:nonzero"
     inkscape:connector-curvature="0"
     id="path71"
     d="m 120.60662,128.81697 q 0,2.60937 -0.8125,3.82812 -0.81249,1.21875 -2.53124,1.21875 -1.75,0 -2.5625,-1.23437 -0.79688,-1.23438 -0.79688,-3.79688 0,-2.59375 0.8125,-3.82812 0.8125,-1.23438 2.54688,-1.23438 1.73437,0 2.53124,1.26563 0.8125,1.25 0.8125,3.78125 z m -1.70312,2.95312 q 0.21875,-0.53125 0.29688,-1.23437 0.0937,-0.71875 0.0937,-1.71875 0,-1 -0.0937,-1.71875 -0.0781,-0.73438 -0.3125,-1.23438 -0.21875,-0.5 -0.625,-0.75 -0.39063,-0.26562 -1,-0.26562 -0.625,0 -1.03125,0.26562 -0.39063,0.25 -0.625,0.75 -0.21875,0.48438 -0.29688,1.26563 -0.0781,0.76562 -0.0781,1.70312 0,1.01563 0.0625,1.70313 0.0781,0.67187 0.3125,1.21875 0.21875,0.5 0.60937,0.76562 0.39063,0.26563 1.04688,0.26563 0.60937,0 1,-0.25 0.40625,-0.25 0.64062,-0.76563 z m 5.78575,1.89063 h -1.5625 v -1.85938 h 1.5625 z m 9.39524,-3.14063 q 0,1.46875 -0.96875,2.40625 -0.96875,0.9375 -2.39062,0.9375 -0.71875,0 -1.3125,-0.21875 -0.57813,-0.21875 -1.01563,-0.65625 -0.5625,-0.54687 -0.875,-1.4375 -0.29687,-0.89062 -0.29687,-2.14062 0,-1.29688 0.26562,-2.28125 0.28125,-1 0.89063,-1.78125 0.57812,-0.73438 1.48437,-1.14063 0.90625,-0.42187 2.10938,-0.42187 0.375,0 0.64062,0.0312 0.26563,0.0312 0.53125,0.125 v 1.23437 h -0.0781 q -0.17188,-0.0937 -0.54688,-0.17187 -0.35937,-0.0937 -0.75,-0.0937 -1.39062,0 -2.23437,0.875 -0.82813,0.875 -0.96875,2.35937 0.54687,-0.32812 1.07812,-0.5 0.53125,-0.17187 1.23438,-0.17187 0.60937,0 1.07812,0.10937 0.48438,0.10938 0.96875,0.46875 0.57813,0.39063 0.85938,1 0.29687,0.59375 0.29687,1.46875 z m -1.3125,0.0469 q 0,-0.60938 -0.1875,-1 -0.17187,-0.39063 -0.59375,-0.6875 -0.29687,-0.20313 -0.65625,-0.26563 -0.35937,-0.0781 -0.76562,-0.0781 -0.54688,0 -1.03125,0.14062 -0.46875,0.125 -0.96875,0.39063 -0.0156,0.15625 -0.0312,0.29687 0,0.125 0,0.32813 0,1.01562 0.20312,1.625 0.21875,0.59375 0.59375,0.9375 0.29688,0.28125 0.64063,0.42187 0.35937,0.125 0.76562,0.125 0.9375,0 1.48438,-0.57812 0.54687,-0.57813 0.54687,-1.65625 z m 9.64513,3.09375 h -6.5625 v -1.35938 q 0.6875,-0.59375 1.375,-1.17187 0.6875,-0.59375 1.28125,-1.17188 1.25,-1.20312 1.70313,-1.90625 0.46875,-0.71875 0.46875,-1.54687 0,-0.75 -0.5,-1.17188 -0.5,-0.4375 -1.39063,-0.4375 -0.59375,0 -1.28125,0.21875 -0.6875,0.20313 -1.34375,0.625 h -0.0781 v -1.35937 q 0.46875,-0.23438 1.23437,-0.42188 0.78125,-0.1875 1.5,-0.1875 1.48438,0 2.32813,0.71875 0.85937,0.71875 0.85937,1.95313 0,0.54687 -0.14062,1.03125 -0.14063,0.46875 -0.42188,0.90625 -0.25,0.40625 -0.59375,0.79687 -0.34375,0.39063 -0.82812,0.85938 -0.70313,0.6875 -1.4375,1.32812 -0.73438,0.64063 -1.39063,1.1875 h 5.21875 z" />
  <path
     style="fill:#ffffff;fill-rule:evenodd"
     inkscape:connector-curvature="0"
     id="path73"
     d="m 154.58005,116.79773 h 53.13386 v 24.12599 h -53.13386 z" />
  <path
     style="fill-rule:evenodd;stroke:#000000;stroke-width:1;stroke-linecap:butt;stroke-linejoin:round"
     inkscape:connector-curvature="0"
     id="path75"
     d="m 154.58005,116.79773 h 53.13386 v 24.12599 h -53.13386 z" />
  <path
     style="fill:#000000;fill-rule:nonzero"
     inkscape:connector-curvature="0"
     id="path77"
     d="m 173.60667,128.81697 q 0,2.60937 -0.8125,3.82812 -0.8125,1.21875 -2.53125,1.21875 -1.75,0 -2.5625,-1.23437 -0.79688,-1.23438 -0.79688,-3.79688 0,-2.59375 0.8125,-3.82812 0.8125,-1.23438 2.54688,-1.23438 1.73437,0 2.53125,1.26563 0.8125,1.25 0.8125,3.78125 z m -1.70313,2.95312 q 0.21875,-0.53125 0.29688,-1.23437 0.0937,-0.71875 0.0937,-1.71875 0,-1 -0.0937,-1.71875 -0.0781,-0.73438 -0.3125,-1.23438 -0.21875,-0.5 -0.625,-0.75 -0.39063,-0.26562 -1,-0.26562 -0.625,0 -1.03125,0.26562 -0.39063,0.25 -0.625,0.75 -0.21875,0.48438 -0.29688,1.26563 -0.0781,0.76562 -0.0781,1.70312 0,1.01563 0.0625,1.70313 0.0781,0.67187 0.3125,1.21875 0.21875,0.5 0.60937,0.76562 0.39063,0.26563 1.04688,0.26563 0.60937,0 1,-0.25 0.40625,-0.25 0.64062,-0.76563 z m 5.78576,1.89063 h -1.5625 v -1.85938 h 1.5625 z m 9.17649,-3.07813 q 0,0.67188 -0.25,1.29688 -0.25,0.60937 -0.67187,1.04687 -0.46875,0.45313 -1.125,0.70313 -0.64063,0.23437 -1.5,0.23437 -0.78125,0 -1.53125,-0.17187 -0.73438,-0.15625 -1.23438,-0.39063 v -1.375 h 0.0937 q 0.53125,0.32813 1.25,0.57813 0.71875,0.23437 1.40625,0.23437 0.45313,0 0.89063,-0.125 0.4375,-0.14062 0.76562,-0.46875 0.29688,-0.28125 0.4375,-0.67187 0.14063,-0.39063 0.14063,-0.89063 0,-0.5 -0.17188,-0.84375 -0.17187,-0.35937 -0.46875,-0.5625 -0.34375,-0.25 -0.82812,-0.34375 -0.48438,-0.10937 -1.07813,-0.10937 -0.57812,0 -1.10937,0.0781 -0.53125,0.0781 -0.90625,0.15625 v -4.98437 h 5.82812 v 1.14062 h -4.57812 v 2.57813 q 0.28125,-0.0312 0.5625,-0.0469 0.29687,-0.0156 0.51562,-0.0156 0.78125,0 1.375,0.14062 0.59375,0.125 1.09375,0.46875 0.51563,0.35938 0.79688,0.92188 0.29687,0.5625 0.29687,1.42187 z m 7.69201,-1.59375 q 0.3125,0.28125 0.51562,0.70313 0.20313,0.42187 0.20313,1.09375 0,0.67187 -0.25,1.23437 -0.23438,0.54688 -0.67188,0.95313 -0.48437,0.45312 -1.14062,0.67187 -0.65625,0.21875 -1.45313,0.21875 -0.79687,0 -1.57812,-0.20312 -0.78125,-0.1875 -1.28125,-0.40625 v -1.35938 h 0.0937 q 0.54687,0.35938 1.29687,0.60938 0.75,0.23437 1.45313,0.23437 0.40625,0 0.85937,-0.14062 0.46875,-0.14063 0.75,-0.40625 0.29688,-0.28125 0.4375,-0.625 0.15625,-0.34375 0.15625,-0.875 0,-0.51563 -0.17187,-0.85938 -0.15625,-0.34375 -0.45313,-0.53125 -0.29687,-0.20312 -0.71875,-0.28125 -0.40625,-0.0781 -0.89062,-0.0781 h -0.57813 v -1.07813 h 0.45313 q 0.98437,0 1.57812,-0.40625 0.59375,-0.42187 0.59375,-1.21875 0,-0.34375 -0.15625,-0.60937 -0.14062,-0.26563 -0.42187,-0.4375 -0.26563,-0.17188 -0.59375,-0.23438 -0.3125,-0.0625 -0.71875,-0.0625 -0.625,0 -1.32813,0.21875 -0.6875,0.21875 -1.29687,0.625 h -0.0781 v -1.35937 q 0.46875,-0.23438 1.23438,-0.42188 0.78125,-0.1875 1.5,-0.1875 0.70312,0 1.25,0.14063 0.54687,0.125 0.96875,0.40625 0.46875,0.3125 0.70312,0.76562 0.25,0.4375 0.25,1.01563 0,0.8125 -0.57812,1.42187 -0.5625,0.59375 -1.32813,0.75 v 0.0937 q 0.3125,0.0469 0.70313,0.21875 0.40625,0.17188 0.6875,0.40625 z" />
  <path
     style="fill:#ffffff;fill-rule:evenodd"
     inkscape:connector-curvature="0"
     id="path79"
     d="M 298.58005,44.79773 H 351.7139 V 68.923714 H 298.58005 Z" />
  <path
     style="fill-rule:evenodd;stroke:#000000;stroke-width:1;stroke-linecap:butt;stroke-linejoin:round"
     inkscape:connector-curvature="0"
     id="path81"
     d="M 298.58005,44.79773 H 351.7139 V 68.923714 H 298.58005 Z" />
  <path
     style="fill:#000000;fill-rule:nonzero"
     inkscape:connector-curvature="0"
     id="path83"
     d="m 317.60667,56.816974 q 0,2.60938 -0.8125,3.82813 -0.8125,1.21875 -2.53125,1.21875 -1.75,0 -2.5625,-1.23438 -0.79688,-1.23437 -0.79688,-3.79687 0,-2.59375 0.8125,-3.82813 0.8125,-1.234375 2.54688,-1.234375 1.73437,0 2.53125,1.265625 0.8125,1.25 0.8125,3.78125 z m -1.70313,2.95313 q 0.21875,-0.53125 0.29688,-1.23438 0.0937,-0.71875 0.0937,-1.71875 0,-1 -0.0937,-1.71875 -0.0781,-0.73437 -0.3125,-1.23437 -0.21875,-0.5 -0.625,-0.75 -0.39063,-0.26563 -1,-0.26563 -0.625,0 -1.03125,0.26563 -0.39063,0.25 -0.625,0.75 -0.21875,0.48437 -0.29688,1.26562 -0.0781,0.76563 -0.0781,1.70313 0,1.01562 0.0625,1.70312 0.0781,0.67188 0.3125,1.21875 0.21875,0.5 0.60937,0.76563 0.39063,0.26562 1.04688,0.26562 0.60937,0 1,-0.25 0.40625,-0.25 0.64062,-0.76562 z m 5.78577,1.89062 h -1.5625 v -1.85937 h 1.5625 z m 9.17648,-3.07812 q 0,0.67187 -0.25,1.29687 -0.25,0.60938 -0.67187,1.04688 -0.46875,0.45312 -1.125,0.70312 -0.64063,0.23438 -1.5,0.23438 -0.78125,0 -1.53125,-0.17188 -0.73438,-0.15625 -1.23438,-0.39062 v -1.375 h 0.0937 q 0.53125,0.32812 1.25,0.57812 0.71875,0.23438 1.40625,0.23438 0.45313,0 0.89063,-0.125 0.4375,-0.14063 0.76562,-0.46875 0.29688,-0.28125 0.4375,-0.67188 0.14063,-0.39062 0.14063,-0.89062 0,-0.5 -0.17188,-0.84375 -0.17187,-0.35938 -0.46875,-0.5625 -0.34375,-0.25 -0.82812,-0.34375 -0.48438,-0.10938 -1.07813,-0.10938 -0.57812,0 -1.10937,0.0781 -0.53125,0.0781 -0.90625,0.15625 v -4.98438 h 5.82812 v 1.14063 h -4.57812 v 2.57812 q 0.28125,-0.0312 0.5625,-0.0469 0.29687,-0.0156 0.51562,-0.0156 0.78125,0 1.375,0.14063 0.59375,0.125 1.09375,0.46875 0.51563,0.35937 0.79688,0.92187 0.29687,0.5625 0.29687,1.42188 z m 8.47327,0 q 0,0.67187 -0.25,1.29687 -0.25,0.60938 -0.67187,1.04688 -0.46875,0.45312 -1.125,0.70312 -0.64063,0.23438 -1.5,0.23438 -0.78125,0 -1.53125,-0.17188 -0.73438,-0.15625 -1.23438,-0.39062 v -1.375 h 0.0937 q 0.53125,0.32812 1.25,0.57812 0.71875,0.23438 1.40625,0.23438 0.45313,0 0.89063,-0.125 0.4375,-0.14063 0.76562,-0.46875 0.29688,-0.28125 0.4375,-0.67188 0.14063,-0.39062 0.14063,-0.89062 0,-0.5 -0.17188,-0.84375 -0.17187,-0.35938 -0.46875,-0.5625 -0.34375,-0.25 -0.82812,-0.34375 -0.48438,-0.10938 -1.07813,-0.10938 -0.57812,0 -1.10937,0.0781 -0.53125,0.0781 -0.90625,0.15625 v -4.98438 h 5.82812 v 1.14063 h -4.57812 v 2.57812 q 0.28125,-0.0312 0.5625,-0.0469 0.29687,-0.0156 0.51562,-0.0156 0.78125,0 1.375,0.14063 0.59375,0.125 1.09375,0.46875 0.51563,0.35937 0.79688,0.92187 0.29687,0.5625 0.29687,1.42188 z" />
  <path
     style="fill:#ffffff;fill-rule:evenodd"
     inkscape:connector-curvature="0"
     id="path85"
     d="m 298.58005,68.797734 h 53.13385 v 24.12599 h -53.13385 z" />
  <path
     style="fill-rule:evenodd;stroke:#000000;stroke-width:1;stroke-linecap:butt;stroke-linejoin:round"
     inkscape:connector-curvature="0"
     id="path87"
     d="m 298.58005,68.797734 h 53.13385 v 24.12599 h -53.13385 z" />
  <path
     style="fill:#000000;fill-rule:nonzero"
     inkscape:connector-curvature="0"
     id="path89"
     d="m 317.60667,80.816974 q 0,2.60937 -0.8125,3.82812 -0.8125,1.21875 -2.53125,1.21875 -1.75,0 -2.5625,-1.23437 -0.79688,-1.23438 -0.79688,-3.79688 0,-2.59375 0.8125,-3.82812 0.8125,-1.23438 2.54688,-1.23438 1.73437,0 2.53125,1.26563 0.8125,1.25 0.8125,3.78125 z m -1.70313,2.95312 q 0.21875,-0.53125 0.29688,-1.23437 0.0937,-0.71875 0.0937,-1.71875 0,-1 -0.0937,-1.71875 -0.0781,-0.73438 -0.3125,-1.23438 -0.21875,-0.5 -0.625,-0.75 -0.39063,-0.26562 -1,-0.26562 -0.625,0 -1.03125,0.26562 -0.39063,0.25 -0.625,0.75 -0.21875,0.48438 -0.29688,1.26563 -0.0781,0.76562 -0.0781,1.70312 0,1.01563 0.0625,1.70313 0.0781,0.67187 0.3125,1.21875 0.21875,0.5 0.60937,0.76562 0.39063,0.26563 1.04688,0.26563 0.60937,0 1,-0.25 0.40625,-0.25 0.64062,-0.76563 z m 5.78577,1.89063 h -1.5625 v -1.85938 h 1.5625 z m 9.47336,-2.73438 h -1.4375 v 2.73438 h -1.25 v -2.73438 h -4.64063 v -1.48437 l 4.6875,-5.46875 h 1.20313 v 5.92187 h 1.4375 z m -2.6875,-1.03125 v -4.375 l -3.75,4.375 z m 11.16077,1.03125 h -1.4375 v 2.73438 h -1.25 v -2.73438 h -4.64063 v -1.48437 l 4.6875,-5.46875 h 1.20313 v 5.92187 h 1.4375 z m -2.6875,-1.03125 v -4.375 l -3.75,4.375 z" />
  <path
     style="fill:#ffffff;fill-rule:evenodd"
     inkscape:connector-curvature="0"
     id="path91"
     d="M 298.58005,92.797734 H 351.7139 V 116.92372 H 298.58005 Z" />
  <path
     style="fill-rule:evenodd;stroke:#000000;stroke-width:1;stroke-linecap:butt;stroke-linejoin:round"
     inkscape:connector-curvature="0"
     id="path93"
     d="M 298.58005,92.797734 H 351.7139 V 116.92372 H 298.58005 Z" />
  <path
     style="fill:#000000;fill-rule:nonzero"
     inkscape:connector-curvature="0"
     id="path95"
     d="m 317.60667,104.81697 q 0,2.60937 -0.8125,3.82812 -0.8125,1.21875 -2.53125,1.21875 -1.75,0 -2.5625,-1.23437 -0.79688,-1.23438 -0.79688,-3.79688 0,-2.59375 0.8125,-3.82812 0.8125,-1.234376 2.54688,-1.234376 1.73437,0 2.53125,1.265626 0.8125,1.25 0.8125,3.78125 z m -1.70313,2.95312 q 0.21875,-0.53125 0.29688,-1.23437 0.0937,-0.71875 0.0937,-1.71875 0,-1 -0.0937,-1.71875 -0.0781,-0.73438 -0.3125,-1.23438 -0.21875,-0.5 -0.625,-0.75 -0.39063,-0.26562 -1,-0.26562 -0.625,0 -1.03125,0.26562 -0.39063,0.25 -0.625,0.75 -0.21875,0.48438 -0.29688,1.26563 -0.0781,0.76562 -0.0781,1.70312 0,1.01563 0.0625,1.70313 0.0781,0.67187 0.3125,1.21875 0.21875,0.5 0.60937,0.76562 0.39063,0.26563 1.04688,0.26563 0.60937,0 1,-0.25 0.40625,-0.25 0.64062,-0.76563 z m 5.78577,1.89063 h -1.5625 v -1.85938 h 1.5625 z m 9.39523,-3.14063 q 0,1.46875 -0.96875,2.40625 -0.96875,0.9375 -2.39062,0.9375 -0.71875,0 -1.3125,-0.21875 -0.57813,-0.21875 -1.01563,-0.65625 -0.5625,-0.54687 -0.875,-1.4375 -0.29687,-0.89062 -0.29687,-2.14062 0,-1.29688 0.26562,-2.28125 0.28125,-1 0.89063,-1.78125 0.57812,-0.73438 1.48437,-1.14063 0.90625,-0.421866 2.10938,-0.421866 0.375,0 0.64062,0.0312 0.26563,0.0312 0.53125,0.125 v 1.234366 h -0.0781 q -0.17188,-0.0937 -0.54688,-0.17187 -0.35937,-0.0937 -0.75,-0.0937 -1.39062,0 -2.23437,0.875 -0.82813,0.875 -0.96875,2.35937 0.54687,-0.32812 1.07812,-0.5 0.53125,-0.17187 1.23438,-0.17187 0.60937,0 1.07812,0.10937 0.48438,0.10938 0.96875,0.46875 0.57813,0.39063 0.85938,1 0.29687,0.59375 0.29687,1.46875 z m -1.3125,0.0469 q 0,-0.60938 -0.1875,-1 -0.17187,-0.39063 -0.59375,-0.6875 -0.29687,-0.20313 -0.65625,-0.26563 -0.35937,-0.0781 -0.76562,-0.0781 -0.54688,0 -1.03125,0.14062 -0.46875,0.125 -0.96875,0.39063 -0.0156,0.15625 -0.0312,0.29687 0,0.125 0,0.32813 0,1.01562 0.20312,1.625 0.21875,0.59375 0.59375,0.9375 0.29688,0.28125 0.64063,0.42187 0.35937,0.125 0.76562,0.125 0.9375,0 1.48438,-0.57812 0.54687,-0.57813 0.54687,-1.65625 z m 9.64515,3.09375 h -6.5625 v -1.35938 q 0.6875,-0.59375 1.375,-1.17187 0.6875,-0.59375 1.28125,-1.17188 1.25,-1.20312 1.70312,-1.90625 0.46875,-0.71875 0.46875,-1.54687 0,-0.75 -0.5,-1.17188 -0.5,-0.4375 -1.39062,-0.4375 -0.59375,0 -1.28125,0.21875 -0.6875,0.20313 -1.34375,0.625 h -0.0781 v -1.35937 q 0.46875,-0.23438 1.23438,-0.421876 0.78125,-0.1875 1.5,-0.1875 1.48437,0 2.32812,0.718746 0.85938,0.71875 0.85938,1.95313 0,0.54687 -0.14063,1.03125 -0.14062,0.46875 -0.42187,0.90625 -0.25,0.40625 -0.59375,0.79687 -0.34375,0.39063 -0.82813,0.85938 -0.70312,0.6875 -1.4375,1.32812 -0.73437,0.64063 -1.39062,1.1875 h 5.21875 z" />
  <path
     style="fill:#ffffff;fill-rule:evenodd"
     inkscape:connector-curvature="0"
     id="path97"
     d="m 298.58005,116.79773 h 53.13385 v 24.12599 h -53.13385 z" />
  <path
     style="fill-rule:evenodd;stroke:#000000;stroke-width:1;stroke-linecap:butt;stroke-linejoin:round"
     inkscape:connector-curvature="0"
     id="path99"
     d="m 298.58005,116.79773 h 53.13385 v 24.12599 h -53.13385 z" />
  <path
     style="fill:#000000;fill-rule:nonzero"
     inkscape:connector-curvature="0"
     id="path101"
     d="m 317.60667,128.81697 q 0,2.60937 -0.8125,3.82812 -0.8125,1.21875 -2.53125,1.21875 -1.75,0 -2.5625,-1.23437 -0.79688,-1.23438 -0.79688,-3.79688 0,-2.59375 0.8125,-3.82812 0.8125,-1.23438 2.54688,-1.23438 1.73437,0 2.53125,1.26563 0.8125,1.25 0.8125,3.78125 z m -1.70313,2.95312 q 0.21875,-0.53125 0.29688,-1.23437 0.0937,-0.71875 0.0937,-1.71875 0,-1 -0.0937,-1.71875 -0.0781,-0.73438 -0.3125,-1.23438 -0.21875,-0.5 -0.625,-0.75 -0.39063,-0.26562 -1,-0.26562 -0.625,0 -1.03125,0.26562 -0.39063,0.25 -0.625,0.75 -0.21875,0.48438 -0.29688,1.26563 -0.0781,0.76562 -0.0781,1.70312 0,1.01563 0.0625,1.70313 0.0781,0.67187 0.3125,1.21875 0.21875,0.5 0.60937,0.76562 0.39063,0.26563 1.04688,0.26563 0.60937,0 1,-0.25 0.40625,-0.25 0.64062,-0.76563 z m 5.78577,1.89063 h -1.5625 v -1.85938 h 1.5625 z m 9.39523,-3.14063 q 0,1.46875 -0.96875,2.40625 -0.96875,0.9375 -2.39062,0.9375 -0.71875,0 -1.3125,-0.21875 -0.57813,-0.21875 -1.01563,-0.65625 -0.5625,-0.54687 -0.875,-1.4375 -0.29687,-0.89062 -0.29687,-2.14062 0,-1.29688 0.26562,-2.28125 0.28125,-1 0.89063,-1.78125 0.57812,-0.73438 1.48437,-1.14063 0.90625,-0.42187 2.10938,-0.42187 0.375,0 0.64062,0.0312 0.26563,0.0312 0.53125,0.125 v 1.23437 h -0.0781 q -0.17188,-0.0937 -0.54688,-0.17187 -0.35937,-0.0937 -0.75,-0.0937 -1.39062,0 -2.23437,0.875 -0.82813,0.875 -0.96875,2.35937 0.54687,-0.32812 1.07812,-0.5 0.53125,-0.17187 1.23438,-0.17187 0.60937,0 1.07812,0.10937 0.48438,0.10938 0.96875,0.46875 0.57813,0.39063 0.85938,1 0.29687,0.59375 0.29687,1.46875 z m -1.3125,0.0469 q 0,-0.60938 -0.1875,-1 -0.17187,-0.39063 -0.59375,-0.6875 -0.29687,-0.20313 -0.65625,-0.26563 -0.35937,-0.0781 -0.76562,-0.0781 -0.54688,0 -1.03125,0.14062 -0.46875,0.125 -0.96875,0.39063 -0.0156,0.15625 -0.0312,0.29687 0,0.125 0,0.32813 0,1.01562 0.20312,1.625 0.21875,0.59375 0.59375,0.9375 0.29688,0.28125 0.64063,0.42187 0.35937,0.125 0.76562,0.125 0.9375,0 1.48438,-0.57812 0.54687,-0.57813 0.54687,-1.65625 z m 9.64515,3.09375 h -6.5625 v -1.35938 q 0.6875,-0.59375 1.375,-1.17187 0.6875,-0.59375 1.28125,-1.17188 1.25,-1.20312 1.70312,-1.90625 0.46875,-0.71875 0.46875,-1.54687 0,-0.75 -0.5,-1.17188 -0.5,-0.4375 -1.39062,-0.4375 -0.59375,0 -1.28125,0.21875 -0.6875,0.20313 -1.34375,0.625 h -0.0781 v -1.35937 q 0.46875,-0.23438 1.23438,-0.42188 0.78125,-0.1875 1.5,-0.1875 1.48437,0 2.32812,0.71875 0.85938,0.71875 0.85938,1.95313 0,0.54687 -0.14063,1.03125 -0.14062,0.46875 -0.42187,0.90625 -0.25,0.40625 -0.59375,0.79687 -0.34375,0.39063 -0.82813,0.85938 -0.70312,0.6875 -1.4375,1.32812 -0.73437,0.64063 -1.39062,1.1875 h 5.21875 z" />
  <path
     style="fill:#ffffff;fill-rule:evenodd"
     inkscape:connector-curvature="0"
     id="path103"
     d="m 48.579964,204.79773 h 53.133856 v 24.12598 H 48.579964 Z" />
  <path
     style="fill-rule:evenodd;stroke:#000000;stroke-width:1;stroke-linecap:butt;stroke-linejoin:round"
     inkscape:connector-curvature="0"
     id="path105"
     d="m 48.579964,204.79773 h 53.133856 v 24.12598 H 48.579964 Z" />
  <path
     style="fill:#000000;fill-rule:nonzero"
     inkscape:connector-curvature="0"
     id="path107"
     d="m 67.606574,216.81698 q 0,2.60937 -0.8125,3.82812 -0.8125,1.21875 -2.53125,1.21875 -1.75,0 -2.5625,-1.23437 -0.796875,-1.23438 -0.796875,-3.79688 0,-2.59375 0.8125,-3.82812 0.8125,-1.23438 2.546875,-1.23438 1.734375,0 2.53125,1.26563 0.8125,1.25 0.8125,3.78125 z m -1.703125,2.95312 q 0.21875,-0.53125 0.296875,-1.23437 0.09375,-0.71875 0.09375,-1.71875 0,-1 -0.09375,-1.71875 -0.07813,-0.73438 -0.3125,-1.23438 -0.21875,-0.5 -0.625,-0.75 -0.390625,-0.26562 -1,-0.26562 -0.625,0 -1.03125,0.26562 -0.390625,0.25 -0.625,0.75 -0.21875,0.48438 -0.296875,1.26563 -0.07813,0.76562 -0.07813,1.70312 0,1.01563 0.0625,1.70313 0.07813,0.67187 0.3125,1.21875 0.21875,0.5 0.609375,0.76562 0.390625,0.26563 1.046875,0.26563 0.609375,0 1,-0.25 0.40625,-0.25 0.640625,-0.76563 z m 5.785751,1.89063 h -1.5625 v -1.85938 h 1.5625 z m 9.473373,-2.73438 h -1.4375 v 2.73438 h -1.25 v -2.73438 h -4.640625 v -1.48437 l 4.6875,-5.46875 h 1.203125 v 5.92187 h 1.4375 z m -2.6875,-1.03125 v -4.375 l -3.75,4.375 z m 11.160751,1.03125 h -1.4375 v 2.73438 h -1.25 v -2.73438 h -4.640625 v -1.48437 l 4.6875,-5.46875 h 1.203125 v 5.92187 h 1.4375 z m -2.6875,-1.03125 v -4.375 l -3.75,4.375 z" />
  <path
     style="fill:#ffffff;fill-rule:evenodd"
     inkscape:connector-curvature="0"
     id="path109"
     d="m 101.58001,204.79773 h 53.13386 v 24.12598 H 101.58 Z" />
  <path
     style="fill-rule:evenodd;stroke:#000000;stroke-width:1;stroke-linecap:butt;stroke-linejoin:round"
     inkscape:connector-curvature="0"
     id="path111"
     d="m 101.58001,204.79773 h 53.13386 v 24.12598 H 101.58 Z" />
  <path
     style="fill:#000000;fill-rule:nonzero"
     inkscape:connector-curvature="0"
     id="path113"
     d="m 120.60662,216.81698 q 0,2.60937 -0.8125,3.82812 -0.81249,1.21875 -2.53124,1.21875 -1.75,0 -2.5625,-1.23437 -0.79688,-1.23438 -0.79688,-3.79688 0,-2.59375 0.8125,-3.82812 0.8125,-1.23438 2.54688,-1.23438 1.73437,0 2.53124,1.26563 0.8125,1.25 0.8125,3.78125 z m -1.70312,2.95312 q 0.21875,-0.53125 0.29688,-1.23437 0.0937,-0.71875 0.0937,-1.71875 0,-1 -0.0937,-1.71875 -0.0781,-0.73438 -0.3125,-1.23438 -0.21875,-0.5 -0.625,-0.75 -0.39063,-0.26562 -1,-0.26562 -0.625,0 -1.03125,0.26562 -0.39063,0.25 -0.625,0.75 -0.21875,0.48438 -0.29688,1.26563 -0.0781,0.76562 -0.0781,1.70312 0,1.01563 0.0625,1.70313 0.0781,0.67187 0.3125,1.21875 0.21875,0.5 0.60937,0.76562 0.39063,0.26563 1.04688,0.26563 0.60937,0 1,-0.25 0.40625,-0.25 0.64062,-0.76563 z m 5.78575,1.89063 h -1.5625 v -1.85938 h 1.5625 z m 9.39524,-3.14063 q 0,1.46875 -0.96875,2.40625 -0.96875,0.9375 -2.39062,0.9375 -0.71875,0 -1.3125,-0.21875 -0.57813,-0.21875 -1.01563,-0.65625 -0.5625,-0.54687 -0.875,-1.4375 -0.29687,-0.89062 -0.29687,-2.14062 0,-1.29688 0.26562,-2.28125 0.28125,-1 0.89063,-1.78125 0.57812,-0.73438 1.48437,-1.14063 0.90625,-0.42187 2.10938,-0.42187 0.375,0 0.64062,0.0312 0.26563,0.0312 0.53125,0.125 v 1.23437 h -0.0781 q -0.17188,-0.0937 -0.54688,-0.17187 -0.35937,-0.0937 -0.75,-0.0937 -1.39062,0 -2.23437,0.875 -0.82813,0.875 -0.96875,2.35937 0.54687,-0.32812 1.07812,-0.5 0.53125,-0.17187 1.23438,-0.17187 0.60937,0 1.07812,0.10937 0.48438,0.10938 0.96875,0.46875 0.57813,0.39063 0.85938,1 0.29687,0.59375 0.29687,1.46875 z m -1.3125,0.0469 q 0,-0.60938 -0.1875,-1 -0.17187,-0.39063 -0.59375,-0.6875 -0.29687,-0.20313 -0.65625,-0.26563 -0.35937,-0.0781 -0.76562,-0.0781 -0.54688,0 -1.03125,0.14062 -0.46875,0.125 -0.96875,0.39063 -0.0156,0.15625 -0.0312,0.29687 0,0.125 0,0.32813 0,1.01562 0.20312,1.625 0.21875,0.59375 0.59375,0.9375 0.29688,0.28125 0.64063,0.42187 0.35937,0.125 0.76562,0.125 0.9375,0 1.48438,-0.57812 0.54687,-0.57813 0.54687,-1.65625 z m 9.64513,3.09375 h -6.5625 v -1.35938 q 0.6875,-0.59375 1.375,-1.17187 0.6875,-0.59375 1.28125,-1.17188 1.25,-1.20312 1.70313,-1.90625 0.46875,-0.71875 0.46875,-1.54687 0,-0.75 -0.5,-1.17188 -0.5,-0.4375 -1.39063,-0.4375 -0.59375,0 -1.28125,0.21875 -0.6875,0.20313 -1.34375,0.625 h -0.0781 v -1.35937 q 0.46875,-0.23438 1.23437,-0.42188 0.78125,-0.1875 1.5,-0.1875 1.48438,0 2.32813,0.71875 0.85937,0.71875 0.85937,1.95313 0,0.54687 -0.14062,1.03125 -0.14063,0.46875 -0.42188,0.90625 -0.25,0.40625 -0.59375,0.79687 -0.34375,0.39063 -0.82812,0.85938 -0.70313,0.6875 -1.4375,1.32812 -0.73438,0.64063 -1.39063,1.1875 h 5.21875 z" />
  <path
     style="fill:#ffffff;fill-rule:evenodd"
     inkscape:connector-curvature="0"
     id="path115"
     d="m 154.58005,204.79773 h 53.13386 v 24.12598 h -53.13386 z" />
  <path
     style="fill-rule:evenodd;stroke:#000000;stroke-width:1;stroke-linecap:butt;stroke-linejoin:round"
     inkscape:connector-curvature="0"
     id="path117"
     d="m 154.58005,204.79773 h 53.13386 v 24.12598 h -53.13386 z" />
  <path
     style="fill:#000000;fill-rule:nonzero"
     inkscape:connector-curvature="0"
     id="path119"
     d="m 173.60667,216.81698 q 0,2.60937 -0.8125,3.82812 -0.8125,1.21875 -2.53125,1.21875 -1.75,0 -2.5625,-1.23437 -0.79688,-1.23438 -0.79688,-3.79688 0,-2.59375 0.8125,-3.82812 0.8125,-1.23438 2.54688,-1.23438 1.73437,0 2.53125,1.26563 0.8125,1.25 0.8125,3.78125 z m -1.70313,2.95312 q 0.21875,-0.53125 0.29688,-1.23437 0.0937,-0.71875 0.0937,-1.71875 0,-1 -0.0937,-1.71875 -0.0781,-0.73438 -0.3125,-1.23438 -0.21875,-0.5 -0.625,-0.75 -0.39063,-0.26562 -1,-0.26562 -0.625,0 -1.03125,0.26562 -0.39063,0.25 -0.625,0.75 -0.21875,0.48438 -0.29688,1.26563 -0.0781,0.76562 -0.0781,1.70312 0,1.01563 0.0625,1.70313 0.0781,0.67187 0.3125,1.21875 0.21875,0.5 0.60937,0.76562 0.39063,0.26563 1.04688,0.26563 0.60937,0 1,-0.25 0.40625,-0.25 0.64062,-0.76563 z m 5.78576,1.89063 h -1.5625 v -1.85938 h 1.5625 z m 9.17649,-3.07813 q 0,0.67188 -0.25,1.29688 -0.25,0.60937 -0.67187,1.04687 -0.46875,0.45313 -1.125,0.70313 -0.64063,0.23437 -1.5,0.23437 -0.78125,0 -1.53125,-0.17187 -0.73438,-0.15625 -1.23438,-0.39063 v -1.375 h 0.0937 q 0.53125,0.32813 1.25,0.57813 0.71875,0.23437 1.40625,0.23437 0.45313,0 0.89063,-0.125 0.4375,-0.14062 0.76562,-0.46875 0.29688,-0.28125 0.4375,-0.67187 0.14063,-0.39063 0.14063,-0.89063 0,-0.5 -0.17188,-0.84375 -0.17187,-0.35937 -0.46875,-0.5625 -0.34375,-0.25 -0.82812,-0.34375 -0.48438,-0.10937 -1.07813,-0.10937 -0.57812,0 -1.10937,0.0781 -0.53125,0.0781 -0.90625,0.15625 v -4.98437 h 5.82812 v 1.14062 h -4.57812 v 2.57813 q 0.28125,-0.0312 0.5625,-0.0469 0.29687,-0.0156 0.51562,-0.0156 0.78125,0 1.375,0.14062 0.59375,0.125 1.09375,0.46875 0.51563,0.35938 0.79688,0.92188 0.29687,0.5625 0.29687,1.42187 z m 8.47326,0 q 0,0.67188 -0.25,1.29688 -0.25,0.60937 -0.67188,1.04687 -0.46875,0.45313 -1.125,0.70313 -0.64062,0.23437 -1.5,0.23437 -0.78125,0 -1.53125,-0.17187 -0.73437,-0.15625 -1.23437,-0.39063 v -1.375 h 0.0937 q 0.53125,0.32813 1.25,0.57813 0.71875,0.23437 1.40625,0.23437 0.45312,0 0.89062,-0.125 0.4375,-0.14062 0.76563,-0.46875 0.29687,-0.28125 0.4375,-0.67187 0.14062,-0.39063 0.14062,-0.89063 0,-0.5 -0.17187,-0.84375 -0.17188,-0.35937 -0.46875,-0.5625 -0.34375,-0.25 -0.82813,-0.34375 -0.48437,-0.10937 -1.07812,-0.10937 -0.57813,0 -1.10938,0.0781 -0.53125,0.0781 -0.90625,0.15625 v -4.98437 h 5.82813 v 1.14062 h -4.57813 v 2.57813 q 0.28125,-0.0312 0.5625,-0.0469 0.29688,-0.0156 0.51563,-0.0156 0.78125,0 1.375,0.14062 0.59375,0.125 1.09375,0.46875 0.51562,0.35938 0.79687,0.92188 0.29688,0.5625 0.29688,1.42187 z" />
  <path
     style="fill:#cfe2f3;fill-rule:evenodd"
     inkscape:connector-curvature="0"
     id="path121"
     d="m 238.11832,84.010334 h 17.59055 v -8.8504 l 17.59057,17.70079 -17.59057,17.700786 v -8.85039 h -17.59055 z" />
  <path
     style="fill-rule:evenodd;stroke:#000000;stroke-width:1;stroke-linecap:butt;stroke-linejoin:round"
     inkscape:connector-curvature="0"
     id="path123"
     d="m 238.11832,84.010334 h 17.59055 v -8.8504 l 17.59057,17.70079 -17.59057,17.700786 v -8.85039 h -17.59055 z" />
  <path
     style="fill:#cfe2f3;fill-rule:evenodd"
     inkscape:connector-curvature="0"
     id="path125"
     d="m 136.99729,155.27017 v 17.59055 h 8.85039 l -17.70079,17.59056 -17.70079,-17.59056 h 8.8504 v -17.59055 z" />
  <path
     style="fill-rule:evenodd;stroke:#000000;stroke-width:1;stroke-linecap:butt;stroke-linejoin:round"
     inkscape:connector-curvature="0"
     id="path127"
     d="m 136.99729,155.27017 v 17.59055 h 8.85039 l -17.70079,17.59056 -17.70079,-17.59056 h 8.8504 v -17.59055 z" />
  <path
     style="fill:#000000;fill-rule:nonzero"
     inkscape:connector-curvature="0"
     id="path131"
     d="m 219.00751,59.446554 v 0.46875 q 0.57812,-0.625 1.15625,-0.625 0.34375,0 0.60937,0.1875 0.26563,0.1875 0.4375,0.5625 0.29688,-0.375 0.60938,-0.5625 0.3125,-0.1875 0.625,-0.1875 0.48437,0 0.78125,0.3125 0.375,0.40625 0.375,0.89063 v 3.15625 h 0.375 q 0.17187,0 0.23437,0.0625 0.0781,0.0625 0.0781,0.17187 0,0.0937 -0.0781,0.15625 -0.0625,0.0625 -0.23437,0.0625 h -0.82813 v -3.5625 q 0,-0.34375 -0.21875,-0.5625 -0.20312,-0.23437 -0.46875,-0.23437 -0.25,0 -0.53125,0.1875 -0.26562,0.1875 -0.60937,0.73437 v 2.98438 h 0.375 q 0.15625,0 0.21875,0.0625 0.0781,0.0625 0.0781,0.17187 0,0.0937 -0.0781,0.15625 -0.0625,0.0625 -0.21875,0.0625 h -0.84375 v -3.53125 q 0,-0.35937 -0.21875,-0.59375 -0.20313,-0.23437 -0.46875,-0.23437 -0.23438,0 -0.46875,0.15625 -0.32813,0.21875 -0.6875,0.76562 v 2.98438 h 0.375 q 0.15625,0 0.21875,0.0625 0.0781,0.0625 0.0781,0.17187 0,0.0937 -0.0781,0.15625 -0.0625,0.0625 -0.21875,0.0625 h -1.21875 q -0.15625,0 -0.23438,-0.0625 -0.0625,-0.0625 -0.0625,-0.15625 0,-0.10937 0.0625,-0.17187 0.0781,-0.0625 0.23438,-0.0625 h 0.39062 v -3.73438 h -0.39062 q -0.15625,0 -0.23438,-0.0625 -0.0625,-0.0781 -0.0625,-0.17187 0,-0.0937 0.0625,-0.15625 0.0781,-0.0781 0.23438,-0.0781 z m 9.94482,4.65625 v -0.65625 q -0.98437,0.82813 -2.09375,0.82813 -0.8125,0 -1.26562,-0.40625 -0.45313,-0.40625 -0.45313,-1 0,-0.65625 0.59375,-1.14063 0.60938,-0.5 1.75,-0.5 0.3125,0 0.67188,0.0469 0.375,0.0312 0.79687,0.125 v -0.73438 q 0,-0.375 -0.34375,-0.64062 -0.34375,-0.28125 -1.03125,-0.28125 -0.51562,0 -1.46875,0.3125 -0.17187,0.0469 -0.21875,0.0469 -0.0937,0 -0.15625,-0.0625 -0.0625,-0.0625 -0.0625,-0.15625 0,-0.0937 0.0625,-0.14062 0.0625,-0.0937 0.60938,-0.23438 0.82812,-0.21875 1.26562,-0.21875 0.84375,0 1.3125,0.42188 0.48438,0.42187 0.48438,0.95312 v 2.98438 h 0.60937 q 0.17188,0 0.23438,0.0625 0.0781,0.0625 0.0781,0.17187 0,0.0937 -0.0781,0.15625 -0.0625,0.0625 -0.23438,0.0625 z m 0,-2.25 q -0.3125,-0.0937 -0.67187,-0.125 -0.34375,-0.0469 -0.73438,-0.0469 -0.98437,0 -1.54687,0.42187 -0.42188,0.3125 -0.42188,0.76563 0,0.40625 0.3125,0.6875 0.32813,0.26562 0.9375,0.26562 0.59375,0 1.09375,-0.21875 0.5,-0.23437 1.03125,-0.75 z m 5.6167,-0.1875 2.0625,1.98438 q 0.20313,0 0.25,0.0312 0.0625,0.0156 0.0937,0.0781 0.0469,0.0469 0.0469,0.125 0,0.0937 -0.0625,0.15625 -0.0625,0.0625 -0.23438,0.0625 h -1.45312 q -0.17188,0 -0.25,-0.0625 -0.0625,-0.0625 -0.0625,-0.15625 0,-0.10937 0.0625,-0.17187 0.0781,-0.0625 0.25,-0.0625 h 0.75 l -1.76563,-1.67188 -1.73437,1.67188 h 0.75 q 0.15625,0 0.21875,0.0625 0.0781,0.0625 0.0781,0.17187 0,0.0937 -0.0781,0.15625 -0.0625,0.0625 -0.21875,0.0625 h -1.46875 q -0.15625,0 -0.23438,-0.0625 -0.0625,-0.0625 -0.0625,-0.15625 0,-0.0781 0.0312,-0.125 0.0469,-0.0625 0.0937,-0.0781 0.0469,-0.0312 0.25,-0.0312 l 2.07813,-1.98438 -1.84375,-1.75 q -0.1875,0 -0.25,-0.0156 -0.0469,-0.0312 -0.0937,-0.0937 -0.0312,-0.0625 -0.0312,-0.125 0,-0.0937 0.0625,-0.15625 0.0781,-0.0781 0.25,-0.0781 h 1.23437 q 0.15625,0 0.21875,0.0781 0.0781,0.0625 0.0781,0.15625 0,0.0937 -0.0781,0.17187 -0.0625,0.0625 -0.21875,0.0625 h -0.54687 l 1.51562,1.45313 1.53125,-1.45313 h -0.53125 q -0.15625,0 -0.23437,-0.0625 -0.0781,-0.0781 -0.0781,-0.17187 0,-0.0937 0.0625,-0.15625 0.0781,-0.0781 0.25,-0.0781 h 1.23438 q 0.15625,0 0.21875,0.0781 0.0781,0.0625 0.0781,0.15625 0,0.0625 -0.0469,0.125 -0.0312,0.0625 -0.0937,0.0937 -0.0469,0.0156 -0.23438,0.0156 z m 6.2417,-0.23437 q 0,-0.625 0.15625,-1.3125 0.17188,-0.6875 0.625,-1.59375 0.45313,-0.92188 0.65625,-1.10938 0.0781,-0.0469 0.14063,-0.0469 0.10937,0 0.17187,0.0625 0.0625,0.0625 0.0625,0.15625 0,0.0469 -0.0312,0.10937 -0.59375,1.09375 -0.84375,1.96875 -0.25,0.875 -0.25,1.76563 0,0.89062 0.25,1.76562 0.25,0.875 0.84375,1.95313 0.0312,0.0781 0.0312,0.125 0,0.0937 -0.0625,0.15625 -0.0625,0.0625 -0.17187,0.0625 -0.0625,0 -0.14063,-0.0469 -0.1875,-0.1875 -0.64062,-1.07812 -0.45313,-0.89063 -0.625,-1.5625 -0.17188,-0.6875 -0.17188,-1.375 z m 7.94483,2.67187 v -0.65625 q -0.98438,0.82813 -2.09375,0.82813 -0.8125,0 -1.26563,-0.40625 -0.45312,-0.40625 -0.45312,-1 0,-0.65625 0.59375,-1.14063 0.60937,-0.5 1.75,-0.5 0.3125,0 0.67187,0.0469 0.375,0.0312 0.79688,0.125 v -0.73438 q 0,-0.375 -0.34375,-0.64062 -0.34375,-0.28125 -1.03125,-0.28125 -0.51563,0 -1.46875,0.3125 -0.17188,0.0469 -0.21875,0.0469 -0.0937,0 -0.15625,-0.0625 -0.0625,-0.0625 -0.0625,-0.15625 0,-0.0937 0.0625,-0.14062 0.0625,-0.0937 0.60937,-0.23438 0.82813,-0.21875 1.26563,-0.21875 0.84375,0 1.3125,0.42188 0.48437,0.42187 0.48437,0.95312 v 2.98438 h 0.60938 q 0.17187,0 0.23437,0.0625 0.0781,0.0625 0.0781,0.17187 0,0.0937 -0.0781,0.15625 -0.0625,0.0625 -0.23437,0.0625 z m 0,-2.25 q -0.3125,-0.0937 -0.67188,-0.125 -0.34375,-0.0469 -0.73437,-0.0469 -0.98438,0 -1.54688,0.42187 -0.42187,0.3125 -0.42187,0.76563 0,0.40625 0.3125,0.6875 0.32812,0.26562 0.9375,0.26562 0.59375,0 1.09375,-0.21875 0.5,-0.23437 1.03125,-0.75 z m 5.61669,-0.1875 2.0625,1.98438 q 0.20313,0 0.25,0.0312 0.0625,0.0156 0.0937,0.0781 0.0469,0.0469 0.0469,0.125 0,0.0937 -0.0625,0.15625 -0.0625,0.0625 -0.23438,0.0625 h -1.45312 q -0.17188,0 -0.25,-0.0625 -0.0625,-0.0625 -0.0625,-0.15625 0,-0.10937 0.0625,-0.17187 0.0781,-0.0625 0.25,-0.0625 h 0.75 l -1.76563,-1.67188 -1.73437,1.67188 h 0.75 q 0.15625,0 0.21875,0.0625 0.0781,0.0625 0.0781,0.17187 0,0.0937 -0.0781,0.15625 -0.0625,0.0625 -0.21875,0.0625 h -1.46875 q -0.15625,0 -0.23438,-0.0625 -0.0625,-0.0625 -0.0625,-0.15625 0,-0.0781 0.0312,-0.125 0.0469,-0.0625 0.0937,-0.0781 0.0469,-0.0312 0.25,-0.0312 l 2.07813,-1.98438 -1.84375,-1.75 q -0.1875,0 -0.25,-0.0156 -0.0469,-0.0312 -0.0937,-0.0937 -0.0312,-0.0625 -0.0312,-0.125 0,-0.0937 0.0625,-0.15625 0.0781,-0.0781 0.25,-0.0781 h 1.23437 q 0.15625,0 0.21875,0.0781 0.0781,0.0625 0.0781,0.15625 0,0.0937 -0.0781,0.17187 -0.0625,0.0625 -0.21875,0.0625 h -0.54687 l 1.51562,1.45313 1.53125,-1.45313 h -0.53125 q -0.15625,0 -0.23437,-0.0625 -0.0781,-0.0781 -0.0781,-0.17187 0,-0.0937 0.0625,-0.15625 0.0781,-0.0781 0.25,-0.0781 h 1.23438 q 0.15625,0 0.21875,0.0781 0.0781,0.0625 0.0781,0.15625 0,0.0625 -0.0469,0.125 -0.0312,0.0625 -0.0937,0.0937 -0.0469,0.0156 -0.23438,0.0156 z m 6.52295,-4.53125 v 1.17188 h -0.67187 v -1.17188 z m 0.0156,2.3125 v 4.20313 h 1.76562 q 0.17188,0 0.23438,0.0625 0.0781,0.0625 0.0781,0.17187 0,0.0937 -0.0781,0.15625 -0.0625,0.0625 -0.23438,0.0625 h -4 q -0.15625,0 -0.23437,-0.0625 -0.0625,-0.0625 -0.0625,-0.15625 0,-0.10937 0.0625,-0.17187 0.0781,-0.0625 0.23437,-0.0625 h 1.78125 v -3.73438 h -1.32812 q -0.15625,0 -0.23438,-0.0625 -0.0625,-0.0781 -0.0625,-0.17187 0,-0.0937 0.0625,-0.15625 0.0781,-0.0781 0.23438,-0.0781 z m 7.85107,0.29688 q 0,-0.15625 0.0625,-0.21875 0.0625,-0.0781 0.15625,-0.0781 0.10938,0 0.17188,0.0781 0.0625,0.0625 0.0625,0.23437 v 0.76563 q 0,0.17187 -0.0625,0.25 -0.0625,0.0625 -0.17188,0.0625 -0.0937,0 -0.15625,-0.0625 -0.0625,-0.0625 -0.0625,-0.20313 -0.0312,-0.3125 -0.34375,-0.53125 -0.4375,-0.29687 -1.15625,-0.29687 -0.76562,0 -1.1875,0.3125 -0.3125,0.23437 -0.3125,0.51562 0,0.3125 0.375,0.53125 0.26563,0.15625 0.98438,0.23438 0.9375,0.0937 1.29687,0.23437 0.53125,0.1875 0.78125,0.51563 0.25,0.32812 0.25,0.71875 0,0.57812 -0.54687,1.03125 -0.54688,0.4375 -1.625,0.4375 -1.0625,0 -1.75,-0.53125 0,0.17187 -0.0312,0.23437 -0.0156,0.0469 -0.0781,0.0937 -0.0469,0.0312 -0.10937,0.0312 -0.10938,0 -0.17188,-0.0625 -0.0625,-0.0781 -0.0625,-0.23437 v -0.9375 q 0,-0.15625 0.0625,-0.21875 0.0625,-0.0781 0.17188,-0.0781 0.0937,0 0.15625,0.0781 0.0625,0.0625 0.0625,0.17187 0,0.25 0.125,0.40625 0.1875,0.26563 0.59375,0.4375 0.42187,0.15625 1.01562,0.15625 0.875,0 1.29688,-0.3125 0.4375,-0.32812 0.4375,-0.70312 0,-0.42188 -0.42188,-0.67188 -0.45312,-0.25 -1.29687,-0.32812 -0.82813,-0.0937 -1.20313,-0.23438 -0.35937,-0.14062 -0.5625,-0.42187 -0.20312,-0.28125 -0.20312,-0.59375 0,-0.57813 0.5625,-0.92188 0.57812,-0.34375 1.35937,-0.34375 0.9375,0 1.53125,0.45313 z m 7.56983,0.625 h -4.92188 q -0.15625,0 -0.23437,-0.0625 -0.0625,-0.0625 -0.0625,-0.17188 0,-0.0937 0.0625,-0.15625 0.0781,-0.0625 0.23437,-0.0625 h 4.92188 q 0.15625,0 0.21875,0.0625 0.0781,0.0625 0.0781,0.17188 0,0.0937 -0.0781,0.15625 -0.0625,0.0625 -0.21875,0.0625 z m 0,1.625 h -4.92188 q -0.15625,0 -0.23437,-0.0625 -0.0625,-0.0625 -0.0625,-0.17188 0,-0.0937 0.0625,-0.15625 0.0781,-0.0625 0.23437,-0.0625 h 4.92188 q 0.15625,0 0.21875,0.0625 0.0781,0.0625 0.0781,0.15625 0,0.10938 -0.0781,0.17188 -0.0625,0.0625 -0.21875,0.0625 z m 4.3667,-4.71875 v 6.375 h 1.54687 q 0.15625,0 0.21875,0.0625 0.0781,0.0625 0.0781,0.17187 0,0.0937 -0.0781,0.15625 -0.0625,0.0625 -0.21875,0.0625 h -3.54687 q -0.17188,0 -0.25,-0.0625 -0.0625,-0.0625 -0.0625,-0.15625 0,-0.10937 0.0625,-0.17187 0.0781,-0.0625 0.25,-0.0625 h 1.54687 v -5.75 l -1.48437,0.45312 q -0.0937,0.0312 -0.15625,0.0312 -0.0781,0 -0.14063,-0.0625 -0.0625,-0.0625 -0.0625,-0.15625 0,-0.0781 0.0469,-0.15625 0.0469,-0.0469 0.1875,-0.0937 z m 6.50732,4.15625 q 0,0.625 -0.17188,1.3125 -0.15625,0.6875 -0.60937,1.59375 -0.45313,0.92187 -0.67188,1.09375 -0.0625,0.0625 -0.14062,0.0625 -0.0937,0 -0.17188,-0.0625 -0.0625,-0.0625 -0.0625,-0.15625 0,-0.0469 0.0469,-0.125 0.59375,-1.07813 0.84375,-1.95313 0.25,-0.875 0.25,-1.76562 0,-0.89063 -0.25,-1.76563 -0.25,-0.875 -0.84375,-1.96875 -0.0469,-0.0625 -0.0469,-0.10937 0,-0.0937 0.0625,-0.15625 0.0781,-0.0625 0.17188,-0.0625 0.0781,0 0.14062,0.0469 0.20313,0.1875 0.65625,1.07813 0.45313,0.875 0.625,1.5625 0.17188,0.6875 0.17188,1.375 z" />
  <path
     style="fill:#000000;fill-rule:nonzero"
     inkscape:connector-curvature="0"
     id="path135"
     d="m 26.53323,171.248 v 0.46875 q 0.578125,-0.625 1.15625,-0.625 0.34375,0 0.609375,0.1875 0.265625,0.1875 0.4375,0.5625 0.296875,-0.375 0.609375,-0.5625 0.3125,-0.1875 0.625,-0.1875 0.484375,0 0.78125,0.3125 0.375,0.40625 0.375,0.89062 v 3.15625 h 0.375 q 0.171875,0 0.234375,0.0625 0.07813,0.0625 0.07813,0.17188 0,0.0937 -0.07813,0.15625 -0.0625,0.0625 -0.234375,0.0625 h -0.828125 v -3.5625 q 0,-0.34375 -0.21875,-0.5625 -0.203125,-0.23438 -0.46875,-0.23438 -0.25,0 -0.53125,0.1875 -0.265625,0.1875 -0.609375,0.73438 v 2.98437 h 0.375 q 0.15625,0 0.21875,0.0625 0.07813,0.0625 0.07813,0.17188 0,0.0937 -0.07813,0.15625 -0.0625,0.0625 -0.21875,0.0625 H 28.37698 V 172.373 q 0,-0.35938 -0.21875,-0.59375 -0.203125,-0.23438 -0.46875,-0.23438 -0.234375,0 -0.46875,0.15625 -0.328125,0.21875 -0.6875,0.76563 v 2.98437 h 0.375 q 0.15625,0 0.21875,0.0625 0.07813,0.0625 0.07813,0.17188 0,0.0937 -0.07813,0.15625 -0.0625,0.0625 -0.21875,0.0625 h -1.21875 q -0.15625,0 -0.234375,-0.0625 -0.0625,-0.0625 -0.0625,-0.15625 0,-0.10938 0.0625,-0.17188 0.07813,-0.0625 0.234375,-0.0625 h 0.390625 v -3.73437 H 25.68948 q -0.15625,0 -0.234375,-0.0625 -0.0625,-0.0781 -0.0625,-0.17188 0,-0.0937 0.0625,-0.15625 0.07813,-0.0781 0.234375,-0.0781 z m 9.944824,4.65625 V 175.248 q -0.984375,0.82812 -2.09375,0.82812 -0.8125,0 -1.265625,-0.40625 -0.453125,-0.40625 -0.453125,-1 0,-0.65625 0.59375,-1.14062 0.609375,-0.5 1.75,-0.5 0.3125,0 0.671875,0.0469 0.375,0.0312 0.796875,0.125 v -0.73437 q 0,-0.375 -0.34375,-0.64063 -0.34375,-0.28125 -1.03125,-0.28125 -0.515625,0 -1.46875,0.3125 -0.171875,0.0469 -0.21875,0.0469 -0.09375,0 -0.15625,-0.0625 -0.0625,-0.0625 -0.0625,-0.15625 0,-0.0937 0.0625,-0.14063 0.0625,-0.0937 0.609375,-0.23437 0.828125,-0.21875 1.265625,-0.21875 0.84375,0 1.3125,0.42187 0.484375,0.42188 0.484375,0.95313 v 2.98437 h 0.609375 q 0.171875,0 0.234375,0.0625 0.07813,0.0625 0.07813,0.17188 0,0.0937 -0.07813,0.15625 -0.0625,0.0625 -0.234375,0.0625 z m 0,-2.25 q -0.3125,-0.0937 -0.671875,-0.125 -0.34375,-0.0469 -0.734375,-0.0469 -0.984375,0 -1.546875,0.42188 -0.421875,0.3125 -0.421875,0.76562 0,0.40625 0.3125,0.6875 0.328125,0.26563 0.9375,0.26563 0.59375,0 1.09375,-0.21875 0.5,-0.23438 1.03125,-0.75 z m 5.616699,-0.1875 2.0625,1.98437 q 0.203125,0 0.25,0.0312 0.0625,0.0156 0.09375,0.0781 0.04687,0.0469 0.04687,0.125 0,0.0937 -0.0625,0.15625 -0.0625,0.0625 -0.234375,0.0625 h -1.453125 q -0.171875,0 -0.25,-0.0625 -0.0625,-0.0625 -0.0625,-0.15625 0,-0.10938 0.0625,-0.17188 0.07813,-0.0625 0.25,-0.0625 h 0.75 l -1.765625,-1.67187 -1.734375,1.67187 h 0.75 q 0.15625,0 0.21875,0.0625 0.07813,0.0625 0.07813,0.17188 0,0.0937 -0.07813,0.15625 -0.0625,0.0625 -0.21875,0.0625 h -1.46875 q -0.15625,0 -0.234375,-0.0625 -0.0625,-0.0625 -0.0625,-0.15625 0,-0.0781 0.03125,-0.125 0.04687,-0.0625 0.09375,-0.0781 0.04687,-0.0312 0.25,-0.0312 l 2.078125,-1.98437 -1.84375,-1.75 q -0.1875,0 -0.25,-0.0156 -0.04687,-0.0312 -0.09375,-0.0937 -0.03125,-0.0625 -0.03125,-0.125 0,-0.0937 0.0625,-0.15625 0.07813,-0.0781 0.25,-0.0781 h 1.234375 q 0.15625,0 0.21875,0.0781 0.07813,0.0625 0.07813,0.15625 0,0.0937 -0.07813,0.17188 -0.0625,0.0625 -0.21875,0.0625 h -0.546875 l 1.515625,1.45312 1.53125,-1.45312 h -0.53125 q -0.15625,0 -0.234375,-0.0625 -0.07813,-0.0781 -0.07813,-0.17188 0,-0.0937 0.0625,-0.15625 0.07813,-0.0781 0.25,-0.0781 h 1.234375 q 0.15625,0 0.21875,0.0781 0.07813,0.0625 0.07813,0.15625 0,0.0625 -0.04687,0.125 -0.03125,0.0625 -0.09375,0.0937 -0.04687,0.0156 -0.234375,0.0156 z m 6.241699,-0.23438 q 0,-0.625 0.15625,-1.3125 0.171875,-0.6875 0.625,-1.59375 0.453125,-0.92187 0.65625,-1.10937 0.07813,-0.0469 0.140625,-0.0469 0.109375,0 0.171875,0.0625 0.0625,0.0625 0.0625,0.15625 0,0.0469 -0.03125,0.10938 -0.59375,1.09375 -0.84375,1.96875 -0.25,0.875 -0.25,1.76562 0,0.89063 0.25,1.76563 0.25,0.875 0.84375,1.95312 0.03125,0.0781 0.03125,0.125 0,0.0937 -0.0625,0.15625 -0.0625,0.0625 -0.171875,0.0625 -0.0625,0 -0.140625,-0.0469 -0.1875,-0.1875 -0.640625,-1.07813 -0.453125,-0.89062 -0.625,-1.5625 -0.171875,-0.6875 -0.171875,-1.375 z m 7.94482,2.67188 V 175.248 q -0.984371,0.82812 -2.093746,0.82812 -0.8125,0 -1.265625,-0.40625 -0.453125,-0.40625 -0.453125,-1 0,-0.65625 0.59375,-1.14062 0.609375,-0.5 1.75,-0.5 0.3125,0 0.671875,0.0469 0.374996,0.0312 0.796871,0.125 v -0.73437 q 0,-0.375 -0.34375,-0.64063 -0.34375,-0.28125 -1.031246,-0.28125 -0.515625,0 -1.46875,0.3125 -0.171875,0.0469 -0.21875,0.0469 -0.09375,0 -0.15625,-0.0625 -0.0625,-0.0625 -0.0625,-0.15625 0,-0.0937 0.0625,-0.14063 0.0625,-0.0937 0.609375,-0.23437 0.828125,-0.21875 1.265625,-0.21875 0.843746,0 1.312496,0.42187 0.484375,0.42188 0.484375,0.95313 v 2.98437 h 0.609375 q 0.171875,0 0.234375,0.0625 0.07813,0.0625 0.07813,0.17188 0,0.0937 -0.07813,0.15625 -0.0625,0.0625 -0.234375,0.0625 z m 0,-2.25 q -0.3125,-0.0937 -0.671875,-0.125 -0.343746,-0.0469 -0.734371,-0.0469 -0.984375,0 -1.546875,0.42188 -0.421875,0.3125 -0.421875,0.76562 0,0.40625 0.3125,0.6875 0.328125,0.26563 0.9375,0.26563 0.59375,0 1.09375,-0.21875 0.499996,-0.23438 1.031246,-0.75 z m 5.616699,-0.1875 2.0625,1.98437 q 0.203125,0 0.25,0.0312 0.0625,0.0156 0.09375,0.0781 0.04687,0.0469 0.04687,0.125 0,0.0937 -0.0625,0.15625 -0.0625,0.0625 -0.234375,0.0625 h -1.453125 q -0.171875,0 -0.25,-0.0625 -0.0625,-0.0625 -0.0625,-0.15625 0,-0.10938 0.0625,-0.17188 0.07813,-0.0625 0.25,-0.0625 h 0.75 l -1.765625,-1.67187 -1.734375,1.67187 h 0.75 q 0.15625,0 0.21875,0.0625 0.07813,0.0625 0.07813,0.17188 0,0.0937 -0.07813,0.15625 -0.0625,0.0625 -0.21875,0.0625 h -1.46875 q -0.15625,0 -0.234375,-0.0625 -0.0625,-0.0625 -0.0625,-0.15625 0,-0.0781 0.03125,-0.125 0.04687,-0.0625 0.09375,-0.0781 0.04687,-0.0312 0.25,-0.0312 l 2.078125,-1.98437 -1.84375,-1.75 q -0.1875,0 -0.25,-0.0156 -0.04687,-0.0312 -0.09375,-0.0937 -0.03125,-0.0625 -0.03125,-0.125 0,-0.0937 0.0625,-0.15625 0.07813,-0.0781 0.25,-0.0781 h 1.234375 q 0.15625,0 0.21875,0.0781 0.07813,0.0625 0.07813,0.15625 0,0.0937 -0.07813,0.17188 -0.0625,0.0625 -0.21875,0.0625 h -0.546875 l 1.515625,1.45312 1.53125,-1.45312 h -0.53125 q -0.15625,0 -0.234375,-0.0625 -0.07813,-0.0781 -0.07813,-0.17188 0,-0.0937 0.0625,-0.15625 0.07813,-0.0781 0.25,-0.0781 h 1.234375 q 0.15625,0 0.21875,0.0781 0.07813,0.0625 0.07813,0.15625 0,0.0625 -0.04687,0.125 -0.03125,0.0625 -0.09375,0.0937 -0.04687,0.0156 -0.234375,0.0156 z m 6.522949,-4.53125 v 1.17187 h -0.671875 v -1.17187 z m 0.01563,2.3125 v 4.20312 h 1.765625 q 0.171875,0 0.234375,0.0625 0.07813,0.0625 0.07813,0.17188 0,0.0937 -0.07813,0.15625 -0.0625,0.0625 -0.234375,0.0625 h -4 q -0.15625,0 -0.234375,-0.0625 -0.0625,-0.0625 -0.0625,-0.15625 0,-0.10938 0.0625,-0.17188 0.07813,-0.0625 0.234375,-0.0625 h 1.78125 v -3.73437 H 66.6553 q -0.15625,0 -0.234375,-0.0625 -0.0625,-0.0781 -0.0625,-0.17188 0,-0.0937 0.0625,-0.15625 0.07813,-0.0781 0.234375,-0.0781 z m 7.851074,0.29687 q 0,-0.15625 0.0625,-0.21875 0.0625,-0.0781 0.15625,-0.0781 0.109375,0 0.171875,0.0781 0.0625,0.0625 0.0625,0.23438 v 0.76562 q 0,0.17188 -0.0625,0.25 -0.0625,0.0625 -0.171875,0.0625 -0.09375,0 -0.15625,-0.0625 -0.0625,-0.0625 -0.0625,-0.20312 -0.03125,-0.3125 -0.34375,-0.53125 -0.4375,-0.29688 -1.15625,-0.29688 -0.765625,0 -1.1875,0.3125 -0.3125,0.23438 -0.3125,0.51563 0,0.3125 0.375,0.53125 0.265625,0.15625 0.984375,0.23437 0.9375,0.0937 1.296875,0.23438 0.53125,0.1875 0.78125,0.51562 0.25,0.32813 0.25,0.71875 0,0.57813 -0.546875,1.03125 -0.546875,0.4375 -1.625,0.4375 -1.0625,0 -1.75,-0.53125 0,0.17188 -0.03125,0.23438 -0.01563,0.0469 -0.07813,0.0937 -0.04687,0.0312 -0.109375,0.0312 -0.109375,0 -0.171875,-0.0625 -0.0625,-0.0781 -0.0625,-0.23438 v -0.9375 q 0,-0.15625 0.0625,-0.21875 0.0625,-0.0781 0.171875,-0.0781 0.09375,0 0.15625,0.0781 0.0625,0.0625 0.0625,0.17188 0,0.25 0.125,0.40625 0.1875,0.26562 0.59375,0.4375 0.421875,0.15625 1.015625,0.15625 0.875,0 1.296875,-0.3125 0.4375,-0.32813 0.4375,-0.70313 0,-0.42187 -0.421875,-0.67187 -0.453125,-0.25 -1.296875,-0.32813 -0.828125,-0.0937 -1.203125,-0.23437 -0.359375,-0.14063 -0.5625,-0.42188 -0.203125,-0.28125 -0.203125,-0.59375 0,-0.57812 0.5625,-0.92187 0.578125,-0.34375 1.359375,-0.34375 0.9375,0 1.53125,0.45312 z m 7.569824,0.625 h -4.921875 q -0.15625,0 -0.234375,-0.0625 -0.0625,-0.0625 -0.0625,-0.17187 0,-0.0937 0.0625,-0.15625 0.07813,-0.0625 0.234375,-0.0625 h 4.921875 q 0.15625,0 0.21875,0.0625 0.07813,0.0625 0.07813,0.17187 0,0.0937 -0.07813,0.15625 -0.0625,0.0625 -0.21875,0.0625 z m 0,1.625 h -4.921875 q -0.15625,0 -0.234375,-0.0625 -0.0625,-0.0625 -0.0625,-0.17187 0,-0.0937 0.0625,-0.15625 0.07813,-0.0625 0.234375,-0.0625 h 4.921875 q 0.15625,0 0.21875,0.0625 0.07813,0.0625 0.07813,0.15625 0,0.10937 -0.07813,0.17187 -0.0625,0.0625 -0.21875,0.0625 z m 6.210449,-1.8125 v 1.10938 q 0,1.45312 -0.703125,2.3125 -0.53125,0.65625 -1.359375,0.65625 -0.40625,0 -0.765625,-0.15625 -0.34375,-0.15625 -0.59375,-0.4375 -0.140625,-0.1875 -0.328125,-0.57813 -0.1875,-0.39062 -0.265625,-0.71875 -0.125,-0.45312 -0.125,-1.07812 v -1.10938 q 0,-1.46875 0.6875,-2.3125 0.546875,-0.67187 1.375,-0.67187 0.40625,0 0.75,0.17187 0.34375,0.15625 0.59375,0.4375 0.15625,0.17188 0.34375,0.57813 0.1875,0.39062 0.265625,0.70312 0.125,0.46875 0.125,1.09375 z m -0.453125,0.0469 q 0,-0.625 -0.1875,-1.17188 -0.171875,-0.5625 -0.40625,-0.89062 -0.125,-0.1875 -0.34375,-0.3125 -0.3125,-0.20313 -0.6875,-0.20313 -0.75,0 -1.1875,0.78125 -0.421875,0.76563 -0.421875,1.79688 v 1 q 0,0.64062 0.171875,1.20312 0.1875,0.54688 0.40625,0.875 0.140625,0.17188 0.34375,0.3125 0.3125,0.1875 0.703125,0.1875 0.75,0 1.171875,-0.76562 0.4375,-0.78125 0.4375,-1.8125 z m 5.116692,1.20312 q 0,0.625 -0.17187,1.3125 -0.15625,0.6875 -0.60938,1.59375 -0.45312,0.92188 -0.67187,1.09375 -0.0625,0.0625 -0.14063,0.0625 -0.0937,0 -0.17187,-0.0625 -0.0625,-0.0625 -0.0625,-0.15625 0,-0.0469 0.0469,-0.125 0.59375,-1.07812 0.84375,-1.95312 0.25,-0.875 0.25,-1.76563 0,-0.89062 -0.25,-1.76562 -0.25,-0.875 -0.84375,-1.96875 -0.0469,-0.0625 -0.0469,-0.10938 0,-0.0937 0.0625,-0.15625 0.0781,-0.0625 0.17187,-0.0625 0.0781,0 0.14063,0.0469 0.20312,0.1875 0.65625,1.07812 0.45312,0.875 0.625,1.5625 0.17187,0.6875 0.17187,1.375 z" />
  <path
     style="fill:#000000;fill-opacity:0;fill-rule:evenodd"
     inkscape:connector-curvature="0"
     id="path137"
     d="M 49.481537,27.837094 H 206.89886" />
  <path
     style="fill-rule:evenodd;stroke:#000000;stroke-width:1;stroke-linecap:butt;stroke-linejoin:round"
     inkscape:connector-curvature="0"
     id="path139"
     d="M 49.481537,27.837094 H 200.89886" />
  <path
     style="fill:#000000;fill-rule:evenodd;stroke:#000000;stroke-width:1;stroke-linecap:butt"
     inkscape:connector-curvature="0"
     id="path141"
     d="m 200.89885,29.488834 4.5381,-1.651733 -4.5381,-1.651726 z" />
  <path
     style="fill:#000000;fill-opacity:0;fill-rule:evenodd"
     inkscape:connector-curvature="0"
     id="path143"
     d="M 28.305684,46.191429 V 142.19143" />
  <path
     style="fill-rule:evenodd;stroke:#000000;stroke-width:1;stroke-linecap:butt;stroke-linejoin:round"
     inkscape:connector-curvature="0"
     id="path145"
     d="M 28.305684,46.191429 V 136.19143" />
  <path
     style="fill:#000000;fill-rule:evenodd;stroke:#000000;stroke-width:1;stroke-linecap:butt"
     inkscape:connector-curvature="0"
     id="path147"
     d="m 26.653954,136.19144 1.65173,4.53809 1.651733,-4.53809 z" />
  <path
     style="fill:#000000;fill-rule:nonzero"
     inkscape:connector-curvature="0"
     id="path151"
     d="m 112.71996,18.718754 q -0.65625,0.5625 -1.26562,0.796875 -0.59375,0.21875 -1.28125,0.21875 -1.14063,0 -1.75,-0.546875 -0.60938,-0.5625 -0.60938,-1.4375 0,-0.5 0.21875,-0.921875 0.23438,-0.421875 0.60938,-0.671879 0.375,-0.25 0.84375,-0.390625 0.34375,-0.07813 1.04687,-0.171875 1.42188,-0.171875 2.09375,-0.40625 0,-0.234375 0,-0.296875 0,-0.71875 -0.32812,-1.015625 -0.45313,-0.390625 -1.34375,-0.390625 -0.8125,0 -1.21875,0.296875 -0.39063,0.28125 -0.57813,1.015625 l -1.14062,-0.15625 q 0.15625,-0.734375 0.51562,-1.1875 0.35938,-0.453125 1.03125,-0.6875 0.67188,-0.25 1.5625,-0.25 0.89063,0 1.4375,0.203125 0.5625,0.203125 0.8125,0.53125 0.26563,0.3125 0.375,0.796875 0.0469,0.296875 0.0469,1.078125 v 1.562504 q 0,1.625 0.0781,2.0625 0.0781,0.4375 0.29688,0.828125 h -1.21875 q -0.1875,-0.359375 -0.23438,-0.859375 z m -0.0937,-2.609379 q -0.64062,0.265629 -1.92187,0.437504 -0.71875,0.109375 -1.01563,0.25 -0.29687,0.125 -0.46875,0.375 -0.15625,0.25 -0.15625,0.546875 0,0.46875 0.34375,0.78125 0.35938,0.3125 1.04688,0.3125 0.67187,0 1.20312,-0.296875 0.53125,-0.296875 0.78125,-0.8125 0.1875,-0.390625 0.1875,-1.171875 z m 2.20935,3.468754 2.53125,-3.593754 -2.34375,-3.3125 h 1.46875 l 1.0625,1.609375 q 0.29688,0.46875 0.48438,0.78125 0.28125,-0.4375 0.51562,-0.765625 l 1.17188,-1.625 h 1.40625 l -2.39063,3.25 2.5625,3.656254 h -1.4375 l -1.42187,-2.140625 -0.375,-0.59375 -1.8125,2.734375 z m 7.46094,-8.187504 V 10.03125 h 1.17187 v 1.359375 z m 0,8.187504 v -6.906254 h 1.17187 v 6.906254 z m 2.47671,-2.0625 1.15625,-0.1875 q 0.10938,0.703125 0.54688,1.078125 0.45312,0.359375 1.25,0.359375 0.8125,0 1.20312,-0.328125 0.39063,-0.328125 0.39063,-0.765625 0,-0.390625 -0.35938,-0.625 -0.23437,-0.15625 -1.1875,-0.390625 -1.29687,-0.328125 -1.79687,-0.562504 -0.48438,-0.25 -0.75,-0.65625 -0.25,-0.421875 -0.25,-0.9375 0,-0.453125 0.20312,-0.84375 0.21875,-0.40625 0.57813,-0.671875 0.28125,-0.1875 0.75,-0.328125 0.46875,-0.140625 1.01562,-0.140625 0.8125,0 1.42188,0.234375 0.60937,0.234375 0.90625,0.640625 0.29687,0.390625 0.40625,1.0625 l -1.14063,0.15625 q -0.0781,-0.53125 -0.45312,-0.828125 -0.375,-0.3125 -1.0625,-0.3125 -0.8125,0 -1.15625,0.265625 -0.34375,0.265625 -0.34375,0.625 0,0.234375 0.14062,0.421875 0.15625,0.1875 0.45313,0.3125 0.17187,0.0625 1.03125,0.296875 1.25,0.328125 1.73437,0.546875 0.5,0.203125 0.78125,0.609379 0.28125,0.40625 0.28125,1 0,0.59375 -0.34375,1.109375 -0.34375,0.515625 -1,0.796875 -0.64062,0.28125 -1.45312,0.28125 -1.34375,0 -2.04688,-0.5625 -0.70312,-0.5625 -0.90625,-1.65625 z m 13.30469,-3.546879 h -6.3125 V 12.875 h 6.3125 z m 0,2.890629 h -6.3125 v -1.093754 h 6.3125 z m 5.70529,2.71875 h -1.17187 v -7.468754 q -0.42188,0.40625 -1.10938,0.8125 -0.6875,0.40625 -1.23437,0.609375 V 12.390625 Q 141.25199,11.9375 141.98637,11.28125 142.72074,10.609375 143.01762,10 h 0.76562 z" />
  <path
     style="fill:#000000;fill-rule:nonzero"
     inkscape:connector-curvature="0"
     id="path155"
     d="m 18.71875,108.59867 q 0.5625,0.65625 0.796875,1.26562 0.21875,0.59375 0.21875,1.28125 0,1.14063 -0.546875,1.75 -0.5625,0.60938 -1.4375,0.60938 -0.5,0 -0.921875,-0.21875 -0.421875,-0.23438 -0.671875,-0.60938 -0.25,-0.375 -0.390625,-0.84375 -0.07813,-0.34375 -0.171875,-1.04687 -0.171875,-1.42188 -0.40625,-2.09375 -0.234375,0 -0.296875,0 -0.71875,0 -1.015625,0.32812 -0.390625,0.45313 -0.390625,1.34375 0,0.8125 0.296875,1.21875 0.28125,0.39063 1.015625,0.57813 l -0.15625,1.14062 q -0.734375,-0.15625 -1.1875,-0.51562 -0.453125,-0.35938 -0.6875,-1.03125 -0.25,-0.67188 -0.25,-1.5625 0,-0.89063 0.203125,-1.4375 0.203125,-0.5625 0.53125,-0.8125 0.3125,-0.26563 0.796875,-0.375 0.296875,-0.0469 1.078125,-0.0469 h 1.5625 q 1.625,0 2.0625,-0.0781 0.4375,-0.0781 0.828125,-0.29688 v 1.21875 q -0.359375,0.1875 -0.859375,0.23438 z m -2.609375,0.0937 q 0.265625,0.64062 0.4375,1.92187 0.109375,0.71875 0.25,1.01563 0.125,0.29687 0.375,0.46875 0.25,0.15625 0.546875,0.15625 0.46875,0 0.78125,-0.34375 0.3125,-0.35938 0.3125,-1.04688 0,-0.67187 -0.296875,-1.20312 -0.296875,-0.53125 -0.8125,-0.78125 -0.390625,-0.1875 -1.171875,-0.1875 z m 3.46875,-2.20935 -3.59375,-2.53125 -3.3125,2.34375 v -1.46875 l 1.609375,-1.0625 q 0.46875,-0.29688 0.78125,-0.48438 -0.4375,-0.28125 -0.765625,-0.51562 l -1.625,-1.17188 v -1.40625 l 3.25,2.39063 3.65625,-2.5625 v 1.4375 l -2.140625,1.42187 -0.59375,0.375 2.734375,1.8125 z m -8.1875,-7.460936 H 10.03125 v -1.17187 h 1.359375 z m 8.1875,0 h -6.90625 v -1.17187 h 6.90625 z m -2.0625,-2.47671 -0.1875,-1.15625 q 0.703125,-0.10938 1.078125,-0.54688 0.359375,-0.45312 0.359375,-1.25 0,-0.8125 -0.328125,-1.20312 -0.328125,-0.39063 -0.765625,-0.39063 -0.390625,0 -0.625,0.35938 -0.15625,0.23437 -0.390625,1.1875 -0.328125,1.29687 -0.5625,1.79687 -0.25,0.48438 -0.65625,0.75 -0.421875,0.25 -0.9375,0.25 -0.453125,0 -0.84375,-0.20312 -0.40625,-0.21875 -0.671875,-0.57813 -0.1875,-0.28125 -0.328125,-0.75 -0.140625,-0.46875 -0.140625,-1.01562 0,-0.8125 0.234375,-1.42188 0.234375,-0.60937 0.640625,-0.90625 0.390625,-0.29687 1.0625,-0.40625 l 0.15625,1.14063 q -0.53125,0.0781 -0.828125,0.45312 -0.3125,0.375 -0.3125,1.0625 0,0.8125 0.265625,1.15625 0.265625,0.34375 0.625,0.34375 0.234375,0 0.421875,-0.14062 0.1875,-0.15625 0.3125,-0.45313 0.0625,-0.17187 0.296875,-1.03125 0.328125,-1.25 0.546875,-1.73437 0.203125,-0.5 0.609375,-0.78125 0.40625,-0.28125 1,-0.28125 0.59375,0 1.109375,0.34375 0.515625,0.34375 0.796875,1 0.28125,0.64062 0.28125,1.45312 0,1.34375 -0.5625,2.04688 -0.5625,0.70312 -1.65625,0.90625 z M 13.96875,83.240684 v 6.3125 H 12.875 v -6.3125 z m 2.890625,0 v 6.3125 h -1.09375 v -6.3125 z M 14.875,81.957264 q -1.6875,0 -2.71875,-0.34375 Q 11.125,81.254144 10.5625,80.566644 10,79.879144 10,78.847894 q 0,-0.78125 0.3125,-1.35938 0.296875,-0.57812 0.890625,-0.95312 0.578125,-0.375 1.421875,-0.59375 0.828125,-0.21875 2.25,-0.21875 1.671875,0 2.703125,0.35937 1.03125,0.34375 1.59375,1.03125 0.5625,0.67188 0.5625,1.73438 0,1.375 -0.984375,2.15625 -1.1875,0.95312 -3.875,0.95312 z m 0,-1.20312 q 2.34375,0 3.125,-0.54688 0.78125,-0.5625 0.78125,-1.35937 0,-0.8125 -0.78125,-1.35938 -0.78125,-0.5625 -3.125,-0.5625 -2.359375,0 -3.125,0.5625 -0.78125,0.54688 -0.78125,1.35938 0,0.8125 0.6875,1.29687 0.875,0.60938 3.21875,0.60938 z" />
</svg>
