<?xml version="1.0" encoding="UTF-8" standalone="no"?>
<svg
   xmlns:dc="http://purl.org/dc/elements/1.1/"
   xmlns:cc="http://creativecommons.org/ns#"
   xmlns:rdf="http://www.w3.org/1999/02/22-rdf-syntax-ns#"
   xmlns:svg="http://www.w3.org/2000/svg"
   xmlns="http://www.w3.org/2000/svg"
   xmlns:sodipodi="http://sodipodi.sourceforge.net/DTD/sodipodi-0.dtd"
   xmlns:inkscape="http://www.inkscape.org/namespaces/inkscape"
   version="1.1"
   viewBox="0 0 606.71899 159.06815"
   stroke-miterlimit="10"
   id="svg165"
   sodipodi:docname="b_slicing.svg"
   width="606.71899"
   height="159.06815"
   style="fill:none;stroke:none;stroke-linecap:square;stroke-miterlimit:10"
   inkscape:version="0.92.4 (unknown)"
   inkscape:export-filename="/home/alexeygrigorev/Dropbox/book/projects/figures/apB/b_slicing.png"
   inkscape:export-xdpi="96"
   inkscape:export-ydpi="96">
  <metadata
     id="metadata171">
    <rdf:RDF>
      <cc:Work
         rdf:about="">
        <dc:format>image/svg+xml</dc:format>
        <dc:type
           rdf:resource="http://purl.org/dc/dcmitype/StillImage" />
        <dc:title></dc:title>
      </cc:Work>
    </rdf:RDF>
  </metadata>
  <defs
     id="defs169" />
  <sodipodi:namedview
     pagecolor="#ffffff"
     bordercolor="#666666"
     borderopacity="1"
     objecttolerance="10"
     gridtolerance="10"
     guidetolerance="10"
     inkscape:pageopacity="0"
     inkscape:pageshadow="2"
     inkscape:window-width="1853"
     inkscape:window-height="1025"
     id="namedview167"
     showgrid="false"
     fit-margin-top="10"
     fit-margin-left="10"
     fit-margin-right="10"
     fit-margin-bottom="10"
     inkscape:zoom="1.2361274"
     inkscape:cx="344.13058"
     inkscape:cy="-99.91995"
     inkscape:window-x="67"
     inkscape:window-y="27"
     inkscape:window-maximized="1"
     inkscape:current-layer="svg165" />
  <clipPath
     id="p.0">
    <path
       d="M 0,0 H 720 V 540 H 0 Z"
       id="path2"
       inkscape:connector-curvature="0"
       style="clip-rule:nonzero" />
  </clipPath>
  <path
     style="fill:#d9d9d9;fill-rule:evenodd"
     inkscape:connector-curvature="0"
     id="path7"
     d="m 196.08596,118.39493 h 57.32285 v 30.17322 h -57.32285 z" />
  <path
     style="fill-rule:evenodd;stroke:#000000;stroke-width:1;stroke-linecap:butt;stroke-linejoin:round"
     inkscape:connector-curvature="0"
     id="path9"
     d="m 196.08596,118.39493 h 57.32285 v 30.17322 h -57.32285 z" />
  <path
     style="fill:#000000;fill-rule:nonzero"
     inkscape:connector-curvature="0"
     id="path11"
     d="m 227.55763,138.28154 h -5.23438 v -0.98438 h 2.01563 v -6.5 h -2.01563 v -0.89062 q 0.40625,0 0.875,-0.0625 0.46875,-0.0625 0.70313,-0.20313 0.3125,-0.15625 0.48437,-0.40625 0.17188,-0.25 0.1875,-0.67187 h 1.01563 v 8.73437 h 1.96875 z" />
  <path
     style="fill:#d9d9d9;fill-rule:evenodd"
     inkscape:connector-curvature="0"
     id="path13"
     d="m 253.09155,118.39493 h 57.32284 v 30.17322 h -57.32284 z" />
  <path
     style="fill-rule:evenodd;stroke:#000000;stroke-width:1;stroke-linecap:butt;stroke-linejoin:round"
     inkscape:connector-curvature="0"
     id="path15"
     d="m 253.09155,118.39493 h 57.32284 v 30.17322 h -57.32284 z" />
  <path
     style="fill:#000000;fill-rule:nonzero"
     inkscape:connector-curvature="0"
     id="path17"
     d="m 285.1257,138.28154 h -6.56247 v -1.35938 q 0.6875,-0.59375 1.375,-1.17187 0.6875,-0.59375 1.28125,-1.17188 1.25,-1.20312 1.70313,-1.90625 0.46875,-0.71875 0.46875,-1.54687 0,-0.75 -0.5,-1.17188 -0.5,-0.4375 -1.39063,-0.4375 -0.59375,0 -1.28125,0.21875 -0.6875,0.20313 -1.34375,0.625 h -0.0781 v -1.35937 q 0.46875,-0.23438 1.23437,-0.42188 0.78125,-0.1875 1.5,-0.1875 1.48438,0 2.32813,0.71875 0.85937,0.71875 0.85937,1.95313 0,0.54687 -0.14062,1.03125 -0.14063,0.46875 -0.42188,0.90625 -0.25,0.40625 -0.59375,0.79687 -0.34375,0.39063 -0.82812,0.85938 -0.70313,0.6875 -1.4375,1.32812 -0.73438,0.64063 -1.39063,1.1875 h 5.21872 z" />
  <path
     style="fill:#ffffff;fill-rule:evenodd"
     inkscape:connector-curvature="0"
     id="path19"
     d="m 310.09713,118.39493 h 57.32285 v 30.17322 h -57.32285 z" />
  <path
     style="fill-rule:evenodd;stroke:#000000;stroke-width:1;stroke-linecap:butt;stroke-linejoin:round"
     inkscape:connector-curvature="0"
     id="path21"
     d="m 310.09713,118.39493 h 57.32285 v 30.17322 h -57.32285 z" />
  <path
     style="fill:#000000;fill-rule:nonzero"
     inkscape:connector-curvature="0"
     id="path23"
     d="m 341.27194,133.60967 q 0.3125,0.28125 0.51563,0.70312 0.20312,0.42188 0.20312,1.09375 0,0.67188 -0.25,1.23438 -0.23437,0.54687 -0.67187,0.95312 -0.48438,0.45313 -1.14063,0.67188 -0.65625,0.21875 -1.45312,0.21875 -0.79688,0 -1.57813,-0.20313 -0.78125,-0.1875 -1.28125,-0.40625 v -1.35937 h 0.0937 q 0.54688,0.35937 1.29688,0.60937 0.75,0.23438 1.45312,0.23438 0.40625,0 0.85938,-0.14063 0.46875,-0.14062 0.75,-0.40625 0.29687,-0.28125 0.4375,-0.625 0.15625,-0.34375 0.15625,-0.875 0,-0.51562 -0.17188,-0.85937 -0.15625,-0.34375 -0.45312,-0.53125 -0.29688,-0.20313 -0.71875,-0.28125 -0.40625,-0.0781 -0.89063,-0.0781 h -0.57812 v -1.07812 h 0.45312 q 0.98438,0 1.57813,-0.40625 0.59375,-0.42188 0.59375,-1.21875 0,-0.34375 -0.15625,-0.60938 -0.14063,-0.26562 -0.42188,-0.4375 -0.26562,-0.17187 -0.59375,-0.23437 -0.3125,-0.0625 -0.71875,-0.0625 -0.625,0 -1.32812,0.21875 -0.6875,0.21875 -1.29688,0.625 h -0.0781 v -1.35938 q 0.46875,-0.23437 1.23437,-0.42187 0.78125,-0.1875 1.5,-0.1875 0.70313,0 1.25,0.14062 0.54688,0.125 0.96875,0.40625 0.46875,0.3125 0.70313,0.76563 0.25,0.4375 0.25,1.01562 0,0.8125 -0.57813,1.42188 -0.5625,0.59375 -1.32812,0.75 v 0.0937 q 0.3125,0.0469 0.70312,0.21875 0.40625,0.17187 0.6875,0.40625 z" />
  <path
     style="fill:#ffffff;fill-rule:evenodd"
     inkscape:connector-curvature="0"
     id="path25"
     d="m 367.10272,118.39493 h 57.32284 v 30.17322 h -57.32284 z" />
  <path
     style="fill-rule:evenodd;stroke:#000000;stroke-width:1;stroke-linecap:butt;stroke-linejoin:round"
     inkscape:connector-curvature="0"
     id="path27"
     d="m 367.10272,118.39493 h 57.32284 v 30.17322 h -57.32284 z" />
  <path
     style="fill:#000000;fill-rule:nonzero"
     inkscape:connector-curvature="0"
     id="path29"
     d="m 399.05878,135.20342 q 0,0.67187 -0.25,1.29687 -0.25,0.60938 -0.67188,1.04688 -0.46875,0.45312 -1.125,0.70312 -0.64062,0.23438 -1.5,0.23438 -0.78125,0 -1.53125,-0.17188 -0.73437,-0.15625 -1.23437,-0.39062 v -1.375 h 0.0937 q 0.53125,0.32812 1.25,0.57812 0.71875,0.23438 1.40625,0.23438 0.45312,0 0.89062,-0.125 0.4375,-0.14063 0.76563,-0.46875 0.29687,-0.28125 0.4375,-0.67188 0.14062,-0.39062 0.14062,-0.89062 0,-0.5 -0.17187,-0.84375 -0.17188,-0.35938 -0.46875,-0.5625 -0.34375,-0.25 -0.82813,-0.34375 -0.48437,-0.10938 -1.07812,-0.10938 -0.57813,0 -1.10938,0.0781 -0.53125,0.0781 -0.90625,0.15625 v -4.98438 h 5.82813 v 1.14063 h -4.57813 v 2.57812 q 0.28125,-0.0312 0.5625,-0.0469 0.29688,-0.0156 0.51563,-0.0156 0.78125,0 1.375,0.14063 0.59375,0.125 1.09375,0.46875 0.51562,0.35937 0.79687,0.92187 0.29688,0.5625 0.29688,1.42188 z" />
  <path
     style="fill:#ffffff;fill-rule:evenodd"
     inkscape:connector-curvature="0"
     id="path31"
     d="m 424.1083,118.39493 h 57.32284 v 30.17322 H 424.1083 Z" />
  <path
     style="fill-rule:evenodd;stroke:#000000;stroke-width:1;stroke-linecap:butt;stroke-linejoin:round"
     inkscape:connector-curvature="0"
     id="path33"
     d="m 424.1083,118.39493 h 57.32284 v 30.17322 H 424.1083 Z" />
  <path
     style="fill:#000000;fill-rule:nonzero"
     inkscape:connector-curvature="0"
     id="path35"
     d="m 456.17373,130.04717 -4.39062,8.23437 h -1.39063 l 4.65625,-8.54687 h -5.51562 v -1.14063 h 6.64062 z" />
  <path
     style="fill:#000000;fill-rule:nonzero"
     inkscape:connector-curvature="0"
     id="path39"
     d="m 59.906761,131.61528 v 0.98437 q 0.6875,-0.6875 1.234375,-0.95312 0.5625,-0.26563 1.25,-0.26563 0.75,0 1.375,0.3125 0.4375,0.23438 0.78125,0.78125 0.359375,0.54688 0.359375,1.10938 v 4.14062 h 0.5625 q 0.234375,0 0.328125,0.0937 0.109375,0.0781 0.109375,0.23438 0,0.14062 -0.109375,0.23437 -0.09375,0.0937 -0.328125,0.0937 h -1.765625 q -0.234375,0 -0.34375,-0.0937 -0.09375,-0.0937 -0.09375,-0.23437 0,-0.15625 0.09375,-0.23438 0.109375,-0.0937 0.34375,-0.0937 h 0.546875 v -4.03125 q 0,-0.6875 -0.515625,-1.17187 -0.5,-0.48438 -1.34375,-0.48438 -0.65625,0 -1.140625,0.26563 -0.46875,0.26562 -1.34375,1.29687 v 4.125 h 0.734375 q 0.234375,0 0.328125,0.0937 0.109375,0.0781 0.109375,0.23438 0,0.14062 -0.109375,0.23437 -0.09375,0.0937 -0.328125,0.0937 h -2.140625 q -0.234375,0 -0.34375,-0.0937 -0.09375,-0.0937 -0.09375,-0.23437 0,-0.15625 0.09375,-0.23438 0.109375,-0.0937 0.34375,-0.0937 h 0.75 v -5.45312 h -0.5625 q -0.234375,0 -0.34375,-0.0937 -0.09375,-0.0937 -0.09375,-0.23438 0,-0.14062 0.09375,-0.23437 0.109375,-0.0937 0.34375,-0.0937 z m 13.960937,6.76562 v -0.96875 q -1.34375,1.23438 -2.90625,1.23438 -0.953125,0 -1.453125,-0.53125 -0.65625,-0.6875 -0.65625,-1.60938 v -4.23437 h -0.875 q -0.234375,0 -0.34375,-0.0937 -0.09375,-0.0937 -0.09375,-0.23438 0,-0.14062 0.09375,-0.23437 0.109375,-0.0937 0.34375,-0.0937 h 1.53125 v 4.89062 q 0,0.64063 0.40625,1.0625 0.40625,0.40625 1.015625,0.40625 1.609375,0 2.9375,-1.46875 v -4.23437 h -1.203125 q -0.234375,0 -0.34375,-0.0937 -0.09375,-0.0937 -0.09375,-0.23438 0,-0.14062 0.09375,-0.23437 0.109375,-0.0937 0.34375,-0.0937 h 1.859375 v 6.10937 h 0.5625 q 0.234375,0 0.328125,0.0937 0.109375,0.0781 0.109375,0.23438 0,0.14062 -0.109375,0.23437 -0.09375,0.0937 -0.328125,0.0937 z m 4.367188,-6.76562 v 0.65625 q 0.84375,-0.89063 1.6875,-0.89063 0.5,0 0.875,0.26563 0.390625,0.26562 0.65625,0.8125 0.4375,-0.54688 0.875,-0.8125 0.453125,-0.26563 0.90625,-0.26563 0.71875,0 1.140621,0.45313 0.54688,0.59375 0.54688,1.29687 v 4.59375 h 0.5625 q 0.23437,0 0.32812,0.0937 0.10938,0.0781 0.10938,0.23438 0,0.14062 -0.10938,0.23437 -0.0937,0.0937 -0.32812,0.0937 h -1.21875 v -5.1875 q 0,-0.5 -0.312501,-0.82812 -0.296875,-0.32813 -0.6875,-0.32813 -0.359375,0 -0.765625,0.28125 -0.390625,0.26563 -0.90625,1.04688 v 4.35937 h 0.546875 q 0.234375,0 0.328125,0.0937 0.109375,0.0781 0.109375,0.23438 0,0.14062 -0.109375,0.23437 -0.09375,0.0937 -0.328125,0.0937 h -1.203125 v -5.14062 q 0,-0.51563 -0.3125,-0.85938 -0.3125,-0.34375 -0.6875,-0.34375 -0.359375,0 -0.703125,0.23438 -0.46875,0.3125 -1,1.09375 v 4.35937 h 0.5625 q 0.234375,0 0.328125,0.0937 0.109375,0.0781 0.109375,0.23438 0,0.14062 -0.109375,0.23437 -0.09375,0.0937 -0.328125,0.0937 h -1.765625 q -0.234375,0 -0.34375,-0.0937 -0.09375,-0.0937 -0.09375,-0.23437 0,-0.15625 0.09375,-0.23438 0.109375,-0.0937 0.34375,-0.0937 h 0.546875 v -5.45312 h -0.546875 q -0.234375,0 -0.34375,-0.0937 -0.09375,-0.0937 -0.09375,-0.23438 0,-0.14062 0.09375,-0.23437 0.109375,-0.0937 0.34375,-0.0937 z m 10.117191,-3.04688 v 4.35938 q 1.1875,-1.54688 2.875,-1.54688 1.4375,0 2.45312,1.04688 1.03125,1.03125 1.03125,2.54687 0,1.53125 -1.04687,2.60938 -1.03125,1.0625 -2.4375,1.0625 -1.71875,0 -2.875,-1.5625 v 1.29687 h -1.53125 q -0.23438,0 -0.34375,-0.0937 -0.0937,-0.0937 -0.0937,-0.23437 0,-0.15625 0.0937,-0.23438 0.10937,-0.0937 0.34375,-0.0937 h 0.875 v -8.48437 h -0.875 q -0.23438,0 -0.34375,-0.0937 -0.0937,-0.0937 -0.0937,-0.25 0,-0.14063 0.0937,-0.23438 0.10937,-0.0937 0.34375,-0.0937 z m 5.70312,6.4375 q 0,-1.23437 -0.85937,-2.09375 -0.84375,-0.875 -1.98438,-0.875 -1.14062,0 -2,0.875 -0.84375,0.85938 -0.84375,2.09375 0,1.25 0.84375,2.10938 0.85938,0.85937 2,0.85937 1.14063,0 1.98438,-0.85937 0.85937,-0.85938 0.85937,-2.10938 z m 9.929693,0.14063 h -6.687503 q 0.17187,1.28125 1.0625,2.0625 0.89062,0.76562 2.218753,0.76562 0.73437,0 1.53125,-0.23437 0.8125,-0.25 1.3125,-0.64063 0.15625,-0.125 0.26562,-0.125 0.125,0 0.21875,0.10938 0.0937,0.0937 0.0937,0.21875 0,0.14062 -0.125,0.26562 -0.375,0.39063 -1.34375,0.73438 -0.95312,0.34375 -1.95312,0.34375 -1.687503,0 -2.828133,-1.10938 -1.125,-1.10937 -1.125,-2.6875 0,-1.42187 1.0625,-2.4375 1.0625,-1.03125 2.625003,-1.03125 1.60938,0 2.64063,1.04688 1.04687,1.04687 1.03125,2.71875 z m -0.67188,-0.65625 q -0.1875,-1.09375 -1.03125,-1.76563 -0.82812,-0.6875 -1.96875,-0.6875 -1.156253,0 -1.984373,0.67188 -0.82813,0.67187 -1.03125,1.78125 z m 5.92969,-2.875 v 1.65625 q 1.28125,-1.15625 1.92188,-1.48438 0.64062,-0.34375 1.17187,-0.34375 0.59375,0 1.09375,0.40625 0.5,0.39063 0.5,0.59375 0,0.14063 -0.0937,0.25 -0.0937,0.0937 -0.25,0.0937 -0.0781,0 -0.14062,-0.0312 -0.0469,-0.0312 -0.1875,-0.17187 -0.28125,-0.28125 -0.48438,-0.375 -0.20312,-0.10938 -0.39062,-0.10938 -0.4375,0 -1.04688,0.34375 -0.59375,0.34375 -2.09375,1.6875 v 3.59375 h 2.90625 q 0.25,0 0.34375,0.0937 0.10938,0.0781 0.10938,0.23438 0,0.14062 -0.10938,0.23437 -0.0937,0.0937 -0.34375,0.0937 h -5.14062 q -0.23438,0 -0.34375,-0.0937 -0.0937,-0.0937 -0.0937,-0.23437 0,-0.125 0.0937,-0.21875 0.0937,-0.0937 0.34375,-0.0937 h 1.57812 v -5.46875 h -1.20312 q -0.23438,0 -0.34375,-0.0937 -0.0937,-0.0937 -0.0937,-0.23438 0,-0.14062 0.0937,-0.23437 0.0937,-0.0937 0.34375,-0.0937 z m 12.55469,0.42187 q 0,-0.21875 0.0937,-0.3125 0.0937,-0.10937 0.23437,-0.10937 0.15625,0 0.25,0.10937 0.0937,0.0937 0.0937,0.32813 v 1.125 q 0,0.23437 -0.0937,0.34375 -0.0937,0.0937 -0.25,0.0937 -0.125,0 -0.21875,-0.0781 -0.0937,-0.0937 -0.10937,-0.28125 -0.0469,-0.46875 -0.48438,-0.78125 -0.64062,-0.4375 -1.6875,-0.4375 -1.10937,0 -1.71875,0.45313 -0.45312,0.32812 -0.45312,0.75 0,0.46875 0.54687,0.78125 0.375,0.21875 1.42188,0.32812 1.35937,0.15625 1.89062,0.34375 0.76563,0.26563 1.125,0.75 0.375,0.48438 0.375,1.04688 0,0.84375 -0.8125,1.5 -0.79687,0.65625 -2.34375,0.65625 -1.5625,0 -2.54687,-0.79688 0,0.26563 -0.0312,0.34375 -0.0312,0.0781 -0.125,0.14063 -0.0781,0.0469 -0.17188,0.0469 -0.14062,0 -0.23437,-0.0937 -0.0937,-0.10937 -0.0937,-0.34375 v -1.35937 q 0,-0.23438 0.0781,-0.32813 0.0937,-0.10937 0.25,-0.10937 0.14063,0 0.23438,0.10937 0.0937,0.0937 0.0937,0.25 0,0.35938 0.1875,0.60938 0.26562,0.375 0.85937,0.625 0.60938,0.23437 1.46875,0.23437 1.28125,0 1.90625,-0.46875 0.625,-0.48437 0.625,-1.01562 0,-0.60938 -0.625,-0.96875 -0.64062,-0.375 -1.875,-0.5 -1.21875,-0.125 -1.75,-0.32813 -0.53125,-0.20312 -0.82812,-0.60937 -0.29688,-0.40625 -0.29688,-0.875 0,-0.84375 0.82813,-1.32813 0.82812,-0.5 1.98437,-0.5 1.35938,0 2.20313,0.65625 z m 7.77344,-2.79687 v 10.51562 h 1.59375 q 0.23437,0 0.32812,0.0781 0.10938,0.0937 0.10938,0.25 0,0.14062 -0.10938,0.23437 -0.0937,0.0937 -0.32812,0.0937 h -2.25 V 128.5684 h 2.25 q 0.23437,0 0.32812,0.0937 0.10938,0.0937 0.10938,0.25 0,0.14063 -0.10938,0.23438 -0.0937,0.0937 -0.32812,0.0937 z m 6.44531,8.48437 h 5.03125 v -0.26562 q 0,-0.23438 0.0937,-0.32813 0.0937,-0.10937 0.25,-0.10937 0.14062,0 0.23437,0.10937 0.0937,0.0937 0.0937,0.32813 v 0.92187 h -6.34375 v -0.96875 q 2,-1.79687 3.89063,-3.65625 0.875,-0.875 1.20312,-1.28125 0.32813,-0.40625 0.45313,-0.70312 0.125,-0.3125 0.125,-0.625 0,-0.84375 -0.6875,-1.48438 -0.67188,-0.65625 -1.64063,-0.65625 -0.85937,0 -1.53125,0.5 -0.65625,0.48438 -0.84375,1.20313 -0.0469,0.1875 -0.125,0.25 -0.0937,0.0781 -0.21875,0.0781 -0.125,0 -0.21875,-0.0937 -0.0937,-0.0937 -0.0937,-0.21875 0,-0.375 0.40625,-1.01562 0.42188,-0.64063 1.14063,-1 0.71875,-0.375 1.48437,-0.375 1.21875,0 2.09375,0.85937 0.89063,0.84375 0.89063,1.92188 0,0.45312 -0.15625,0.84375 -0.14063,0.375 -0.5,0.82812 -0.34375,0.4375 -1.26563,1.34375 -2.3125,2.28125 -3.76562,3.54688 z m 12.28906,-6.10937 h 0.28125 q 0.4375,0 0.75,0.3125 0.3125,0.3125 0.3125,0.73437 0,0.46875 -0.32812,0.78125 -0.3125,0.29688 -0.73438,0.29688 h -0.28125 q -0.4375,0 -0.75,-0.3125 -0.3125,-0.3125 -0.3125,-0.75 0,-0.45313 0.3125,-0.75 0.3125,-0.3125 0.75,-0.3125 z m 0,4.875 h 0.28125 q 0.4375,0 0.75,0.3125 0.3125,0.3125 0.3125,0.75 0,0.45312 -0.32812,0.76562 -0.3125,0.29688 -0.73438,0.29688 h -0.28125 q -0.4375,0 -0.75,-0.3125 -0.3125,-0.3125 -0.3125,-0.75 0,-0.45313 0.3125,-0.75 0.3125,-0.3125 0.75,-0.3125 z m 9.42969,3.26562 v -10.51562 h -1.59375 q -0.23438,0 -0.34375,-0.0937 -0.0937,-0.0937 -0.0937,-0.23438 0,-0.15625 0.0937,-0.25 0.10937,-0.0937 0.34375,-0.0937 h 2.25 v 11.84375 h -2.25 q -0.23438,0 -0.34375,-0.0937 -0.0937,-0.0937 -0.0937,-0.23437 0,-0.14063 0.0937,-0.23438 0.10937,-0.0937 0.34375,-0.0937 z" />
  <path
     style="fill:#ffffff;fill-rule:evenodd"
     inkscape:connector-curvature="0"
     id="path41"
     d="m 196.08596,78.39492 h 57.32285 v 30.17323 h -57.32285 z" />
  <path
     style="fill-rule:evenodd;stroke:#000000;stroke-width:1;stroke-linecap:butt;stroke-linejoin:round"
     inkscape:connector-curvature="0"
     id="path43"
     d="m 196.08596,78.39492 h 57.32285 v 30.17323 h -57.32285 z" />
  <path
     style="fill:#000000;fill-rule:nonzero"
     inkscape:connector-curvature="0"
     id="path45"
     d="m 227.55763,98.28154 h -5.23438 v -0.98437 h 2.01563 v -6.5 h -2.01563 v -0.89063 q 0.40625,0 0.875,-0.0625 0.46875,-0.0625 0.70313,-0.20312 0.3125,-0.15625 0.48437,-0.40625 0.17188,-0.250005 0.1875,-0.67188 h 1.01563 v 8.73438 h 1.96875 z" />
  <path
     style="fill:#ffffff;fill-rule:evenodd"
     inkscape:connector-curvature="0"
     id="path47"
     d="m 253.09155,78.39492 h 57.32284 v 30.17323 h -57.32284 z" />
  <path
     style="fill-rule:evenodd;stroke:#000000;stroke-width:1;stroke-linecap:butt;stroke-linejoin:round"
     inkscape:connector-curvature="0"
     id="path49"
     d="m 253.09155,78.39492 h 57.32284 v 30.17323 h -57.32284 z" />
  <path
     style="fill:#000000;fill-rule:nonzero"
     inkscape:connector-curvature="0"
     id="path51"
     d="m 285.1257,98.28154 h -6.56247 v -1.35937 q 0.6875,-0.59375 1.375,-1.17188 0.6875,-0.59375 1.28125,-1.17187 1.25,-1.20313 1.70313,-1.90625 0.46875,-0.71875 0.46875,-1.54688 0,-0.75 -0.5,-1.17187 -0.5,-0.4375 -1.39063,-0.4375 -0.59375,0 -1.28125,0.21875 -0.6875,0.20312 -1.34375,0.625 h -0.0781 v -1.35938 q 0.46875,-0.234375 1.23437,-0.421875 0.78125,-0.1875 1.5,-0.1875 1.48438,0 2.32813,0.718755 0.85937,0.71875 0.85937,1.95312 0,0.54688 -0.14062,1.03125 -0.14063,0.46875 -0.42188,0.90625 -0.25,0.40625 -0.59375,0.79688 -0.34375,0.39062 -0.82812,0.85937 -0.70313,0.6875 -1.4375,1.32813 -0.73438,0.64062 -1.39063,1.1875 h 5.21872 z" />
  <path
     style="fill:#ffffff;fill-rule:evenodd"
     inkscape:connector-curvature="0"
     id="path53"
     d="m 310.09713,78.39492 h 57.32285 v 30.17323 h -57.32285 z" />
  <path
     style="fill-rule:evenodd;stroke:#000000;stroke-width:1;stroke-linecap:butt;stroke-linejoin:round"
     inkscape:connector-curvature="0"
     id="path55"
     d="m 310.09713,78.39492 h 57.32285 v 30.17323 h -57.32285 z" />
  <path
     style="fill:#000000;fill-rule:nonzero"
     inkscape:connector-curvature="0"
     id="path57"
     d="m 341.27194,93.60967 q 0.3125,0.28125 0.51563,0.70313 0.20312,0.42187 0.20312,1.09375 0,0.67187 -0.25,1.23437 -0.23437,0.54688 -0.67187,0.95313 -0.48438,0.45312 -1.14063,0.67187 -0.65625,0.21875 -1.45312,0.21875 -0.79688,0 -1.57813,-0.20312 -0.78125,-0.1875 -1.28125,-0.40625 v -1.35938 h 0.0937 q 0.54688,0.35938 1.29688,0.60938 0.75,0.23437 1.45312,0.23437 0.40625,0 0.85938,-0.14062 0.46875,-0.14063 0.75,-0.40625 0.29687,-0.28125 0.4375,-0.625 0.15625,-0.34375 0.15625,-0.875 0,-0.51563 -0.17188,-0.85938 -0.15625,-0.34375 -0.45312,-0.53125 -0.29688,-0.20312 -0.71875,-0.28125 -0.40625,-0.0781 -0.89063,-0.0781 h -0.57812 v -1.07813 h 0.45312 q 0.98438,0 1.57813,-0.40625 0.59375,-0.42187 0.59375,-1.21875 0,-0.34375 -0.15625,-0.60937 -0.14063,-0.26563 -0.42188,-0.4375 -0.26562,-0.17188 -0.59375,-0.23438 -0.3125,-0.0625 -0.71875,-0.0625 -0.625,0 -1.32812,0.21875 -0.6875,0.21875 -1.29688,0.625 h -0.0781 v -1.35937 q 0.46875,-0.23438 1.23437,-0.42188 0.78125,-0.1875 1.5,-0.1875 0.70313,0 1.25,0.140625 0.54688,0.125 0.96875,0.40625 0.46875,0.312505 0.70313,0.765625 0.25,0.4375 0.25,1.01563 0,0.8125 -0.57813,1.42187 -0.5625,0.59375 -1.32812,0.75 v 0.0937 q 0.3125,0.0469 0.70312,0.21875 0.40625,0.17188 0.6875,0.40625 z" />
  <path
     style="fill:#d9d9d9;fill-rule:evenodd"
     inkscape:connector-curvature="0"
     id="path59"
     d="m 367.10272,78.39492 h 57.32284 v 30.17323 h -57.32284 z" />
  <path
     style="fill-rule:evenodd;stroke:#000000;stroke-width:1;stroke-linecap:butt;stroke-linejoin:round"
     inkscape:connector-curvature="0"
     id="path61"
     d="m 367.10272,78.39492 h 57.32284 v 30.17323 h -57.32284 z" />
  <path
     style="fill:#000000;fill-rule:nonzero"
     inkscape:connector-curvature="0"
     id="path63"
     d="m 399.05878,95.20342 q 0,0.67188 -0.25,1.29688 -0.25,0.60937 -0.67188,1.04687 -0.46875,0.45313 -1.125,0.70313 -0.64062,0.23437 -1.5,0.23437 -0.78125,0 -1.53125,-0.17187 -0.73437,-0.15625 -1.23437,-0.39063 v -1.375 h 0.0937 q 0.53125,0.32813 1.25,0.57813 0.71875,0.23437 1.40625,0.23437 0.45312,0 0.89062,-0.125 0.4375,-0.14062 0.76563,-0.46875 0.29687,-0.28125 0.4375,-0.67187 0.14062,-0.39063 0.14062,-0.89063 0,-0.5 -0.17187,-0.84375 -0.17188,-0.35937 -0.46875,-0.5625 -0.34375,-0.25 -0.82813,-0.34375 -0.48437,-0.10937 -1.07812,-0.10937 -0.57813,0 -1.10938,0.0781 -0.53125,0.0781 -0.90625,0.15625 v -4.984375 h 5.82813 v 1.140625 h -4.57813 v 2.57813 q 0.28125,-0.0312 0.5625,-0.0469 0.29688,-0.0156 0.51563,-0.0156 0.78125,0 1.375,0.14062 0.59375,0.125 1.09375,0.46875 0.51562,0.35938 0.79687,0.92188 0.29688,0.5625 0.29688,1.42187 z" />
  <path
     style="fill:#d9d9d9;fill-rule:evenodd"
     inkscape:connector-curvature="0"
     id="path65"
     d="m 424.1083,78.39492 h 57.32284 v 30.17323 H 424.1083 Z" />
  <path
     style="fill-rule:evenodd;stroke:#000000;stroke-width:1;stroke-linecap:butt;stroke-linejoin:round"
     inkscape:connector-curvature="0"
     id="path67"
     d="m 424.1083,78.39492 h 57.32284 v 30.17323 H 424.1083 Z" />
  <path
     style="fill:#000000;fill-rule:nonzero"
     inkscape:connector-curvature="0"
     id="path69"
     d="m 456.17373,90.04717 -4.39062,8.23438 h -1.39063 l 4.65625,-8.54688 h -5.51562 v -1.140625 h 6.64062 z" />
  <path
     style="fill:#000000;fill-rule:nonzero"
     inkscape:connector-curvature="0"
     id="path73"
     d="m 59.906761,91.61528 v 0.98437 q 0.6875,-0.6875 1.234375,-0.95312 0.5625,-0.26563 1.25,-0.26563 0.75,0 1.375,0.3125 0.4375,0.23438 0.78125,0.78125 0.359375,0.54688 0.359375,1.10938 v 4.14062 h 0.5625 q 0.234375,0 0.328125,0.0937 0.109375,0.0781 0.109375,0.23438 0,0.14062 -0.109375,0.23437 -0.09375,0.0937 -0.328125,0.0937 h -1.765625 q -0.234375,0 -0.34375,-0.0937 -0.09375,-0.0937 -0.09375,-0.23437 0,-0.15625 0.09375,-0.23438 0.109375,-0.0937 0.34375,-0.0937 h 0.546875 V 93.6934 q 0,-0.6875 -0.515625,-1.17187 -0.5,-0.48438 -1.34375,-0.48438 -0.65625,0 -1.140625,0.26563 -0.46875,0.26562 -1.34375,1.29687 v 4.125 h 0.734375 q 0.234375,0 0.328125,0.0937 0.109375,0.0781 0.109375,0.23438 0,0.14062 -0.109375,0.23437 -0.09375,0.0937 -0.328125,0.0937 h -2.140625 q -0.234375,0 -0.34375,-0.0937 -0.09375,-0.0937 -0.09375,-0.23437 0,-0.15625 0.09375,-0.23438 0.109375,-0.0937 0.34375,-0.0937 h 0.75 v -5.45312 h -0.5625 q -0.234375,0 -0.34375,-0.0937 -0.09375,-0.0937 -0.09375,-0.23438 0,-0.14062 0.09375,-0.23437 0.109375,-0.0937 0.34375,-0.0937 z m 13.960937,6.76562 v -0.96875 q -1.34375,1.23438 -2.90625,1.23438 -0.953125,0 -1.453125,-0.53125 -0.65625,-0.6875 -0.65625,-1.60938 v -4.23437 h -0.875 q -0.234375,0 -0.34375,-0.0937 -0.09375,-0.0937 -0.09375,-0.23438 0,-0.14062 0.09375,-0.23437 0.109375,-0.0937 0.34375,-0.0937 h 1.53125 V 96.506 q 0,0.64063 0.40625,1.0625 0.40625,0.40625 1.015625,0.40625 1.609375,0 2.9375,-1.46875 v -4.23437 h -1.203125 q -0.234375,0 -0.34375,-0.0937 -0.09375,-0.0937 -0.09375,-0.23438 0,-0.14062 0.09375,-0.23437 0.109375,-0.0937 0.34375,-0.0937 h 1.859375 v 6.10937 h 0.5625 q 0.234375,0 0.328125,0.0937 0.109375,0.0781 0.109375,0.23438 0,0.14062 -0.109375,0.23437 -0.09375,0.0937 -0.328125,0.0937 z m 4.367188,-6.76562 v 0.65625 q 0.84375,-0.89063 1.6875,-0.89063 0.5,0 0.875,0.26563 0.390625,0.26562 0.65625,0.8125 0.4375,-0.54688 0.875,-0.8125 0.453125,-0.26563 0.90625,-0.26563 0.71875,0 1.140621,0.45313 0.54688,0.59375 0.54688,1.29687 v 4.59375 h 0.5625 q 0.23437,0 0.32812,0.0937 0.10938,0.0781 0.10938,0.23438 0,0.14062 -0.10938,0.23437 -0.0937,0.0937 -0.32812,0.0937 h -1.21875 v -5.1875 q 0,-0.5 -0.312501,-0.82812 -0.296875,-0.32813 -0.6875,-0.32813 -0.359375,0 -0.765625,0.28125 -0.390625,0.26563 -0.90625,1.04688 v 4.35937 h 0.546875 q 0.234375,0 0.328125,0.0937 0.109375,0.0781 0.109375,0.23438 0,0.14062 -0.109375,0.23437 -0.09375,0.0937 -0.328125,0.0937 h -1.203125 v -5.14062 q 0,-0.51563 -0.3125,-0.85938 -0.3125,-0.34375 -0.6875,-0.34375 -0.359375,0 -0.703125,0.23438 -0.46875,0.3125 -1,1.09375 v 4.35937 h 0.5625 q 0.234375,0 0.328125,0.0937 0.109375,0.0781 0.109375,0.23438 0,0.14062 -0.109375,0.23437 -0.09375,0.0937 -0.328125,0.0937 h -1.765625 q -0.234375,0 -0.34375,-0.0937 -0.09375,-0.0937 -0.09375,-0.23437 0,-0.15625 0.09375,-0.23438 0.109375,-0.0937 0.34375,-0.0937 h 0.546875 v -5.45312 h -0.546875 q -0.234375,0 -0.34375,-0.0937 -0.09375,-0.0937 -0.09375,-0.23438 0,-0.14062 0.09375,-0.23437 0.109375,-0.0937 0.34375,-0.0937 z m 10.117191,-3.046875 v 4.359375 q 1.1875,-1.54688 2.875,-1.54688 1.4375,0 2.45312,1.04688 1.03125,1.03125 1.03125,2.54687 0,1.53125 -1.04687,2.60938 -1.03125,1.0625 -2.4375,1.0625 -1.71875,0 -2.875,-1.5625 v 1.29687 h -1.53125 q -0.23438,0 -0.34375,-0.0937 -0.0937,-0.0937 -0.0937,-0.23437 0,-0.15625 0.0937,-0.23438 0.10937,-0.0937 0.34375,-0.0937 h 0.875 v -8.48437 h -0.875 q -0.23438,0 -0.34375,-0.0937 -0.0937,-0.0937 -0.0937,-0.25 0,-0.140625 0.0937,-0.234375 0.10937,-0.09375 0.34375,-0.09375 z m 5.70312,6.437495 q 0,-1.23437 -0.85937,-2.09375 -0.84375,-0.875 -1.98438,-0.875 -1.14062,0 -2,0.875 -0.84375,0.85938 -0.84375,2.09375 0,1.25 0.84375,2.10938 0.85938,0.85937 2,0.85937 1.14063,0 1.98438,-0.85937 0.85937,-0.85938 0.85937,-2.10938 z m 9.929693,0.14063 h -6.687503 q 0.17187,1.28125 1.0625,2.0625 0.89062,0.76562 2.218753,0.76562 0.73437,0 1.53125,-0.23437 0.8125,-0.25 1.3125,-0.64063 0.15625,-0.125 0.26562,-0.125 0.125,0 0.21875,0.10938 0.0937,0.0937 0.0937,0.21875 0,0.14062 -0.125,0.26562 -0.375,0.39063 -1.34375,0.73438 -0.95312,0.34375 -1.95312,0.34375 -1.687503,0 -2.828133,-1.10938 -1.125,-1.10937 -1.125,-2.6875 0,-1.42187 1.0625,-2.4375 1.0625,-1.03125 2.625003,-1.03125 1.60938,0 2.64063,1.04688 1.04687,1.04687 1.03125,2.71875 z m -0.67188,-0.65625 q -0.1875,-1.09375 -1.03125,-1.76563 -0.82812,-0.6875 -1.96875,-0.6875 -1.156253,0 -1.984373,0.67188 -0.82813,0.67187 -1.03125,1.78125 z m 5.92969,-2.875 v 1.65625 q 1.28125,-1.15625 1.92188,-1.48438 0.64062,-0.34375 1.17187,-0.34375 0.59375,0 1.09375,0.40625 0.5,0.39063 0.5,0.59375 0,0.14063 -0.0937,0.25 -0.0937,0.0937 -0.25,0.0937 -0.0781,0 -0.14062,-0.0312 -0.0469,-0.0312 -0.1875,-0.17187 -0.28125,-0.28125 -0.48438,-0.375 -0.20312,-0.10938 -0.39062,-0.10938 -0.4375,0 -1.04688,0.34375 -0.59375,0.34375 -2.09375,1.6875 v 3.59375 h 2.90625 q 0.25,0 0.34375,0.0937 0.10938,0.0781 0.10938,0.23438 0,0.14062 -0.10938,0.23437 -0.0937,0.0937 -0.34375,0.0937 h -5.14062 q -0.23438,0 -0.34375,-0.0937 -0.0937,-0.0937 -0.0937,-0.23437 0,-0.125 0.0937,-0.21875 0.0937,-0.0937 0.34375,-0.0937 h 1.57812 v -5.46875 h -1.20312 q -0.23438,0 -0.34375,-0.0937 -0.0937,-0.0937 -0.0937,-0.23438 0,-0.14062 0.0937,-0.23437 0.0937,-0.0937 0.34375,-0.0937 z m 12.55469,0.42187 q 0,-0.21875 0.0937,-0.3125 0.0937,-0.10937 0.23437,-0.10937 0.15625,0 0.25,0.10937 0.0937,0.0937 0.0937,0.32813 v 1.125 q 0,0.23437 -0.0937,0.34375 -0.0937,0.0937 -0.25,0.0937 -0.125,0 -0.21875,-0.0781 -0.0937,-0.0937 -0.10937,-0.28125 -0.0469,-0.46875 -0.48438,-0.78125 -0.64062,-0.4375 -1.6875,-0.4375 -1.10937,0 -1.71875,0.45313 -0.45312,0.32812 -0.45312,0.75 0,0.46875 0.54687,0.78125 0.375,0.21875 1.42188,0.32812 1.35937,0.15625 1.89062,0.34375 0.76563,0.26563 1.125,0.75 0.375,0.48438 0.375,1.04688 0,0.84375 -0.8125,1.5 -0.79687,0.65625 -2.34375,0.65625 -1.5625,0 -2.54687,-0.79688 0,0.26563 -0.0312,0.34375 -0.0312,0.0781 -0.125,0.14063 -0.0781,0.0469 -0.17188,0.0469 -0.14062,0 -0.23437,-0.0937 -0.0937,-0.10937 -0.0937,-0.34375 v -1.35937 q 0,-0.23438 0.0781,-0.32813 0.0937,-0.10937 0.25,-0.10937 0.14063,0 0.23438,0.10937 0.0937,0.0937 0.0937,0.25 0,0.35938 0.1875,0.60938 0.26562,0.375 0.85937,0.625 0.60938,0.23437 1.46875,0.23437 1.28125,0 1.90625,-0.46875 0.625,-0.48437 0.625,-1.01562 0,-0.60938 -0.625,-0.96875 -0.64062,-0.375 -1.875,-0.5 -1.21875,-0.125 -1.75,-0.32813 -0.53125,-0.20312 -0.82812,-0.60937 -0.29688,-0.40625 -0.29688,-0.875 0,-0.84375 0.82813,-1.32813 0.82812,-0.5 1.98437,-0.5 1.35938,0 2.20313,0.65625 z m 7.77344,-2.79687 V 99.7559 h 1.59375 q 0.23437,0 0.32812,0.0781 0.10938,0.0937 0.10938,0.25 0,0.14062 -0.10938,0.23437 -0.0937,0.0937 -0.32812,0.0937 h -2.25 V 88.568405 h 2.25 q 0.23437,0 0.32812,0.09375 0.10938,0.09375 0.10938,0.25 0,0.140625 -0.10938,0.234375 -0.0937,0.0937 -0.32812,0.0937 z m 9.13281,2.375 h 0.28125 q 0.4375,0 0.75,0.3125 0.3125,0.3125 0.3125,0.73437 0,0.46875 -0.32813,0.78125 -0.3125,0.29688 -0.73437,0.29688 h -0.28125 q -0.4375,0 -0.75,-0.3125 -0.3125,-0.3125 -0.3125,-0.75 0,-0.45313 0.3125,-0.75 0.3125,-0.3125 0.75,-0.3125 z m 0,4.875 h 0.28125 q 0.4375,0 0.75,0.3125 0.3125,0.3125 0.3125,0.75 0,0.45312 -0.32813,0.76562 -0.3125,0.29688 -0.73437,0.29688 h -0.28125 q -0.4375,0 -0.75,-0.3125 -0.3125,-0.3125 -0.3125,-0.75 0,-0.45313 0.3125,-0.75 0.3125,-0.3125 0.75,-0.3125 z m 11.08594,-3.45313 q 0.90625,0.40625 1.375,1.125 0.48437,0.70313 0.48437,1.46875 0,1.17188 -0.96875,2.07813 -0.95312,0.90625 -2.39062,0.90625 -0.84375,0 -1.75,-0.35938 -0.90625,-0.35937 -1.26563,-0.73437 -0.10937,-0.125 -0.10937,-0.26563 0,-0.125 0.0781,-0.21875 0.0937,-0.0937 0.21875,-0.0937 0.125,0 0.28125,0.10938 1.21875,0.90625 2.5625,0.90625 1.14063,0 1.90625,-0.71875 0.78125,-0.71875 0.78125,-1.59375 0,-0.57813 -0.39062,-1.14063 -0.375,-0.5625 -1.09375,-0.89062 -0.70313,-0.32813 -1.42188,-0.32813 -0.23437,0 -0.34375,-0.0781 -0.0937,-0.0937 -0.0937,-0.25 0,-0.14063 0.0937,-0.23438 0.0937,-0.0937 0.29688,-0.0937 l 0.5625,0.0156 q 0.875,0 1.45312,-0.53125 0.57813,-0.54688 0.57813,-1.26563 0,-0.73437 -0.60938,-1.29687 -0.59375,-0.5625 -1.5625,-0.5625 -0.6875,0 -1.26562,0.23437 -0.5625,0.23438 -0.90625,0.64063 -0.125,0.15625 -0.1875,0.20312 -0.0625,0.0312 -0.15625,0.0312 -0.125,0 -0.21875,-0.0937 -0.0937,-0.0937 -0.0937,-0.21875 0,-0.3125 0.67187,-0.78125 0.95313,-0.67187 2.15625,-0.67187 1.23438,0 2.03125,0.75 0.79688,0.75 0.79688,1.78125 0,0.65625 -0.39063,1.25 -0.375,0.57812 -1.10937,0.92187 z m 7.94531,6.71875 V 89.24028 h -1.59375 q -0.23438,0 -0.34375,-0.0937 -0.0937,-0.0937 -0.0937,-0.234375 0,-0.15625 0.0937,-0.25 0.10937,-0.09375 0.34375,-0.09375 h 2.25 V 100.4122 h -2.25 q -0.23438,0 -0.34375,-0.0937 -0.0937,-0.0937 -0.0937,-0.23437 0,-0.14063 0.0937,-0.23438 0.10937,-0.0937 0.34375,-0.0937 z" />
  <path
     style="fill:#d9d9d9;fill-rule:evenodd"
     inkscape:connector-curvature="0"
     id="path75"
     d="m 196.08596,38.394926 h 57.32285 v 30.17323 h -57.32285 z" />
  <path
     style="fill-rule:evenodd;stroke:#000000;stroke-width:1;stroke-linecap:butt;stroke-linejoin:round"
     inkscape:connector-curvature="0"
     id="path77"
     d="m 196.08596,38.394926 h 57.32285 v 30.17323 h -57.32285 z" />
  <path
     style="fill:#000000;fill-rule:nonzero"
     inkscape:connector-curvature="0"
     id="path79"
     d="m 227.55763,58.28154 h -5.23438 v -0.984375 h 2.01563 v -6.500004 h -2.01563 v -0.890625 q 0.40625,0 0.875,-0.0625 0.46875,-0.0625 0.70313,-0.203125 0.3125,-0.15625 0.48437,-0.40625 0.17188,-0.25 0.1875,-0.671875 h 1.01563 v 8.734379 h 1.96875 z" />
  <path
     style="fill:#ffffff;fill-rule:evenodd"
     inkscape:connector-curvature="0"
     id="path81"
     d="m 253.09155,38.394926 h 57.32284 v 30.17323 h -57.32284 z" />
  <path
     style="fill-rule:evenodd;stroke:#000000;stroke-width:1;stroke-linecap:butt;stroke-linejoin:round"
     inkscape:connector-curvature="0"
     id="path83"
     d="m 253.09155,38.394926 h 57.32284 v 30.17323 h -57.32284 z" />
  <path
     style="fill:#000000;fill-rule:nonzero"
     inkscape:connector-curvature="0"
     id="path85"
     d="m 285.1257,58.28154 h -6.56247 v -1.359375 q 0.6875,-0.59375 1.375,-1.171875 0.6875,-0.59375 1.28125,-1.171875 1.25,-1.203125 1.70313,-1.906254 0.46875,-0.71875 0.46875,-1.546875 0,-0.75 -0.5,-1.171875 -0.5,-0.4375 -1.39063,-0.4375 -0.59375,0 -1.28125,0.21875 -0.6875,0.203125 -1.34375,0.625 h -0.0781 v -1.359375 q 0.46875,-0.234375 1.23437,-0.421875 0.78125,-0.1875 1.5,-0.1875 1.48438,0 2.32813,0.71875 0.85937,0.71875 0.85937,1.953125 0,0.546875 -0.14062,1.03125 -0.14063,0.46875 -0.42188,0.906254 -0.25,0.40625 -0.59375,0.796875 -0.34375,0.390625 -0.82812,0.859375 -0.70313,0.6875 -1.4375,1.328125 -0.73438,0.640625 -1.39063,1.1875 h 5.21872 z" />
  <path
     style="fill:#ffffff;fill-rule:evenodd"
     inkscape:connector-curvature="0"
     id="path87"
     d="m 310.09713,38.394926 h 57.32285 v 30.17323 h -57.32285 z" />
  <path
     style="fill-rule:evenodd;stroke:#000000;stroke-width:1;stroke-linecap:butt;stroke-linejoin:round"
     inkscape:connector-curvature="0"
     id="path89"
     d="m 310.09713,38.394926 h 57.32285 v 30.17323 h -57.32285 z" />
  <path
     style="fill:#000000;fill-rule:nonzero"
     inkscape:connector-curvature="0"
     id="path91"
     d="m 341.27194,53.60967 q 0.3125,0.28125 0.51563,0.703125 0.20312,0.421875 0.20312,1.09375 0,0.671875 -0.25,1.234375 -0.23437,0.546875 -0.67187,0.953125 -0.48438,0.453125 -1.14063,0.671875 -0.65625,0.21875 -1.45312,0.21875 -0.79688,0 -1.57813,-0.203125 -0.78125,-0.1875 -1.28125,-0.40625 V 56.51592 h 0.0937 q 0.54688,0.359375 1.29688,0.609375 0.75,0.234375 1.45312,0.234375 0.40625,0 0.85938,-0.140625 0.46875,-0.140625 0.75,-0.40625 0.29687,-0.28125 0.4375,-0.625 0.15625,-0.34375 0.15625,-0.875 0,-0.515625 -0.17188,-0.859375 -0.15625,-0.34375 -0.45312,-0.53125 -0.29688,-0.203125 -0.71875,-0.28125 -0.40625,-0.07813 -0.89063,-0.07813 h -0.57812 v -1.078129 h 0.45312 q 0.98438,0 1.57813,-0.40625 0.59375,-0.421875 0.59375,-1.21875 0,-0.34375 -0.15625,-0.609375 -0.14063,-0.265625 -0.42188,-0.4375 -0.26562,-0.171875 -0.59375,-0.234375 -0.3125,-0.0625 -0.71875,-0.0625 -0.625,0 -1.32812,0.21875 -0.6875,0.21875 -1.29688,0.625 h -0.0781 v -1.359375 q 0.46875,-0.234375 1.23437,-0.421875 0.78125,-0.1875 1.5,-0.1875 0.70313,0 1.25,0.140625 0.54688,0.125 0.96875,0.40625 0.46875,0.3125 0.70313,0.765625 0.25,0.4375 0.25,1.015625 0,0.8125 -0.57813,1.421875 -0.5625,0.59375 -1.32812,0.75 v 0.09375 q 0.3125,0.04688 0.70312,0.218754 0.40625,0.171875 0.6875,0.40625 z" />
  <path
     style="fill:#d9d9d9;fill-rule:evenodd"
     inkscape:connector-curvature="0"
     id="path93"
     d="m 367.10272,38.394926 h 57.32284 v 30.17323 h -57.32284 z" />
  <path
     style="fill-rule:evenodd;stroke:#000000;stroke-width:1;stroke-linecap:butt;stroke-linejoin:round"
     inkscape:connector-curvature="0"
     id="path95"
     d="m 367.10272,38.394926 h 57.32284 v 30.17323 h -57.32284 z" />
  <path
     style="fill:#000000;fill-rule:nonzero"
     inkscape:connector-curvature="0"
     id="path97"
     d="m 399.05878,55.20342 q 0,0.671875 -0.25,1.296875 -0.25,0.609375 -0.67188,1.046875 -0.46875,0.453125 -1.125,0.703125 -0.64062,0.234375 -1.5,0.234375 -0.78125,0 -1.53125,-0.171875 -0.73437,-0.15625 -1.23437,-0.390625 v -1.375 h 0.0937 q 0.53125,0.328125 1.25,0.578125 0.71875,0.234375 1.40625,0.234375 0.45312,0 0.89062,-0.125 0.4375,-0.140625 0.76563,-0.46875 0.29687,-0.28125 0.4375,-0.671875 0.14062,-0.390625 0.14062,-0.890625 0,-0.5 -0.17187,-0.84375 -0.17188,-0.359375 -0.46875,-0.5625 -0.34375,-0.25 -0.82813,-0.34375 -0.48437,-0.109375 -1.07812,-0.109375 -0.57813,0 -1.10938,0.07813 -0.53125,0.07813 -0.90625,0.15625 v -4.984379 h 5.82813 v 1.140625 h -4.57813 v 2.578125 q 0.28125,-0.03125 0.5625,-0.04687 0.29688,-0.01563 0.51563,-0.01563 0.78125,0 1.375,0.140625 0.59375,0.125 1.09375,0.46875 0.51562,0.359379 0.79687,0.921879 0.29688,0.5625 0.29688,1.421875 z" />
  <path
     style="fill:#d9d9d9;fill-rule:evenodd"
     inkscape:connector-curvature="0"
     id="path99"
     d="m 424.1083,38.394926 h 57.32284 v 30.17323 H 424.1083 Z" />
  <path
     style="fill-rule:evenodd;stroke:#000000;stroke-width:1;stroke-linecap:butt;stroke-linejoin:round"
     inkscape:connector-curvature="0"
     id="path101"
     d="m 424.1083,38.394926 h 57.32284 v 30.17323 H 424.1083 Z" />
  <path
     style="fill:#000000;fill-rule:nonzero"
     inkscape:connector-curvature="0"
     id="path103"
     d="m 456.17373,50.047163 -4.39062,8.234379 h -1.39063 l 4.65625,-8.546879 h -5.51562 v -1.140625 h 6.64062 z" />
  <path
     style="fill:#000000;fill-rule:nonzero"
     inkscape:connector-curvature="0"
     id="path107"
     d="m 59.906761,51.615282 v 0.984375 q 0.6875,-0.6875 1.234375,-0.953125 0.5625,-0.265625 1.25,-0.265625 0.75,0 1.375,0.3125 0.4375,0.234375 0.78125,0.78125 0.359375,0.546875 0.359375,1.109375 v 4.140625 h 0.5625 q 0.234375,0 0.328125,0.09375 0.109375,0.07813 0.109375,0.234375 0,0.140625 -0.109375,0.234375 -0.09375,0.09375 -0.328125,0.09375 h -1.765625 q -0.234375,0 -0.34375,-0.09375 -0.09375,-0.09375 -0.09375,-0.234375 0,-0.15625 0.09375,-0.234375 0.109375,-0.09375 0.34375,-0.09375 h 0.546875 v -4.03125 q 0,-0.6875 -0.515625,-1.171875 -0.5,-0.484375 -1.34375,-0.484375 -0.65625,0 -1.140625,0.265625 -0.46875,0.265625 -1.34375,1.296875 v 4.125 h 0.734375 q 0.234375,0 0.328125,0.09375 0.109375,0.07813 0.109375,0.234375 0,0.140625 -0.109375,0.234375 -0.09375,0.09375 -0.328125,0.09375 h -2.140625 q -0.234375,0 -0.34375,-0.09375 -0.09375,-0.09375 -0.09375,-0.234375 0,-0.15625 0.09375,-0.234375 0.109375,-0.09375 0.34375,-0.09375 h 0.75 v -5.453125 h -0.5625 q -0.234375,0 -0.34375,-0.09375 -0.09375,-0.09375 -0.09375,-0.234375 0,-0.140625 0.09375,-0.234375 0.109375,-0.09375 0.34375,-0.09375 z m 13.960937,6.765625 v -0.96875 q -1.34375,1.234375 -2.90625,1.234375 -0.953125,0 -1.453125,-0.53125 -0.65625,-0.6875 -0.65625,-1.609375 v -4.234375 h -0.875 q -0.234375,0 -0.34375,-0.09375 -0.09375,-0.09375 -0.09375,-0.234375 0,-0.140625 0.09375,-0.234375 0.109375,-0.09375 0.34375,-0.09375 h 1.53125 v 4.890625 q 0,0.640625 0.40625,1.0625 0.40625,0.40625 1.015625,0.40625 1.609375,0 2.9375,-1.46875 v -4.234375 h -1.203125 q -0.234375,0 -0.34375,-0.09375 -0.09375,-0.09375 -0.09375,-0.234375 0,-0.140625 0.09375,-0.234375 0.109375,-0.09375 0.34375,-0.09375 h 1.859375 v 6.109375 h 0.5625 q 0.234375,0 0.328125,0.09375 0.109375,0.07813 0.109375,0.234375 0,0.140625 -0.109375,0.234375 -0.09375,0.09375 -0.328125,0.09375 z m 4.367188,-6.765625 v 0.65625 q 0.84375,-0.890625 1.6875,-0.890625 0.5,0 0.875,0.265625 0.390625,0.265625 0.65625,0.8125 0.4375,-0.546875 0.875,-0.8125 0.453125,-0.265625 0.90625,-0.265625 0.71875,0 1.140621,0.453125 0.54688,0.59375 0.54688,1.296875 v 4.59375 h 0.5625 q 0.23437,0 0.32812,0.09375 0.10938,0.07813 0.10938,0.234375 0,0.140625 -0.10938,0.234375 -0.0937,0.09375 -0.32812,0.09375 h -1.21875 v -5.1875 q 0,-0.5 -0.312501,-0.828125 -0.296875,-0.328125 -0.6875,-0.328125 -0.359375,0 -0.765625,0.28125 -0.390625,0.265625 -0.90625,1.046875 v 4.359375 h 0.546875 q 0.234375,0 0.328125,0.09375 0.109375,0.07813 0.109375,0.234375 0,0.140625 -0.109375,0.234375 -0.09375,0.09375 -0.328125,0.09375 h -1.203125 v -5.140625 q 0,-0.515625 -0.3125,-0.859375 -0.3125,-0.34375 -0.6875,-0.34375 -0.359375,0 -0.703125,0.234375 -0.46875,0.3125 -1,1.09375 v 4.359375 h 0.5625 q 0.234375,0 0.328125,0.09375 0.109375,0.07813 0.109375,0.234375 0,0.140625 -0.109375,0.234375 -0.09375,0.09375 -0.328125,0.09375 h -1.765625 q -0.234375,0 -0.34375,-0.09375 -0.09375,-0.09375 -0.09375,-0.234375 0,-0.15625 0.09375,-0.234375 0.109375,-0.09375 0.34375,-0.09375 h 0.546875 v -5.453125 h -0.546875 q -0.234375,0 -0.34375,-0.09375 -0.09375,-0.09375 -0.09375,-0.234375 0,-0.140625 0.09375,-0.234375 0.109375,-0.09375 0.34375,-0.09375 z m 10.117191,-3.046875 v 4.359375 q 1.1875,-1.546875 2.875,-1.546875 1.4375,0 2.45312,1.046875 1.03125,1.03125 1.03125,2.546875 0,1.53125 -1.04687,2.609375 -1.03125,1.0625 -2.4375,1.0625 -1.71875,0 -2.875,-1.5625 v 1.296875 h -1.53125 q -0.23438,0 -0.34375,-0.09375 -0.0937,-0.09375 -0.0937,-0.234375 0,-0.15625 0.0937,-0.234375 0.10937,-0.09375 0.34375,-0.09375 h 0.875 v -8.484375 h -0.875 q -0.23438,0 -0.34375,-0.09375 -0.0937,-0.09375 -0.0937,-0.25 0,-0.140625 0.0937,-0.234375 0.10937,-0.09375 0.34375,-0.09375 z m 5.70312,6.4375 q 0,-1.234375 -0.85937,-2.09375 -0.84375,-0.875 -1.98438,-0.875 -1.14062,0 -2,0.875 -0.84375,0.859375 -0.84375,2.09375 0,1.25 0.84375,2.109375 0.85938,0.859375 2,0.859375 1.14063,0 1.98438,-0.859375 0.85937,-0.859375 0.85937,-2.109375 z m 9.929693,0.140625 h -6.687503 q 0.17187,1.28125 1.0625,2.0625 0.89062,0.765625 2.218753,0.765625 0.73437,0 1.53125,-0.234375 0.8125,-0.25 1.3125,-0.640625 0.15625,-0.125 0.26562,-0.125 0.125,0 0.21875,0.109375 0.0937,0.09375 0.0937,0.21875 0,0.140625 -0.125,0.265625 -0.375,0.390625 -1.34375,0.734375 -0.95312,0.34375 -1.95312,0.34375 -1.687503,0 -2.828133,-1.109375 -1.125,-1.109375 -1.125,-2.6875 0,-1.421875 1.0625,-2.4375 1.0625,-1.03125 2.625003,-1.03125 1.60938,0 2.64063,1.046875 1.04687,1.046875 1.03125,2.71875 z m -0.67188,-0.65625 q -0.1875,-1.09375 -1.03125,-1.765625 -0.82812,-0.6875 -1.96875,-0.6875 -1.156253,0 -1.984373,0.671875 -0.82813,0.671875 -1.03125,1.78125 z m 5.92969,-2.875 v 1.65625 q 1.28125,-1.15625 1.92188,-1.484375 0.64062,-0.34375 1.17187,-0.34375 0.59375,0 1.09375,0.40625 0.5,0.390625 0.5,0.59375 0,0.140625 -0.0937,0.25 -0.0937,0.09375 -0.25,0.09375 -0.0781,0 -0.14062,-0.03125 -0.0469,-0.03125 -0.1875,-0.171875 -0.28125,-0.28125 -0.48438,-0.375 -0.20312,-0.109375 -0.39062,-0.109375 -0.4375,0 -1.04688,0.34375 -0.59375,0.34375 -2.09375,1.6875 v 3.59375 h 2.90625 q 0.25,0 0.34375,0.09375 0.10938,0.07813 0.10938,0.234375 0,0.140625 -0.10938,0.234375 -0.0937,0.09375 -0.34375,0.09375 h -5.14062 q -0.23438,0 -0.34375,-0.09375 -0.0937,-0.09375 -0.0937,-0.234375 0,-0.125 0.0937,-0.21875 0.0937,-0.09375 0.34375,-0.09375 h 1.57812 v -5.46875 h -1.20312 q -0.23438,0 -0.34375,-0.09375 -0.0937,-0.09375 -0.0937,-0.234375 0,-0.140625 0.0937,-0.234375 0.0937,-0.09375 0.34375,-0.09375 z m 12.55469,0.421875 q 0,-0.21875 0.0937,-0.3125 0.0937,-0.109375 0.23437,-0.109375 0.15625,0 0.25,0.109375 0.0937,0.09375 0.0937,0.328125 v 1.125 q 0,0.234375 -0.0937,0.34375 -0.0937,0.09375 -0.25,0.09375 -0.125,0 -0.21875,-0.07813 -0.0937,-0.09375 -0.10937,-0.28125 -0.0469,-0.46875 -0.48438,-0.78125 -0.64062,-0.4375 -1.6875,-0.4375 -1.10937,0 -1.71875,0.453125 -0.45312,0.328125 -0.45312,0.75 0,0.46875 0.54687,0.78125 0.375,0.21875 1.42188,0.328125 1.35937,0.15625 1.89062,0.34375 0.76563,0.265625 1.125,0.75 0.375,0.484375 0.375,1.046875 0,0.84375 -0.8125,1.5 -0.79687,0.65625 -2.34375,0.65625 -1.5625,0 -2.54687,-0.796875 0,0.265625 -0.0312,0.34375 -0.0312,0.07813 -0.125,0.140625 -0.0781,0.04687 -0.17188,0.04687 -0.14062,0 -0.23437,-0.09375 -0.0937,-0.109375 -0.0937,-0.34375 v -1.359375 q 0,-0.234375 0.0781,-0.328125 0.0937,-0.109375 0.25,-0.109375 0.14063,0 0.23438,0.109375 0.0937,0.09375 0.0937,0.25 0,0.359375 0.1875,0.609375 0.26562,0.375 0.85937,0.625 0.60938,0.234375 1.46875,0.234375 1.28125,0 1.90625,-0.46875 0.625,-0.484375 0.625,-1.015625 0,-0.609375 -0.625,-0.96875 -0.64062,-0.375 -1.875,-0.5 -1.21875,-0.125 -1.75,-0.328125 -0.53125,-0.203125 -0.82812,-0.609375 -0.29688,-0.40625 -0.29688,-0.875 0,-0.84375 0.82813,-1.328125 0.82812,-0.5 1.98437,-0.5 1.35938,0 2.20313,0.65625 z m 7.77344,-2.796875 v 10.515625 h 1.59375 q 0.23437,0 0.32812,0.07813 0.10938,0.09375 0.10938,0.25 0,0.140625 -0.10938,0.234375 -0.0937,0.09375 -0.32812,0.09375 h -2.25 v -11.84375 h 2.25 q 0.23437,0 0.32812,0.09375 0.10938,0.09375 0.10938,0.25 0,0.140625 -0.10938,0.234375 -0.0937,0.09375 -0.32812,0.09375 z m 9.58593,-0.796875 v 9.28125 h 2.25 q 0.23438,0 0.32813,0.09375 0.10937,0.07813 0.10937,0.234375 0,0.140625 -0.10937,0.234375 -0.0937,0.09375 -0.32813,0.09375 h -5.15625 q -0.23437,0 -0.34375,-0.09375 -0.0937,-0.09375 -0.0937,-0.234375 0,-0.15625 0.0937,-0.234375 0.10938,-0.09375 0.34375,-0.09375 h 2.25 v -8.375 l -2.14062,0.671875 q -0.15625,0.04687 -0.21875,0.04687 -0.125,0 -0.21875,-0.09375 -0.0937,-0.109375 -0.0937,-0.234375 0,-0.125 0.0781,-0.21875 0.0625,-0.0625 0.25,-0.140625 z m 9.14844,3.171875 h 0.28125 q 0.4375,0 0.75,0.3125 0.3125,0.3125 0.3125,0.734375 0,0.46875 -0.32812,0.78125 -0.3125,0.296875 -0.73438,0.296875 h -0.28125 q -0.4375,0 -0.75,-0.3125 -0.3125,-0.3125 -0.3125,-0.75 0,-0.453125 0.3125,-0.75 0.3125,-0.3125 0.75,-0.3125 z m 0,4.875 h 0.28125 q 0.4375,0 0.75,0.3125 0.3125,0.3125 0.3125,0.75 0,0.453125 -0.32812,0.765625 -0.3125,0.296875 -0.73438,0.296875 h -0.28125 q -0.4375,0 -0.75,-0.3125 -0.3125,-0.3125 -0.3125,-0.75 0,-0.453125 0.3125,-0.75 0.3125,-0.3125 0.75,-0.3125 z m 11.08594,-3.453125 q 0.90625,0.40625 1.375,1.125 0.48437,0.703125 0.48437,1.46875 0,1.171875 -0.96875,2.078125 -0.95312,0.90625 -2.39062,0.90625 -0.84375,0 -1.75,-0.359375 -0.90625,-0.359375 -1.26563,-0.734375 -0.10937,-0.125 -0.10937,-0.265625 0,-0.125 0.0781,-0.21875 0.0937,-0.09375 0.21875,-0.09375 0.125,0 0.28125,0.109375 1.21875,0.90625 2.5625,0.90625 1.14063,0 1.90625,-0.71875 0.78125,-0.71875 0.78125,-1.59375 0,-0.578125 -0.39062,-1.140625 -0.375,-0.5625 -1.09375,-0.890625 -0.70313,-0.328125 -1.42188,-0.328125 -0.23437,0 -0.34375,-0.07813 -0.0937,-0.09375 -0.0937,-0.25 0,-0.140625 0.0937,-0.234375 0.0937,-0.09375 0.29688,-0.09375 l 0.5625,0.01563 q 0.875,0 1.45312,-0.53125 0.57813,-0.546875 0.57813,-1.265625 0,-0.734375 -0.60938,-1.296875 -0.59375,-0.5625 -1.5625,-0.5625 -0.6875,0 -1.26562,0.234375 -0.5625,0.234375 -0.90625,0.640625 -0.125,0.15625 -0.1875,0.203125 -0.0625,0.03125 -0.15625,0.03125 -0.125,0 -0.21875,-0.09375 -0.0937,-0.09375 -0.0937,-0.21875 0,-0.3125 0.67187,-0.78125 0.95313,-0.671875 2.15625,-0.671875 1.23438,0 2.03125,0.75 0.79688,0.75 0.79688,1.78125 0,0.65625 -0.39063,1.25 -0.375,0.578125 -1.10937,0.921875 z m 7.94531,6.71875 V 49.240282 h -1.59375 q -0.23437,0 -0.34375,-0.09375 -0.0937,-0.09375 -0.0937,-0.234375 0,-0.15625 0.0937,-0.25 0.10938,-0.09375 0.34375,-0.09375 h 2.25 v 11.84375 h -2.25 q -0.23437,0 -0.34375,-0.09375 -0.0937,-0.09375 -0.0937,-0.234375 0,-0.140625 0.0937,-0.234375 0.10938,-0.09375 0.34375,-0.09375 z" />
  <path
     style="fill:#000000;fill-rule:nonzero"
     inkscape:connector-curvature="0"
     id="path111"
     d="m 514.43753,135.8184 0.5625,-0.5625 0.375,-0.375 h -9.3125 v -1.25 h 10.5625 l 0.0625,-0.0625 1,-1 -0.875,-0.875 -0.1875,-0.1875 h -10.5625 v -1.25 h 9.3125 l -0.625,-0.625 -0.3125,-0.3125 0.9375,-0.9375 0.25,0.25 3.6875,3.6875 0.25,0.25 -1.375,1.375 -2.8125,2.8125 z" />
  <path
     style="fill:#000000;fill-rule:nonzero"
     inkscape:connector-curvature="0"
     id="path113"
     d="m 534.29324,130.95903 v 8.53125 h 1.29687 q 0.1875,0 0.26563,0.0625 0.0937,0.0781 0.0937,0.20312 0,0.125 -0.0937,0.1875 -0.0781,0.0781 -0.26563,0.0781 h -1.82812 v -9.60938 h 1.82812 q 0.1875,0 0.26563,0.0781 0.0937,0.0781 0.0937,0.20312 0,0.10938 -0.0937,0.1875 -0.0781,0.0781 -0.26563,0.0781 z m 8.62939,3.09375 q 0.73438,0.32812 1.10938,0.90625 0.39062,0.5625 0.39062,1.1875 0,0.95312 -0.78125,1.6875 -0.76562,0.73437 -1.9375,0.73437 -0.6875,0 -1.42187,-0.28125 -0.73438,-0.29687 -1.03125,-0.60937 -0.0937,-0.0937 -0.0937,-0.21875 0,-0.0937 0.0781,-0.17188 0.0781,-0.0781 0.17188,-0.0781 0.10937,0 0.23437,0.0937 0.98438,0.73437 2.07813,0.73437 0.92187,0 1.54687,-0.57812 0.625,-0.57813 0.625,-1.29688 0,-0.46875 -0.3125,-0.92187 -0.29687,-0.46875 -0.875,-0.71875 -0.57812,-0.26563 -1.17187,-0.26563 -0.1875,0 -0.28125,-0.0781 -0.0781,-0.0781 -0.0781,-0.20313 0,-0.10937 0.0781,-0.1875 0.0937,-0.0781 0.25,-0.0781 l 0.45312,0.0156 q 0.71875,0 1.1875,-0.4375 0.46875,-0.4375 0.46875,-1.01562 0,-0.59375 -0.5,-1.04688 -0.48437,-0.46875 -1.26562,-0.46875 -0.5625,0 -1.03125,0.1875 -0.45313,0.1875 -0.73438,0.53125 -0.0937,0.125 -0.15625,0.15625 -0.0469,0.0156 -0.125,0.0156 -0.10937,0 -0.1875,-0.0625 -0.0625,-0.0781 -0.0625,-0.17188 0,-0.26562 0.54688,-0.65625 0.76562,-0.53125 1.75,-0.53125 1,0 1.64062,0.60938 0.65625,0.60937 0.65625,1.4375 0,0.53125 -0.3125,1.01562 -0.3125,0.46875 -0.90625,0.76563 z m 5.64502,2.40625 h 1.73438 l -1.89063,3.51562 q -0.17187,0.3125 -0.40625,0.3125 -0.15625,0 -0.28125,-0.10937 -0.10937,-0.10938 -0.10937,-0.26563 0,-0.0781 0.0312,-0.14062 z m 15.19629,-5.5 v 2.60937 q 0.46875,-0.20312 0.89063,-0.29687 0.4375,-0.10938 0.82812,-0.10938 1,0 1.67188,0.71875 0.67187,0.70313 0.67187,1.84375 0,1.26563 -0.76562,2.0625 -0.75,0.78125 -1.89063,0.78125 -0.76562,0 -1.45312,-0.32812 -0.5,-0.23438 -0.90625,-0.59375 -0.23438,-0.20313 -0.23438,-0.34375 0,-0.10938 0.0625,-0.1875 0.0781,-0.0937 0.1875,-0.0937 0.10938,0 0.23438,0.125 0.95312,0.89062 2.07812,0.89062 0.9375,0 1.54688,-0.64062 0.60937,-0.64063 0.60937,-1.6875 0,-0.90625 -0.53125,-1.45313 -0.53125,-0.54687 -1.34375,-0.54687 -0.82812,0 -1.65625,0.4375 -0.20312,0.0937 -0.28125,0.0937 -0.125,0 -0.20312,-0.0781 -0.0625,-0.0781 -0.0625,-0.21875 v -3.53125 h 3.73437 q 0.1875,0 0.26563,0.0781 0.0781,0.0781 0.0781,0.20312 0,0.10938 -0.0781,0.1875 -0.0781,0.0781 -0.26563,0.0781 z m 8.20752,5.5 h 1.73438 l -1.89063,3.51562 q -0.17187,0.3125 -0.40625,0.3125 -0.15625,0 -0.28125,-0.10937 -0.10937,-0.10938 -0.10937,-0.26563 0,-0.0781 0.0312,-0.14062 z m 18.44629,-5.26563 v -0.23437 h -3.8125 v 0.46875 q 0,0.1875 -0.0781,0.26562 -0.0625,0.0781 -0.1875,0.0781 -0.125,0 -0.20313,-0.0781 -0.0625,-0.0781 -0.0625,-0.26562 v -1.01563 h 4.89063 v 0.85938 l -2.14063,6.84375 q -0.0625,0.17187 -0.14062,0.23437 -0.0625,0.0469 -0.14063,0.0469 -0.125,0 -0.20312,-0.0781 -0.0625,-0.0781 -0.0625,-0.17187 0,-0.0781 0.0312,-0.1875 z m 5.77002,8.29688 v -8.53125 h -1.29687 q -0.1875,0 -0.28125,-0.0781 -0.0781,-0.0781 -0.0781,-0.1875 0,-0.125 0.0781,-0.20312 0.0937,-0.0781 0.28125,-0.0781 h 1.82812 v 9.60938 h -1.82812 q -0.1875,0 -0.28125,-0.0781 -0.0781,-0.0625 -0.0781,-0.1875 0,-0.10937 0.0781,-0.1875 0.0937,-0.0781 0.28125,-0.0781 z" />
  <path
     style="fill:#000000;fill-rule:nonzero"
     inkscape:connector-curvature="0"
     id="path117"
     d="m 514.43753,95.81841 0.5625,-0.5625 0.375,-0.375 h -9.3125 v -1.25 h 10.5625 l 0.0625,-0.0625 1,-1 -0.875,-0.875 -0.1875,-0.1875 h -10.5625 v -1.25 h 9.3125 l -0.625,-0.625 -0.3125,-0.3125 0.9375,-0.9375 0.25,0.25 3.6875,3.6875 0.25,0.25 -1.375,1.375 -2.8125,2.8125 z" />
  <path
     style="fill:#000000;fill-rule:nonzero"
     inkscape:connector-curvature="0"
     id="path119"
     d="m 534.29324,90.95903 v 8.53125 h 1.29687 q 0.1875,0 0.26563,0.0625 0.0937,0.0781 0.0937,0.20312 0,0.125 -0.0937,0.1875 -0.0781,0.0781 -0.26563,0.0781 h -1.82812 v -9.60938 h 1.82812 q 0.1875,0 0.26563,0.0781 0.0937,0.0781 0.0937,0.20312 0,0.10938 -0.0937,0.1875 -0.0781,0.0781 -0.26563,0.0781 z m 7.80127,-0.65625 v 7.54687 h 1.82812 q 0.1875,0 0.26563,0.0781 0.0781,0.0625 0.0781,0.1875 0,0.10937 -0.0781,0.1875 -0.0781,0.0781 -0.26563,0.0781 h -4.20312 q -0.1875,0 -0.26563,-0.0781 -0.0781,-0.0781 -0.0781,-0.1875 0,-0.125 0.0781,-0.1875 0.0781,-0.0781 0.26563,-0.0781 h 1.82812 v -6.8125 l -1.73437,0.54688 q -0.125,0.0469 -0.1875,0.0469 -0.0937,0 -0.17188,-0.0781 -0.0781,-0.0781 -0.0781,-0.1875 0,-0.0937 0.0625,-0.1875 0.0469,-0.0469 0.21875,-0.10938 z m 6.47314,6.15625 h 1.73438 l -1.89063,3.51562 q -0.17187,0.3125 -0.40625,0.3125 -0.15625,0 -0.28125,-0.10937 -0.10937,-0.10938 -0.10937,-0.26563 0,-0.0781 0.0312,-0.14062 z m 14.36817,1.39062 h 4.09375 V 97.6309 q 0,-0.1875 0.0781,-0.26562 0.0781,-0.0781 0.1875,-0.0781 0.125,0 0.1875,0.0781 0.0781,0.0781 0.0781,0.26562 v 0.75 h -5.15625 v -0.78125 q 1.625,-1.46875 3.17187,-2.98437 0.71875,-0.70313 0.98438,-1.03125 0.26562,-0.32813 0.35937,-0.57813 0.0937,-0.25 0.0937,-0.5 0,-0.6875 -0.54687,-1.21875 -0.54688,-0.53125 -1.32813,-0.53125 -0.70312,0 -1.25,0.40625 -0.53125,0.40625 -0.6875,0.98438 -0.0469,0.15625 -0.0937,0.20312 -0.0781,0.0625 -0.1875,0.0625 -0.10937,0 -0.1875,-0.0625 -0.0625,-0.0781 -0.0625,-0.1875 0,-0.29687 0.32813,-0.8125 0.34375,-0.53125 0.92187,-0.82812 0.59375,-0.29688 1.20313,-0.29688 1,0 1.71875,0.70313 0.71875,0.6875 0.71875,1.5625 0,0.35937 -0.125,0.67187 -0.10938,0.3125 -0.40625,0.67188 -0.28125,0.35937 -1.03125,1.09375 -1.89063,1.85937 -3.0625,2.875 z m 9.03564,-1.39062 h 1.73438 l -1.89063,3.51562 q -0.17187,0.3125 -0.40625,0.3125 -0.15625,0 -0.28125,-0.10937 -0.10937,-0.10938 -0.10937,-0.26563 0,-0.0781 0.0312,-0.14062 z m 17.75879,-2.40625 q 0.73438,0.32812 1.10938,0.90625 0.39062,0.5625 0.39062,1.1875 0,0.95312 -0.78125,1.6875 -0.76562,0.73437 -1.9375,0.73437 -0.6875,0 -1.42187,-0.28125 -0.73438,-0.29687 -1.03125,-0.60937 -0.0937,-0.0937 -0.0937,-0.21875 0,-0.0937 0.0781,-0.17188 0.0781,-0.0781 0.17188,-0.0781 0.10937,0 0.23437,0.0937 0.98438,0.73437 2.07813,0.73437 0.92187,0 1.54687,-0.57812 0.625,-0.57813 0.625,-1.29688 0,-0.46875 -0.3125,-0.92187 -0.29687,-0.46875 -0.875,-0.71875 -0.57812,-0.26563 -1.17187,-0.26563 -0.1875,0 -0.28125,-0.0781 -0.0781,-0.0781 -0.0781,-0.20313 0,-0.10937 0.0781,-0.1875 0.0937,-0.0781 0.25,-0.0781 l 0.45312,0.0156 q 0.71875,0 1.1875,-0.4375 0.46875,-0.4375 0.46875,-1.01562 0,-0.59375 -0.5,-1.04688 -0.48437,-0.46875 -1.26562,-0.46875 -0.5625,0 -1.03125,0.1875 -0.45313,0.1875 -0.73438,0.53125 -0.0937,0.125 -0.15625,0.15625 -0.0469,0.0156 -0.125,0.0156 -0.10937,0 -0.1875,-0.0625 -0.0625,-0.0781 -0.0625,-0.17188 0,-0.26562 0.54688,-0.65625 0.76562,-0.53125 1.75,-0.53125 1,0 1.64062,0.60938 0.65625,0.60937 0.65625,1.4375 0,0.53125 -0.3125,1.01562 -0.3125,0.46875 -0.90625,0.76563 z m 6.45752,5.4375 v -8.53125 h -1.29687 q -0.1875,0 -0.28125,-0.0781 -0.0781,-0.0781 -0.0781,-0.1875 0,-0.125 0.0781,-0.20312 0.0937,-0.0781 0.28125,-0.0781 h 1.82812 v 9.60938 h -1.82812 q -0.1875,0 -0.28125,-0.0781 -0.0781,-0.0625 -0.0781,-0.1875 0,-0.10937 0.0781,-0.1875 0.0937,-0.0781 0.28125,-0.0781 z" />
  <path
     style="fill:#000000;fill-rule:nonzero"
     inkscape:connector-curvature="0"
     id="path123"
     d="m 514.43753,55.81841 0.5625,-0.5625 0.375,-0.375 h -9.3125 v -1.25 h 10.5625 l 0.0625,-0.0625 1,-1 -0.875,-0.875 -0.1875,-0.1875 h -10.5625 v -1.25 h 9.3125 l -0.625,-0.625 -0.3125,-0.3125 0.9375,-0.9375 0.25,0.25 3.6875,3.6875 0.25,0.25 -1.375,1.375 -2.8125,2.8125 z" />
  <path
     style="fill:#000000;fill-rule:nonzero"
     inkscape:connector-curvature="0"
     id="path125"
     d="m 534.29324,50.959032 v 8.53125 h 1.29687 q 0.1875,0 0.26563,0.0625 0.0937,0.07813 0.0937,0.203125 0,0.125 -0.0937,0.1875 -0.0781,0.07813 -0.26563,0.07813 h -1.82812 v -9.609375 h 1.82812 q 0.1875,0 0.26563,0.07813 0.0937,0.07813 0.0937,0.203125 0,0.109375 -0.0937,0.1875 -0.0781,0.07813 -0.26563,0.07813 z m 5.23877,6.890625 h 4.09375 v -0.21875 q 0,-0.1875 0.0781,-0.265625 0.0781,-0.07813 0.1875,-0.07813 0.125,0 0.1875,0.07813 0.0781,0.07813 0.0781,0.265625 v 0.75 h -5.15625 v -0.78125 q 1.625,-1.46875 3.17187,-2.984375 0.71875,-0.703125 0.98438,-1.03125 0.26562,-0.328125 0.35937,-0.578125 0.0937,-0.25 0.0937,-0.5 0,-0.6875 -0.54687,-1.21875 -0.54688,-0.53125 -1.32813,-0.53125 -0.70312,0 -1.25,0.40625 -0.53125,0.40625 -0.6875,0.984375 -0.0469,0.15625 -0.0937,0.203125 -0.0781,0.0625 -0.1875,0.0625 -0.10937,0 -0.1875,-0.0625 -0.0625,-0.07813 -0.0625,-0.1875 0,-0.296875 0.32813,-0.8125 0.34375,-0.53125 0.92187,-0.828125 0.59375,-0.296875 1.20313,-0.296875 1,0 1.71875,0.703125 0.71875,0.6875 0.71875,1.5625 0,0.359375 -0.125,0.671875 -0.10938,0.3125 -0.40625,0.671875 -0.28125,0.359375 -1.03125,1.09375 -1.89063,1.859375 -3.0625,2.875 z m 9.03564,-1.390625 h 1.73438 l -1.89063,3.515625 q -0.17187,0.3125 -0.40625,0.3125 -0.15625,0 -0.28125,-0.109375 -0.10937,-0.109375 -0.10937,-0.265625 0,-0.07813 0.0312,-0.140625 z m 17.75879,-2.40625 q 0.73438,0.328125 1.10938,0.90625 0.39062,0.5625 0.39062,1.1875 0,0.953125 -0.78125,1.6875 -0.76562,0.734375 -1.9375,0.734375 -0.6875,0 -1.42187,-0.28125 -0.73438,-0.296875 -1.03125,-0.609375 -0.0937,-0.09375 -0.0937,-0.21875 0,-0.09375 0.0781,-0.171875 0.0781,-0.07813 0.17188,-0.07813 0.10937,0 0.23437,0.09375 0.98438,0.734375 2.07813,0.734375 0.92187,0 1.54687,-0.578125 0.625,-0.578125 0.625,-1.296875 0,-0.46875 -0.3125,-0.921875 -0.29687,-0.46875 -0.875,-0.71875 -0.57812,-0.265625 -1.17187,-0.265625 -0.1875,0 -0.28125,-0.07813 -0.0781,-0.07813 -0.0781,-0.203125 0,-0.109375 0.0781,-0.1875 0.0937,-0.07813 0.25,-0.07813 l 0.45312,0.01563 q 0.71875,0 1.1875,-0.4375 0.46875,-0.4375 0.46875,-1.015625 0,-0.59375 -0.5,-1.046875 -0.48437,-0.46875 -1.26562,-0.46875 -0.5625,0 -1.03125,0.1875 -0.45313,0.1875 -0.73438,0.53125 -0.0937,0.125 -0.15625,0.15625 -0.0469,0.01563 -0.125,0.01563 -0.10937,0 -0.1875,-0.0625 -0.0625,-0.07813 -0.0625,-0.171875 0,-0.265625 0.54688,-0.65625 0.76562,-0.53125 1.75,-0.53125 1,0 1.64062,0.609375 0.65625,0.609375 0.65625,1.4375 0,0.53125 -0.3125,1.015625 -0.3125,0.46875 -0.90625,0.765625 z m 6.45752,5.4375 v -8.53125 h -1.29687 q -0.1875,0 -0.28125,-0.07813 -0.0781,-0.07813 -0.0781,-0.1875 0,-0.125 0.0781,-0.203125 0.0937,-0.07813 0.28125,-0.07813 h 1.82812 v 9.609375 h -1.82812 q -0.1875,0 -0.28125,-0.07813 -0.0781,-0.0625 -0.0781,-0.1875 0,-0.109375 0.0781,-0.1875 0.0937,-0.07813 0.28125,-0.07813 z" />
  <path
     style="fill:#000000;fill-rule:nonzero"
     inkscape:connector-curvature="0"
     id="path129"
     d="m 14.90625,140.00841 h -2.453125 q -1.25,-1.46875 -1.859375,-3.01563 Q 10,135.44591 10,133.60216 q 0,-1.84375 0.59375,-3.39063 0.609375,-1.54687 1.859375,-3.01562 h 2.453125 v 0.1875 q -0.515625,0.46875 -1,1.07812 -0.484375,0.59375 -0.890625,1.40625 -0.390625,0.78125 -0.640625,1.71875 -0.234375,0.9375 -0.234375,2.01563 0,1.10937 0.234375,2.01562 0.234375,0.90625 0.640625,1.70313 0.390625,0.78125 0.875,1.40625 0.5,0.625 1.015625,1.09375 z m 6.696396,-2.5 q -1.078125,0 -2,-0.3125 -0.90625,-0.32813 -1.5625,-0.95313 -0.65625,-0.64062 -1.015625,-1.57812 -0.359375,-0.9375 -0.359375,-2.17188 0,-1.15625 0.34375,-2.09375 0.34375,-0.9375 1,-1.60937 0.640625,-0.64063 1.5625,-0.98438 0.9375,-0.35937 2.046875,-0.35937 0.609375,0 1.09375,0.0625 0.5,0.0625 0.921875,0.1875 0.421875,0.10937 0.78125,0.26562 0.359375,0.15625 0.625,0.28125 v 2.35938 h -0.28125 q -0.1875,-0.15625 -0.46875,-0.375 -0.265625,-0.21875 -0.625,-0.42188 -0.359375,-0.20312 -0.78125,-0.34375 -0.40625,-0.15625 -0.890625,-0.15625 -0.515625,0 -1,0.17188 -0.46875,0.17187 -0.875,0.54687 -0.390625,0.375 -0.625,0.98438 -0.234375,0.60937 -0.234375,1.48437 0,0.90625 0.25,1.53125 0.265625,0.60938 0.65625,0.95313 0.390625,0.35937 0.875,0.51562 0.5,0.15625 0.96875,0.15625 0.453125,0 0.890625,-0.14062 0.453125,-0.14063 0.84375,-0.375 0.3125,-0.1875 0.578125,-0.40625 0.28125,-0.21875 0.453125,-0.375 h 0.265625 v 2.32812 q -0.359375,0.15625 -0.703125,0.3125 -0.328125,0.14063 -0.6875,0.23438 -0.484375,0.14062 -0.90625,0.20312 -0.40625,0.0781 -1.140625,0.0781 z m 10.019669,-3.90625 q 0,1.84375 -0.609375,3.39062 -0.59375,1.54688 -1.84375,3.01563 h -2.453125 v -0.1875 q 0.515625,-0.46875 1.015625,-1.09375 0.5,-0.625 0.875,-1.40625 0.40625,-0.79688 0.640625,-1.70313 0.25,-0.90625 0.25,-2.01562 0,-1.07813 -0.25,-2.01563 -0.25,-0.9375 -0.640625,-1.71875 -0.40625,-0.8125 -0.890625,-1.40625 -0.46875,-0.60937 -1,-1.07812 v -0.1875 h 2.453125 q 1.25,1.46875 1.84375,3.01562 0.609375,1.54688 0.609375,3.39063 z" />
  <path
     style="fill:#000000;fill-rule:nonzero"
     inkscape:connector-curvature="0"
     id="path133"
     d="m 14.90625,100.00841 h -2.453125 q -1.25,-1.46875 -1.859375,-3.01563 Q 10,95.44591 10,93.60216 q 0,-1.84375 0.59375,-3.39063 0.609375,-1.54687 1.859375,-3.01562 h 2.453125 v 0.1875 q -0.515625,0.46875 -1,1.078125 -0.484375,0.593745 -0.890625,1.406245 -0.390625,0.78125 -0.640625,1.71875 -0.234375,0.9375 -0.234375,2.01563 0,1.10937 0.234375,2.01562 0.234375,0.90625 0.640625,1.70313 0.390625,0.78125 0.875,1.40625 0.5,0.625 1.015625,1.09375 z m 10.618271,-5.65625 q 0,0.70312 -0.28125,1.26562 -0.28125,0.54688 -0.78125,0.90625 -0.578125,0.4375 -1.265625,0.625 -0.6875,0.17188 -1.734375,0.17188 h -4.234375 v -9.6875 h 3.765625 q 1.171875,0 1.703125,0.07813 0.546875,0.07813 1.09375,0.34375 0.546875,0.28125 0.8125,0.75 0.28125,0.46874 0.28125,1.07812 0,0.70312 -0.375,1.25 -0.375,0.53125 -1.046875,0.82812 v 0.0469 q 0.953125,0.1875 1.5,0.78125 0.5625,0.59375 0.5625,1.5625 z m -3.203125,-3.98438 q 0,-0.23437 -0.125,-0.46875 -0.125,-0.25 -0.421875,-0.375 -0.28125,-0.0937 -0.6875,-0.0937 -0.40625,-0.0156 -1.140625,-0.0156 h -0.234375 v 2.04687 h 0.390625 q 0.59375,0 1,-0.0156 0.421875,-0.0312 0.671875,-0.14063 0.34375,-0.14062 0.4375,-0.375 0.109375,-0.25 0.109375,-0.5625 z m 0.609375,3.95313 q 0,-0.46875 -0.1875,-0.71875 -0.171875,-0.25 -0.59375,-0.375 -0.296875,-0.0781 -0.8125,-0.0781 -0.515625,-0.0156 -1.078125,-0.0156 h -0.546875 v 2.40625 h 0.1875 q 1.046875,0 1.5,0 0.46875,-0.0156 0.84375,-0.17188 0.390625,-0.15625 0.53125,-0.42187 0.15625,-0.28125 0.15625,-0.625 z m 9.199158,-0.71875 q 0,1.84375 -0.609375,3.39062 -0.59375,1.54688 -1.84375,3.01563 h -2.453125 v -0.1875 q 0.515625,-0.46875 1.015625,-1.09375 0.5,-0.625 0.875,-1.40625 0.40625,-0.79688 0.640625,-1.70313 0.25,-0.90625 0.25,-2.01562 0,-1.07813 -0.25,-2.01563 -0.25,-0.9375 -0.640625,-1.71875 -0.40625,-0.8125 -0.890625,-1.406245 -0.46875,-0.609375 -1,-1.078125 v -0.1875 h 2.453125 q 1.25,1.46875 1.84375,3.01562 0.609375,1.54688 0.609375,3.39063 z" />
  <path
     style="fill:#000000;fill-rule:nonzero"
     inkscape:connector-curvature="0"
     id="path137"
     d="m 14.90625,60.00841 h -2.453125 q -1.25,-1.46875 -1.859375,-3.015625 Q 10,55.44591 10,53.60216 q 0,-1.84375 0.59375,-3.390625 0.609375,-1.546875 1.859375,-3.015625 h 2.453125 v 0.1875 q -0.515625,0.46875 -1,1.078125 -0.484375,0.59375 -0.890625,1.40625 -0.390625,0.78125 -0.640625,1.71875 -0.234375,0.9375 -0.234375,2.015625 0,1.109375 0.234375,2.015625 0.234375,0.90625 0.640625,1.703125 0.390625,0.78125 0.875,1.40625 0.5,0.625 1.015625,1.09375 z m 11.274521,-2.6875 h -2.578125 l -0.671875,-1.953125 h -3.59375 l -0.671875,1.953125 h -2.515625 l 3.578125,-9.6875 h 2.875 z m -3.859375,-3.734375 -1.1875,-3.46875 -1.1875,3.46875 z m 10.003769,0.01563 q 0,1.84375 -0.609375,3.390625 -0.59375,1.546875 -1.84375,3.015625 h -2.453125 v -0.1875 q 0.515625,-0.46875 1.015625,-1.09375 0.5,-0.625 0.875,-1.40625 0.40625,-0.796875 0.640625,-1.703125 0.25,-0.90625 0.25,-2.015625 0,-1.078125 -0.25,-2.015625 -0.25,-0.9375 -0.640625,-1.71875 -0.40625,-0.8125 -0.890625,-1.40625 -0.46875,-0.609375 -1,-1.078125 v -0.1875 h 2.453125 q 1.25,1.46875 1.84375,3.015625 0.609375,1.546875 0.609375,3.390625 z" />
  <path
     style="fill:#000000;fill-rule:nonzero"
     inkscape:connector-curvature="0"
     id="path141"
     d="m 220.69825,14.875 q 0,-1.6875 0.34375,-2.71875 0.35937,-1.03125 1.04687,-1.59375 Q 222.77637,10 223.80762,10 q 0.78125,0 1.35938,0.3125 0.57812,0.296875 0.95312,0.890625 0.375,0.578125 0.59375,1.421875 0.21875,0.828125 0.21875,2.25 0,1.671875 -0.35937,2.703125 -0.34375,1.03125 -1.03125,1.59375 -0.67188,0.5625 -1.73438,0.5625 -1.375,0 -2.15625,-0.984375 -0.95312,-1.1875 -0.95312,-3.875 z m 1.20312,0 q 0,2.34375 0.54688,3.125 0.5625,0.78125 1.35937,0.78125 0.8125,0 1.35938,-0.78125 0.5625,-0.78125 0.5625,-3.125 0,-2.359375 -0.5625,-3.125 -0.54688,-0.78125 -1.35938,-0.78125 -0.8125,0 -1.29687,0.6875 -0.60938,0.875 -0.60938,3.21875 z" />
  <path
     style="fill:#000000;fill-rule:nonzero"
     inkscape:connector-curvature="0"
     id="path145"
     d="m 283.01513,19.578125 h -1.17188 v -7.46875 q -0.42187,0.40625 -1.10937,0.8125 -0.6875,0.40625 -1.23438,0.609375 V 12.390625 Q 280.48388,11.9375 281.21825,11.28125 281.95263,10.609375 282.2495,10 h 0.76563 z" />
  <path
     style="fill:#000000;fill-rule:nonzero"
     inkscape:connector-curvature="0"
     id="path149"
     d="m 341.75476,18.453125 v 1.125 h -6.29687 q -0.0156,-0.421875 0.14062,-0.8125 0.23438,-0.640625 0.76563,-1.265625 0.53125,-0.625 1.53125,-1.453125 1.5625,-1.265625 2.10937,-2.015625 0.54688,-0.75 0.54688,-1.40625 0,-0.703125 -0.5,-1.171875 -0.5,-0.484375 -1.29688,-0.484375 -0.85937,0 -1.375,0.515625 -0.5,0.5 -0.5,1.390625 l -1.20312,-0.109375 q 0.125,-1.359375 0.92187,-2.0625 Q 337.41101,10 338.77039,10 q 1.375,0 2.17187,0.765625 0.8125,0.75 0.8125,1.875 0,0.578125 -0.23437,1.140625 -0.23438,0.546875 -0.78125,1.15625 -0.54688,0.609375 -1.8125,1.671875 -1.04688,0.890625 -1.35938,1.21875 -0.29687,0.3125 -0.48437,0.625 z" />
  <path
     style="fill:#000000;fill-rule:nonzero"
     inkscape:connector-curvature="0"
     id="path153"
     d="m 392.61938,17.0625 1.17188,-0.15625 q 0.20312,1 0.6875,1.4375 0.48437,0.4375 1.17187,0.4375 0.82813,0 1.39063,-0.578125 0.57812,-0.578125 0.57812,-1.421875 0,-0.796875 -0.53125,-1.3125 -0.51562,-0.53125 -1.32812,-0.53125 -0.34375,0 -0.82813,0.125 l 0.125,-1.03125 q 0.125,0.01563 0.1875,0.01563 0.75,0 1.34375,-0.390625 0.60938,-0.390625 0.60938,-1.203125 0,-0.640625 -0.4375,-1.0625 -0.4375,-0.421875 -1.125,-0.421875 -0.6875,0 -1.14063,0.4375 -0.45312,0.421875 -0.59375,1.28125 l -1.17187,-0.21875 q 0.21875,-1.171875 0.98437,-1.8125 0.76563,-0.65625 1.89063,-0.65625 0.78125,0 1.4375,0.34375 0.65625,0.328125 1,0.90625 0.35937,0.578125 0.35937,1.234375 0,0.609375 -0.34375,1.125 -0.32812,0.5 -0.96875,0.796875 0.84375,0.203125 1.3125,0.828125 0.46875,0.609375 0.46875,1.53125 0,1.25 -0.92187,2.125 -0.90625,0.859375 -2.29688,0.859375 -1.25,0 -2.09375,-0.75 -0.82812,-0.75 -0.9375,-1.9375 z" />
  <path
     style="fill:#000000;fill-rule:nonzero"
     inkscape:connector-curvature="0"
     id="path157"
     d="m 453.37725,19.578125 v -2.28125 h -4.14063 V 16.21875 l 4.34375,-6.1875 h 0.96875 v 6.1875 h 1.28125 v 1.078125 h -1.28125 v 2.28125 z m 0,-3.359375 v -4.296875 l -2.98438,4.296875 z" />
  <path
     style="fill:#000000;fill-rule:nonzero"
     inkscape:connector-curvature="0"
     id="path161"
     d="M 130.51832,11.390625 V 10.03125 h 1.17187 v 1.359375 z m 0,8.1875 v -6.90625 h 1.17187 v 6.90625 z m 2.94547,0 v -6.90625 h 1.0625 v 0.984375 q 0.75,-1.140625 2.1875,-1.140625 0.625,0 1.15625,0.21875 0.53125,0.21875 0.78125,0.59375 0.26562,0.359375 0.375,0.859375 0.0625,0.328125 0.0625,1.140625 v 4.25 h -1.17188 V 15.375 q 0,-0.71875 -0.14062,-1.0625 -0.14063,-0.359375 -0.48438,-0.5625 -0.34375,-0.21875 -0.8125,-0.21875 -0.75,0 -1.29687,0.46875 -0.54688,0.46875 -0.54688,1.796875 v 3.78125 z m 11.89685,0 v -0.875 q -0.65625,1.03125 -1.9375,1.03125 -0.8125,0 -1.51563,-0.453125 -0.6875,-0.453125 -1.07812,-1.265625 -0.375,-0.828125 -0.375,-1.890625 0,-1.03125 0.34375,-1.875 0.34375,-0.84375 1.03125,-1.28125 0.70312,-0.453125 1.54687,-0.453125 0.625,0 1.10938,0.265625 0.5,0.25 0.79687,0.671875 V 10.03125 h 1.17188 v 9.546875 z M 141.65751,16.125 q 0,1.328125 0.5625,1.984375 0.5625,0.65625 1.32813,0.65625 0.76562,0 1.29687,-0.625 0.53125,-0.625 0.53125,-1.90625 0,-1.421875 -0.54687,-2.078125 -0.54688,-0.671875 -1.34375,-0.671875 -0.78125,0 -1.3125,0.640625 -0.51563,0.625 -0.51563,2 z m 11.3656,1.234375 1.20313,0.140625 q -0.28125,1.0625 -1.0625,1.65625 -0.76563,0.578125 -1.96875,0.578125 -1.51563,0 -2.40625,-0.9375 -0.89063,-0.9375 -0.89063,-2.609375 0,-1.75 0.89063,-2.703125 0.90625,-0.96875 2.34375,-0.96875 1.39062,0 2.26562,0.9375 0.875,0.9375 0.875,2.65625 0,0.109375 0,0.3125 h -5.15625 q 0.0625,1.140625 0.64063,1.75 0.57812,0.59375 1.4375,0.59375 0.65625,0 1.10937,-0.328125 0.45313,-0.34375 0.71875,-1.078125 z m -3.84375,-1.90625 h 3.85938 q -0.0781,-0.859375 -0.4375,-1.296875 -0.5625,-0.6875 -1.45313,-0.6875 -0.8125,0 -1.35937,0.546875 -0.54688,0.53125 -0.60938,1.4375 z m 5.7406,4.125 2.53125,-3.59375 -2.34375,-3.3125 h 1.46875 l 1.0625,1.609375 q 0.29688,0.46875 0.48438,0.78125 0.28125,-0.4375 0.51562,-0.765625 l 1.17188,-1.625 h 1.40625 l -2.39063,3.25 2.5625,3.65625 h -1.4375 l -1.42187,-2.140625 -0.375,-0.59375 -1.8125,2.734375 z" />
</svg>
